<svg xmlns="http://www.w3.org/2000/svg" viewBox="0 0 108.22 104.48"><defs><style>.cls-1{isolation:isolate;}.cls-2{fill:#d8cbc7;opacity:0.3;mix-blend-mode:multiply;}.cls-3{fill:#d98851;}.cls-4{fill:#f5bc6f;}.cls-5{fill:#ffd18d;}.cls-6{fill:#ffcf7a;}.cls-7{fill:#fcd495;}.cls-8{fill:#cf9975;}.cls-9{fill:#f1f2f2;}.cls-10{fill:#6d6e71;}</style></defs><g class="cls-1"><g id="Capa_2" data-name="Capa 2"><g id="Capa_1-2" data-name="Capa 1"><path class="cls-2" d="M106.68,66.32,40.87,103.63a8.08,8.08,0,0,1-7.25,0L1.51,85.08c-2-1.18-2-3.08,0-4.23L67.35,43.54a8.08,8.08,0,0,1,7.25,0L106.72,62.1C108.74,63.27,108.72,65.16,106.68,66.32Z"/><g class="cls-1"><polygon class="cls-3" points="36.86 62.46 36.86 63.6 36.88 63.62 36.88 62.47 36.86 62.46"/><polygon class="cls-4" points="36.88 62.47 36.88 63.62 39.63 62.03 39.62 60.88 36.88 62.47"/><polygon class="cls-5" points="39.6 60.87 36.86 62.46 36.88 62.47 39.62 60.88 39.6 60.87"/></g><g class="cls-1"><polygon class="cls-3" points="68.99 43.98 69 45.12 71.68 46.69 71.67 45.53 68.99 43.98"/><polygon class="cls-4" points="68.93 47.12 68.94 48.26 71.68 46.69 71.67 45.53 68.93 47.12"/><polygon class="cls-4" points="56.97 54.03 56.97 55.17 68.94 48.26 68.93 47.12 56.97 54.03"/><polygon class="cls-3" points="68.93 47.12 68.94 48.26 82.31 56.03 82.3 54.89 68.93 47.12"/><polygon class="cls-4" points="54.23 55.61 54.23 56.76 56.97 55.17 56.97 54.03 54.23 55.61"/><polygon class="cls-3" points="82.3 54.89 82.31 56.03 85.03 57.62 85.03 56.47 82.3 54.89"/><polygon class="cls-4" points="42.35 62.47 42.35 63.61 54.23 56.76 54.23 55.61 42.35 62.47"/><polygon class="cls-3" points="54.23 55.61 54.23 56.76 67.6 64.53 67.6 63.38 54.23 55.61"/><polygon class="cls-3" points="70.34 61.8 70.34 62.94 73.06 64.53 73.06 63.38 70.34 61.8"/><polygon class="cls-4" points="73.06 63.38 73.06 64.53 85.03 57.62 85.03 56.47 73.06 63.38"/><polygon class="cls-5" points="85.03 56.47 82.3 54.89 70.34 61.8 73.06 63.38 85.03 56.47"/><polygon class="cls-4" points="39.6 64.05 39.61 65.2 42.35 63.61 42.35 62.47 39.6 64.05"/><polygon class="cls-3" points="36.88 62.47 36.88 63.62 39.61 65.2 39.6 64.05 36.88 62.47"/><polygon class="cls-5" points="36.88 62.47 39.6 64.05 42.35 62.47 54.23 55.61 56.97 54.03 68.93 47.12 71.67 45.53 68.99 43.98 39.62 60.88 36.88 62.47"/><polygon class="cls-3" points="85.03 56.47 85.03 57.62 98.48 65.43 98.48 64.3 85.03 56.47"/><polygon class="cls-3" points="101.22 62.71 101.22 63.85 103.95 65.43 103.94 64.3 101.22 62.71"/><polygon class="cls-3" points="67.6 63.38 67.6 64.53 70.33 66.11 70.32 64.96 67.6 63.38"/><polygon class="cls-5" points="68.99 43.98 71.67 45.53 68.93 47.12 82.3 54.89 85.03 56.47 98.48 64.3 101.2 65.87 103.94 64.3 101.22 62.71 68.99 43.98"/><polygon class="cls-3" points="98.48 64.3 98.48 65.43 101.21 67.02 101.2 65.87 98.48 64.3"/><polygon class="cls-3" points="83.77 72.78 83.78 73.92 86.5 75.51 86.5 74.37 83.77 72.78"/><polygon class="cls-3" points="71.89 79.64 71.9 80.78 74.56 82.33 74.56 81.19 71.89 79.64"/><polygon class="cls-4" points="71.82 82.78 71.82 83.92 74.56 82.33 74.56 81.19 71.82 82.78"/><polygon class="cls-4" points="71.82 82.78 71.82 83.92 103.95 65.43 103.94 64.3 71.82 82.78"/><polygon class="cls-4" points="101.2 65.87 101.21 67.02 103.95 65.43 103.94 64.3 101.2 65.87"/><polygon class="cls-4" points="58.44 71.82 58.45 72.96 70.33 66.11 70.32 64.96 58.44 71.82"/><polygon class="cls-5" points="67.6 63.38 55.72 70.24 58.44 71.82 70.32 64.96 67.6 63.38"/><polygon class="cls-3" points="55.72 70.24 55.72 71.38 58.45 72.96 58.44 71.82 55.72 70.24"/><polygon class="cls-3" points="70.32 64.96 70.33 66.11 83.78 73.92 83.77 72.78 70.32 64.96"/><polygon class="cls-3" points="86.52 71.2 86.52 72.34 89.24 73.92 89.24 72.78 86.52 71.2"/><polygon class="cls-5" points="54.23 55.61 67.6 63.38 70.32 64.96 83.77 72.78 86.5 74.37 89.24 72.78 86.52 71.2 73.06 63.38 70.34 61.8 56.97 54.03 54.23 55.61"/><polygon class="cls-4" points="86.5 74.37 86.5 75.51 89.24 73.92 89.24 72.78 86.5 74.37"/><polygon class="cls-5" points="55.72 70.24 42.35 62.47 39.6 64.05 71.82 82.78 74.56 81.19 71.89 79.64 58.44 71.82 55.72 70.24"/><polygon class="cls-3" points="39.6 64.05 39.61 65.2 71.82 83.92 71.82 82.78 39.6 64.05"/><polygon class="cls-5" points="71.89 79.64 74.56 81.19 71.82 82.78 103.94 64.3 101.22 62.71 103.94 64.3 101.2 65.87 98.48 64.3 86.52 71.2 89.24 72.78 86.5 74.37 83.77 72.78 71.89 79.64"/></g><g class="cls-1"><polygon class="cls-3" points="36.86 59.2 36.87 62.64 36.89 62.65 36.88 59.21 36.86 59.2"/><polygon class="cls-4" points="36.88 59.21 36.89 62.65 39.63 61.07 39.62 57.64 36.88 59.21"/><polygon class="cls-3" points="39.62 57.64 39.63 61.07 42.35 62.65 42.34 59.21 39.62 57.64"/><polygon class="cls-4" points="39.6 60.8 39.61 64.24 42.35 62.65 42.34 59.21 39.6 60.8"/><polygon class="cls-5" points="36.88 59.21 39.6 60.8 42.34 59.21 39.62 57.64 36.88 59.21"/><polygon class="cls-3" points="36.88 59.21 36.89 62.65 39.61 64.24 39.6 60.8 36.88 59.21"/><polygon class="cls-4" points="39.6 60.8 39.61 64.24 42.35 62.65 42.34 59.21 39.6 60.8"/><polygon class="cls-5" points="36.86 59.2 36.88 59.21 39.62 57.64 42.34 59.21 39.6 60.8 42.34 59.21 39.6 57.63 36.86 59.2"/></g><g class="cls-1"><polygon class="cls-3" points="52.97 68.57 52.98 72.01 55.71 73.58 55.7 70.15 52.97 68.57"/><polygon class="cls-4" points="55.7 70.15 55.71 73.58 58.45 72.01 58.44 68.57 55.7 70.15"/><polygon class="cls-5" points="52.97 68.57 55.7 70.15 58.44 68.57 55.71 66.98 52.97 68.57"/></g><g class="cls-1"><polygon class="cls-3" points="69.15 77.97 69.16 81.41 71.82 82.96 71.81 79.52 69.15 77.97"/><polygon class="cls-4" points="71.81 79.52 71.82 82.96 74.56 81.37 74.55 77.93 71.81 79.52"/><polygon class="cls-5" points="69.15 77.97 71.81 79.52 74.55 77.93 71.89 76.39 69.15 77.97"/></g><g class="cls-1"><polygon class="cls-3" points="67.59 60.13 67.6 63.56 70.33 65.14 70.32 61.7 67.59 60.13"/><polygon class="cls-4" points="70.32 61.7 70.33 65.14 73.07 63.56 73.06 60.13 70.32 61.7"/><polygon class="cls-5" points="67.59 60.13 70.32 61.7 73.06 60.13 70.33 58.55 67.59 60.13"/></g><g class="cls-1"><polygon class="cls-3" points="83.77 69.52 83.78 72.96 86.5 74.55 86.5 71.11 83.77 69.52"/><polygon class="cls-4" points="86.5 71.11 86.5 74.55 89.24 72.96 89.23 69.52 86.5 71.11"/><polygon class="cls-5" points="83.77 69.52 86.5 71.11 89.23 69.52 86.51 67.95 83.77 69.52"/></g><g class="cls-1"><polygon class="cls-3" points="82.3 51.63 82.31 55.07 85.03 56.66 85.02 53.22 82.3 51.63"/><polygon class="cls-4" points="85.02 53.22 85.03 56.66 87.78 55.07 87.76 51.63 85.02 53.22"/><polygon class="cls-5" points="82.3 51.63 85.02 53.22 87.76 51.63 85.04 50.05 82.3 51.63"/></g><g class="cls-1"><polygon class="cls-3" points="98.48 61.04 98.49 64.48 101.21 66.05 101.2 62.62 98.48 61.04"/><polygon class="cls-4" points="101.2 62.62 101.21 66.05 103.95 64.48 103.94 61.04 101.2 62.62"/><polygon class="cls-5" points="98.48 61.04 101.2 62.62 103.94 61.04 101.22 59.45 98.48 61.04"/></g><g class="cls-1"><polygon class="cls-3" points="66.25 42.3 66.26 45.75 68.94 47.3 68.93 43.86 66.25 42.3"/><polygon class="cls-4" points="68.93 43.86 68.94 47.3 71.68 45.72 71.67 42.29 68.93 43.86"/><polygon class="cls-5" points="66.25 42.3 68.93 43.86 71.67 42.29 68.98 40.72 66.25 42.3"/></g><g class="cls-1"><polygon class="cls-3" points="51.54 50.8 51.55 54.23 54.23 55.79 54.22 52.36 51.54 50.8"/><polygon class="cls-4" points="54.22 52.36 54.23 55.79 56.97 54.22 56.96 50.77 54.22 52.36"/><polygon class="cls-5" points="51.54 50.8 54.22 52.36 56.96 50.77 54.28 49.22 51.54 50.8"/></g><g class="cls-1"><polygon class="cls-3" points="36.86 58.59 36.86 59.73 36.88 59.75 36.88 58.6 36.86 58.59"/><polygon class="cls-4" points="36.88 58.6 36.88 59.75 39.63 58.16 39.62 57.02 36.88 58.6"/><polygon class="cls-5" points="39.6 57.01 36.86 58.59 36.88 58.6 39.62 57.02 39.6 57.01"/></g><g class="cls-1"><polygon class="cls-3" points="68.99 40.11 69 41.26 71.68 42.82 71.67 41.67 68.99 40.11"/><polygon class="cls-4" points="68.93 43.25 68.94 44.4 71.68 42.82 71.67 41.67 68.93 43.25"/><polygon class="cls-4" points="56.97 50.16 56.97 51.3 68.94 44.4 68.93 43.25 56.97 50.16"/><polygon class="cls-3" points="68.93 43.25 68.94 44.4 82.31 52.17 82.3 51.03 68.93 43.25"/><polygon class="cls-4" points="54.23 51.74 54.23 52.89 56.97 51.3 56.97 50.16 54.23 51.74"/><polygon class="cls-3" points="82.3 51.03 82.31 52.17 85.03 53.75 85.03 52.61 82.3 51.03"/><polygon class="cls-4" points="42.35 58.6 42.35 59.75 54.23 52.89 54.23 51.74 42.35 58.6"/><polygon class="cls-3" points="54.23 51.74 54.23 52.89 67.6 60.66 67.6 59.51 54.23 51.74"/><polygon class="cls-3" points="70.34 57.94 70.34 59.08 73.06 60.66 73.06 59.51 70.34 57.94"/><polygon class="cls-4" points="73.06 59.51 73.06 60.66 85.03 53.75 85.03 52.61 73.06 59.51"/><polygon class="cls-5" points="85.03 52.61 82.3 51.03 70.34 57.94 73.06 59.51 85.03 52.61"/><polygon class="cls-4" points="39.6 60.19 39.61 61.33 42.35 59.75 42.35 58.6 39.6 60.19"/><polygon class="cls-3" points="36.88 58.6 36.88 59.75 39.61 61.33 39.6 60.19 36.88 58.6"/><polygon class="cls-5" points="36.88 58.6 39.6 60.19 42.35 58.6 54.23 51.74 56.97 50.16 68.93 43.25 71.67 41.67 68.99 40.11 39.62 57.02 36.88 58.6"/><polygon class="cls-3" points="85.03 52.61 85.03 53.75 98.48 61.57 98.48 60.43 85.03 52.61"/><polygon class="cls-3" points="101.22 58.84 101.22 59.98 103.95 61.57 103.94 60.43 101.22 58.84"/><polygon class="cls-3" points="67.6 59.51 67.6 60.66 70.33 62.24 70.32 61.09 67.6 59.51"/><polygon class="cls-5" points="68.99 40.11 71.67 41.67 68.93 43.25 82.3 51.03 85.03 52.61 98.48 60.43 101.2 62 103.94 60.43 101.22 58.84 68.99 40.11"/><polygon class="cls-3" points="98.48 60.43 98.48 61.57 101.21 63.15 101.2 62 98.48 60.43"/><polygon class="cls-3" points="83.77 68.92 83.78 70.06 86.5 71.64 86.5 70.5 83.77 68.92"/><polygon class="cls-3" points="71.89 75.78 71.9 76.92 74.56 78.47 74.56 77.32 71.89 75.78"/><polygon class="cls-4" points="71.82 78.91 71.82 80.05 74.56 78.47 74.56 77.32 71.82 78.91"/><polygon class="cls-4" points="71.82 78.91 71.82 80.05 103.95 61.57 103.94 60.43 71.82 78.91"/><polygon class="cls-4" points="101.2 62 101.21 63.15 103.95 61.57 103.94 60.43 101.2 62"/><polygon class="cls-4" points="58.44 67.96 58.45 69.1 70.33 62.24 70.32 61.09 58.44 67.96"/><polygon class="cls-5" points="67.6 59.51 55.72 66.37 58.44 67.96 70.32 61.09 67.6 59.51"/><polygon class="cls-3" points="55.72 66.37 55.72 67.52 58.45 69.1 58.44 67.96 55.72 66.37"/><polygon class="cls-3" points="70.32 61.09 70.33 62.24 83.78 70.06 83.77 68.92 70.32 61.09"/><polygon class="cls-3" points="86.52 67.33 86.52 68.48 89.24 70.06 89.24 68.92 86.52 67.33"/><polygon class="cls-5" points="54.23 51.74 67.6 59.51 70.32 61.09 83.77 68.92 86.5 70.5 89.24 68.92 86.52 67.33 73.06 59.51 70.34 57.94 56.97 50.16 54.23 51.74"/><polygon class="cls-4" points="86.5 70.5 86.5 71.64 89.24 70.06 89.24 68.92 86.5 70.5"/><polygon class="cls-5" points="55.72 66.37 42.35 58.6 39.6 60.19 71.82 78.91 74.56 77.32 71.89 75.78 58.44 67.96 55.72 66.37"/><polygon class="cls-3" points="39.6 60.19 39.61 61.33 71.82 80.05 71.82 78.91 39.6 60.19"/><polygon class="cls-5" points="71.89 75.78 74.56 77.32 71.82 78.91 103.94 60.43 101.22 58.84 103.94 60.43 101.2 62 98.48 60.43 86.52 67.33 89.24 68.92 86.5 70.5 83.77 68.92 71.89 75.78"/></g><g class="cls-1"><polygon class="cls-3" points="63.12 43.39 63.12 43.97 98.12 64.31 98.12 63.73 63.12 43.39"/><polygon class="cls-4" points="98.12 63.73 98.12 64.31 103.94 60.94 103.94 60.37 98.12 63.73"/><polygon class="cls-5" points="63.12 43.39 98.12 63.73 103.94 60.37 68.94 40.03 63.12 43.39"/></g><g class="cls-1"><polygon class="cls-3" points="56.56 47.18 56.56 47.76 91.56 68.09 91.56 67.51 56.56 47.18"/><polygon class="cls-4" points="91.56 67.51 91.56 68.09 97.37 64.73 97.37 64.16 91.56 67.51"/><polygon class="cls-5" points="56.56 47.18 91.56 67.51 97.37 64.16 62.37 43.82 56.56 47.18"/></g><g class="cls-1"><polygon class="cls-3" points="50 50.97 50 51.55 84.99 71.88 84.99 71.3 50 50.97"/><polygon class="cls-4" points="84.99 71.3 84.99 71.88 90.81 68.52 90.81 67.95 84.99 71.3"/><polygon class="cls-5" points="50 50.97 84.99 71.3 90.81 67.95 55.81 47.61 50 50.97"/></g><g class="cls-1"><polygon class="cls-3" points="43.44 54.75 43.44 55.34 78.43 75.67 78.43 75.1 43.44 54.75"/><polygon class="cls-4" points="78.43 75.1 78.43 75.67 84.25 72.31 84.25 71.74 78.43 75.1"/><polygon class="cls-5" points="43.44 54.75 78.43 75.1 84.25 71.74 49.25 51.4 43.44 54.75"/></g><g class="cls-1"><polygon class="cls-3" points="36.87 58.55 36.87 59.12 71.86 79.46 71.86 78.89 36.87 58.55"/><polygon class="cls-4" points="71.86 78.89 71.86 79.46 77.69 76.1 77.69 75.53 71.86 78.89"/><polygon class="cls-5" points="36.87 58.55 71.86 78.89 77.69 75.53 42.69 55.19 36.87 58.55"/></g><g class="cls-1"><polygon class="cls-3" points="36.88 56.91 36.88 58.06 36.9 58.07 36.9 56.93 36.88 56.91"/><polygon class="cls-4" points="36.9 56.93 36.9 58.07 39.65 56.48 39.64 55.34 36.9 56.93"/><polygon class="cls-5" points="39.62 55.33 36.88 56.91 36.9 56.93 39.64 55.34 39.62 55.33"/></g><g class="cls-1"><polygon class="cls-3" points="69.01 38.43 69.02 39.58 71.7 41.14 71.69 39.99 69.01 38.43"/><polygon class="cls-4" points="68.95 41.57 68.96 42.72 71.7 41.14 71.69 39.99 68.95 41.57"/><polygon class="cls-4" points="56.99 48.48 56.99 49.63 68.96 42.72 68.95 41.57 56.99 48.48"/><polygon class="cls-3" points="68.95 41.57 68.96 42.72 82.33 50.49 82.32 49.34 68.95 41.57"/><polygon class="cls-4" points="54.25 50.07 54.25 51.21 56.99 49.63 56.99 48.48 54.25 50.07"/><polygon class="cls-3" points="82.32 49.34 82.33 50.49 85.05 52.08 85.04 50.93 82.32 49.34"/><polygon class="cls-4" points="42.37 56.92 42.37 58.07 54.25 51.21 54.25 50.07 42.37 56.92"/><polygon class="cls-3" points="54.25 50.07 54.25 51.21 67.62 58.98 67.62 57.84 54.25 50.07"/><polygon class="cls-3" points="70.36 56.25 70.36 57.4 73.08 58.98 73.08 57.84 70.36 56.25"/><polygon class="cls-4" points="73.08 57.84 73.08 58.98 85.05 52.08 85.04 50.93 73.08 57.84"/><polygon class="cls-5" points="85.04 50.93 82.32 49.34 70.36 56.25 73.08 57.84 85.04 50.93"/><polygon class="cls-4" points="39.62 58.51 39.63 59.66 42.37 58.07 42.37 56.92 39.62 58.51"/><polygon class="cls-3" points="36.9 56.93 36.9 58.07 39.63 59.66 39.62 58.51 36.9 56.93"/><polygon class="cls-5" points="36.9 56.93 39.62 58.51 42.37 56.92 54.25 50.07 56.99 48.48 68.95 41.57 71.69 39.99 69.01 38.43 39.64 55.34 36.9 56.93"/><polygon class="cls-3" points="85.04 50.93 85.05 52.08 98.5 59.9 98.5 58.75 85.04 50.93"/><polygon class="cls-3" points="101.24 57.16 101.25 58.31 103.97 59.9 103.97 58.75 101.24 57.16"/><polygon class="cls-3" points="67.62 57.84 67.62 58.98 70.34 60.56 70.34 59.42 67.62 57.84"/><polygon class="cls-5" points="69.01 38.43 71.69 39.99 68.95 41.57 82.32 49.34 85.04 50.93 98.5 58.75 101.22 60.33 103.97 58.75 101.24 57.16 69.01 38.43"/><polygon class="cls-3" points="98.5 58.75 98.5 59.9 101.22 61.47 101.22 60.33 98.5 58.75"/><polygon class="cls-3" points="83.79 67.23 83.8 68.39 86.52 69.97 86.52 68.82 83.79 67.23"/><polygon class="cls-3" points="71.91 74.09 71.92 75.24 74.58 76.79 74.58 75.64 71.91 74.09"/><polygon class="cls-4" points="71.83 77.22 71.84 78.38 74.58 76.79 74.58 75.64 71.83 77.22"/><polygon class="cls-4" points="71.83 77.22 71.84 78.38 103.97 59.9 103.97 58.75 71.83 77.22"/><polygon class="cls-4" points="101.22 60.33 101.22 61.47 103.97 59.9 103.97 58.75 101.22 60.33"/><polygon class="cls-4" points="58.46 66.28 58.47 67.43 70.34 60.56 70.34 59.42 58.46 66.28"/><polygon class="cls-5" points="67.62 57.84 55.74 64.69 58.46 66.28 70.34 59.42 67.62 57.84"/><polygon class="cls-3" points="55.74 64.69 55.74 65.84 58.47 67.43 58.46 66.28 55.74 64.69"/><polygon class="cls-3" points="70.34 59.42 70.34 60.56 83.8 68.39 83.79 67.23 70.34 59.42"/><polygon class="cls-3" points="86.53 65.66 86.54 66.8 89.26 68.39 89.26 67.23 86.53 65.66"/><polygon class="cls-5" points="54.25 50.07 67.62 57.84 70.34 59.42 83.79 67.23 86.52 68.82 89.26 67.23 86.53 65.66 73.08 57.84 70.36 56.25 56.99 48.48 54.25 50.07"/><polygon class="cls-4" points="86.52 68.82 86.52 69.97 89.26 68.39 89.26 67.23 86.52 68.82"/><polygon class="cls-5" points="55.74 64.69 42.37 56.92 39.62 58.51 71.83 77.22 74.58 75.64 71.91 74.09 58.46 66.28 55.74 64.69"/><polygon class="cls-3" points="39.62 58.51 39.63 59.66 71.84 78.38 71.83 77.22 39.62 58.51"/><polygon class="cls-5" points="71.91 74.09 74.58 75.64 71.83 77.22 103.97 58.75 101.24 57.16 103.97 58.75 101.22 60.33 98.5 58.75 86.53 65.66 89.26 67.23 86.52 68.82 83.79 67.23 71.91 74.09"/></g><g class="cls-1"><polygon class="cls-3" points="36.87 53.66 36.88 57.09 36.91 57.11 36.9 53.67 36.87 53.66"/><polygon class="cls-4" points="36.9 53.67 36.91 57.11 39.65 55.53 39.64 52.09 36.9 53.67"/><polygon class="cls-3" points="39.64 52.09 39.65 55.53 42.37 57.11 42.36 53.67 39.64 52.09"/><polygon class="cls-4" points="39.62 55.26 39.63 58.69 42.37 57.11 42.36 53.67 39.62 55.26"/><polygon class="cls-5" points="36.9 53.67 39.62 55.26 42.36 53.67 39.64 52.09 36.9 53.67"/><polygon class="cls-3" points="36.9 53.67 36.91 57.11 39.63 58.69 39.62 55.26 36.9 53.67"/><polygon class="cls-4" points="39.62 55.26 39.63 58.69 42.37 57.11 42.36 53.67 39.62 55.26"/><polygon class="cls-5" points="36.87 53.66 36.9 53.67 39.64 52.09 42.36 53.67 39.62 55.26 42.36 53.67 39.62 52.08 36.87 53.66"/></g><g class="cls-1"><polygon class="cls-3" points="52.99 63.03 53 66.46 55.72 68.04 55.71 64.6 52.99 63.03"/><polygon class="cls-4" points="55.71 64.6 55.72 68.04 58.47 66.46 58.46 63.03 55.71 64.6"/><polygon class="cls-5" points="52.99 63.03 55.71 64.6 58.46 63.03 55.73 61.44 52.99 63.03"/></g><g class="cls-1"><polygon class="cls-3" points="69.17 72.42 69.18 75.86 71.84 77.41 71.83 73.98 69.17 72.42"/><polygon class="cls-4" points="71.83 73.98 71.84 77.41 74.58 75.83 74.57 72.39 71.83 73.98"/><polygon class="cls-5" points="69.17 72.42 71.83 73.98 74.57 72.39 71.91 70.85 69.17 72.42"/></g><g class="cls-1"><polygon class="cls-3" points="67.61 54.58 67.62 58.02 70.34 59.6 70.33 56.17 67.61 54.58"/><polygon class="cls-4" points="70.33 56.17 70.34 59.6 73.08 58.02 73.07 54.58 70.33 56.17"/><polygon class="cls-5" points="67.61 54.58 70.33 56.17 73.07 54.58 70.35 53 67.61 54.58"/></g><g class="cls-1"><polygon class="cls-3" points="83.79 63.98 83.8 67.43 86.52 69 86.51 65.57 83.79 63.98"/><polygon class="cls-4" points="86.51 65.57 86.52 69 89.26 67.43 89.25 63.98 86.51 65.57"/><polygon class="cls-5" points="83.79 63.98 86.51 65.57 89.25 63.98 86.53 62.4 83.79 63.98"/></g><g class="cls-1"><polygon class="cls-3" points="82.32 46.09 82.33 49.53 85.05 51.11 85.04 47.68 82.32 46.09"/><polygon class="cls-4" points="85.04 47.68 85.05 51.11 87.79 49.53 87.78 46.09 85.04 47.68"/><polygon class="cls-5" points="82.32 46.09 85.04 47.68 87.78 46.09 85.06 44.51 82.32 46.09"/></g><g class="cls-1"><polygon class="cls-3" points="98.5 55.5 98.51 58.93 101.23 60.51 101.22 57.08 98.5 55.5"/><polygon class="cls-4" points="101.22 57.08 101.23 60.51 103.97 58.93 103.96 55.5 101.22 57.08"/><polygon class="cls-5" points="98.5 55.5 101.22 57.08 103.96 55.5 101.24 53.91 98.5 55.5"/></g><g class="cls-1"><polygon class="cls-3" points="66.27 36.77 66.28 40.2 68.96 41.75 68.95 38.33 66.27 36.77"/><polygon class="cls-4" points="68.95 38.33 68.96 41.75 71.7 40.18 71.69 36.74 68.95 38.33"/><polygon class="cls-5" points="66.27 36.77 68.95 38.33 71.69 36.74 69 35.18 66.27 36.77"/></g><g class="cls-1"><polygon class="cls-3" points="51.56 45.26 51.57 48.7 54.25 50.25 54.24 46.81 51.56 45.26"/><polygon class="cls-4" points="54.24 46.81 54.25 50.25 56.99 48.67 56.98 45.23 54.24 46.81"/><polygon class="cls-5" points="51.56 45.26 54.24 46.81 56.98 45.23 54.3 43.67 51.56 45.26"/></g><g class="cls-1"><polygon class="cls-3" points="36.88 53.04 36.88 54.19 36.9 54.2 36.9 53.06 36.88 53.04"/><polygon class="cls-4" points="36.9 53.06 36.9 54.2 39.65 52.62 39.64 51.48 36.9 53.06"/><polygon class="cls-5" points="39.62 51.47 36.88 53.04 36.9 53.06 39.64 51.48 39.62 51.47"/></g><g class="cls-1"><polygon class="cls-3" points="69.01 34.58 69.02 35.71 71.7 37.27 71.69 36.13 69.01 34.58"/><polygon class="cls-4" points="68.95 37.71 68.96 38.86 71.7 37.27 71.69 36.13 68.95 37.71"/><polygon class="cls-4" points="56.99 44.62 56.99 45.77 68.96 38.86 68.95 37.71 56.99 44.62"/><polygon class="cls-3" points="68.95 37.71 68.96 38.86 82.33 46.63 82.32 45.48 68.95 37.71"/><polygon class="cls-4" points="54.25 46.2 54.25 47.35 56.99 45.77 56.99 44.62 54.25 46.2"/><polygon class="cls-3" points="82.32 45.48 82.33 46.63 85.05 48.21 85.04 47.06 82.32 45.48"/><polygon class="cls-4" points="42.37 53.06 42.37 54.2 54.25 47.35 54.25 46.2 42.37 53.06"/><polygon class="cls-3" points="54.25 46.2 54.25 47.35 67.62 55.11 67.62 53.97 54.25 46.2"/><polygon class="cls-3" points="70.36 52.39 70.36 53.54 73.08 55.11 73.08 53.97 70.36 52.39"/><polygon class="cls-4" points="73.08 53.97 73.08 55.11 85.05 48.21 85.04 47.06 73.08 53.97"/><polygon class="cls-5" points="85.04 47.06 82.32 45.48 70.36 52.39 73.08 53.97 85.04 47.06"/><polygon class="cls-4" points="39.62 54.65 39.63 55.79 42.37 54.2 42.37 53.06 39.62 54.65"/><polygon class="cls-3" points="36.9 53.06 36.9 54.2 39.63 55.79 39.62 54.65 36.9 53.06"/><polygon class="cls-5" points="36.9 53.06 39.62 54.65 42.37 53.06 54.25 46.2 56.99 44.62 68.95 37.71 71.69 36.13 69.01 34.58 39.64 51.48 36.9 53.06"/><polygon class="cls-3" points="85.04 47.06 85.05 48.21 98.5 56.03 98.5 54.88 85.04 47.06"/><polygon class="cls-3" points="101.24 53.3 101.25 54.45 103.97 56.03 103.97 54.88 101.24 53.3"/><polygon class="cls-3" points="67.62 53.97 67.62 55.11 70.34 56.7 70.34 55.56 67.62 53.97"/><polygon class="cls-5" points="69.01 34.58 71.69 36.13 68.95 37.71 82.32 45.48 85.04 47.06 98.5 54.88 101.22 56.47 103.97 54.88 101.24 53.3 69.01 34.58"/><polygon class="cls-3" points="98.5 54.88 98.5 56.03 101.22 57.61 101.22 56.47 98.5 54.88"/><polygon class="cls-3" points="83.79 63.38 83.8 64.52 86.52 66.1 86.52 64.95 83.79 63.38"/><polygon class="cls-3" points="71.91 70.23 71.92 71.38 74.58 72.92 74.58 71.78 71.91 70.23"/><polygon class="cls-4" points="71.83 73.36 71.84 74.51 74.58 72.92 74.58 71.78 71.83 73.36"/><polygon class="cls-4" points="71.83 73.36 71.84 74.51 103.97 56.03 103.97 54.88 71.83 73.36"/><polygon class="cls-4" points="101.22 56.47 101.22 57.61 103.97 56.03 103.97 54.88 101.22 56.47"/><polygon class="cls-4" points="58.46 62.41 58.47 63.56 70.34 56.7 70.34 55.56 58.46 62.41"/><polygon class="cls-5" points="67.62 53.97 55.74 60.83 58.46 62.41 70.34 55.56 67.62 53.97"/><polygon class="cls-3" points="55.74 60.83 55.74 61.98 58.47 63.56 58.46 62.41 55.74 60.83"/><polygon class="cls-3" points="70.34 55.56 70.34 56.7 83.8 64.52 83.79 63.38 70.34 55.56"/><polygon class="cls-3" points="86.53 61.79 86.54 62.93 89.26 64.52 89.26 63.38 86.53 61.79"/><polygon class="cls-5" points="54.25 46.2 67.62 53.97 70.34 55.56 83.79 63.38 86.52 64.95 89.26 63.38 86.53 61.79 73.08 53.97 70.36 52.39 56.99 44.62 54.25 46.2"/><polygon class="cls-4" points="86.52 64.95 86.52 66.1 89.26 64.52 89.26 63.38 86.52 64.95"/><polygon class="cls-5" points="55.74 60.83 42.37 53.06 39.62 54.65 71.83 73.36 74.58 71.78 71.91 70.23 58.46 62.41 55.74 60.83"/><polygon class="cls-3" points="39.62 54.65 39.63 55.79 71.84 74.51 71.83 73.36 39.62 54.65"/><polygon class="cls-5" points="71.91 70.23 74.58 71.78 71.83 73.36 103.97 54.88 101.24 53.3 103.97 54.88 101.22 56.47 98.5 54.88 86.53 61.79 89.26 63.38 86.52 64.95 83.79 63.38 71.91 70.23"/></g><g class="cls-1"><polygon class="cls-3" points="63.14 37.85 63.14 38.42 98.14 58.75 98.14 58.19 63.14 37.85"/><polygon class="cls-4" points="98.14 58.19 98.14 58.75 103.95 55.4 103.95 54.82 98.14 58.19"/><polygon class="cls-5" points="63.14 37.85 98.14 58.19 103.95 54.82 68.96 34.49 63.14 37.85"/></g><g class="cls-1"><polygon class="cls-3" points="56.58 41.64 56.58 42.21 91.58 62.55 91.57 61.98 56.58 41.64"/><polygon class="cls-4" points="91.57 61.98 91.58 62.55 97.39 59.19 97.39 58.61 91.57 61.98"/><polygon class="cls-5" points="56.58 41.64 91.57 61.98 97.39 58.61 62.39 38.27 56.58 41.64"/></g><g class="cls-1"><polygon class="cls-3" points="50.02 45.43 50.02 46 85.01 66.33 85.01 65.76 50.02 45.43"/><polygon class="cls-4" points="85.01 65.76 85.01 66.33 90.83 62.98 90.83 62.41 85.01 65.76"/><polygon class="cls-5" points="50.02 45.43 85.01 65.76 90.83 62.41 55.83 42.07 50.02 45.43"/></g><g class="cls-1"><polygon class="cls-3" points="43.45 49.22 43.45 49.79 78.45 70.12 78.45 69.55 43.45 49.22"/><polygon class="cls-4" points="78.45 69.55 78.45 70.12 84.27 66.77 84.26 66.2 78.45 69.55"/><polygon class="cls-5" points="43.45 49.22 78.45 69.55 84.26 66.2 49.27 45.86 43.45 49.22"/></g><g class="cls-1"><polygon class="cls-3" points="36.89 53.01 36.89 53.58 71.89 73.91 71.89 73.34 36.89 53.01"/><polygon class="cls-4" points="71.89 73.34 71.89 73.91 77.7 70.56 77.7 69.99 71.89 73.34"/><polygon class="cls-5" points="36.89 53.01 71.89 73.34 77.7 69.99 42.71 49.65 36.89 53.01"/></g><g class="cls-1"><polygon class="cls-3" points="36.96 51.25 36.97 52.4 36.98 52.41 36.98 51.26 36.96 51.25"/><polygon class="cls-4" points="36.98 51.26 36.98 52.41 39.73 50.82 39.72 49.68 36.98 51.26"/><polygon class="cls-5" points="39.7 49.66 36.96 51.25 36.98 51.26 39.72 49.68 39.7 49.66"/></g><g class="cls-1"><polygon class="cls-3" points="69.09 32.77 69.1 33.92 71.78 35.47 71.77 34.33 69.09 32.77"/><polygon class="cls-4" points="69.03 35.92 69.04 37.06 71.78 35.47 71.77 34.33 69.03 35.92"/><polygon class="cls-4" points="57.07 42.82 57.07 43.97 69.04 37.06 69.03 35.92 57.07 42.82"/><polygon class="cls-3" points="69.03 35.92 69.04 37.06 82.41 44.83 82.41 43.68 69.03 35.92"/><polygon class="cls-4" points="54.33 44.4 54.33 45.55 57.07 43.97 57.07 42.82 54.33 44.4"/><polygon class="cls-3" points="82.41 43.68 82.41 44.83 85.13 46.41 85.13 45.26 82.41 43.68"/><polygon class="cls-4" points="42.45 51.26 42.45 52.41 54.33 45.55 54.33 44.4 42.45 51.26"/><polygon class="cls-3" points="54.33 44.4 54.33 45.55 67.7 53.31 67.7 52.17 54.33 44.4"/><polygon class="cls-3" points="70.44 50.59 70.44 51.74 73.17 53.31 73.16 52.17 70.44 50.59"/><polygon class="cls-4" points="73.16 52.17 73.17 53.31 85.13 46.41 85.13 45.26 73.16 52.17"/><polygon class="cls-5" points="85.13 45.26 82.41 43.68 70.44 50.59 73.16 52.17 85.13 45.26"/><polygon class="cls-4" points="39.7 52.84 39.71 53.99 42.45 52.41 42.45 51.26 39.7 52.84"/><polygon class="cls-3" points="36.98 51.26 36.98 52.41 39.71 53.99 39.7 52.84 36.98 51.26"/><polygon class="cls-5" points="36.98 51.26 39.7 52.84 42.45 51.26 54.33 44.4 57.07 42.82 69.03 35.92 71.77 34.33 69.09 32.77 39.72 49.68 36.98 51.26"/><polygon class="cls-3" points="85.13 45.26 85.13 46.41 98.58 54.23 98.58 53.08 85.13 45.26"/><polygon class="cls-3" points="101.32 51.5 101.33 52.65 104.05 54.23 104.05 53.08 101.32 51.5"/><polygon class="cls-3" points="67.7 52.17 67.7 53.31 70.43 54.9 70.42 53.76 67.7 52.17"/><polygon class="cls-5" points="69.09 32.77 71.77 34.33 69.03 35.92 82.41 43.68 85.13 45.26 98.58 53.08 101.31 54.67 104.05 53.08 101.32 51.5 69.09 32.77"/><polygon class="cls-3" points="98.58 53.08 98.58 54.23 101.31 55.81 101.31 54.67 98.58 53.08"/><polygon class="cls-3" points="83.88 61.58 83.88 62.72 86.6 64.31 86.6 63.15 83.88 61.58"/><polygon class="cls-3" points="72 68.43 72 69.58 74.67 71.13 74.66 69.98 72 68.43"/><polygon class="cls-4" points="71.91 71.56 71.92 72.71 74.67 71.13 74.66 69.98 71.91 71.56"/><polygon class="cls-4" points="71.91 71.56 71.92 72.71 104.05 54.23 104.05 53.08 71.91 71.56"/><polygon class="cls-4" points="101.31 54.67 101.31 55.81 104.05 54.23 104.05 53.08 101.31 54.67"/><polygon class="cls-4" points="58.54 60.61 58.55 61.76 70.43 54.9 70.42 53.76 58.54 60.61"/><polygon class="cls-5" points="67.7 52.17 55.82 59.04 58.54 60.61 70.42 53.76 67.7 52.17"/><polygon class="cls-3" points="55.82 59.04 55.82 60.18 58.55 61.76 58.54 60.61 55.82 59.04"/><polygon class="cls-3" points="70.42 53.76 70.43 54.9 83.88 62.72 83.88 61.58 70.42 53.76"/><polygon class="cls-3" points="86.61 59.99 86.62 61.13 89.35 62.72 89.34 61.58 86.61 59.99"/><polygon class="cls-5" points="54.33 44.4 67.7 52.17 70.42 53.76 83.88 61.58 86.6 63.15 89.34 61.58 86.61 59.99 73.16 52.17 70.44 50.59 57.07 42.82 54.33 44.4"/><polygon class="cls-4" points="86.6 63.15 86.6 64.31 89.35 62.72 89.34 61.58 86.6 63.15"/><polygon class="cls-5" points="55.82 59.04 42.45 51.26 39.7 52.84 71.91 71.56 74.66 69.98 72 68.43 58.54 60.61 55.82 59.04"/><polygon class="cls-3" points="39.7 52.84 39.71 53.99 71.92 72.71 71.91 71.56 39.7 52.84"/><polygon class="cls-5" points="72 68.43 74.66 69.98 71.91 71.56 104.05 53.08 101.32 51.5 104.05 53.08 101.31 54.67 98.58 53.08 86.61 59.99 89.34 61.58 86.6 63.15 83.88 61.58 72 68.43"/></g><g class="cls-1"><polygon class="cls-3" points="36.95 48 36.97 51.43 36.99 51.45 36.97 48.01 36.95 48"/><polygon class="cls-4" points="36.97 48.01 36.99 51.45 39.73 49.86 39.72 46.42 36.97 48.01"/><polygon class="cls-3" points="39.72 46.42 39.73 49.86 42.45 51.45 42.44 48.01 39.72 46.42"/><polygon class="cls-4" points="39.7 49.59 39.71 53.02 42.45 51.45 42.44 48.01 39.7 49.59"/><polygon class="cls-5" points="36.97 48.01 39.7 49.59 42.44 48.01 39.72 46.42 36.97 48.01"/><polygon class="cls-3" points="36.97 48.01 36.99 51.45 39.71 53.02 39.7 49.59 36.97 48.01"/><polygon class="cls-4" points="39.7 49.59 39.71 53.02 42.45 51.45 42.44 48.01 39.7 49.59"/><polygon class="cls-5" points="36.95 48 36.97 48.01 39.72 46.42 42.44 48.01 39.7 49.59 42.44 48.01 39.7 46.41 36.95 48"/></g><g class="cls-1"><polygon class="cls-3" points="53.07 57.36 53.08 60.8 55.8 62.38 55.79 58.95 53.07 57.36"/><polygon class="cls-4" points="55.79 58.95 55.8 62.38 58.55 60.8 58.54 57.36 55.79 58.95"/><polygon class="cls-5" points="53.07 57.36 55.79 58.95 58.54 57.36 55.81 55.78 53.07 57.36"/></g><g class="cls-1"><polygon class="cls-3" points="69.25 66.77 69.26 70.2 71.92 71.75 71.91 68.32 69.25 66.77"/><polygon class="cls-4" points="71.91 68.32 71.92 71.75 74.67 70.17 74.65 66.73 71.91 68.32"/><polygon class="cls-5" points="69.25 66.77 71.91 68.32 74.65 66.73 71.99 65.18 69.25 66.77"/></g><g class="cls-1"><polygon class="cls-3" points="67.7 48.92 67.7 52.36 70.43 53.94 70.42 50.5 67.7 48.92"/><polygon class="cls-4" points="70.42 50.5 70.43 53.94 73.17 52.36 73.16 48.92 70.42 50.5"/><polygon class="cls-5" points="67.7 48.92 70.42 50.5 73.16 48.92 70.44 47.34 67.7 48.92"/></g><g class="cls-1"><polygon class="cls-3" points="83.88 58.32 83.88 61.76 86.61 63.34 86.6 59.91 83.88 58.32"/><polygon class="cls-4" points="86.6 59.91 86.61 63.34 89.35 61.76 89.34 58.32 86.6 59.91"/><polygon class="cls-5" points="83.88 58.32 86.6 59.91 89.34 58.32 86.61 56.74 83.88 58.32"/></g><g class="cls-1"><polygon class="cls-3" points="82.4 40.43 82.41 43.86 85.13 45.45 85.12 42.02 82.4 40.43"/><polygon class="cls-4" points="85.12 42.02 85.13 45.45 87.87 43.86 87.86 40.43 85.12 42.02"/><polygon class="cls-5" points="82.4 40.43 85.12 42.02 87.86 40.43 85.14 38.84 82.4 40.43"/></g><g class="cls-1"><polygon class="cls-3" points="98.58 49.83 98.59 53.27 101.31 54.85 101.3 51.41 98.58 49.83"/><polygon class="cls-4" points="101.3 51.41 101.31 54.85 104.05 53.27 104.04 49.83 101.3 51.41"/><polygon class="cls-5" points="98.58 49.83 101.3 51.41 104.04 49.83 101.32 48.25 98.58 49.83"/></g><g class="cls-1"><polygon class="cls-3" points="66.35 31.1 66.36 34.54 69.04 36.09 69.03 32.66 66.35 31.1"/><polygon class="cls-4" points="69.03 32.66 69.04 36.09 71.78 34.52 71.77 31.07 69.03 32.66"/><polygon class="cls-5" points="66.35 31.1 69.03 32.66 71.77 31.07 69.09 29.52 66.35 31.1"/></g><g class="cls-1"><polygon class="cls-3" points="51.64 39.59 51.65 43.03 54.33 44.59 54.32 41.15 51.64 39.59"/><polygon class="cls-4" points="54.32 41.15 54.33 44.59 57.07 43 57.06 39.57 54.32 41.15"/><polygon class="cls-5" points="51.64 39.59 54.32 41.15 57.06 39.57 54.38 38.01 51.64 39.59"/></g><g class="cls-1"><polygon class="cls-3" points="36.96 47.39 36.97 48.53 36.98 48.54 36.98 47.4 36.96 47.39"/><polygon class="cls-4" points="36.98 47.4 36.98 48.54 39.73 46.97 39.72 45.81 36.98 47.4"/><polygon class="cls-5" points="39.7 45.8 36.96 47.39 36.98 47.4 39.72 45.81 39.7 45.8"/></g><g class="cls-1"><polygon class="cls-3" points="69.09 28.91 69.1 30.05 71.78 31.61 71.77 30.47 69.09 28.91"/><polygon class="cls-4" points="69.03 32.05 69.04 33.19 71.78 31.61 71.77 30.47 69.03 32.05"/><polygon class="cls-4" points="57.07 38.95 57.07 40.1 69.04 33.19 69.03 32.05 57.07 38.95"/><polygon class="cls-3" points="69.03 32.05 69.04 33.19 82.41 40.96 82.41 39.82 69.03 32.05"/><polygon class="cls-4" points="54.33 40.54 54.33 41.69 57.07 40.1 57.07 38.95 54.33 40.54"/><polygon class="cls-3" points="82.41 39.82 82.41 40.96 85.13 42.55 85.13 41.4 82.41 39.82"/><polygon class="cls-4" points="42.45 47.4 42.45 48.54 54.33 41.69 54.33 40.54 42.45 47.4"/><polygon class="cls-3" points="54.33 40.54 54.33 41.69 67.7 49.46 67.7 48.31 54.33 40.54"/><polygon class="cls-3" points="70.44 46.72 70.44 47.87 73.17 49.46 73.16 48.31 70.44 46.72"/><polygon class="cls-4" points="73.16 48.31 73.17 49.46 85.13 42.55 85.13 41.4 73.16 48.31"/><polygon class="cls-5" points="85.13 41.4 82.41 39.82 70.44 46.72 73.16 48.31 85.13 41.4"/><polygon class="cls-4" points="39.7 48.98 39.71 50.13 42.45 48.54 42.45 47.4 39.7 48.98"/><polygon class="cls-3" points="36.98 47.4 36.98 48.54 39.71 50.13 39.7 48.98 36.98 47.4"/><polygon class="cls-5" points="36.98 47.4 39.7 48.98 42.45 47.4 54.33 40.54 57.07 38.95 69.03 32.05 71.77 30.47 69.09 28.91 39.72 45.81 36.98 47.4"/><polygon class="cls-3" points="85.13 41.4 85.13 42.55 98.58 50.37 98.58 49.22 85.13 41.4"/><polygon class="cls-3" points="101.32 47.64 101.33 48.78 104.05 50.37 104.05 49.22 101.32 47.64"/><polygon class="cls-3" points="67.7 48.31 67.7 49.46 70.43 51.03 70.42 49.89 67.7 48.31"/><polygon class="cls-5" points="69.09 28.91 71.77 30.47 69.03 32.05 82.41 39.82 85.13 41.4 98.58 49.22 101.31 50.8 104.05 49.22 101.32 47.64 69.09 28.91"/><polygon class="cls-3" points="98.58 49.22 98.58 50.37 101.31 51.95 101.31 50.8 98.58 49.22"/><polygon class="cls-3" points="83.88 57.71 83.88 58.85 86.6 60.44 86.6 59.29 83.88 57.71"/><polygon class="cls-3" points="72 64.57 72 65.72 74.67 67.26 74.66 66.11 72 64.57"/><polygon class="cls-4" points="71.91 67.7 71.92 68.85 74.67 67.26 74.66 66.11 71.91 67.7"/><polygon class="cls-4" points="71.91 67.7 71.92 68.85 104.05 50.37 104.05 49.22 71.91 67.7"/><polygon class="cls-4" points="101.31 50.8 101.31 51.95 104.05 50.37 104.05 49.22 101.31 50.8"/><polygon class="cls-4" points="58.54 56.75 58.55 57.9 70.43 51.03 70.42 49.89 58.54 56.75"/><polygon class="cls-5" points="67.7 48.31 55.82 55.17 58.54 56.75 70.42 49.89 67.7 48.31"/><polygon class="cls-3" points="55.82 55.17 55.82 56.31 58.55 57.9 58.54 56.75 55.82 55.17"/><polygon class="cls-3" points="70.42 49.89 70.43 51.03 83.88 58.85 83.88 57.71 70.42 49.89"/><polygon class="cls-3" points="86.61 56.13 86.62 57.27 89.35 58.85 89.34 57.71 86.61 56.13"/><polygon class="cls-5" points="54.33 40.54 67.7 48.31 70.42 49.89 83.88 57.71 86.6 59.29 89.34 57.71 86.61 56.13 73.16 48.31 70.44 46.72 57.07 38.95 54.33 40.54"/><polygon class="cls-4" points="86.6 59.29 86.6 60.44 89.35 58.85 89.34 57.71 86.6 59.29"/><polygon class="cls-5" points="55.82 55.17 42.45 47.4 39.7 48.98 71.91 67.7 74.66 66.11 72 64.57 58.54 56.75 55.82 55.17"/><polygon class="cls-3" points="39.7 48.98 39.71 50.13 71.92 68.85 71.91 67.7 39.7 48.98"/><polygon class="cls-5" points="72 64.57 74.66 66.11 71.91 67.7 104.05 49.22 101.32 47.64 104.05 49.22 101.31 50.8 98.58 49.22 86.61 56.13 89.34 57.71 86.6 59.29 83.88 57.71 72 64.57"/></g><g class="cls-1"><polygon class="cls-3" points="63.23 32.19 63.23 32.76 98.22 53.09 98.22 52.52 63.23 32.19"/><polygon class="cls-4" points="98.22 52.52 98.22 53.09 104.04 49.74 104.04 49.17 98.22 52.52"/><polygon class="cls-5" points="63.23 32.19 98.22 52.52 104.04 49.17 69.04 28.83 63.23 32.19"/></g><g class="cls-1"><polygon class="cls-3" points="56.66 35.98 56.66 36.54 91.66 56.88 91.66 56.31 56.66 35.98"/><polygon class="cls-4" points="91.66 56.31 91.66 56.88 97.47 53.53 97.47 52.96 91.66 56.31"/><polygon class="cls-5" points="56.66 35.98 91.66 56.31 97.47 52.96 62.48 32.62 56.66 35.98"/></g><g class="cls-1"><polygon class="cls-3" points="50.1 39.77 50.1 40.34 85.09 60.67 85.09 60.1 50.1 39.77"/><polygon class="cls-4" points="85.09 60.1 85.09 60.67 90.91 57.32 90.91 56.75 85.09 60.1"/><polygon class="cls-5" points="50.1 39.77 85.09 60.1 90.91 56.75 55.91 36.41 50.1 39.77"/></g><g class="cls-1"><polygon class="cls-3" points="43.54 43.55 43.54 44.12 78.53 64.46 78.53 63.89 43.54 43.55"/><polygon class="cls-4" points="78.53 63.89 78.53 64.46 84.35 61.1 84.34 60.53 78.53 63.89"/><polygon class="cls-5" points="43.54 43.55 78.53 63.89 84.34 60.53 49.35 40.2 43.54 43.55"/></g><g class="cls-1"><polygon class="cls-3" points="36.97 47.34 36.97 47.91 71.97 68.25 71.97 67.68 36.97 47.34"/><polygon class="cls-4" points="71.97 67.68 71.97 68.25 77.79 64.89 77.78 64.32 71.97 67.68"/><polygon class="cls-5" points="36.97 47.34 71.97 67.68 77.78 64.32 42.79 43.99 36.97 47.34"/></g><g class="cls-1"><polygon class="cls-3" points="1.74 81.58 1.74 82.74 1.76 82.75 1.75 81.59 1.74 81.58"/><polygon class="cls-4" points="1.75 81.59 1.76 82.75 4.5 81.16 4.5 80.01 1.75 81.59"/><polygon class="cls-5" points="4.48 80 1.74 81.58 1.75 81.59 4.5 80.01 4.48 80"/></g><g class="cls-1"><polygon class="cls-3" points="33.87 63.11 33.87 64.25 36.55 65.81 36.55 64.66 33.87 63.11"/><polygon class="cls-4" points="33.81 66.25 33.81 67.4 36.55 65.81 36.55 64.66 33.81 66.25"/><polygon class="cls-4" points="21.84 73.16 21.85 74.3 33.81 67.4 33.81 66.25 21.84 73.16"/><polygon class="cls-3" points="33.81 66.25 33.81 67.4 47.18 75.17 47.18 74.02 33.81 66.25"/><polygon class="cls-4" points="19.1 74.74 19.11 75.88 21.85 74.3 21.84 73.16 19.1 74.74"/><polygon class="cls-3" points="47.18 74.02 47.18 75.17 49.91 76.74 49.9 75.6 47.18 74.02"/><polygon class="cls-4" points="7.22 81.59 7.22 82.75 19.11 75.88 19.1 74.74 7.22 81.59"/><polygon class="cls-3" points="19.1 74.74 19.11 75.88 32.47 83.66 32.47 82.52 19.1 74.74"/><polygon class="cls-3" points="35.22 80.93 35.22 82.07 37.94 83.66 37.94 82.52 35.22 80.93"/><polygon class="cls-4" points="37.94 82.52 37.94 83.66 49.91 76.74 49.9 75.6 37.94 82.52"/><polygon class="cls-5" points="49.9 75.6 47.18 74.02 35.22 80.93 37.94 82.52 49.9 75.6"/><polygon class="cls-4" points="4.48 83.18 4.48 84.33 7.22 82.75 7.22 81.59 4.48 83.18"/><polygon class="cls-3" points="1.75 81.59 1.76 82.75 4.48 84.33 4.48 83.18 1.75 81.59"/><polygon class="cls-5" points="1.75 81.59 4.48 83.18 7.22 81.59 19.1 74.74 21.84 73.16 33.81 66.25 36.55 64.66 33.87 63.11 4.5 80.01 1.75 81.59"/><polygon class="cls-3" points="49.9 75.6 49.91 76.74 63.36 84.56 63.36 83.42 49.9 75.6"/><polygon class="cls-3" points="66.1 81.84 66.1 82.98 68.82 84.56 68.82 83.42 66.1 81.84"/><polygon class="cls-3" points="32.47 82.52 32.47 83.66 35.2 85.24 35.2 84.09 32.47 82.52"/><polygon class="cls-5" points="33.87 63.11 36.55 64.66 33.81 66.25 47.18 74.02 49.9 75.6 63.36 83.42 66.08 85.01 68.82 83.42 66.1 81.84 33.87 63.11"/><polygon class="cls-3" points="63.36 83.42 63.36 84.56 66.08 86.15 66.08 85.01 63.36 83.42"/><polygon class="cls-3" points="48.65 91.91 48.66 93.06 51.38 94.64 51.38 93.49 48.65 91.91"/><polygon class="cls-3" points="36.77 98.77 36.78 99.91 39.44 101.46 39.43 100.31 36.77 98.77"/><polygon class="cls-4" points="36.69 101.9 36.69 103.05 39.44 101.46 39.43 100.31 36.69 101.9"/><polygon class="cls-4" points="36.69 101.9 36.69 103.05 68.82 84.56 68.82 83.42 36.69 101.9"/><polygon class="cls-4" points="66.08 85.01 66.08 86.15 68.82 84.56 68.82 83.42 66.08 85.01"/><polygon class="cls-4" points="23.32 90.95 23.32 92.09 35.2 85.24 35.2 84.09 23.32 90.95"/><polygon class="cls-5" points="32.47 82.52 20.6 89.37 23.32 90.95 35.2 84.09 32.47 82.52"/><polygon class="cls-3" points="20.6 89.37 20.6 90.52 23.32 92.09 23.32 90.95 20.6 89.37"/><polygon class="cls-3" points="35.2 84.09 35.2 85.24 48.66 93.06 48.65 91.91 35.2 84.09"/><polygon class="cls-3" points="51.39 90.32 51.4 91.47 54.12 93.06 54.12 91.91 51.39 90.32"/><polygon class="cls-5" points="19.1 74.74 32.47 82.52 35.2 84.09 48.65 91.91 51.38 93.49 54.12 91.91 51.39 90.32 37.94 82.52 35.22 80.93 21.84 73.16 19.1 74.74"/><polygon class="cls-4" points="51.38 93.49 51.38 94.64 54.12 93.06 54.12 91.91 51.38 93.49"/><polygon class="cls-5" points="20.6 89.37 7.22 81.59 4.48 83.18 36.69 101.9 39.43 100.31 36.77 98.77 23.32 90.95 20.6 89.37"/><polygon class="cls-3" points="4.48 83.18 4.48 84.33 36.69 103.05 36.69 101.9 4.48 83.18"/><polygon class="cls-5" points="36.77 98.77 39.43 100.31 36.69 101.9 68.82 83.42 66.1 81.84 68.82 83.42 66.08 85.01 63.36 83.42 51.39 90.32 54.12 91.91 51.38 93.49 48.65 91.91 36.77 98.77"/></g><g class="cls-1"><polygon class="cls-3" points="1.73 78.34 1.74 81.77 1.76 81.78 1.75 78.35 1.73 78.34"/><polygon class="cls-4" points="1.75 78.35 1.76 81.78 4.5 80.21 4.49 76.76 1.75 78.35"/><polygon class="cls-3" points="4.49 76.76 4.5 80.21 7.22 81.78 7.21 78.35 4.49 76.76"/><polygon class="cls-4" points="4.47 79.93 4.48 83.37 7.22 81.78 7.21 78.35 4.47 79.93"/><polygon class="cls-5" points="1.75 78.35 4.47 79.93 7.21 78.35 4.49 76.76 1.75 78.35"/><polygon class="cls-3" points="1.75 78.35 1.76 81.78 4.48 83.37 4.47 79.93 1.75 78.35"/><polygon class="cls-4" points="4.47 79.93 4.48 83.37 7.22 81.78 7.21 78.35 4.47 79.93"/><polygon class="cls-5" points="1.73 78.34 1.75 78.35 4.49 76.76 7.21 78.35 4.47 79.93 7.21 78.35 4.47 76.75 1.73 78.34"/></g><g class="cls-1"><polygon class="cls-3" points="17.85 87.7 17.86 91.13 20.58 92.72 20.57 89.28 17.85 87.7"/><polygon class="cls-4" points="20.57 89.28 20.58 92.72 23.32 91.13 23.31 87.7 20.57 89.28"/><polygon class="cls-5" points="17.85 87.7 20.57 89.28 23.31 87.7 20.59 86.12 17.85 87.7"/></g><g class="cls-1"><polygon class="cls-3" points="34.03 97.1 34.04 100.54 36.7 102.09 36.69 98.65 34.03 97.1"/><polygon class="cls-4" points="36.69 98.65 36.7 102.09 39.44 100.5 39.43 97.07 36.69 98.65"/><polygon class="cls-5" points="34.03 97.1 36.69 98.65 39.43 97.07 36.77 95.52 34.03 97.1"/></g><g class="cls-1"><polygon class="cls-3" points="32.47 79.26 32.48 82.7 35.2 84.27 35.19 80.84 32.47 79.26"/><polygon class="cls-4" points="35.19 80.84 35.2 84.27 37.94 82.7 37.93 79.26 35.19 80.84"/><polygon class="cls-5" points="32.47 79.26 35.19 80.84 37.93 79.26 35.21 77.67 32.47 79.26"/></g><g class="cls-1"><polygon class="cls-3" points="48.64 88.66 48.66 92.09 51.38 93.68 51.37 90.24 48.64 88.66"/><polygon class="cls-4" points="51.37 90.24 51.38 93.68 54.12 92.09 54.11 88.66 51.37 90.24"/><polygon class="cls-5" points="48.64 88.66 51.37 90.24 54.11 88.66 51.39 87.08 48.64 88.66"/></g><g class="cls-1"><polygon class="cls-3" points="47.17 70.77 47.19 74.2 49.91 75.79 49.9 72.34 47.17 70.77"/><polygon class="cls-4" points="49.9 72.34 49.91 75.79 52.65 74.2 52.64 70.77 49.9 72.34"/><polygon class="cls-5" points="47.17 70.77 49.9 72.34 52.64 70.77 49.91 69.18 47.17 70.77"/></g><g class="cls-1"><polygon class="cls-3" points="63.35 80.16 63.36 83.61 66.08 85.19 66.08 81.75 63.35 80.16"/><polygon class="cls-4" points="66.08 81.75 66.08 85.19 68.83 83.61 68.82 80.16 66.08 81.75"/><polygon class="cls-5" points="63.35 80.16 66.08 81.75 68.82 80.16 66.1 78.59 63.35 80.16"/></g><g class="cls-1"><polygon class="cls-3" points="31.12 61.43 31.13 64.87 33.81 66.43 33.8 63 31.12 61.43"/><polygon class="cls-4" points="33.8 63 33.81 66.43 36.55 64.84 36.55 61.41 33.8 63"/><polygon class="cls-5" points="31.12 61.43 33.8 63 36.55 61.41 33.86 59.86 31.12 61.43"/></g><g class="cls-1"><polygon class="cls-3" points="16.41 69.93 16.43 73.36 19.11 74.93 19.1 71.48 16.41 69.93"/><polygon class="cls-4" points="19.1 71.48 19.11 74.93 21.85 73.34 21.84 69.9 19.1 71.48"/><polygon class="cls-5" points="16.41 69.93 19.1 71.48 21.84 69.9 19.16 68.34 16.41 69.93"/></g><g class="cls-1"><polygon class="cls-3" points="1.74 77.72 1.74 78.87 1.76 78.88 1.75 77.74 1.74 77.72"/><polygon class="cls-4" points="1.75 77.74 1.76 78.88 4.5 77.29 4.5 76.15 1.75 77.74"/><polygon class="cls-5" points="4.48 76.13 1.74 77.72 1.75 77.74 4.5 76.15 4.48 76.13"/></g><g class="cls-1"><polygon class="cls-3" points="33.87 59.24 33.87 60.39 36.55 61.95 36.55 60.8 33.87 59.24"/><polygon class="cls-4" points="33.81 62.38 33.81 63.53 36.55 61.95 36.55 60.8 33.81 62.38"/><polygon class="cls-4" points="21.84 69.29 21.85 70.44 33.81 63.53 33.81 62.38 21.84 69.29"/><polygon class="cls-3" points="33.81 62.38 33.81 63.53 47.18 71.3 47.18 70.15 33.81 62.38"/><polygon class="cls-4" points="19.1 70.88 19.11 72.02 21.85 70.44 21.84 69.29 19.1 70.88"/><polygon class="cls-3" points="47.18 70.15 47.18 71.3 49.91 72.89 49.9 71.74 47.18 70.15"/><polygon class="cls-4" points="7.22 77.73 7.22 78.88 19.11 72.02 19.1 70.88 7.22 77.73"/><polygon class="cls-3" points="19.1 70.88 19.11 72.02 32.47 79.79 32.47 78.65 19.1 70.88"/><polygon class="cls-3" points="35.22 77.06 35.22 78.21 37.94 79.79 37.94 78.65 35.22 77.06"/><polygon class="cls-4" points="37.94 78.65 37.94 79.79 49.91 72.89 49.9 71.74 37.94 78.65"/><polygon class="cls-5" points="49.9 71.74 47.18 70.15 35.22 77.06 37.94 78.65 49.9 71.74"/><polygon class="cls-4" points="4.48 79.31 4.48 80.47 7.22 78.88 7.22 77.73 4.48 79.31"/><polygon class="cls-3" points="1.75 77.74 1.76 78.88 4.48 80.47 4.48 79.31 1.75 77.74"/><polygon class="cls-5" points="1.75 77.74 4.48 79.31 7.22 77.73 19.1 70.88 21.84 69.29 33.81 62.38 36.55 60.8 33.87 59.24 4.5 76.15 1.75 77.74"/><polygon class="cls-3" points="49.9 71.74 49.91 72.89 63.36 80.7 63.36 79.56 49.9 71.74"/><polygon class="cls-3" points="66.1 77.97 66.1 79.12 68.82 80.7 68.82 79.56 66.1 77.97"/><polygon class="cls-3" points="32.47 78.65 32.47 79.79 35.2 81.37 35.2 80.23 32.47 78.65"/><polygon class="cls-5" points="33.87 59.24 36.55 60.8 33.81 62.38 47.18 70.15 49.9 71.74 63.36 79.56 66.08 81.14 68.82 79.56 66.1 77.97 33.87 59.24"/><polygon class="cls-3" points="63.36 79.56 63.36 80.7 66.08 82.28 66.08 81.14 63.36 79.56"/><polygon class="cls-3" points="48.65 88.04 48.66 89.19 51.38 90.78 51.38 89.63 48.65 88.04"/><polygon class="cls-3" points="36.77 94.9 36.78 96.05 39.44 97.6 39.43 96.45 36.77 94.9"/><polygon class="cls-4" points="36.69 98.03 36.69 99.19 39.44 97.6 39.43 96.45 36.69 98.03"/><polygon class="cls-4" points="36.69 98.03 36.69 99.19 68.82 80.7 68.82 79.56 36.69 98.03"/><polygon class="cls-4" points="66.08 81.14 66.08 82.28 68.82 80.7 68.82 79.56 66.08 81.14"/><polygon class="cls-4" points="23.32 87.09 23.32 88.23 35.2 81.37 35.2 80.23 23.32 87.09"/><polygon class="cls-5" points="32.47 78.65 20.6 85.5 23.32 87.09 35.2 80.23 32.47 78.65"/><polygon class="cls-3" points="20.6 85.5 20.6 86.65 23.32 88.23 23.32 87.09 20.6 85.5"/><polygon class="cls-3" points="35.2 80.23 35.2 81.37 48.66 89.19 48.65 88.04 35.2 80.23"/><polygon class="cls-3" points="51.39 86.47 51.4 87.61 54.12 89.19 54.12 88.04 51.39 86.47"/><polygon class="cls-5" points="19.1 70.88 32.47 78.65 35.2 80.23 48.65 88.04 51.38 89.63 54.12 88.04 51.39 86.47 37.94 78.65 35.22 77.06 21.84 69.29 19.1 70.88"/><polygon class="cls-4" points="51.38 89.63 51.38 90.78 54.12 89.19 54.12 88.04 51.38 89.63"/><polygon class="cls-5" points="20.6 85.5 7.22 77.73 4.48 79.31 36.69 98.03 39.43 96.45 36.77 94.9 23.32 87.09 20.6 85.5"/><polygon class="cls-3" points="4.48 79.31 4.48 80.47 36.69 99.19 36.69 98.03 4.48 79.31"/><polygon class="cls-5" points="36.77 94.9 39.43 96.45 36.69 98.03 68.82 79.56 66.1 77.97 68.82 79.56 66.08 81.14 63.36 79.56 51.39 86.47 54.12 88.04 51.38 89.63 48.65 88.04 36.77 94.9"/></g><g class="cls-1"><polygon class="cls-3" points="28 62.52 28 63.1 62.99 83.43 62.99 82.86 28 62.52"/><polygon class="cls-4" points="62.99 82.86 62.99 83.43 68.81 80.08 68.81 79.5 62.99 82.86"/><polygon class="cls-5" points="28 62.52 62.99 82.86 68.81 79.5 33.81 59.16 28 62.52"/></g><g class="cls-1"><polygon class="cls-3" points="21.44 66.31 21.44 66.89 56.43 87.22 56.43 86.65 21.44 66.31"/><polygon class="cls-4" points="56.43 86.65 56.43 87.22 62.25 83.86 62.25 83.29 56.43 86.65"/><polygon class="cls-5" points="21.44 66.31 56.43 86.65 62.25 83.29 27.25 62.95 21.44 66.31"/></g><g class="cls-1"><polygon class="cls-3" points="14.87 70.1 14.87 70.67 49.87 91.01 49.87 90.44 14.87 70.1"/><polygon class="cls-4" points="49.87 90.44 49.87 91.01 55.69 87.66 55.68 87.08 49.87 90.44"/><polygon class="cls-5" points="14.87 70.1 49.87 90.44 55.68 87.08 20.69 66.74 14.87 70.1"/></g><g class="cls-1"><polygon class="cls-3" points="8.31 73.89 8.31 74.46 43.3 94.8 43.3 94.23 8.31 73.89"/><polygon class="cls-4" points="43.3 94.23 43.3 94.8 49.12 91.45 49.12 90.86 43.3 94.23"/><polygon class="cls-5" points="8.31 73.89 43.3 94.23 49.12 90.86 14.13 70.53 8.31 73.89"/></g><g class="cls-1"><polygon class="cls-3" points="1.75 77.68 1.75 78.25 36.74 98.59 36.74 98.02 1.75 77.68"/><polygon class="cls-4" points="36.74 98.02 36.74 98.59 42.56 95.23 42.56 94.65 36.74 98.02"/><polygon class="cls-5" points="1.75 77.68 36.74 98.02 42.56 94.65 7.56 74.32 1.75 77.68"/></g><g class="cls-1"><polygon class="cls-4" points="96.98 16.19 96.89 46.79 69.37 62.98 69.46 32.37 96.98 16.19"/><polygon class="cls-6" points="69.46 32.37 69.37 62.98 41.67 46.79 41.76 16.19 69.46 32.37"/><polygon class="cls-7" points="96.98 16.19 69.46 32.37 41.76 16.19 69.28 0 96.98 16.19"/></g><path class="cls-8" d="M50.1,47h0A2.36,2.36,0,0,1,49,45.16V43.68l2.13,1.25V46.4C51.15,47.08,50.68,47.35,50.1,47Z"/><path class="cls-8" d="M50.15,49.1a.2.2,0,0,1-.09-.15V46.12s0-.07.09,0a.22.22,0,0,1,.09.16v2.82A.06.06,0,0,1,50.15,49.1Z"/><path class="cls-8" d="M51.18,49.72l-2.06-1.2a.2.2,0,0,1-.09-.16s0-.07.09,0l2.06,1.2a.18.18,0,0,1,.08.15C51.26,49.73,51.23,49.75,51.18,49.72Z"/><path class="cls-8" d="M52.8,47.64a.59.59,0,0,0-.51-.08c0-1.21.92-1.7,2-1.07a4.49,4.49,0,0,1,2,3.48,1.58,1.58,0,0,0-.58-.62c-.32-.19-.6-.13-.72.13a1.74,1.74,0,0,0-.73-1c-.33-.18-.61-.13-.73.13A1.79,1.79,0,0,0,52.8,47.64Z"/><path class="cls-8" d="M53.64,51.14l-.35-.2a.23.23,0,0,1-.08-.16c0-.06,0-.07.08,0l.35.2c.31.17.56,0,.56-.33V48.1c0-.06,0-.09.09-.06a.2.2,0,0,1,.09.15v2.52C54.38,51.19,54,51.37,53.64,51.14Z"/><path class="cls-8" d="M45.34,44.8l-.25-1.37L44,43.18l.22.28-.34.49a.25.25,0,0,0,0,.21l.51,1.34.68-1Z"/><polygon class="cls-8" points="45.14 44.82 44.57 45.62 45.92 46.42 45.92 45.28 45.14 44.82"/><path class="cls-8" d="M47.08,46v-.3l-.8.4.8,1.33v-.3l.69.41a.12.12,0,0,0,.16,0l.51-.73Z"/><polygon class="cls-8" points="48.45 46.6 47.77 44.82 46.92 44.9 47.32 45.93 48.45 46.6"/><path class="cls-8" d="M47.2,43.39l-.35-.89a.36.36,0,0,0-.16-.2l-1-.6.68,1.77h-.22l1,1,.25-1.09Z"/><polygon class="cls-8" points="45.53 41.66 44.85 42.62 45.69 43.68 46.1 43.13 45.53 41.66"/><path class="cls-8" d="M84.79,23.4l-2,1.18L54.87,8.33l2-1.17Z"/><polygon class="cls-8" points="84.79 28.13 82.76 29.32 82.76 24.58 84.79 23.4 84.79 28.13"/><polygon class="cls-9" points="80.32 36.8 72.36 41.46 72.36 33.05 80.32 28.4 80.32 36.8"/><polygon class="cls-10" points="79.63 32.4 79.21 32.65 79.21 30.09 79.63 29.84 79.63 32.4"/><polygon class="cls-10" points="78.79 32.89 78.37 33.14 78.37 30.57 78.79 30.33 78.79 32.89"/><polygon class="cls-10" points="77.94 33.38 77.53 33.63 77.53 31.06 77.94 30.82 77.94 33.38"/><polygon class="cls-10" points="77.1 34.37 76.68 34.61 76.68 31.56 77.1 31.32 77.1 34.37"/><polygon class="cls-10" points="76.26 34.37 75.84 34.61 75.84 32.05 76.26 31.8 76.26 34.37"/><polygon class="cls-10" points="75.42 34.86 75 35.1 75 32.54 75.42 32.29 75.42 34.86"/><polygon class="cls-10" points="74.58 35.84 74.16 36.09 74.16 33.04 74.58 32.79 74.58 35.84"/><polygon class="cls-10" points="73.74 35.84 73.32 36.09 73.32 33.53 73.74 33.28 73.74 35.84"/><polygon class="cls-10" points="79.68 36.1 73.26 39.84 73.26 39.6 79.68 35.85 79.68 36.1"/><polygon class="cls-10" points="79.68 35.13 73.26 38.87 73.26 38.62 79.68 34.87 79.68 35.13"/><polygon class="cls-10" points="79.68 34.14 73.26 37.89 73.26 37.65 79.68 33.9 79.68 34.14"/><g class="cls-1"><polygon class="cls-4" points="66.96 42.37 66.86 76.77 35.92 94.97 36.02 60.56 66.96 42.37"/><polygon class="cls-6" points="36.02 60.56 35.92 94.97 4.79 76.77 4.88 42.37 36.02 60.56"/><polygon class="cls-7" points="66.96 42.37 36.02 60.56 4.88 42.37 35.82 24.18 66.96 42.37"/></g><path class="cls-8" d="M14.26,77l0,0a2.6,2.6,0,0,1-1.19-2.06V73.28l2.39,1.4v1.66C15.44,77.1,14.91,77.4,14.26,77Z"/><path class="cls-8" d="M14.31,79.36a.21.21,0,0,1-.09-.17V76c0-.06,0-.09.09-.06a.24.24,0,0,1,.1.17V79.3C14.41,79.37,14.37,79.39,14.31,79.36Z"/><path class="cls-8" d="M15.47,80.07l-2.31-1.35a.24.24,0,0,1-.1-.18.06.06,0,0,1,.1-.06l2.31,1.36a.22.22,0,0,1,.1.17A.06.06,0,0,1,15.47,80.07Z"/><path class="cls-8" d="M17.3,77.73a.64.64,0,0,0-.58-.09c0-1.37,1-1.91,2.25-1.2a5,5,0,0,1,2.25,3.9,2,2,0,0,0-.65-.7c-.36-.21-.68-.14-.81.15a2,2,0,0,0-.83-1.1c-.36-.22-.68-.15-.81.14A2.06,2.06,0,0,0,17.3,77.73Z"/><path class="cls-8" d="M18.24,81.65l-.39-.22a.23.23,0,0,1-.1-.17.06.06,0,0,1,.1-.06l.39.23c.35.21.63,0,.63-.37V78.23c0-.06,0-.09.1-.06a.25.25,0,0,1,.1.18v2.83C19.07,81.71,18.69,81.92,18.24,81.65Z"/><path class="cls-8" d="M8.91,74.54,8.63,73l-1.18-.27L7.7,73l-.38.55a.29.29,0,0,0,0,.26l.57,1.48.77-1.09Z"/><polygon class="cls-8" points="8.68 74.55 8.04 75.46 9.56 76.36 9.56 75.08 8.68 74.55"/><path class="cls-8" d="M10.86,75.84v-.35L10,76l.89,1.5v-.34l.78.46a.15.15,0,0,0,.18,0l.58-.83Z"/><polygon class="cls-8" points="12.41 76.55 11.65 74.56 10.7 74.64 11.13 75.81 12.41 76.55"/><path class="cls-8" d="M11,73l-.39-1a.53.53,0,0,0-.18-.23l-1.15-.67.77,2-.25,0L11,74.16l.28-1.24Z"/><polygon class="cls-8" points="9.13 71 8.36 72.08 9.31 73.28 9.76 72.65 9.13 71"/><path class="cls-8" d="M53.25,50.47,51,51.81,19.63,33.54l2.28-1.33Z"/><polygon class="cls-8" points="53.25 55.8 50.97 57.12 50.97 51.81 53.25 50.47 53.25 55.8"/><polygon class="cls-9" points="48.23 65.54 39.28 70.77 39.28 61.32 48.23 56.09 48.23 65.54"/><polygon class="cls-10" points="47.45 60.6 46.98 60.87 46.98 57.99 47.45 57.71 47.45 60.6"/><polygon class="cls-10" points="46.5 61.15 46.03 61.42 46.03 58.55 46.5 58.26 46.5 61.15"/><polygon class="cls-10" points="45.56 61.7 45.09 61.98 45.09 59.09 45.56 58.82 45.56 61.7"/><polygon class="cls-10" points="44.62 62.81 44.14 63.08 44.14 59.65 44.62 59.38 44.62 62.81"/><polygon class="cls-10" points="43.67 62.81 43.19 63.08 43.19 60.21 43.67 59.92 43.67 62.81"/><polygon class="cls-10" points="42.72 63.36 42.25 63.64 42.25 60.76 42.72 60.48 42.72 63.36"/><polygon class="cls-10" points="41.78 64.46 41.3 64.74 41.3 61.31 41.78 61.03 41.78 64.46"/><polygon class="cls-10" points="40.83 64.47 40.36 64.74 40.36 61.86 40.83 61.58 40.83 64.47"/><polygon class="cls-10" points="47.51 64.75 40.3 68.96 40.3 68.69 47.51 64.48 47.51 64.75"/><polygon class="cls-10" points="47.51 63.66 40.3 67.86 40.3 67.59 47.51 63.38 47.51 63.66"/><polygon class="cls-10" points="47.51 62.56 40.3 66.77 40.3 66.49 47.51 62.27 47.51 62.56"/><g class="cls-1"><polygon class="cls-4" points="50.97 30.39 50.93 44.15 34.44 53.85 34.48 40.09 50.97 30.39"/><polygon class="cls-6" points="34.48 40.09 34.44 53.85 17.83 44.15 17.87 30.4 34.48 40.09"/><polygon class="cls-7" points="50.97 30.39 34.48 40.09 17.87 30.4 34.37 20.7 50.97 30.39"/></g><polygon class="cls-9" points="44.33 45.05 37.03 49.32 37.03 41.6 44.33 37.34 44.33 45.05"/><polygon class="cls-10" points="43.7 41.02 43.31 41.24 43.31 38.88 43.7 38.66 43.7 41.02"/><polygon class="cls-10" points="42.93 41.46 42.54 41.7 42.54 39.34 42.93 39.12 42.93 41.46"/><polygon class="cls-10" points="42.16 41.92 41.77 42.14 41.77 39.79 42.16 39.56 42.16 41.92"/><polygon class="cls-10" points="41.38 42.82 40.99 43.04 40.99 40.24 41.38 40.02 41.38 42.82"/><polygon class="cls-10" points="40.61 42.82 40.22 43.05 40.22 40.69 40.61 40.47 40.61 42.82"/><polygon class="cls-10" points="39.84 43.27 39.45 43.49 39.45 41.15 39.84 40.92 39.84 43.27"/><polygon class="cls-10" points="39.07 44.17 38.68 44.39 38.68 41.6 39.07 41.37 39.07 44.17"/><polygon class="cls-10" points="38.29 44.17 37.91 44.4 37.91 42.05 38.29 41.82 38.29 44.17"/><polygon class="cls-10" points="43.74 44.4 37.86 47.84 37.86 47.62 43.74 44.18 43.74 44.4"/><polygon class="cls-10" points="43.74 43.51 37.86 46.95 37.86 46.72 43.74 43.29 43.74 43.51"/><polygon class="cls-10" points="43.74 42.62 37.86 46.06 37.86 45.83 43.74 42.39 43.74 42.62"/><path class="cls-8" d="M23.51,44.18h0a1.69,1.69,0,0,1-.76-1.32V41.78l1.54.89v1.08C24.27,44.23,23.92,44.42,23.51,44.18Z"/><path class="cls-8" d="M23.54,45.68a.15.15,0,0,1-.06-.11v-2s0-.06.06,0a.12.12,0,0,1,.06.1v2S23.57,45.7,23.54,45.68Z"/><path class="cls-8" d="M24.28,46.13l-1.48-.87a.11.11,0,0,1-.06-.1s0-.06.06,0l1.48.87a.15.15,0,0,1,.06.11A0,0,0,0,1,24.28,46.13Z"/><path class="cls-8" d="M25.45,44.64a.4.4,0,0,0-.37-.06c0-.88.66-1.23,1.44-.78A3.25,3.25,0,0,1,28,46.31a1.2,1.2,0,0,0-.41-.45c-.24-.13-.44-.09-.53.09a1.3,1.3,0,0,0-.52-.71c-.23-.13-.44-.08-.53.1A1.21,1.21,0,0,0,25.45,44.64Z"/><path class="cls-8" d="M26.05,47.15,25.81,47a.11.11,0,0,1-.07-.1s0-.06.07,0l.24.14c.22.14.41,0,.41-.23V45s0-.05.06,0a.16.16,0,0,1,.06.12v1.81C26.58,47.19,26.34,47.32,26.05,47.15Z"/><path class="cls-8" d="M20.07,42.59l-.18-1-.75-.17.16.2-.25.35a.22.22,0,0,0,0,.16l.37,1,.49-.71Z"/><polygon class="cls-8" points="19.93 42.59 19.52 43.18 20.5 43.76 20.5 42.93 19.93 42.59"/><path class="cls-8" d="M21.33,43.42V43.2l-.57.3.57,1v-.21l.49.29c.05,0,.1,0,.12,0l.37-.53Z"/><polygon class="cls-8" points="22.31 43.88 21.83 42.6 21.21 42.66 21.5 43.4 22.31 43.88"/><path class="cls-8" d="M21.41,41.57l-.24-.64a.28.28,0,0,0-.12-.14l-.74-.44.49,1.27-.16,0,.75.7.18-.78Z"/><polygon class="cls-8" points="20.21 40.33 19.72 41.01 20.33 41.78 20.62 41.38 20.21 40.33"/><path class="cls-8" d="M41.42,24.91l2.28,1.33L26.93,35.93l-2.28-1.34Z"/><polygon class="cls-8" points="24.65 39.91 26.93 41.24 26.93 35.93 24.65 34.59 24.65 39.91"/></g></g></g></svg>