<svg xmlns="http://www.w3.org/2000/svg" xmlns:xlink="http://www.w3.org/1999/xlink" viewBox="0 0 139.08 132.55"><defs><style>.cls-1{fill:url(#radial-gradient);}.cls-2{fill:#fff;}.cls-3{fill:#e2d2ca;}.cls-4{fill:#706865;}.cls-5{fill:#ccbdb7;}.cls-6{fill:#998e89;}.cls-7{fill:#b59074;}.cls-8{fill:#e64646;}.cls-9{fill:#424773;}.cls-10{fill:#292c47;}.cls-11{fill:#eea886;}.cls-12{fill:#3a3f47;}.cls-13{fill:#323657;}.cls-14{fill:#918783;}.cls-15{fill:#5e5854;}.cls-16{fill:#bfb2ac;}.cls-17{fill:#b8aba5;}.cls-18{fill:#f5f7ff;}.cls-19{fill:#918681;}.cls-20{fill:#dfe1e8;}.cls-21{fill:#ebebeb;}</style><radialGradient id="radial-gradient" cx="287.84" cy="100.48" r="74.09" gradientTransform="translate(-186.66 -62.37) scale(0.87)" gradientUnits="userSpaceOnUse"><stop offset="0.16" stop-color="#69beff"/><stop offset="0.58" stop-color="#1c9cff"/><stop offset="1" stop-color="#476cff"/></radialGradient></defs><g id="Capa_2" data-name="Capa 2"><g id="Capa_1-2" data-name="Capa 1"><path class="cls-1" d="M139.08,59.94A59.94,59.94,0,1,1,79.14,0,59.95,59.95,0,0,1,139.08,59.94Z"/><path class="cls-2" d="M97.32,21.76s-1.67.29-1.67,1.39a14.92,14.92,0,0,0,.56,3l.55,2.08,1.62,1.39.6-.82a2.83,2.83,0,0,1,1.25-.66c2.06-.25,2.08-.85,2.08-.85l1.8-1s.69-1.38,0-1.8a33.14,33.14,0,0,0-2.87-1.66,16.77,16.77,0,0,1-1.15-2.64l-2-2.77s-1.44,1.15-1.16,1.89.69,1,.56,1.72Z"/><path class="cls-2" d="M138.65,52.67a14.43,14.43,0,0,1-3.42,1.42,63.27,63.27,0,0,1-10,2.56c-4.65.81-9.76-1.28-13.83,1.28s-4.8,2.63-4.8,2.63l-2,.39s-5.32-.85-6.19,0,.19,0-3.29,4.22-2.31,2.44-3.49,4.18c-2.57,3.78-3.25,2.09-2.32,5.58s4.88,6.73,4.88,6.73,6,.47,7.2.93,9.76,1,9.76,1,6.15,8.83,7.31,10.68,1.25,3.83,2.1,7.21c.14.55.25,1,.34,1.41a59.74,59.74,0,0,0,18.14-43A62.25,62.25,0,0,0,138.65,52.67Z"/><path class="cls-2" d="M124.15,52.25c.56,1.25,1-3.06,2.64-3.19s.14-1.25-1.66-2.27-3.06-5.23-4.17-6.62,1.67-4.45,4.45-5.65,2.22,1.48,3.47,2.73-.28,2.36.83,4.51,1.25,2.57,2.48,1.88-.53-1.47-.72-3.89c-.09-1.16-.09-2.36,1.71-.86s2.61,6.61,2.25.4A60,60,0,0,0,83.43.15l9,4.55,5,2s7.3.93,8.07,1.55.78,2.48,1.55,2.89,3.88,3.32,8.07,4.4c2.45.64,3.36,3.25,3.7,5.3a2.75,2.75,0,0,0-1.2,2.08c0,.56.7,1.25.56,2s-1.94.52-3.19.17-.56-.07-1.26,0A5.21,5.21,0,0,0,111,27.27c-1,1.27-3.06,1.23-4.73,1.51s-1.25-.7-3.47,0-3.19,5.55-2.36,7.63.42,3.34-.14,5.35-1.33,2.89-1.53,9c-.32,10.13,4.17,6,7,6.38s2.36-1,2.91-2.08-1.25-4-1.38-6.67-.28-3.19,0-3.91a18.4,18.4,0,0,1,2.63-3.31c1.12-1.25,4-1.39,5-1.39s6.67,5.56,8.47,8.06S123.6,51,124.15,52.25Z"/><path class="cls-2" d="M25.58,33a1.25,1.25,0,0,0,0,.19,21,21,0,0,1-2.23,7c-1,2.12-1.19,2.79-1.81,3.51a1.07,1.07,0,0,0-.15.22,59.93,59.93,0,0,0-2.16,16c0,1.19,0,2.37.11,3.53a1.05,1.05,0,0,0,.22.45l.65.79a1.15,1.15,0,0,0,.86.43c.67,0,1.79.2,1.65,1.3-.19,1.56.88,3.2.83,3.88s1.64.84,1.54,3.48a13.87,13.87,0,0,0,.32,3.89,1.2,1.2,0,0,1,0,.38c-.05.63-.19,2.6-.32,4.26a6.17,6.17,0,0,0,1.26,4.14c.57.88.78,1.14.8,3.14a2,2,0,0,0,0,.24A60.1,60.1,0,0,0,64.13,118a3.15,3.15,0,0,0,.37-1.13h0c0-.58.41-3.31.48-3.87a1.48,1.48,0,0,0,0-.21,23,23,0,0,1,.13-4.54c.31-1.1-.55-1.61-2.54-5.13s0-3.14.4-5.35.23-2.9.77-4.21,0,0-.36-1.15-5.86-6.58-7.19-8.84-2.42-.63-4.41-1,0,0-4.5-.63c-2.26-.31-2.35.32-3.1.18-1-.18-1.81.19-3.38-.26S37.06,83.72,35.76,83a7.42,7.42,0,0,1-2-1.69c-.59-.54-2.5-.71-3.28-3s0-1.91-.55-3.92-.38-2.33-.59-2.57-1.64-1.35-.77-3.93c.4-1.2-.35-.53-.15-3.21s2.14-.81,3.12-2,2.29-.62,3.54-2.32,3.71-1.52,5.83-3.59,4.16-2.21,4.35-2.65l6.62-4.94.09-.08a2.71,2.71,0,0,0,.25-3.94c-1.86-2.15.84-2.29-1.86-2.15a6.63,6.63,0,0,0-3.41,1.18,1.17,1.17,0,0,1-1.67-.38,15.86,15.86,0,0,0-.85-1.36l-2.34-3.2a1.07,1.07,0,0,0-.47-.37c-.47-.22-1.43-.63-2-.83a1.16,1.16,0,0,1-.74-.71c-.17-.48-.33-1-.47-1.41a1.15,1.15,0,0,1,.56-1.38l5.28-2.82a1.16,1.16,0,0,1,1.55.44,7.79,7.79,0,0,0,2.07,2.45,11.33,11.33,0,0,0,4.43,1.42,1,1,0,0,0,.52-.05c.42-.14,1.29-.34,1.44.22a8,8,0,0,0,2.94,4.16A1.17,1.17,0,0,0,59,39.83l1.77-6a1.16,1.16,0,0,1,.18-.37l3.65-4.94a3.11,3.11,0,0,0,.34-3.15l-.66-1.46a2.48,2.48,0,0,0-2.08-1.46L60.3,22.3l-7.13-.16a1.15,1.15,0,0,1-.89-.45c-.36-.45-1.06-.94-2.06.26l-1.09,1.32a1.14,1.14,0,0,1-1,.42l-4.94-.43a.75.75,0,0,1-.26-.05c-.35-.11-1.36-.44-2-.61a1.13,1.13,0,0,1-.71-.54c-.19-.33-.55-.72-.57-1.08-.07-4.63,3.47-8.63,4.44-9.65A60.33,60.33,0,0,0,25.58,33Z"/><rect class="cls-3" x="27.02" y="82.57" width="16.64" height="0.99"/><rect class="cls-4" x="29.25" y="86.13" width="1.46" height="44.92" transform="translate(59.96 217.17) rotate(180)"/><rect class="cls-5" x="41.06" y="82.29" width="11.56" height="1.41"/><rect class="cls-6" x="44.65" y="70.26" width="4.38" height="13.3"/><rect class="cls-7" x="21.06" y="83.57" width="64.08" height="2.55"/><path class="cls-8" d="M8.76,68.12s-.7,9.82,1.22,11c1.2.74,6,3.22,5.85,3.69S13.13,87,13.13,87s-9.22-6.06-9.51-8,.45-14.39,1.72-15c.94-.43,1.44-.08,2.64.81A2.8,2.8,0,0,1,8.76,68.12Z"/><path class="cls-9" d="M20.09,124.91s-.28,2-.32,2.29-3.19-.18-3.19-.18l-.25-2.37A18.68,18.68,0,0,1,20.09,124.91Z"/><path class="cls-10" d="M19.8,127a8.69,8.69,0,0,0,2,1.72c1,.52,2.48.73,3.05,1.27.41.39,1.5,2.07-2.51,2s-5.94.24-6.37-.4.62-4.76.62-4.76A8.58,8.58,0,0,0,19.8,127Z"/><path class="cls-9" d="M40.28,124.93s-.28,2-.32,2.29-3.19-.18-3.19-.18l-.25-2.37A18.68,18.68,0,0,1,40.28,124.93Z"/><path class="cls-10" d="M40,127a8.44,8.44,0,0,0,2,1.72c1,.53,4.52,1,5.09,1.5.41.39,1.1,2-4.55,1.81-4-.1-5.94.24-6.37-.41s.62-4.75.62-4.75A7.76,7.76,0,0,0,40,127Z"/><path class="cls-10" d="M9.93,90.56s11.46,1.94,14,2.35,16.62,3.89,18.38,5c1.39.84-.74,21.18-1.23,28.94H35.59l-.4-23.28c-6.63.17-11.37-1.55-16.19-.81s-8.86,1.77-11.93-2.34C7.07,100.38,7,91.46,9.93,90.56Z"/><path class="cls-10" d="M21.22,126.83l-5.38-.33-.53-23a31.22,31.22,0,0,1-6.14-.39L4.82,93c3.81.76,16,3.84,17.65,4.83C23.86,98.71,21.72,119.07,21.22,126.83Z"/><path class="cls-11" d="M15.2,47.62s4.2-1.16,5.8,2.1.88,9.44-1.24,10-5.16-.09-6-2.12a15.68,15.68,0,0,1-1.36-6.78A4.07,4.07,0,0,1,15.2,47.62Z"/><path class="cls-11" d="M18.67,59.09a13,13,0,0,0,.22,3c.28.52-5.84.39-5.84.39A12.43,12.43,0,0,0,13.46,57C12.92,54.47,18.67,59.09,18.67,59.09Z"/><path class="cls-12" d="M13.13,56s.33.66,1.91.56,3.68-2,4.35-2.19.71-.56.71-.56l.36.64.69.1s-.47-1.91.55-2.59-.46-6.11-5.62-4.8c0,0-3.95.73-4,2.93S12.37,54.87,13.13,56Z"/><path class="cls-3" d="M19.22,62s0-1-.48-1.1-4.81-.7-5.37-.48l-.24,1.33S14.21,62.45,19.22,62Z"/><path class="cls-11" d="M20.48,53.4c-.12-.83-1.06-1.78-1.6-.49s.36,3.17,1,3.07S20.63,54.52,20.48,53.4Z"/><path class="cls-13" d="M37.45,74Z"/><path class="cls-12" d="M14,48.21S8.86,48,13.08,56Z"/><polygon class="cls-14" points="2.57 129.55 2.95 130.63 19.04 125.64 18.27 123.47 2.57 129.55"/><rect class="cls-14" x="17.77" y="107.38" width="1.83" height="17.5"/><rect class="cls-15" x="13.29" y="106.45" width="10.79" height="1.03"/><polygon class="cls-14" points="34.94 129.55 34.56 130.63 18.46 125.64 19.17 123.33 34.94 129.55"/><polygon class="cls-14" points="23.6 130.51 23.6 131.76 18.46 125.64 19.17 123.33 23.6 130.51"/><circle class="cls-16" cx="34.94" cy="131.04" r="1.5"/><path class="cls-16" d="M23.72,131a1.5,1.5,0,1,1-1.5-1.5A1.51,1.51,0,0,1,23.72,131Z"/><path class="cls-16" d="M4.07,131a1.51,1.51,0,1,1-1.5-1.5A1.51,1.51,0,0,1,4.07,131Z"/><rect class="cls-3" x="5.97" y="102.54" width="25.56" height="3.91" rx="1.51"/><rect class="cls-4" x="75.48" y="86.13" width="1.46" height="44.92"/><rect class="cls-17" x="27.93" y="49.99" width="37.82" height="26.68" rx="10.29"/><rect class="cls-18" x="29.41" y="51.43" width="34.85" height="21.05"/><ellipse class="cls-19" cx="61.31" cy="74.47" rx="1.4" ry="1.08"/><path class="cls-6" d="M54.67,83.61v-.48s-.67-2.95-5.39-2.95-4.62,3.43-4.62,3.43Z"/><path class="cls-11" d="M44.6,80.62a4.61,4.61,0,0,0,1.4-.31c.38-.22,2.62-1.74,3.15-1.49s4,1.31,3.92,1.83-.45.46-.69.37a18.21,18.21,0,0,0-3-.54s2.51.92,2.52,1.59-.53.83-.76,1.08-.53.88-1.17.93-3.8-1-4.45-1.1a14.69,14.69,0,0,1-1.93-.07A18.48,18.48,0,0,1,44.6,80.62Z"/><path class="cls-8" d="M25.93,63.43c-3.27-.57-6.71-1.4-6.71-1.4l-6.09-.25A58.55,58.55,0,0,0,5.34,64c-.21.09-.21,5-.79,6.27l1.83,3.85s1,7.62,1.27,11c.1,1.55-.28,15-.28,15a23.26,23.26,0,0,0,4.7.73c4.16.46,14.54-.16,14.61-.65s-2-18.28-2.11-19.2c-.14-1.42.41-7.95.41-7.95.78,1,2.78,5.8,4.86,8.06,1.23,1.33,7.29,2.15,8.43,2.18,2.49.09,7,.58,7.16.34s.39-4,.11-4.12S36.86,79,34.71,77.86c-.79-.41-3.15-5.56-3.15-5.56S27.73,64.24,25.93,63.43Z"/><rect class="cls-3" y="75.39" width="17.63" height="24.41" rx="6.8"/><path class="cls-3" d="M14.5,105.47a8.08,8.08,0,0,1-6.26-2.59C4.71,99,5.35,92.15,5.38,91.86a1,1,0,0,1,2,.19c0,.08-.57,6.28,2.37,9.52a6.09,6.09,0,0,0,4.8,1.94,1,1,0,1,1,0,2Z"/><rect class="cls-20" x="31.88" y="53.1" width="10.21" height="1.11" rx="0.43"/><rect class="cls-20" x="31.88" y="55.49" width="10.21" height="1.11" rx="0.43"/><rect class="cls-20" x="31.88" y="58.23" width="10.21" height="12.58" rx="3.94"/><rect class="cls-20" x="44.15" y="53.1" width="18.18" height="17.7" rx="6.83"/><path class="cls-8" d="M104.26,84.44a5.5,5.5,0,0,0-11,0c0,.1,0,.21,0,.31h0c0,4.19,5.5,10.75,5.5,10.75s5.5-6.56,5.5-10.75h0ZM98.76,88a3.57,3.57,0,1,1,3.57-3.56A3.57,3.57,0,0,1,98.76,88Z"/><path class="cls-8" d="M130,36a5.5,5.5,0,0,0-11,0v.32h0c0,4.18,5.5,10.75,5.5,10.75s5.5-6.57,5.5-10.75h0C130,36.24,130,36.14,130,36Zm-5.5,3.57A3.57,3.57,0,1,1,128.05,36,3.57,3.57,0,0,1,124.49,39.6Z"/><path class="cls-8" d="M115.19,51.43a5.5,5.5,0,0,0-11,0c0,.11,0,.21,0,.32h0c0,4.19,5.5,10.75,5.5,10.75s5.5-6.56,5.5-10.75h0C115.19,51.64,115.19,51.54,115.19,51.43ZM109.69,55a3.57,3.57,0,1,1,3.56-3.57A3.56,3.56,0,0,1,109.69,55Z"/><path class="cls-8" d="M30.71,36.81a5.51,5.51,0,0,0-11,0c0,.11,0,.21,0,.32h0c0,4.19,5.51,10.75,5.51,10.75s5.5-6.56,5.5-10.75h0C30.7,37,30.71,36.92,30.71,36.81Zm-5.5,3.57a3.57,3.57,0,1,1,3.56-3.57A3.57,3.57,0,0,1,25.21,40.38Z"/><path class="cls-21" d="M111.68,112.69a24.89,24.89,0,0,1-2.42-.62l.12-.39c1.46.43,2.37.61,2.38.61Z"/><path class="cls-21" d="M104.46,110.36a47.51,47.51,0,0,1-4.6-2.21l.2-.36a47.91,47.91,0,0,0,4.56,2.19Zm-8.93-4.92a38.23,38.23,0,0,1-4-3.23l.28-.3a38.47,38.47,0,0,0,3.91,3.19Zm-7.4-7a31.15,31.15,0,0,1-2.84-4.25l.36-.2a31.3,31.3,0,0,0,2.8,4.2Zm-4.94-8.9a33.43,33.43,0,0,1-1.33-4.93l.41-.08a31.45,31.45,0,0,0,1.31,4.87Zm-1.86-10c0-.73,0-1.52,0-2.35s0-1.75,0-2.74h.41c0,1,0,1.88,0,2.73s0,1.61,0,2.33ZM82,69.39l-.41,0c0-.8.09-1.61.14-2.44s.1-1.74.15-2.63l.41,0c0,.89-.1,1.77-.15,2.64S82,68.58,82,69.39Zm.53-10.15-.41,0c.06-1.76.09-3.35.09-4.86v-.21h.42v.21C82.6,55.87,82.57,57.47,82.5,59.24ZM82,49.08c-.1-1.76-.26-3.46-.47-5L82,44c.21,1.6.37,3.31.47,5.08Zm-1.37-10a42.14,42.14,0,0,0-1.44-4.84l.38-.15A41.63,41.63,0,0,1,81.07,39Zm-3.51-9.45a31.5,31.5,0,0,0-2.73-4.23l.33-.25a33.45,33.45,0,0,1,2.77,4.29Zm-6.1-8a35,35,0,0,0-3.91-3.18l.23-.34a34.93,34.93,0,0,1,4,3.22Zm-8.23-5.78a43,43,0,0,0-4.6-2.08l.15-.39A48.21,48.21,0,0,1,63,15.49Zm-9.39-3.7c-1.56-.45-3.22-.86-4.91-1.22l.08-.41c1.71.36,3.37.78,4.94,1.23Z"/><path class="cls-21" d="M43.48,10c-.8-.12-1.62-.23-2.45-.33l0-.41c.83.1,1.66.21,2.46.33Z"/><path class="cls-21" d="M38.21,113.46s-.35-.87-.81-2.35l.39-.13c.46,1.47.8,2.32.8,2.33Z"/><path class="cls-21" d="M36.1,106.29c-.38-1.62-.69-3.27-.93-4.89l.41-.06c.24,1.61.55,3.24.92,4.86Zm-1.45-9.85c-.06-1.06-.09-2.11-.09-3.14,0-.62,0-1.24,0-1.85H35c0,.61,0,1.22,0,1.84,0,1,0,2.06.1,3.11Zm.82-9.9-.4-.06a37.17,37.17,0,0,1,1.09-4.87l.4.12A36.27,36.27,0,0,0,35.47,86.54Zm2.86-9.42L38,77a28.76,28.76,0,0,1,2.52-4.31l.34.23A29,29,0,0,0,38.33,77.12Zm5.67-8-.29-.29a32.3,32.3,0,0,1,3.81-3.23l.24.34A31.4,31.4,0,0,0,44,69.11Zm8-5.77L51.77,63a39.4,39.4,0,0,1,4.55-2l.14.38A42,42,0,0,0,52,63.34Zm9.21-3.56-.12-.4c1.61-.48,3.21-1,4.74-1.46l.13.39C64.38,58.8,62.78,59.29,61.17,59.78Zm9.47-3-.13-.39c1.6-.54,3.18-1.08,4.69-1.62l.14.39C73.83,55.69,72.25,56.23,70.64,56.77ZM80,53.42,79.85,53c1.58-.61,3.13-1.23,4.61-1.84l.16.38C83.14,52.2,81.59,52.81,80,53.42Zm9.18-3.82L89,49.23c1.55-.71,3.06-1.43,4.47-2.14l.19.37C92.25,48.17,90.74,48.9,89.18,49.6Zm8.87-4.48-.2-.36c1.49-.85,2.91-1.72,4.22-2.58l.23.34C101,43.39,99.55,44.26,98.05,45.12Zm8.3-5.5-.26-.32A44.9,44.9,0,0,0,109.81,36l.29.3A47.3,47.3,0,0,1,106.35,39.62Zm7.06-7-.33-.25a29.62,29.62,0,0,0,2.67-4.13l.36.19A29.51,29.51,0,0,1,113.41,32.61Zm4.66-8.78-.39-.13a36.67,36.67,0,0,0,1.2-4.78l.41.07A35.63,35.63,0,0,1,118.07,23.83Z"/><path class="cls-21" d="M120,13.93l-.41,0c.08-.82.14-1.64.21-2.46l.41,0C120.13,12.29,120.06,13.11,120,13.93Z"/></g></g></svg>