<svg xmlns="http://www.w3.org/2000/svg" viewBox="0 0 200.02 180.44"><defs><style>.cls-1{fill:#e0e0e0;}.cls-2{fill:#37474f;}.cls-18,.cls-26,.cls-27,.cls-28,.cls-3{fill:#fff;}.cls-4{fill:#455a64;}.cls-5,.cls-9{fill:#ba68c8;}.cls-21,.cls-6{opacity:0.2;}.cls-10,.cls-11,.cls-12,.cls-13,.cls-14,.cls-15,.cls-18,.cls-25,.cls-26,.cls-27,.cls-28,.cls-6,.cls-8,.cls-9{isolation:isolate;}.cls-7{opacity:0.25;}.cls-22,.cls-8{opacity:0.1;}.cls-12,.cls-9{opacity:0.5;}.cls-10,.cls-20,.cls-28{opacity:0.4;}.cls-11,.cls-27{opacity:0.6;}.cls-13,.cls-16,.cls-18{opacity:0.3;}.cls-14{opacity:0.45;}.cls-15{opacity:0.35;}.cls-17{fill:#f5f5f5;}.cls-19{opacity:0.15;}.cls-23{fill:#263238;}.cls-24{fill:#fafafa;}.cls-25{opacity:0.55;}.cls-26{opacity:0.7;}.cls-29{fill:#b16668;}.cls-30{fill:#ffa8a7;}.cls-31{fill:#f28f8f;}</style></defs><g id="Capa_2" data-name="Capa 2"><g id="Capa_1-2" data-name="Capa 1"><g id="freepik--Shadow--inject-1--inject-2"><path id="freepik--shadow--inject-1--inject-2-2" data-name="freepik--shadow--inject-1--inject-2" class="cls-1" d="M149.86,134l29.62-17.1a.57.57,0,0,0,.36-.72.51.51,0,0,0-.36-.35l-15.67-9.06a2,2,0,0,0-1.86,0l-29.6,17.13a.57.57,0,0,0-.36.72.58.58,0,0,0,.36.36L148,134A2.08,2.08,0,0,0,149.86,134Z"/><path id="freepik--shadow--inject-1--inject-2-3" data-name="freepik--shadow--inject-1--inject-2" class="cls-1" d="M50.91,133.45l-17.38,10a2.06,2.06,0,0,1-1.87,0L10.78,131.43a.56.56,0,0,1-.35-.72.55.55,0,0,1,.35-.36l17.38-10a2,2,0,0,1,1.86,0l20.89,12.06a.57.57,0,0,1,.33.73A.56.56,0,0,1,50.91,133.45Z"/><path id="freepik--shadow--inject-1--inject-2-4" data-name="freepik--shadow--inject-1--inject-2" class="cls-1" d="M80.67,116.28l-17.38,10a2.06,2.06,0,0,1-1.87,0l-20.88-12a.56.56,0,0,1-.35-.72.57.57,0,0,1,.35-.36l17.39-10a2,2,0,0,1,1.86,0l20.88,12a.57.57,0,0,1,0,1.08Z"/><path id="freepik--shadow--inject-1--inject-2-5" data-name="freepik--shadow--inject-1--inject-2" class="cls-1" d="M110.43,99.09l-17.4,10a2,2,0,0,1-1.86,0l-20.89-12a.57.57,0,0,1-.35-.72.55.55,0,0,1,.35-.36L87.66,86a2.06,2.06,0,0,1,1.87,0l20.9,12a.57.57,0,0,1,.36.71A.56.56,0,0,1,110.43,99.09Z"/><path id="freepik--shadow--inject-1--inject-2-6" data-name="freepik--shadow--inject-1--inject-2" class="cls-1" d="M140.12,82,122.74,92a2.06,2.06,0,0,1-1.87,0L100,79.94a.56.56,0,0,1,0-1.07l17.38-10.06a2.06,2.06,0,0,1,1.87,0l20.88,12.06a.56.56,0,0,1,0,1.09Z"/><path id="freepik--shadow--inject-1--inject-2-7" data-name="freepik--shadow--inject-1--inject-2" class="cls-1" d="M49.9,152l48.87,28.22a2.12,2.12,0,0,0,1.87,0L125,166.14a.57.57,0,0,0,.36-.72.58.58,0,0,0-.36-.36L76.14,136.84a2.1,2.1,0,0,0-1.86,0L49.9,150.92a.57.57,0,0,0-.36.72A.58.58,0,0,0,49.9,152Z"/><path id="freepik--shadow--inject-1--inject-2-8" data-name="freepik--shadow--inject-1--inject-2" class="cls-1" d="M122.75,130.79c-5.21-3-13.65-3-18.85,0s-5.21,7.89,0,10.88,13.64,3,18.85,0S128,133.79,122.75,130.79Z"/><path id="freepik--shadow--inject-1--inject-2-9" data-name="freepik--shadow--inject-1--inject-2" class="cls-1" d="M142.28,139.83c-5.2-3-13.64-3-18.85,0s-5.21,7.9,0,10.89,13.65,3,18.85,0S147.49,142.84,142.28,139.83Z"/></g><g id="freepik--Plants--inject-1--inject-2"><g id="freepik--plants--inject-1--inject-2-2" data-name="freepik--plants--inject-1--inject-2"><path class="cls-2" d="M187.5,115.28l-3.13-1.82a44.09,44.09,0,0,1,0-12.71c1.5-8.29,7.23-11,9.27-10.15s2.46,3.35-1.36,8.07C190,101.45,187.59,107.56,187.5,115.28Z"/><path class="cls-3" d="M186.08,111.78h0a.2.2,0,0,0,.16-.21c-.9-7.81,2.43-16.27,6-19.62a.19.19,0,0,0,0-.27.19.19,0,0,0-.26,0h0c-3.67,3.42-7.06,12-6.14,19.94A.19.19,0,0,0,186.08,111.78Z"/><path class="cls-4" d="M194.44,119.31c.41.24,1.29-.19,1.62-.4a3.86,3.86,0,0,0,1.34-1.47,3.69,3.69,0,0,0,.38-2.19,9.68,9.68,0,0,0-.25-1.19l-.3-1.14a2.71,2.71,0,0,1-.14-1.16,3,3,0,0,1,1.46-1.75,2.91,2.91,0,0,0,1.47-2.12,3.38,3.38,0,0,0-.78-2c-.44-.57-1-1.09-1.35-1.7a2,2,0,0,1-.1-2.37,12.86,12.86,0,0,0,1-1.8,1.85,1.85,0,0,0-.27-2,2.13,2.13,0,0,0-1.6-.43,5.8,5.8,0,0,0-2.75,1.28,9.9,9.9,0,0,1-2.3,1.62c-1.19.42-2.76.18-3.55,1.38-.68,1-.18,2.22-.11,3.33.11,1.79-1.58,2.46-2.41,3.75a2.36,2.36,0,0,0-.31,1.42,7,7,0,0,0,.55,2.43,22.55,22.55,0,0,0,1.32,2.41Z"/><path class="cls-3" d="M190.29,117h0a.2.2,0,0,0,.19-.19h0c-.14-7.38,3.5-15.43,6.1-17.74a.18.18,0,0,0,0-.26.18.18,0,0,0-.24,0c-2.63,2.36-6.36,10.55-6.23,18a.19.19,0,0,0,.19.18Z"/><path class="cls-3" d="M191.6,108.34h.06a24.81,24.81,0,0,1,5.36-.74.2.2,0,0,0,.22-.16.21.21,0,0,0-.16-.22H197a26.59,26.59,0,0,0-5.48.75.19.19,0,0,0-.13.23A.18.18,0,0,0,191.6,108.34Z"/></g><path class="cls-5" d="M19,119.88a31,31,0,0,0-1.54-12.13c-2.14-5.61-5.85-9.6-9.84-10.77s-8.07,1.88-4.25,5.36,11,7.71,12.54,18Z"/><path class="cls-6" d="M19,119.88a31,31,0,0,0-1.54-12.13c-2.14-5.61-5.85-9.6-9.84-10.77s-8.07,1.88-4.25,5.36,11,7.71,12.54,18Z"/><path class="cls-3" d="M18.55,118.67a.22.22,0,0,1-.21-.2C17.09,105.63,5.78,99.17,5.66,99.1a.22.22,0,0,1,.22-.38c.12.06,11.62,6.65,12.89,19.71a.2.2,0,0,1-.19.23h0Z"/><path class="cls-5" d="M18.83,132.05c-1.28.37-3.38.83-4.75.29a4.13,4.13,0,0,1-2.83-3.51,8.11,8.11,0,0,0-.46-2.44A2.87,2.87,0,0,0,9,125c-.93-.28-1.92-.27-2.85-.5a2.87,2.87,0,0,1-2.2-1.69,2.8,2.8,0,0,1,.24-2c.28-.61.67-1.17,1-1.75a1.81,1.81,0,0,0-.73-2.64c-2.09-1.07-5.5-3-4.05-4.82s5-1.25,7.39.1a6.29,6.29,0,0,0,5.19.68c2.2-.58,3.21.08,4.29,2.63.48,1.12,1.12,1.35,1.93,2.07s.73,2.63.73,3.79q0,5.3-.44,10.58C19.38,132,19.23,131.68,18.83,132.05Z"/><path class="cls-3" d="M19.91,127.63a21.07,21.07,0,0,0-3.46-6.17.28.28,0,0,0-.08-.11,24.55,24.55,0,0,0-1.81-2,18.38,18.38,0,0,1,.1-5,.23.23,0,0,0-.17-.26.21.21,0,0,0-.26.17h0a17.56,17.56,0,0,0-.16,4.58,33.56,33.56,0,0,0-10.91-6.8.22.22,0,0,0-.28.14.22.22,0,0,0,.14.28,32.33,32.33,0,0,1,12.56,8.6,13.63,13.63,0,0,0-8.38.22.22.22,0,1,0,.17.4,13.43,13.43,0,0,1,8.72,0,21,21,0,0,1,3.41,6.06.22.22,0,0,0,.28.14.21.21,0,0,0,.13-.27Z"/></g><g id="freepik--Coins--inject-1--inject-2"><path class="cls-5" d="M125.6,132.74a8,8,0,0,0-2.87-2.66c-4.7-2.71-12.32-2.71-17,0a7.91,7.91,0,0,0-2.88,2.66h-.65v2.46h0c.09,1.71,1.26,3.4,3.51,4.7,4.7,2.72,12.31,2.72,17,0,2.26-1.31,3.44-3,3.51-4.7h0v-2.46Z"/><g class="cls-7"><path d="M125.6,132.74a8,8,0,0,0-2.87-2.66c-4.7-2.71-12.32-2.71-17,0a7.91,7.91,0,0,0-2.88,2.66h-.65v2.46h0c.09,1.71,1.26,3.4,3.51,4.7,4.7,2.72,12.31,2.72,17,0,2.26-1.31,3.44-3,3.51-4.7h0v-2.46Z"/></g><path class="cls-8" d="M114.22,128.05a17.46,17.46,0,0,0-8.5,2,7.91,7.91,0,0,0-2.88,2.66h-.65v2.46h0c.09,1.71,1.26,3.4,3.51,4.7a17.36,17.36,0,0,0,8.51,2Z"/><path class="cls-8" d="M107.65,129.18a13.55,13.55,0,0,0-1.93.9,7.91,7.91,0,0,0-2.88,2.66h-.65v2.46h0c.09,1.71,1.26,3.4,3.51,4.7a13,13,0,0,0,1.93.91Z"/><path class="cls-9" d="M120.79,129.18a13.66,13.66,0,0,1,1.94.9,8,8,0,0,1,2.87,2.66h.65v2.46h0c-.09,1.71-1.26,3.4-3.51,4.7a12.58,12.58,0,0,1-1.93.91Z"/><path class="cls-5" d="M122.73,127.83c-4.7-2.71-12.32-2.71-17,0s-4.7,7.11,0,9.83,12.31,2.71,17,0S127.43,130.54,122.73,127.83Z"/><path class="cls-6" d="M122.73,127.83c-4.7-2.71-12.32-2.71-17,0s-4.7,7.11,0,9.83,12.31,2.71,17,0S127.43,130.54,122.73,127.83Z"/><path class="cls-5" d="M119.76,129.63a13.54,13.54,0,0,0-11.08,0c-1.57.81-2.44,1.91-2.44,3.12s.88,2.3,2.44,3.11a13.54,13.54,0,0,0,11.08,0c1.58-.81,2.44-1.91,2.44-3.11S121.34,130.44,119.76,129.63Z"/><path class="cls-10" d="M119.76,129.63a13.54,13.54,0,0,0-11.08,0c-1.57.81-2.44,1.91-2.44,3.12s.88,2.3,2.44,3.11a13.54,13.54,0,0,0,11.08,0c1.58-.81,2.44-1.91,2.44-3.11S121.34,130.44,119.76,129.63Z"/><path class="cls-5" d="M122.47,128.29a18.24,18.24,0,0,0-16.49,0c-2.1,1.21-3.26,2.79-3.26,4.46s1.16,3.24,3.26,4.45a18.32,18.32,0,0,0,16.49,0c2.1-1.21,3.26-2.8,3.26-4.45S124.57,129.5,122.47,128.29Zm-2.71,7.57a13.54,13.54,0,0,1-11.08,0c-1.57-.81-2.44-1.91-2.44-3.11s.88-2.31,2.44-3.12a13.54,13.54,0,0,1,11.08,0c1.58.81,2.44,1.91,2.44,3.12s-.86,2.3-2.44,3.11Z"/><ellipse class="cls-6" cx="114.22" cy="132.74" rx="7.56" ry="3.88"/><ellipse class="cls-5" cx="114.22" cy="132.74" rx="7.56" ry="3.88"/><ellipse class="cls-11" cx="114.22" cy="132.74" rx="7.56" ry="3.88"/><path class="cls-5" d="M119.57,131a13.12,13.12,0,0,0-10.7,0,3.77,3.77,0,0,0-2.14,2.23,3.83,3.83,0,0,0,2.14,2.23,13.2,13.2,0,0,0,10.7,0,3.85,3.85,0,0,0,2.15-2.23A3.79,3.79,0,0,0,119.57,131Z"/><path class="cls-12" d="M119.57,131a13.12,13.12,0,0,0-10.7,0,3.77,3.77,0,0,0-2.14,2.23,3.83,3.83,0,0,0,2.14,2.23,13.2,13.2,0,0,0,10.7,0,3.85,3.85,0,0,0,2.15-2.23A3.79,3.79,0,0,0,119.57,131Z"/><polygon class="cls-5" points="114.94 130.06 114.94 131.17 114.56 131.57 113.86 132.3 113.86 131.15 114.94 130.06"/><polygon class="cls-13" points="114.94 130.06 114.94 131.17 114.56 131.57 113.86 132.3 113.86 131.15 114.94 130.06"/><path class="cls-5" d="M113.86,131.15v.65a7.86,7.86,0,0,1-1.08.31,1.19,1.19,0,0,1-.46,0l-.22-.1c-.26-.15-.31-.39.2-.69A1.79,1.79,0,0,1,113.86,131.15Z"/><path class="cls-14" d="M113.86,131.15v.65a7.86,7.86,0,0,1-1.08.31,1.19,1.19,0,0,1-.46,0l-.22-.1c-.26-.15-.31-.39.2-.69A1.79,1.79,0,0,1,113.86,131.15Z"/><path class="cls-5" d="M118.88,134.29v1l-1.21.7-.88-.52a4.56,4.56,0,0,1-3.48.16v-1l.56-.55-.56.16a3.53,3.53,0,0,1-2.7-.31c-.55-.32-.8-.66-.8-1V132l.1-.41-.33-.18v-1l.9.51a1.42,1.42,0,0,0-.67,1h0c0,.35.27.68.8,1a4.06,4.06,0,0,0,3.42.11c1-.32,1.72-.7,2.29-.37.36.2.25.44-.15.69a2,2,0,0,1-1.71.1l-1.15,1.13a3.61,3.61,0,0,0,.64.19,4.78,4.78,0,0,0,2.84-.34l.88.52Z"/><path class="cls-15" d="M109.79,132h0c0,.35.27.68.8,1a4.06,4.06,0,0,0,3.42.11c1-.32,1.72-.7,2.3-.37.35.2.24.44-.16.69a2,2,0,0,1-1.71.1l-1.14,1.13a3.28,3.28,0,0,0,.63.19,4.78,4.78,0,0,0,2.84-.34l.88.52,1.21-.71v1l-1.21.7-.88-.52a4.54,4.54,0,0,1-3.47.16v-1l.55-.55-.55.16a3.56,3.56,0,0,1-2.71-.31c-.54-.32-.8-.66-.8-1V132l.1-.4"/><path class="cls-14" d="M109.55,130.43v1l.33.18h0a2.15,2.15,0,0,1,.57-.63Z"/><path class="cls-5" d="M118.68,133.67a1.12,1.12,0,0,1-.09.44l-.61-.35a1.21,1.21,0,0,0,.69-.92C118.67,133.12,118.68,133.64,118.68,133.67Z"/><g class="cls-16"><path d="M118.68,133.67a1.12,1.12,0,0,1-.09.44l-.61-.35a1.21,1.21,0,0,0,.69-.92C118.67,133.12,118.68,133.64,118.68,133.67Z"/></g><path class="cls-5" d="M118.68,134.18l-.7-.4a1.2,1.2,0,0,0,.7-1.07v-.09a1.31,1.31,0,0,0-.77-.94h0a3.18,3.18,0,0,0-1.62-.44h-.58a6.74,6.74,0,0,0-.78.16l-.37.11-.51.17-.19.06a5.79,5.79,0,0,1-1.08.31,1.19,1.19,0,0,1-.46,0,1,1,0,0,1-.22-.09c-.26-.16-.31-.4.2-.69a1.73,1.73,0,0,1,1.56-.16l1.08-1.09a4.59,4.59,0,0,0-3.26.18l-.9-.52-1.23.75.9.51a1.42,1.42,0,0,0-.67,1h0c0,.35.27.68.8,1a4.06,4.06,0,0,0,3.42.11c1-.32,1.72-.71,2.29-.37.36.2.25.44-.15.69a2,2,0,0,1-1.71.09l-1.14,1.14a3.51,3.51,0,0,0,.63.19,4.16,4.16,0,0,0,1.11.08,5,5,0,0,0,1.73-.44l.9.52,1.21-.7Z"/><polygon class="cls-5" points="116.77 134.48 116.77 135.43 117.67 135.95 117.67 135 116.77 134.48"/><polygon class="cls-14" points="116.77 134.48 116.77 135.43 117.67 135.95 117.67 135 116.77 134.48"/><polygon class="cls-17" points="109.56 130.43 110.78 129.72 111.68 130.24 110.79 129.87 109.56 130.43"/><path class="cls-17" d="M112.3,131.31a1.73,1.73,0,0,1,1.56-.16l1.08-1.09-1.08,1A1.63,1.63,0,0,0,112.3,131.31Z"/><path class="cls-17" d="M113.3,134.63a4.19,4.19,0,0,0,.63.19,4.58,4.58,0,0,0,1.11.08,3.71,3.71,0,0,1-1.54-.33l1-1.09Z"/><polygon class="cls-17" points="116.77 134.48 117.67 134.88 118.88 134.3 117.67 135 116.77 134.48"/><path class="cls-17" d="M106.07,128.44c3.19-1.94,8.15-2.13,8.15-2.13a16.82,16.82,0,0,0-8.24,2c-2.1,1.22-3.26,2.8-3.26,4.46C102.72,132.75,102.83,130.42,106.07,128.44Z"/><path class="cls-17" d="M113.3,139.67a17.83,17.83,0,0,0,9.43-2c2.68-1.56,3.84-3.66,3.45-5.7,0,0,.5,3.29-3.66,5.55A21,21,0,0,1,113.3,139.67Z"/><path class="cls-18" d="M106.25,132.71a2.69,2.69,0,0,1,0-.4.18.18,0,0,1,0-.12,2,2,0,0,0,.08-.3l.07-.15a1.8,1.8,0,0,1,.12-.25l.09-.16a1.77,1.77,0,0,1,.16-.22l.13-.17.18-.2.18-.18.19-.16.24-.19.17-.11a2.7,2.7,0,0,1,.33-.22h0l-1.83-1.83h0l-.44.25a8.1,8.1,0,0,0-2.28,1.88h0l2.55,2.55Z"/><path class="cls-18" d="M115.4,137H115l-.74,0h-.08c-.31,0-.62,0-.93,0l-.28,0c-.33,0-.65-.06-1-.11h0a6.94,6.94,0,0,1-1-.19l-.22,0c-.3-.07-.6-.16-.87-.25h0l2.73,2.73h0c.52,0,1,.07,1.59.07a18.88,18.88,0,0,0,3.1-.25h0L115.43,137Z"/><path class="cls-18" d="M109.79,132h0c0,.35.27.69.8,1a3,3,0,0,0,1.2.41l-1.86-1.87A.89.89,0,0,0,109.79,132Z"/><path class="cls-18" d="M125.73,132.74c0-1.66-1.16-3.24-3.26-4.45a13.78,13.78,0,0,0-3-1.26l6.24,6.23A3,3,0,0,0,125.73,132.74Z"/><path class="cls-18" d="M114.22,128.44H115l.38,0,.41,0,.32,0,.44.06.28.05.48.1h.07l-2.47-2.47h-.72a18.18,18.18,0,0,0-2.44.16l2,2Z"/><path class="cls-18" d="M122.06,133.55s0,.09,0,.13a3.18,3.18,0,0,1-.16.32s0,.07-.06.11a3,3,0,0,1-.2.29l-.06.09a3.71,3.71,0,0,1-.27.29l-.08.08a3.38,3.38,0,0,1-.35.31l-.08.06-.13.1h0l1.86,1.86a8.19,8.19,0,0,0,1.87-1.44l-2.27-2.27Z"/><path class="cls-18" d="M118.68,132.71v-.09a1.31,1.31,0,0,0-.8-.94h0a3.19,3.19,0,0,0-1.31-.41l2,2A1.13,1.13,0,0,0,118.68,132.71Z"/><path class="cls-18" d="M110.94,128.83h0L109.11,127a13.53,13.53,0,0,0-1.85.65l1.8,1.8A9.42,9.42,0,0,1,110.94,128.83Z"/><path class="cls-18" d="M118.44,136.4c-.25.09-.52.16-.78.23l-.23.05-.75.16-.18,0,1.87,1.86a16.62,16.62,0,0,0,1.95-.55l-1.8-1.8Z"/><path class="cls-18" d="M114.44,133.49l-.66.65.75.76H115a5.12,5.12,0,0,0,1.62-.39l-.94-.94A2,2,0,0,1,114.44,133.49Z"/><path class="cls-18" d="M114.91,132.77l-1-1-.06,0a7.86,7.86,0,0,1-1.08.31,1.19,1.19,0,0,1-.46,0l-.22-.1c-.27-.15-.31-.39.2-.69a1.89,1.89,0,0,1,.87-.27l-1-1-.51.19-.9-.52-.9.52,3.1,3.11a9.17,9.17,0,0,0,1-.27Z"/><path class="cls-18" d="M115.78,126.38h0l2.73,2.73a9.14,9.14,0,0,1,1.25.52c1.58.81,2.44,1.91,2.44,3.12v.07h0l2.53,2.53h0a4.6,4.6,0,0,0,.52-.78l-8-8A13.49,13.49,0,0,0,115.78,126.38Z"/><path class="cls-18" d="M106,137.2a10.8,10.8,0,0,0,1.07.55l-4.25-4.25A6.07,6.07,0,0,0,106,137.2Z"/><path class="cls-18" d="M102.72,132.63l5.63,5.63a15,15,0,0,0,1.75.47l-7.18-7.18A4,4,0,0,0,102.72,132.63Z"/><g class="cls-19"><path class="cls-3" d="M103.7,130.19A8,8,0,0,1,106,128.3l.44-.25h0l-.39-.39-.33.19a8.53,8.53,0,0,0-2.39,2h0l.37.38Z"/><path class="cls-3" d="M117.33,138.92a18,18,0,0,1-3.11.24c-.53,0-1.07,0-1.59-.06h0l.56.56h0a20.14,20.14,0,0,0,4.59-.29l-.44-.43Z"/><path class="cls-3" d="M106.71,133.18c-.23-1.06.39-2.16,1.86-3l-.3-.31h0l-.34.22-.16.11-.24.2-.19.16-.18.18-.18.2a1.83,1.83,0,0,0-.13.16l-.16.23-.09.16a1.15,1.15,0,0,0-.12.25l-.07.15a2.46,2.46,0,0,0-.08.3.63.63,0,0,0,0,.12,1.81,1.81,0,0,0,0,.4Z"/><path class="cls-3" d="M115,136.6a12.65,12.65,0,0,1-5.86-1l.75.76h0c.29.09.58.18.88.25l.21,0a9.39,9.39,0,0,0,1,.19h0c.32,0,.64.09,1,.11l.29,0c.3,0,.61,0,.92,0h.08c.25,0,.5,0,.74,0H115l.36,0Z"/><path class="cls-3" d="M122.47,128.29c2.1,1.21,3.26,2.79,3.26,4.45a3.15,3.15,0,0,1,0,.53l.44.44c.51-2.09-.63-4.28-3.4-5.88a14.9,14.9,0,0,0-4-1.53l.73.73A12.87,12.87,0,0,1,122.47,128.29Z"/><path class="cls-3" d="M114.22,126.32h.72l-.53-.51h0a18.92,18.92,0,0,0-3.1.2l.47.47A18.07,18.07,0,0,1,114.22,126.32Z"/><path class="cls-3" d="M122.49,137.2l.38.39a8.7,8.7,0,0,0,1.86-1.45h0l-.37-.37A7.87,7.87,0,0,1,122.49,137.2Z"/><path class="cls-3" d="M121.75,133.14a3.22,3.22,0,0,1-1.42,1.89l.3.29.13-.09.08-.06a3.38,3.38,0,0,0,.35-.31l.08-.08a3.71,3.71,0,0,0,.27-.29l.06-.09a3,3,0,0,0,.2-.29s0-.07.06-.11a3.18,3.18,0,0,0,.16-.32s0-.08,0-.13a.13.13,0,0,1,0-.08Z"/><path class="cls-3" d="M113.76,128.46l.41.4a13.75,13.75,0,0,1,3.82.52l-.58-.58h-.08l-.47-.1-.28,0-.44-.06-.32,0-.41,0-.38,0h-.79C114.07,128.49,113.94,128.46,113.76,128.46Z"/><path class="cls-3" d="M118.37,138.73l.44.44a16.3,16.3,0,0,0,1.92-.58l-.41-.41A14.88,14.88,0,0,1,118.37,138.73Z"/><path class="cls-3" d="M109.13,127l-.43-.44a16.88,16.88,0,0,0-1.84.68l.4.4A14.23,14.23,0,0,1,109.13,127Z"/><path class="cls-3" d="M109.39,129.75a10,10,0,0,1,1.91-.59l-.34-.35h0a10.19,10.19,0,0,0-1.86.63Z"/><path class="cls-3" d="M118.19,136.05a13,13,0,0,1-2.06.44l.37.37.18,0,.75-.16.23,0c.26-.07.53-.14.78-.23l.08,0Z"/><path class="cls-3" d="M115.78,126.38c.49,0,1,.09,1.44.16l-.61-.6c-.46-.06-.92-.1-1.39-.12h0l.56.56Z"/><path class="cls-3" d="M125.63,135l-.38-.38a4.44,4.44,0,0,1-.52.76h0l.38.37h0A5,5,0,0,0,125.63,135Z"/><path class="cls-3" d="M119.76,129.63a9.51,9.51,0,0,0-1.24-.51h0l.73.73.33.15a3.77,3.77,0,0,1,2.19,2.35l.44.43v-.05C122.2,131.54,121.33,130.44,119.76,129.63Z"/><path class="cls-3" d="M106,137.2a6.07,6.07,0,0,1-3.18-3.7l-.6-.6c.06,1.73,1.24,3.44,3.51,4.76a13.53,13.53,0,0,0,2.26,1l-.94-.94A10.48,10.48,0,0,1,106,137.2Z"/><path class="cls-3" d="M108.35,138.26l.78.78h0c.53.14,1.08.26,1.64.36l-.67-.67A15,15,0,0,1,108.35,138.26Z"/><path class="cls-3" d="M102.92,131.55l-.4-.4h0a3.74,3.74,0,0,0-.28,1l.48.49A4,4,0,0,1,102.92,131.55Z"/></g><path class="cls-5" d="M124.78,129.27a7.83,7.83,0,0,0-2.88-2.66c-4.69-2.71-12.31-2.71-17,0a7.72,7.72,0,0,0-2.87,2.66h-.65v2.45h0c.09,1.71,1.25,3.41,3.51,4.71,4.69,2.71,12.31,2.71,17,0,2.26-1.31,3.44-3,3.51-4.71h0v-2.45Z"/><g class="cls-7"><path d="M124.78,129.27a7.83,7.83,0,0,0-2.88-2.66c-4.69-2.71-12.31-2.71-17,0a7.72,7.72,0,0,0-2.87,2.66h-.65v2.45h0c.09,1.71,1.25,3.41,3.51,4.71,4.69,2.71,12.31,2.71,17,0,2.26-1.31,3.44-3,3.51-4.71h0v-2.45Z"/></g><path class="cls-8" d="M113.4,124.58a17.44,17.44,0,0,0-8.51,2,7.72,7.72,0,0,0-2.87,2.66h-.65v2.45h0c.09,1.71,1.25,3.41,3.51,4.71a17.3,17.3,0,0,0,8.5,2Z"/><path class="cls-8" d="M106.83,125.7a13.72,13.72,0,0,0-1.94.91,7.72,7.72,0,0,0-2.87,2.66h-.65v2.45h0c.09,1.71,1.25,3.41,3.51,4.71a12.58,12.58,0,0,0,1.93.91Z"/><path class="cls-9" d="M120,125.7a13.6,13.6,0,0,1,1.93.91,7.83,7.83,0,0,1,2.88,2.66h.65v2.45h0c-.09,1.71-1.27,3.41-3.51,4.71a13,13,0,0,1-1.93.91Z"/><path class="cls-5" d="M121.9,124.36c-4.69-2.72-12.31-2.72-17,0s-4.7,7.11,0,9.82,12.32,2.71,17,0S126.6,127.07,121.9,124.36Z"/><path class="cls-6" d="M121.9,124.36c-4.69-2.72-12.31-2.72-17,0s-4.7,7.11,0,9.82,12.32,2.71,17,0S126.6,127.07,121.9,124.36Z"/><path class="cls-5" d="M118.94,126.16a13.54,13.54,0,0,0-11.08,0c-1.58.8-2.44,1.91-2.44,3.11s.87,2.3,2.44,3.11a13.54,13.54,0,0,0,11.08,0c1.57-.81,2.44-1.91,2.44-3.11S120.51,127,118.94,126.16Z"/><path class="cls-10" d="M118.94,126.16a13.54,13.54,0,0,0-11.08,0c-1.58.8-2.44,1.91-2.44,3.11s.87,2.3,2.44,3.11a13.54,13.54,0,0,0,11.08,0c1.57-.81,2.44-1.91,2.44-3.11S120.51,127,118.94,126.16Z"/><path class="cls-5" d="M121.64,124.81a18.32,18.32,0,0,0-16.49,0c-2.1,1.22-3.25,2.8-3.25,4.46s1.15,3.24,3.25,4.46a18.32,18.32,0,0,0,16.49,0c2.1-1.22,3.26-2.8,3.26-4.46S123.74,126,121.64,124.81Zm-2.7,7.57a13.54,13.54,0,0,1-11.08,0c-1.58-.81-2.44-1.91-2.44-3.11s.87-2.31,2.44-3.11a13.54,13.54,0,0,1,11.08,0c1.57.8,2.44,1.91,2.44,3.11S120.51,131.57,118.94,132.38Z"/><path class="cls-6" d="M118.76,132c2.95-1.51,2.95-4,0-5.49a13.2,13.2,0,0,0-10.7,0c-3,1.52-3,4,0,5.49A13.12,13.12,0,0,0,118.76,132Z"/><path class="cls-5" d="M118.76,132c2.95-1.51,2.95-4,0-5.49a13.2,13.2,0,0,0-10.7,0c-3,1.52-3,4,0,5.49A13.12,13.12,0,0,0,118.76,132Z"/><path class="cls-11" d="M118.76,132c2.95-1.51,2.95-4,0-5.49a13.2,13.2,0,0,0-10.7,0c-3,1.52-3,4,0,5.49A13.12,13.12,0,0,0,118.76,132Z"/><path class="cls-5" d="M118.76,127.56a13.2,13.2,0,0,0-10.7,0,3.82,3.82,0,0,0-2.15,2.23,3.79,3.79,0,0,0,2.15,2.23,13.12,13.12,0,0,0,10.7,0,3.77,3.77,0,0,0,2.14-2.23A3.83,3.83,0,0,0,118.76,127.56Z"/><path class="cls-12" d="M118.76,127.56a13.2,13.2,0,0,0-10.7,0,3.82,3.82,0,0,0-2.15,2.23,3.79,3.79,0,0,0,2.15,2.23,13.12,13.12,0,0,0,10.7,0,3.77,3.77,0,0,0,2.14-2.23A3.83,3.83,0,0,0,118.76,127.56Z"/><polygon class="cls-5" points="114.11 126.58 114.11 127.69 113.73 128.09 113.04 128.83 113.04 127.67 114.11 126.58"/><polygon class="cls-13" points="114.11 126.58 114.11 127.69 113.73 128.09 113.04 128.83 113.04 127.67 114.11 126.58"/><path class="cls-5" d="M113.06,127.67v.66a6.64,6.64,0,0,1-1.08.3,1.19,1.19,0,0,1-.46,0,.85.85,0,0,1-.22-.09c-.27-.16-.31-.4.2-.69A1.76,1.76,0,0,1,113.06,127.67Z"/><path class="cls-14" d="M113.06,127.67v.66a6.64,6.64,0,0,1-1.08.3,1.19,1.19,0,0,1-.46,0,.85.85,0,0,1-.22-.09c-.27-.16-.31-.4.2-.69A1.76,1.76,0,0,1,113.06,127.67Z"/><path class="cls-5" d="M118.06,130.82v1l-1.22.7L116,132a4.57,4.57,0,0,1-3.48.15v-1l.55-.55-.55.15a3.56,3.56,0,0,1-2.71-.31c-.54-.31-.79-.66-.79-1v-.93l.1-.41-.34-.19v-1l.9.52a1.38,1.38,0,0,0-.66,1h0c0,.34.26.68.79,1a4.06,4.06,0,0,0,3.42.11c1-.32,1.72-.7,2.3-.37.36.21.25.44-.15.69a2,2,0,0,1-1.71.1l-1.15,1.14.63.18A4.81,4.81,0,0,0,116,131l.87.51Z"/><path class="cls-15" d="M109,128.5h0c0,.34.27.68.8,1a4.06,4.06,0,0,0,3.42.11c1-.32,1.71-.7,2.29-.37.36.21.25.44-.15.69a2,2,0,0,1-1.71.1l-1.15,1.14c.21.07.42.13.64.18A4.78,4.78,0,0,0,116,131l.87.51,1.22-.69v.95l-1.22.7-.87-.52a4.56,4.56,0,0,1-3.48.16v-.95l.55-.55-.55.15a3.53,3.53,0,0,1-2.7-.31c-.55-.32-.8-.66-.8-1v-.93l.1-.41"/><path class="cls-14" d="M108.74,127v1l.33.19h0a1.81,1.81,0,0,1,.57-.63Z"/><path class="cls-5" d="M117.85,130.19a1.32,1.32,0,0,1-.08.44l-.61-.35a1.21,1.21,0,0,0,.69-.92Z"/><g class="cls-16"><path d="M117.85,130.19a1.32,1.32,0,0,1-.08.44l-.61-.35a1.21,1.21,0,0,0,.69-.92Z"/></g><path class="cls-5" d="M117.85,130.7l-.69-.4a1.16,1.16,0,0,0,.69-1.06.17.17,0,0,0,0-.1,1.31,1.31,0,0,0-.77-.94h0a3.27,3.27,0,0,0-1.61-.44h-.57a6.93,6.93,0,0,0-.79.17l-.37.1-.5.17-.19.06a5.79,5.79,0,0,1-1.08.31.9.9,0,0,1-.46,0,.85.85,0,0,1-.22-.09c-.27-.15-.31-.39.19-.68a1.78,1.78,0,0,1,1.57-.17l1.07-1.09a4.67,4.67,0,0,0-3.25.18l-.91-.48-1.22.71.89.52a1.38,1.38,0,0,0-.66,1h0c0,.34.26.68.8,1a4.06,4.06,0,0,0,3.42.11c1-.32,1.71-.7,2.29-.37.36.21.25.46-.15.68a2,2,0,0,1-1.71.11l-1.15,1.14.63.18a4.62,4.62,0,0,0,1.11.08,4.91,4.91,0,0,0,1.73-.44l.9.53,1.22-.71Z"/><polygon class="cls-5" points="115.94 131 115.94 131.96 116.84 132.48 116.84 131.52 115.94 131"/><polygon class="cls-14" points="115.94 131 115.94 131.96 116.84 132.48 116.84 131.52 115.94 131"/><polygon class="cls-17" points="108.73 126.95 109.96 126.24 110.86 126.76 109.97 126.39 108.73 126.95"/><path class="cls-17" d="M111.48,127.83a1.79,1.79,0,0,1,1.56-.16l1.07-1.09-1,1A1.64,1.64,0,0,0,111.48,127.83Z"/><path class="cls-17" d="M112.47,131.16a3.73,3.73,0,0,0,.63.18,4.17,4.17,0,0,0,1.11.09,4,4,0,0,1-1.56-.32l1-1.09Z"/><polygon class="cls-17" points="115.94 131 116.84 131.4 118.06 130.82 116.84 131.52 115.94 131"/><path class="cls-17" d="M105.25,125c3.18-1.93,8.15-2.12,8.15-2.12a16.86,16.86,0,0,0-8.25,2c-2.1,1.22-3.25,2.8-3.25,4.46C101.9,129.27,102,126.94,105.25,125Z"/><path class="cls-17" d="M112.47,136.19a17.81,17.81,0,0,0,9.43-2c2.69-1.55,3.84-3.66,3.45-5.7,0,0,.51,3.3-3.65,5.55A21.1,21.1,0,0,1,112.47,136.19Z"/><path class="cls-18" d="M105.42,129.24a1.9,1.9,0,0,1,0-.41.17.17,0,0,1,0-.11c0-.1.05-.2.08-.3a1,1,0,0,1,.07-.15c0-.09.07-.17.11-.26l.1-.15.15-.23.14-.17c.06-.06.11-.13.18-.19l.18-.18.18-.16a3.11,3.11,0,0,1,.25-.2l.16-.11.33-.22h0l-1.82-1.84h0l-.43.25a7.84,7.84,0,0,0-2.28,1.89h0l2.54,2.54Z"/><path class="cls-18" d="M114.58,133.52h-1.26c-.31,0-.63,0-.93,0l-.29,0c-.32,0-.64-.06-1-.11h0c-.33,0-.64-.12-1-.19l-.21,0c-.31-.08-.6-.16-.88-.26h0l2.74,2.73h0c.52,0,1,.07,1.58.07a20.26,20.26,0,0,0,3.11-.24h0l-1.92-1.93Z"/><path class="cls-18" d="M109,128.5h0c0,.34.26.68.8,1a3.3,3.3,0,0,0,1.19.41l-1.85-1.85A.8.8,0,0,0,109,128.5Z"/><path class="cls-18" d="M124.9,129.27c0-1.66-1.17-3.24-3.27-4.46a13.67,13.67,0,0,0-3-1.25l6.24,6.23A4.55,4.55,0,0,0,124.9,129.27Z"/><path class="cls-18" d="M113.4,125h.79l.38,0,.41,0,.32,0,.44.06.27,0,.48.09h.07l-2.46-2.46h-.72a20,20,0,0,0-2.45.15l2,2Z"/><path class="cls-18" d="M121.24,130.08s0,.08,0,.13a2.3,2.3,0,0,1-.15.32l-.07.11a2.75,2.75,0,0,1-.19.28l-.07.09-.26.3-.09.08a3.52,3.52,0,0,1-.35.31l-.07.05-.13.1h0l1.86,1.86a8.92,8.92,0,0,0,1.87-1.43L121.26,130Z"/><path class="cls-18" d="M117.85,129.24a.17.17,0,0,0,0-.1,1.31,1.31,0,0,0-.77-.94h0a3,3,0,0,0-1.32-.4l2,2A1.07,1.07,0,0,0,117.85,129.24Z"/><path class="cls-18" d="M110.11,125.37h0l-1.82-1.83a13.53,13.53,0,0,0-1.85.65l1.8,1.8A11.17,11.17,0,0,1,110.11,125.37Z"/><path class="cls-18" d="M117.62,132.93l-.79.22-.22.06c-.25,0-.5.11-.76.15l-.17,0,1.86,1.86a15.56,15.56,0,0,0,1.95-.54l-1.79-1.81Z"/><path class="cls-18" d="M113.62,130l-.66.65.75.75a4.17,4.17,0,0,0,.5,0,5,5,0,0,0,1.62-.38l-.94-.95A2,2,0,0,1,113.62,130Z"/><path class="cls-18" d="M114.09,129.31l-1-1,0,0a6.64,6.64,0,0,1-1.08.3,1.19,1.19,0,0,1-.46,0,.85.85,0,0,1-.22-.09c-.27-.16-.31-.39.2-.68a1.79,1.79,0,0,1,.87-.28l-1-1a3.52,3.52,0,0,0-.51.19l-.9-.56-.9.53,3.1,3.09a7.4,7.4,0,0,0,1-.26C113.5,129.5,113.82,129.38,114.09,129.31Z"/><path class="cls-18" d="M115,122.91h0l2.72,2.72a9.89,9.89,0,0,1,1.26.53c1.57.8,2.44,1.91,2.44,3.11v0h0l2.53,2.53h0a4.34,4.34,0,0,0,.5-.76l-8-8C115.93,123,115.44,122.94,115,122.91Z"/><path class="cls-18" d="M105.17,133.73a10.56,10.56,0,0,0,1.06.54L102,130A6,6,0,0,0,105.17,133.73Z"/><path class="cls-18" d="M101.9,129.15l5.63,5.63a13.33,13.33,0,0,0,1.75.48l-7.18-7.18A3.55,3.55,0,0,0,101.9,129.15Z"/><g class="cls-19"><path class="cls-3" d="M102.88,126.68a8,8,0,0,1,2.28-1.88l.44-.25h0l-.39-.39-.33.19a8.4,8.4,0,0,0-2.4,2h0l.38.37Z"/><path class="cls-3" d="M116.5,135.45a20,20,0,0,1-3.1.24q-.81,0-1.59-.06h0l.56.56h0a20.81,20.81,0,0,0,4.59-.3l-.44-.44Z"/><path class="cls-3" d="M105.89,129.7c-.24-1.06.39-2.16,1.86-3l-.3-.3h0l-.33.22-.16.11-.25.19-.18.17-.18.17-.18.2-.14.17-.15.22-.1.16a2,2,0,0,0-.11.26.61.61,0,0,0-.07.14c0,.1-.06.2-.08.3s0,.08,0,.12a1.81,1.81,0,0,0,0,.4Z"/><path class="cls-3" d="M114.19,133.13a12.69,12.69,0,0,1-5.87-1l.76.75h0c.28.1.58.18.87.26l.21.06q.47.1,1,.18h0q.47.08,1,.12l.28,0c.31,0,.62,0,.93,0h.9l.35,0Z"/><path class="cls-3" d="M121.64,124.81c2.1,1.22,3.26,2.8,3.26,4.46a4.53,4.53,0,0,1,0,.52l.43.44c.51-2.09-.63-4.28-3.4-5.88a14.65,14.65,0,0,0-4-1.53l.73.73A13.58,13.58,0,0,1,121.64,124.81Z"/><path class="cls-3" d="M113.4,122.85h.71l-.53-.53h0a18.8,18.8,0,0,0-3.09.2l.46.46A20,20,0,0,1,113.4,122.85Z"/><path class="cls-3" d="M121.67,133.7l.38.37a8.35,8.35,0,0,0,1.86-1.44h0l-.37-.37A9,9,0,0,1,121.67,133.7Z"/><path class="cls-3" d="M120.92,129.66a3.17,3.17,0,0,1-1.41,1.89l.3.3.13-.1.07-.05a3.52,3.52,0,0,0,.35-.31l.09-.08.26-.3.07-.09a2.75,2.75,0,0,0,.19-.28l.07-.11a2.3,2.3,0,0,0,.15-.32.29.29,0,0,1,0-.13s0-.05,0-.08Z"/><path class="cls-3" d="M112.94,125l.4.4a13.34,13.34,0,0,1,3.82.52l-.59-.58-.08,0-.48-.1-.27,0-.44-.06-.32,0-.41,0-.38,0h-1.25Z"/><path class="cls-3" d="M117.54,135.25l.44.44a15.9,15.9,0,0,0,1.93-.58l-.41-.4A16.21,16.21,0,0,1,117.54,135.25Z"/><path class="cls-3" d="M108.31,123.52l-.44-.44a14.83,14.83,0,0,0-1.83.67l.4.4A12.46,12.46,0,0,1,108.31,123.52Z"/><path class="cls-3" d="M108.57,126.28a9.82,9.82,0,0,1,1.91-.59l-.34-.35h0a10.09,10.09,0,0,0-1.85.63Z"/><path class="cls-3" d="M117.36,132.57a12.08,12.08,0,0,1-2,.44l.37.37.17,0,.76-.16.22-.05c.27-.07.53-.14.79-.23l.07,0Z"/><path class="cls-3" d="M115,122.91a13.3,13.3,0,0,1,1.43.16l-.6-.61c-.46,0-.93-.09-1.39-.11h0l.56.56Z"/><path class="cls-3" d="M124.8,131.48l-.38-.39a4.28,4.28,0,0,1-.51.77h0l.38.37h0A6.19,6.19,0,0,0,124.8,131.48Z"/><path class="cls-3" d="M118.94,126.16a8,8,0,0,0-1.25-.52h0l.73.73.33.15a3.7,3.7,0,0,1,2.17,2.35l.44.44v0h0C121.39,128.07,120.51,127,118.94,126.16Z"/><path class="cls-3" d="M105.17,133.73A6,6,0,0,1,102,130l-.61-.61c.07,1.73,1.24,3.44,3.51,4.76a13.27,13.27,0,0,0,2.27,1l-.94-.94A10.4,10.4,0,0,1,105.17,133.73Z"/><path class="cls-3" d="M107.53,134.78l.78.78h0c.53.15,1.08.26,1.63.36l-.66-.66A13.33,13.33,0,0,1,107.53,134.78Z"/><path class="cls-3" d="M102.1,128.08l-.41-.41h0a4.22,4.22,0,0,0-.27,1l.48.48A3.55,3.55,0,0,1,102.1,128.08Z"/></g><path class="cls-5" d="M126.5,125.91a7.74,7.74,0,0,0-2.88-2.66c-4.7-2.71-12.31-2.71-17,0a7.64,7.64,0,0,0-2.87,2.66h-.65v2.45h0c.09,1.71,1.26,3.4,3.51,4.71,4.69,2.71,12.31,2.71,17,0,2.25-1.32,3.43-3,3.5-4.71h0v-2.45Z"/><g class="cls-7"><path d="M126.5,125.91a7.74,7.74,0,0,0-2.88-2.66c-4.7-2.71-12.31-2.71-17,0a7.64,7.64,0,0,0-2.87,2.66h-.65v2.45h0c.09,1.71,1.26,3.4,3.51,4.71,4.69,2.71,12.31,2.71,17,0,2.25-1.32,3.43-3,3.5-4.71h0v-2.45Z"/></g><path class="cls-8" d="M115.12,121.21a17.44,17.44,0,0,0-8.51,2,7.64,7.64,0,0,0-2.87,2.66h-.65v2.45h0c.09,1.71,1.26,3.4,3.51,4.71a17.43,17.43,0,0,0,8.5,2Z"/><path class="cls-8" d="M108.55,122.34a12.69,12.69,0,0,0-1.94.91,7.64,7.64,0,0,0-2.87,2.66h-.65v2.45h0c.09,1.71,1.26,3.4,3.51,4.71a12.53,12.53,0,0,0,1.93.9Z"/><path class="cls-9" d="M121.69,122.34a13.6,13.6,0,0,1,1.93.91,7.74,7.74,0,0,1,2.88,2.66h.65v2.45h0c-.09,1.71-1.27,3.4-3.51,4.71a12.64,12.64,0,0,1-1.94.9Z"/><path class="cls-5" d="M123.62,121c-4.7-2.71-12.31-2.71-17,0s-4.69,7.11,0,9.82,12.31,2.72,17,0S128.32,123.71,123.62,121Z"/><path class="cls-6" d="M123.62,121c-4.7-2.71-12.31-2.71-17,0s-4.69,7.11,0,9.82,12.31,2.72,17,0S128.32,123.71,123.62,121Z"/><path class="cls-5" d="M120.66,122.79a13.54,13.54,0,0,0-11.08,0c-1.57.81-2.44,1.91-2.44,3.12s.88,2.3,2.44,3.11a13.54,13.54,0,0,0,11.08,0c1.57-.81,2.44-1.91,2.44-3.11S122.23,123.61,120.66,122.79Z"/><path class="cls-10" d="M120.66,122.79a13.54,13.54,0,0,0-11.08,0c-1.57.81-2.44,1.91-2.44,3.12s.88,2.3,2.44,3.11a13.54,13.54,0,0,0,11.08,0c1.57-.81,2.44-1.91,2.44-3.11S122.23,123.61,120.66,122.79Z"/><path class="cls-5" d="M123.36,121.45a18.22,18.22,0,0,0-16.48,0c-2.11,1.22-3.27,2.79-3.27,4.46s1.16,3.24,3.27,4.45a18.22,18.22,0,0,0,16.48,0c2.1-1.21,3.26-2.79,3.26-4.45S125.46,122.67,123.36,121.45Zm-2.7,7.57a13.54,13.54,0,0,1-11.08,0c-1.57-.81-2.44-1.91-2.44-3.11s.88-2.31,2.44-3.12a13.54,13.54,0,0,1,11.08,0c1.57.81,2.44,1.91,2.44,3.12s-.87,2.3-2.44,3.11Z"/><ellipse class="cls-6" cx="115.12" cy="125.91" rx="7.56" ry="3.88"/><ellipse class="cls-5" cx="115.12" cy="125.91" rx="7.56" ry="3.88"/><ellipse class="cls-11" cx="115.12" cy="125.91" rx="7.56" ry="3.88"/><path class="cls-5" d="M120.47,124.19a13.12,13.12,0,0,0-10.7,0,3.79,3.79,0,0,0-2.15,2.23,3.85,3.85,0,0,0,2.15,2.23,13.12,13.12,0,0,0,10.7,0,3.85,3.85,0,0,0,2.15-2.23A3.79,3.79,0,0,0,120.47,124.19Z"/><path class="cls-12" d="M120.47,124.19a13.12,13.12,0,0,0-10.7,0,3.79,3.79,0,0,0-2.15,2.23,3.85,3.85,0,0,0,2.15,2.23,13.12,13.12,0,0,0,10.7,0,3.85,3.85,0,0,0,2.15-2.23A3.79,3.79,0,0,0,120.47,124.19Z"/><polygon class="cls-5" points="115.83 123.22 115.83 124.33 115.46 124.73 114.75 125.46 114.75 124.31 115.83 123.22"/><polygon class="cls-13" points="115.83 123.22 115.83 124.33 115.46 124.73 114.75 125.46 114.75 124.31 115.83 123.22"/><path class="cls-5" d="M114.76,124.31V125a5.79,5.79,0,0,1-1.08.31,1.19,1.19,0,0,1-.46,0l-.22-.09c-.27-.16-.31-.4.2-.69A1.76,1.76,0,0,1,114.76,124.31Z"/><path class="cls-14" d="M114.76,124.31V125a5.79,5.79,0,0,1-1.08.31,1.19,1.19,0,0,1-.46,0l-.22-.09c-.27-.16-.31-.4.2-.69A1.76,1.76,0,0,1,114.76,124.31Z"/><path class="cls-5" d="M119.78,127.46v1l-1.22.7-.89-.52a4.56,4.56,0,0,1-3.48.15v-1l.55-.55-.55.15a3.56,3.56,0,0,1-2.71-.31c-.54-.31-.79-.66-.79-1v-.95l.1-.41-.33-.19v-1l.88.52a1.39,1.39,0,0,0-.67,1h0c0,.35.27.68.8,1a4.06,4.06,0,0,0,3.42.11c1-.32,1.72-.71,2.29-.37.36.2.25.44-.15.69a2,2,0,0,1-1.71.09l-1.14,1.14a4.26,4.26,0,0,0,.63.22,4.78,4.78,0,0,0,2.84-.34l.9.51Z"/><path class="cls-15" d="M110.69,125.13h0c0,.35.26.68.79,1a4.06,4.06,0,0,0,3.42.11c1-.32,1.73-.71,2.3-.37.36.2.25.44-.15.69a2,2,0,0,1-1.71.09l-1.15,1.14a4.57,4.57,0,0,0,.62.22,4.78,4.78,0,0,0,2.84-.34l.9.51,1.21-.69v1l-1.21.7-.9-.52a4.54,4.54,0,0,1-3.47.15v-1l.55-.55-.55.15a3.56,3.56,0,0,1-2.71-.31c-.54-.31-.79-.66-.79-1v-.95l.09-.41"/><path class="cls-14" d="M110.46,123.59v1l.33.19h0a2,2,0,0,1,.56-.64Z"/><path class="cls-5" d="M119.58,126.83a1.12,1.12,0,0,1-.09.44l-.61-.35a1.21,1.21,0,0,0,.69-.92C119.57,126.28,119.58,126.8,119.58,126.83Z"/><g class="cls-16"><path d="M119.58,126.83a1.12,1.12,0,0,1-.09.44l-.61-.35a1.21,1.21,0,0,0,.69-.92C119.57,126.28,119.58,126.8,119.58,126.83Z"/></g><path class="cls-5" d="M119.57,127.34l-.69-.4a1.17,1.17,0,0,0,.69-1.06v-.1a1.33,1.33,0,0,0-.77-.94h0a3.18,3.18,0,0,0-1.62-.44h-.57a7.2,7.2,0,0,0-.78.16l-.37.11-.51.17-.19.06a5.92,5.92,0,0,1-1.07.31,1.24,1.24,0,0,1-.47,0,.78.78,0,0,1-.21-.09c-.28-.16-.32-.39.19-.69a1.79,1.79,0,0,1,1.56-.16l1.08-1.09a4.64,4.64,0,0,0-3.26.18l-.89-.52-1.23.77.9.52a1.39,1.39,0,0,0-.67,1h0c0,.35.26.68.79,1a4.07,4.07,0,0,0,3.42.11c1-.33,1.73-.71,2.3-.38.36.21.25.44-.15.69a2,2,0,0,1-1.71.1l-1.15,1.14a4.44,4.44,0,0,0,.62.19,4.62,4.62,0,0,0,1.11.08,5.07,5.07,0,0,0,1.75-.44l.9.52,1.21-.7Z"/><polygon class="cls-5" points="117.67 127.64 117.67 128.6 118.56 129.12 118.56 128.16 117.67 127.64"/><polygon class="cls-14" points="117.67 127.64 117.67 128.6 118.56 129.12 118.56 128.16 117.67 127.64"/><polygon class="cls-17" points="110.46 123.59 111.68 122.88 112.58 123.4 111.69 123.03 110.46 123.59"/><path class="cls-17" d="M113.19,124.49a1.81,1.81,0,0,1,1.57-.16l1.07-1.09-1.07,1A1.64,1.64,0,0,0,113.19,124.49Z"/><path class="cls-17" d="M114.19,127.8a6.4,6.4,0,0,0,.62.2,4.62,4.62,0,0,0,1.11.08,4,4,0,0,1-1.56-.31l1-1.1Z"/><polygon class="cls-17" points="117.67 127.64 118.56 128.04 119.78 127.46 118.56 128.16 117.67 127.64"/><path class="cls-17" d="M107,121.61c3.18-1.93,8.15-2.13,8.15-2.13a16.71,16.71,0,0,0-8.24,2c-2.11,1.22-3.27,2.79-3.27,4.46C103.61,125.91,103.73,123.58,107,121.61Z"/><path class="cls-17" d="M114.19,132.82a17.81,17.81,0,0,0,9.43-2c2.69-1.55,3.84-3.66,3.45-5.68,0,0,.5,3.3-3.65,5.55A20.92,20.92,0,0,1,114.19,132.82Z"/><path class="cls-18" d="M107.14,125.88a1.84,1.84,0,0,1,0-.41l0-.12a2.45,2.45,0,0,1,.08-.29l.07-.13c0-.09.07-.17.12-.26a.65.65,0,0,1,.1-.15l.15-.23.13-.17.18-.2.18-.17.19-.16.24-.2.16-.11.34-.22h0l-1.79-1.86h0l-.44.25a8.1,8.1,0,0,0-2.28,1.88h0l2.54,2.55Z"/><path class="cls-18" d="M116.3,130.16l-.36,0H115a7.16,7.16,0,0,1-.93,0h-.28c-.33,0-.65-.06-1-.11h0l-1-.19-.21-.05-.87-.26h0l2.73,2.73h0q.78.06,1.59.06a18.87,18.87,0,0,0,3.1-.24h0l-1.92-1.92Z"/><path class="cls-18" d="M110.69,125.14h0c0,.34.26.68.79,1a3.21,3.21,0,0,0,1.2.4l-1.86-1.86A.78.78,0,0,0,110.69,125.14Z"/><path class="cls-18" d="M126.62,125.91c0-1.67-1.15-3.24-3.26-4.46a13.7,13.7,0,0,0-3-1.26l6.23,6.24A3.12,3.12,0,0,0,126.62,125.91Z"/><path class="cls-18" d="M115.12,121.61h.78l.39,0,.41,0,.32,0,.44.07.28,0,.47.09h.07l-2.46-2.46h-.72a20.14,20.14,0,0,0-2.45.15l2,2Z"/><path class="cls-18" d="M123,126.72a.31.31,0,0,1,0,.12,1.87,1.87,0,0,1-.15.32l-.06.11a3,3,0,0,1-.2.29l-.06.09-.27.29-.08.09-.36.3-.07.06-.13.1h0l1.86,1.86a8.43,8.43,0,0,0,1.87-1.43L123,126.64Z"/><path class="cls-18" d="M119.58,125.88v-.1c0-.33-.27-.65-.78-.94h0a3.19,3.19,0,0,0-1.31-.41l2,2A1,1,0,0,0,119.58,125.88Z"/><path class="cls-18" d="M111.83,122h0L110,120.16a14.15,14.15,0,0,0-1.86.65l1.81,1.8A11.17,11.17,0,0,1,111.83,122Z"/><path class="cls-18" d="M119.34,129.56c-.25.09-.52.16-.79.23l-.22.05-.76.16-.17,0,1.86,1.86a15,15,0,0,0,2-.55l-1.8-1.8Z"/><path class="cls-18" d="M115.34,126.66l-.66.65.75.75h.5a5.38,5.38,0,0,0,1.63-.38l-1-1A2,2,0,0,1,115.34,126.66Z"/><path class="cls-18" d="M115.81,125.94l-1-1-.06,0a6.82,6.82,0,0,1-1.07.3,1.24,1.24,0,0,1-.47,0,1,1,0,0,1-.22-.09c-.26-.16-.3-.39.2-.68a1.86,1.86,0,0,1,.88-.28l-1-1a3.84,3.84,0,0,0-.51.19l-.9-.52-.91.52,3.1,3.1a7.06,7.06,0,0,0,1-.26C115.25,126.14,115.54,126,115.81,125.94Z"/><path class="cls-18" d="M116.68,119.54h0l2.72,2.73a9.83,9.83,0,0,1,1.26.52c1.57.81,2.44,1.91,2.44,3.12h0v0h0l2.53,2.53h0a4.87,4.87,0,0,0,.52-.76l-8-8C117.64,119.63,117.16,119.57,116.68,119.54Z"/><path class="cls-18" d="M106.88,130.36a9.74,9.74,0,0,0,1.07.54l-4.25-4.22A6,6,0,0,0,106.88,130.36Z"/><path class="cls-18" d="M103.62,125.81l5.63,5.62a13.33,13.33,0,0,0,1.75.48l-7.18-7.18A3.56,3.56,0,0,0,103.62,125.81Z"/><g class="cls-19"><path class="cls-3" d="M104.6,123.33a8,8,0,0,1,2.28-1.88l.43-.25h0l-.38-.39-.34.19a8.36,8.36,0,0,0-2.39,2h0l.37.37Z"/><path class="cls-3" d="M118.22,132.09a20,20,0,0,1-3.1.24c-.54,0-1.07,0-1.59-.07h0l.56.56h0a20.21,20.21,0,0,0,4.59-.28l-.44-.44Z"/><path class="cls-3" d="M107.6,126.34c-.23-1.06.4-2.16,1.87-3l-.3-.3h0l-.34.21-.16.12c-.09.06-.16.13-.24.19l-.19.16-.18.18-.18.2a1.83,1.83,0,0,0-.13.16l-.16.23-.1.16s-.08.17-.12.25l-.06.15c0,.1-.06.2-.08.3l0,.12a1.81,1.81,0,0,0,0,.4Z"/><path class="cls-3" d="M115.9,129.75a12.67,12.67,0,0,1-5.86-1l.76.76h0c.28.1.58.18.87.26l.21.05c.31.07.63.14,1,.19h0c.32,0,.64.08,1,.11h.29c.31,0,.61,0,.92,0h.91l.35,0Z"/><path class="cls-3" d="M123.36,121.45c2.11,1.22,3.26,2.79,3.26,4.46a3.12,3.12,0,0,1,0,.52l.44.44c.51-2.09-.62-4.28-3.4-5.88a14.39,14.39,0,0,0-4-1.53l.73.72A13.73,13.73,0,0,1,123.36,121.45Z"/><path class="cls-3" d="M115.12,119.48h.71l-.52-.53h0a21.43,21.43,0,0,0-3.1.2l.47.47A19.85,19.85,0,0,1,115.12,119.48Z"/><path class="cls-3" d="M123.39,130.35l.38.38a8.36,8.36,0,0,0,1.85-1.44h0l-.36-.37A8.92,8.92,0,0,1,123.39,130.35Z"/><path class="cls-3" d="M122.64,126.3a3.2,3.2,0,0,1-1.41,1.89l.29.29.14-.09.07-.06.36-.3.08-.09.27-.29.06-.09a2.9,2.9,0,0,0,.19-.29l.07-.11a1.87,1.87,0,0,0,.15-.32.31.31,0,0,1,0-.12s0-.06,0-.08Z"/><path class="cls-3" d="M114.66,121.62l.4.41a13.33,13.33,0,0,1,3.82.51l-.56-.58-.08,0-.47-.09-.28,0-.44-.06-.32,0-.41,0c-.13,0-.25,0-.38,0h-.79A4.13,4.13,0,0,0,114.66,121.62Z"/><path class="cls-3" d="M119.26,131.89l.44.44a16.45,16.45,0,0,0,1.93-.58l-.41-.41A14.6,14.6,0,0,1,119.26,131.89Z"/><path class="cls-3" d="M110,120.15l-.44-.43a13.87,13.87,0,0,0-1.83.67l.4.4A13.74,13.74,0,0,1,110,120.15Z"/><path class="cls-3" d="M110.29,122.92a10.84,10.84,0,0,1,1.91-.6l-.34-.34h0a11.17,11.17,0,0,0-1.85.62Z"/><path class="cls-3" d="M119.08,129.21a12.89,12.89,0,0,1-2,.44l.37.36.17,0c.26,0,.51-.09.76-.15l.22-.05.79-.23.08,0Z"/><path class="cls-3" d="M116.68,119.54a13.61,13.61,0,0,1,1.43.17l-.6-.61c-.46,0-.92-.09-1.39-.11h0l.56.55Z"/><path class="cls-3" d="M126.52,128.12l-.38-.39a4.39,4.39,0,0,1-.51.76h0l.37.38h0A5.3,5.3,0,0,0,126.52,128.12Z"/><path class="cls-3" d="M120.66,122.79a9.64,9.64,0,0,0-1.25-.51h0l.73.73.33.15a3.79,3.79,0,0,1,2.19,2.35l.44.44v-.06C123.09,124.71,122.23,123.61,120.66,122.79Z"/><path class="cls-3" d="M106.88,130.36a6,6,0,0,1-3.18-3.7l-.61-.6c.07,1.73,1.24,3.44,3.51,4.76a14.09,14.09,0,0,0,2.27,1l-.94-.95A10.4,10.4,0,0,1,106.88,130.36Z"/><path class="cls-3" d="M109.25,131.42l.78.78h0c.53.15,1.08.26,1.63.36l-.66-.67A15,15,0,0,1,109.25,131.42Z"/><path class="cls-3" d="M103.82,124.71l-.41-.4h0a4.22,4.22,0,0,0-.27,1l.48.48A3.62,3.62,0,0,1,103.82,124.71Z"/></g><path class="cls-5" d="M125.33,122.5a7.69,7.69,0,0,0-2.87-2.65c-4.7-2.72-12.31-2.72-17,0a7.69,7.69,0,0,0-2.87,2.65h-.65V125h0c.09,1.71,1.26,3.4,3.51,4.71,4.69,2.71,12.31,2.71,17,0,2.26-1.32,3.44-3,3.51-4.71h0V122.5Z"/><g class="cls-7"><path d="M125.33,122.5a7.69,7.69,0,0,0-2.87-2.65c-4.7-2.72-12.31-2.72-17,0a7.69,7.69,0,0,0-2.87,2.65h-.65V125h0c.09,1.71,1.26,3.4,3.51,4.71,4.69,2.71,12.31,2.71,17,0,2.26-1.32,3.44-3,3.51-4.71h0V122.5Z"/></g><path class="cls-8" d="M113.94,117.81a17.44,17.44,0,0,0-8.51,2,7.69,7.69,0,0,0-2.87,2.65h-.65V125h0c.09,1.71,1.26,3.4,3.51,4.71a17.43,17.43,0,0,0,8.5,2Z"/><path class="cls-8" d="M107.36,118.94a12.69,12.69,0,0,0-1.94.91,7.69,7.69,0,0,0-2.87,2.65h-.65V125h0c.09,1.71,1.26,3.4,3.51,4.71a13.72,13.72,0,0,0,1.94.91Z"/><path class="cls-9" d="M120.51,118.94a12.69,12.69,0,0,1,1.94.91,7.69,7.69,0,0,1,2.87,2.65H126V125h0c-.08,1.71-1.26,3.4-3.51,4.71a13.72,13.72,0,0,1-1.94.91Z"/><path class="cls-5" d="M122.45,117.59c-4.7-2.71-12.32-2.71-17,0s-4.7,7.11,0,9.82,12.31,2.72,17,0S127.15,120.31,122.45,117.59Z"/><path class="cls-6" d="M122.45,117.59c-4.7-2.71-12.32-2.71-17,0s-4.7,7.11,0,9.82,12.31,2.72,17,0S127.15,120.31,122.45,117.59Z"/><path class="cls-5" d="M119.48,119.39a13.52,13.52,0,0,0-11.07,0c-1.58.81-2.45,1.91-2.45,3.11s.88,2.31,2.45,3.12a13.6,13.6,0,0,0,11.07,0c1.58-.81,2.44-1.92,2.44-3.12S121.06,120.2,119.48,119.39Z"/><path class="cls-10" d="M119.48,119.39a13.52,13.52,0,0,0-11.07,0c-1.58.81-2.45,1.91-2.45,3.11s.88,2.31,2.45,3.12a13.6,13.6,0,0,0,11.07,0c1.58-.81,2.44-1.92,2.44-3.12S121.06,120.2,119.48,119.39Z"/><path class="cls-5" d="M122.19,118.05a18.24,18.24,0,0,0-16.49,0c-2.1,1.21-3.26,2.79-3.26,4.45s1.16,3.25,3.26,4.46a18.24,18.24,0,0,0,16.49,0c2.1-1.21,3.26-2.79,3.26-4.46S124.29,119.26,122.19,118.05Zm-2.71,7.57a13.6,13.6,0,0,1-11.07,0c-1.58-.81-2.45-1.92-2.45-3.12s.88-2.3,2.45-3.11a13.52,13.52,0,0,1,11.07,0c1.58.81,2.44,1.91,2.44,3.11S121.06,124.81,119.48,125.62Z"/><ellipse class="cls-6" cx="113.94" cy="122.5" rx="7.56" ry="3.88"/><ellipse class="cls-5" cx="113.94" cy="122.5" rx="7.56" ry="3.88"/><ellipse class="cls-11" cx="113.94" cy="122.5" rx="7.56" ry="3.88"/><path class="cls-5" d="M119.29,120.79a13.1,13.1,0,0,0-10.69,0,3.76,3.76,0,0,0-2.15,2.23,3.82,3.82,0,0,0,2.15,2.23,13.1,13.1,0,0,0,10.69,0,3.82,3.82,0,0,0,2.15-2.23A3.82,3.82,0,0,0,119.29,120.79Z"/><path class="cls-12" d="M119.29,120.79a13.1,13.1,0,0,0-10.69,0,3.76,3.76,0,0,0-2.15,2.23,3.82,3.82,0,0,0,2.15,2.23,13.1,13.1,0,0,0,10.69,0,3.82,3.82,0,0,0,2.15-2.23A3.82,3.82,0,0,0,119.29,120.79Z"/><polygon class="cls-5" points="114.66 119.82 114.66 120.92 114.28 121.33 113.58 122.06 113.58 120.9 114.66 119.82"/><polygon class="cls-13" points="114.66 119.82 114.66 120.92 114.28 121.33 113.58 122.06 113.58 120.9 114.66 119.82"/><path class="cls-5" d="M113.58,120.9v.66a6.82,6.82,0,0,1-1.07.3,1.24,1.24,0,0,1-.47,0l-.22-.08c-.27-.17-.3-.4.2-.69A1.76,1.76,0,0,1,113.58,120.9Z"/><path class="cls-14" d="M113.58,120.9v.66a6.82,6.82,0,0,1-1.07.3,1.24,1.24,0,0,1-.47,0l-.22-.08c-.27-.17-.3-.4.2-.69A1.76,1.76,0,0,1,113.58,120.9Z"/><path class="cls-5" d="M118.6,124.05v1l-1.21.7-.9-.52a4.54,4.54,0,0,1-3.47.15v-1l.55-.55L113,124a3.56,3.56,0,0,1-2.71-.31c-.54-.31-.79-.65-.79-1v-.93l.09-.41-.33-.19v-1l.9.52a1.38,1.38,0,0,0-.66,1h0c0,.34.26.68.79,1a4.06,4.06,0,0,0,3.42.11c1-.32,1.72-.7,2.3-.37.35.21.25.44-.16.69a2,2,0,0,1-1.71.1L113,124.38a6.52,6.52,0,0,0,.63.18,4.78,4.78,0,0,0,2.84-.34l.9.52Z"/><path class="cls-15" d="M109.52,121.73h0c0,.34.26.68.79,1a4.06,4.06,0,0,0,3.42.11c1-.33,1.72-.71,2.3-.37.35.2.25.43-.16.68a2,2,0,0,1-1.71.1L113,124.38a3.48,3.48,0,0,0,.63.18,4.63,4.63,0,0,0,2.84-.34l.9.52,1.21-.7v1l-1.21.7-.9-.52a4.59,4.59,0,0,1-3.47.16v-1l.55-.55L113,124a3.61,3.61,0,0,1-2.71-.32c-.54-.31-.79-.65-.79-1v-.93l.09-.41"/><path class="cls-14" d="M109.28,120.18v1l.33.2h0a2.06,2.06,0,0,1,.57-.64Z"/><path class="cls-5" d="M118.4,123.43a1.12,1.12,0,0,1-.09.44l-.6-.35a1.18,1.18,0,0,0,.68-.92C118.4,122.88,118.4,123.4,118.4,123.43Z"/><g class="cls-16"><path d="M118.4,123.43a1.12,1.12,0,0,1-.09.44l-.6-.35a1.18,1.18,0,0,0,.68-.92C118.4,122.88,118.4,123.4,118.4,123.43Z"/></g><path class="cls-5" d="M118.4,123.94l-.69-.41a1.2,1.2,0,0,0,.69-1.06v-.09a1.34,1.34,0,0,0-.78-1h0A3.18,3.18,0,0,0,116,121h-.57a7.2,7.2,0,0,0-.78.16l-.37.11-.51.17-.19.06a5.92,5.92,0,0,1-1.07.31,1.24,1.24,0,0,1-.47,0l-.21-.09c-.28-.16-.31-.39.19-.69a1.79,1.79,0,0,1,1.56-.16l1.08-1.09a4.67,4.67,0,0,0-3.25.18l-.9-.51-1.23.7.9.52a1.35,1.35,0,0,0-.66,1h0c0,.35.26.68.79,1a4.1,4.1,0,0,0,3.42.11c1-.33,1.72-.71,2.3-.38.35.21.25.46-.16.69a2,2,0,0,1-1.71.1L113,124.33a4.67,4.67,0,0,0,.64.18,4.1,4.1,0,0,0,1.11.08,5.11,5.11,0,0,0,1.75-.43l.9.52,1.21-.7Z"/><polygon class="cls-5" points="116.49 124.23 116.49 125.2 117.39 125.71 117.39 124.75 116.49 124.23"/><polygon class="cls-14" points="116.49 124.23 116.49 125.2 117.39 125.71 117.39 124.75 116.49 124.23"/><polygon class="cls-17" points="109.28 120.19 110.51 119.48 111.41 120 110.52 119.62 109.28 120.19"/><path class="cls-17" d="M112,121.07a1.79,1.79,0,0,1,1.56-.17l1.08-1.08-1.08,1A1.66,1.66,0,0,0,112,121.07Z"/><path class="cls-17" d="M113,124.39a4.71,4.71,0,0,0,.64.19,4.54,4.54,0,0,0,1.11.08,4,4,0,0,1-1.56-.31l1-1.1Z"/><polygon class="cls-17" points="116.49 124.23 117.39 124.64 118.6 124.06 117.39 124.75 116.49 124.23"/><path class="cls-17" d="M105.79,118.21c3.19-1.94,8.15-2.13,8.15-2.13a16.71,16.71,0,0,0-8.24,2c-2.1,1.21-3.26,2.79-3.26,4.45C102.44,122.5,102.54,120.18,105.79,118.21Z"/><path class="cls-17" d="M113,129.43a17.87,17.87,0,0,0,9.44-2c2.69-1.55,3.84-3.65,3.45-5.67,0,0,.5,3.29-3.66,5.55A20.9,20.9,0,0,1,113,129.43Z"/><path class="cls-18" d="M106,122.47c0-.13,0-.27,0-.4l0-.12c0-.1,0-.2.09-.3a.47.47,0,0,1,.06-.15l.12-.25a1.4,1.4,0,0,1,.1-.16l.15-.23.14-.16.17-.2.18-.18.19-.16.24-.19.16-.11.34-.22h0l-1.83-1.83h0l-.43.25a7.83,7.83,0,0,0-2.28,1.88h0l2.54,2.55Z"/><path class="cls-18" d="M115.12,126.76l-.36,0h-.9a7,7,0,0,1-.92,0l-.29,0c-.32,0-.65-.06-1-.11h0l-1-.19-.21,0-.88-.26h0l2.73,2.73h0q.78.06,1.59.06a18,18,0,0,0,3.11-.24h0l-1.93-1.93Z"/><path class="cls-18" d="M109.52,121.74h0c0,.34.26.68.79,1a3,3,0,0,0,1.2.41l-1.86-1.86A.78.78,0,0,0,109.52,121.74Z"/><path class="cls-18" d="M125.45,122.5c0-1.66-1.16-3.24-3.26-4.45a13.58,13.58,0,0,0-3-1.26l6.24,6.24A3.15,3.15,0,0,0,125.45,122.5Z"/><path class="cls-18" d="M113.94,118.21h.78l.38,0,.42,0,.32,0,.44.06.27.06.48.09h.07l-2.46-2.47h-.72a20,20,0,0,0-2.45.15l2,2Z"/><path class="cls-18" d="M121.78,123.31a.35.35,0,0,1,0,.13,3.09,3.09,0,0,1-.14.32l-.07.11a2.9,2.9,0,0,1-.19.29l-.07.08a1.93,1.93,0,0,1-.27.3l-.08.09-.35.3-.08.06-.12.1h0l1.86,1.86a8.61,8.61,0,0,0,1.86-1.43l-2.25-2.28Z"/><path class="cls-18" d="M118.4,122.47a.14.14,0,0,0,0-.09,1.31,1.31,0,0,0-.77-.94h0a3.28,3.28,0,0,0-1.32-.41l2,2A1.12,1.12,0,0,0,118.4,122.47Z"/><path class="cls-18" d="M110.66,118.58h0l-1.83-1.82a15,15,0,0,0-1.85.64l1.81,1.83A10.67,10.67,0,0,1,110.66,118.58Z"/><path class="cls-18" d="M118.17,126.16l-.79.23-.23,0q-.36.09-.75.15l-.17,0,1.86,1.86a14.88,14.88,0,0,0,2-.55l-1.8-1.8Z"/><path class="cls-18" d="M114.16,123.25l-.65.66.75.75a4.17,4.17,0,0,0,.5,0,5.12,5.12,0,0,0,1.62-.39l-.94-.94A2,2,0,0,1,114.16,123.25Z"/><path class="cls-18" d="M114.64,122.53l-1-1-.06,0a6.82,6.82,0,0,1-1.07.3,1.24,1.24,0,0,1-.47,0l-.22-.08c-.27-.17-.3-.4.2-.69a1.75,1.75,0,0,1,.88-.27l-1-1c-.18.06-.35.12-.51.19l-.9-.52-.91.52,3.1,3.1a7.06,7.06,0,0,0,1-.26Z"/><path class="cls-18" d="M115.5,116.16h0l2.73,2.73a8,8,0,0,1,1.25.52c1.58.81,2.44,1.91,2.44,3.11h0v0h0l2.54,2.53h0a4.81,4.81,0,0,0,.51-.76l-8-8A9.76,9.76,0,0,0,115.5,116.16Z"/><path class="cls-18" d="M105.7,127a11.91,11.91,0,0,0,1.07.54l-4.23-4.24A6,6,0,0,0,105.7,127Z"/><path class="cls-18" d="M102.44,122.39l5.63,5.61a17.58,17.58,0,0,0,1.76.48l-7.18-7.19A3.51,3.51,0,0,0,102.44,122.39Z"/><g class="cls-19"><path class="cls-3" d="M103.41,119.93a8.1,8.1,0,0,1,2.28-1.88l.44-.26h0l-.38-.38-.34.18a8.57,8.57,0,0,0-2.39,2h0l.37.37Z"/><path class="cls-3" d="M117.05,128.69a20.26,20.26,0,0,1-3.11.24c-.53,0-1.06,0-1.59-.07h0l.56.56h0a20.72,20.72,0,0,0,4.59-.28l-.43-.44Z"/><path class="cls-3" d="M106.43,122.94c-.23-1.06.39-2.16,1.87-3l-.31-.31h0l-.34.22-.16.12-.24.19-.19.16-.18.18-.17.19c0,.07-.1.11-.14.17l-.15.23a.86.86,0,0,0-.1.16l-.12.25-.06.15c0,.1-.06.2-.09.3l0,.12c0,.13,0,.26,0,.4Z"/><path class="cls-3" d="M114.73,126.36a12.67,12.67,0,0,1-5.86-1l.75.75h0c.29.1.58.18.88.26l.21.05c.31.07.63.14,1,.19h0c.31,0,.64.08,1,.11l.28,0c.31,0,.62,0,.93,0h.93l.35,0Z"/><path class="cls-3" d="M122.19,118.05c2.1,1.21,3.26,2.79,3.26,4.45a3.15,3.15,0,0,1,0,.53l.44.43c.51-2.08-.63-4.28-3.4-5.88a15.24,15.24,0,0,0-4-1.53l.73.73A13.81,13.81,0,0,1,122.19,118.05Z"/><path class="cls-3" d="M113.94,116.08h.71l-.53-.53h0a21.29,21.29,0,0,0-3.09.2l.46.47A20,20,0,0,1,113.94,116.08Z"/><path class="cls-3" d="M122.21,127l.38.38a8.46,8.46,0,0,0,1.86-1.45h0l-.37-.36A8.43,8.43,0,0,1,122.21,127Z"/><path class="cls-3" d="M121.47,122.9a3.18,3.18,0,0,1-1.42,1.89l.3.29.13-.09.08-.06.35-.3.08-.09a1.93,1.93,0,0,0,.27-.3l.07-.08a2.9,2.9,0,0,0,.19-.29l.07-.11a3.09,3.09,0,0,0,.14-.32s0-.09,0-.13,0,0,0-.07Z"/><path class="cls-3" d="M113.5,118.22l.4.4a13.7,13.7,0,0,1,3.82.52l-.58-.58-.08,0-.47-.09-.28,0-.44-.07-.32,0-.41,0-.38,0H113.5Z"/><path class="cls-3" d="M118.09,128.49l.44.44a16.35,16.35,0,0,0,1.92-.59l-.4-.4A15,15,0,0,1,118.09,128.49Z"/><path class="cls-3" d="M108.85,116.75l-.43-.44a14.3,14.3,0,0,0-1.83.68l.39.39A15.81,15.81,0,0,1,108.85,116.75Z"/><path class="cls-3" d="M109.11,119.52a10.84,10.84,0,0,1,1.91-.6l-.34-.34h0a10.87,10.87,0,0,0-1.84.65Z"/><path class="cls-3" d="M117.91,125.81a12.05,12.05,0,0,1-2,.43l.36.37.18,0c.25,0,.51-.1.75-.15l.23-.05.79-.23.07,0Z"/><path class="cls-3" d="M115.5,116.16c.49,0,1,.09,1.44.16l-.6-.6c-.46,0-.93-.09-1.39-.11h0l.55.55Z"/><path class="cls-3" d="M125.33,124.71l-.38-.38a4.21,4.21,0,0,1-.51.76h0l.37.38h0A4.87,4.87,0,0,0,125.33,124.71Z"/><path class="cls-3" d="M119.48,119.39a11.2,11.2,0,0,0-1.24-.52h0l.73.74.32.15a3.78,3.78,0,0,1,2.19,2.34l.44.44v-.05C121.92,121.31,121.06,120.2,119.48,119.39Z"/><path class="cls-3" d="M105.7,127a6.07,6.07,0,0,1-3.18-3.7l-.6-.6c.06,1.72,1.24,3.44,3.51,4.75a12.54,12.54,0,0,0,2.27,1l-.94-.94A11.75,11.75,0,0,1,105.7,127Z"/><path class="cls-3" d="M108.07,128l.78.78h0c.53.15,1.08.26,1.64.36l-.66-.66A17.58,17.58,0,0,1,108.07,128Z"/><path class="cls-3" d="M102.65,121.31l-.41-.41h0a4.38,4.38,0,0,0-.28,1l.48.49A3.34,3.34,0,0,1,102.65,121.31Z"/></g><path class="cls-5" d="M144.24,141.86a7.83,7.83,0,0,0-2.88-2.66c-4.7-2.71-12.31-2.71-17,0a7.72,7.72,0,0,0-2.87,2.66h-.65v2.46h0c.08,1.71,1.26,3.4,3.5,4.7,4.7,2.71,12.32,2.71,17,0,2.25-1.32,3.43-3,3.5-4.7h0v-2.46Z"/><g class="cls-7"><path d="M144.24,141.86a7.83,7.83,0,0,0-2.88-2.66c-4.7-2.71-12.31-2.71-17,0a7.72,7.72,0,0,0-2.87,2.66h-.65v2.46h0c.08,1.71,1.26,3.4,3.5,4.7,4.7,2.71,12.32,2.71,17,0,2.25-1.32,3.43-3,3.5-4.7h0v-2.46Z"/></g><path class="cls-8" d="M132.86,137.17a17.44,17.44,0,0,0-8.51,2,7.72,7.72,0,0,0-2.87,2.66h-.65v2.46h0c.08,1.71,1.26,3.4,3.5,4.7a17.36,17.36,0,0,0,8.51,2Z"/><path class="cls-8" d="M126.29,138.3a12.64,12.64,0,0,0-1.94.9,7.72,7.72,0,0,0-2.87,2.66h-.65v2.46h0c.08,1.71,1.26,3.4,3.5,4.7a12.69,12.69,0,0,0,1.94.91Z"/><path class="cls-9" d="M139.43,138.3a13.55,13.55,0,0,1,1.93.9,7.83,7.83,0,0,1,2.88,2.66h.64v2.46h0c-.08,1.71-1.26,3.4-3.5,4.7a13.72,13.72,0,0,1-1.94.91Z"/><path class="cls-5" d="M141.36,137c-4.7-2.71-12.31-2.71-17,0s-4.7,7.11,0,9.82,12.31,2.71,17,0S146.06,139.66,141.36,137Z"/><path class="cls-6" d="M141.36,137c-4.7-2.71-12.31-2.71-17,0s-4.7,7.11,0,9.82,12.31,2.71,17,0S146.06,139.66,141.36,137Z"/><path class="cls-5" d="M138.4,138.75a13.54,13.54,0,0,0-11.08,0c-1.58.8-2.44,1.91-2.44,3.11s.88,2.31,2.44,3.11a13.54,13.54,0,0,0,11.08,0c1.57-.8,2.43-1.91,2.43-3.11S140,139.55,138.4,138.75Z"/><path class="cls-10" d="M138.4,138.75a13.54,13.54,0,0,0-11.08,0c-1.58.8-2.44,1.91-2.44,3.11s.88,2.31,2.44,3.11a13.54,13.54,0,0,0,11.08,0c1.57-.8,2.43-1.91,2.43-3.11S140,139.55,138.4,138.75Z"/><path class="cls-5" d="M141.12,137.4a18.32,18.32,0,0,0-16.49,0c-2.1,1.22-3.26,2.8-3.26,4.46s1.16,3.24,3.26,4.46a18.32,18.32,0,0,0,16.49,0c2.1-1.22,3.26-2.8,3.26-4.46S143.2,138.62,141.12,137.4ZM138.41,145a13.52,13.52,0,0,1-11.07,0c-1.58-.8-2.44-1.91-2.44-3.11s.87-2.31,2.44-3.11a13.52,13.52,0,0,1,11.07,0c1.58.8,2.44,1.91,2.44,3.11s-.88,2.31-2.45,3.11Z"/><ellipse class="cls-6" cx="132.86" cy="141.86" rx="7.56" ry="3.88"/><ellipse class="cls-5" cx="132.86" cy="141.86" rx="7.56" ry="3.88"/><ellipse class="cls-11" cx="132.86" cy="141.86" rx="7.56" ry="3.88"/><path class="cls-5" d="M138.21,140.14a13.12,13.12,0,0,0-10.7,0,3.85,3.85,0,0,0-2.15,2.23,3.79,3.79,0,0,0,2.15,2.23,13.12,13.12,0,0,0,10.7,0,3.83,3.83,0,0,0,2.15-2.23A3.88,3.88,0,0,0,138.21,140.14Z"/><path class="cls-12" d="M138.21,140.14a13.12,13.12,0,0,0-10.7,0,3.85,3.85,0,0,0-2.15,2.23,3.79,3.79,0,0,0,2.15,2.23,13.12,13.12,0,0,0,10.7,0,3.83,3.83,0,0,0,2.15-2.23A3.88,3.88,0,0,0,138.21,140.14Z"/><polygon class="cls-5" points="133.57 139.17 133.57 140.28 133.19 140.68 132.49 141.42 132.49 140.26 133.57 139.17"/><polygon class="cls-13" points="133.57 139.17 133.57 140.28 133.19 140.68 132.49 141.42 132.49 140.26 133.57 139.17"/><path class="cls-5" d="M132.49,140.27v.66a5.88,5.88,0,0,1-1.07.3,1.19,1.19,0,0,1-.46,0l-.22-.08c-.27-.17-.32-.4.19-.7A1.83,1.83,0,0,1,132.49,140.27Z"/><path class="cls-14" d="M132.49,140.27v.66a5.88,5.88,0,0,1-1.07.3,1.19,1.19,0,0,1-.46,0l-.22-.08c-.27-.17-.32-.4.19-.7A1.83,1.83,0,0,1,132.49,140.27Z"/><path class="cls-5" d="M137.51,143.41v1l-1.21.7-.87-.52a4.61,4.61,0,0,1-3.48.16v-1l.55-.55-.59.14a3.57,3.57,0,0,1-2.7-.3c-.55-.32-.8-.66-.8-1v-.93l.1-.4-.33-.2v-1l.88.52a1.39,1.39,0,0,0-.67,1h0c0,.34.27.68.8,1a4.07,4.07,0,0,0,3.42.12c1-.33,1.72-.71,2.3-.38.35.21.24.46-.16.69a2,2,0,0,1-1.71.1l-1.13,1.16a3.58,3.58,0,0,0,.64.18,4.63,4.63,0,0,0,2.84-.34l.87.52Z"/><path class="cls-15" d="M128.43,141.09h0c0,.34.26.67.79,1a4.06,4.06,0,0,0,3.42.11c1-.32,1.73-.7,2.3-.37.36.2.25.46-.15.69a2,2,0,0,1-1.71.1l-1.17,1.15a3.58,3.58,0,0,0,.64.18,4.63,4.63,0,0,0,2.84-.34l.87.52,1.21-.7v1l-1.21.7-.87-.52a4.61,4.61,0,0,1-3.48.16v-1l.55-.55-.55.14a3.57,3.57,0,0,1-2.7-.3c-.55-.32-.8-.66-.8-1v-.93l.1-.4"/><path class="cls-14" d="M128.2,139.54v1l.33.19h0a2,2,0,0,1,.56-.63Z"/><path class="cls-5" d="M137.31,142.79a1,1,0,0,1-.09.43l-.6-.35a1.15,1.15,0,0,0,.68-.92C137.31,142.23,137.31,142.76,137.31,142.79Z"/><g class="cls-16"><path d="M137.31,142.79a1,1,0,0,1-.09.43l-.6-.35a1.15,1.15,0,0,0,.68-.92C137.31,142.23,137.31,142.76,137.31,142.79Z"/></g><path class="cls-5" d="M137.31,143.29l-.69-.4a1.17,1.17,0,0,0,.69-1.06v-.1a1.3,1.3,0,0,0-.77-.93h0a3.18,3.18,0,0,0-1.62-.44h-.48a.14.14,0,0,0-.09,0,5.27,5.27,0,0,0-.79.16l-.36.1-.51.17-.19.07a6.64,6.64,0,0,1-1.08.3,1.19,1.19,0,0,1-.46,0,.85.85,0,0,1-.22-.09c-.27-.15-.31-.39.2-.69a1.79,1.79,0,0,1,1.56-.16l1.08-1.09a4.7,4.7,0,0,0-3.26.18l-.9-.51-1.22.7.9.52a1.39,1.39,0,0,0-.67,1h0c0,.34.27.67.8,1a4,4,0,0,0,3.42.12c1-.33,1.72-.71,2.29-.38.36.2.25.44-.15.69a2,2,0,0,1-1.71.1l-1.15,1.14a4.67,4.67,0,0,0,.64.18,4.05,4.05,0,0,0,1.1.08,5.35,5.35,0,0,0,1.76-.43l.87.51,1.21-.69Z"/><polygon class="cls-5" points="135.41 143.59 135.41 144.55 136.3 145.07 136.3 144.11 135.41 143.59"/><polygon class="cls-14" points="135.41 143.59 135.41 144.55 136.3 145.07 136.3 144.11 135.41 143.59"/><polygon class="cls-17" points="128.19 139.54 129.42 138.84 130.32 139.35 129.43 138.98 128.19 139.54"/><path class="cls-17" d="M130.93,140.42a1.79,1.79,0,0,1,1.56-.16l1.08-1.09-1.08,1A1.65,1.65,0,0,0,130.93,140.42Z"/><path class="cls-17" d="M131.91,143.75a3.58,3.58,0,0,0,.64.18,4.06,4.06,0,0,0,1.1.09,4,4,0,0,1-1.56-.32l1-1.09Z"/><polygon class="cls-17" points="135.41 143.59 136.3 144 137.51 143.41 136.3 144.11 135.41 143.59"/><path class="cls-17" d="M124.71,137.56c3.18-1.93,8.15-2.12,8.15-2.12a16.68,16.68,0,0,0-8.24,2c-2.11,1.22-3.27,2.8-3.27,4.46C121.35,141.86,121.47,139.53,124.71,137.56Z"/><path class="cls-17" d="M131.91,148.78a17.87,17.87,0,0,0,9.44-2c2.68-1.55,3.83-3.66,3.44-5.7,0,0,.51,3.3-3.65,5.56A21,21,0,0,1,131.91,148.78Z"/><path class="cls-18" d="M124.9,141.83a1.75,1.75,0,0,1,0-.4.27.27,0,0,1,0-.12,1.67,1.67,0,0,1,.08-.3.47.47,0,0,1,.06-.15,2.72,2.72,0,0,1,.12-.25.55.55,0,0,1,.1-.16s.1-.15.15-.23l.13-.17.18-.19.18-.18.19-.16.24-.19.17-.12.33-.22h0l-1.82-1.83h0c-.16.08-.31.17-.44.25a7.84,7.84,0,0,0-2.28,1.89h0l2.54,2.54Z"/><path class="cls-18" d="M134,146.11l-.37,0h-.88a7.23,7.23,0,0,1-.93,0l-.28,0c-.33,0-.65-.06-1-.11h0c-.33-.05-.65-.12-1-.19l-.21-.05c-.31-.08-.61-.16-.88-.26h0l2.73,2.73h0c.52,0,1.05.07,1.59.07A19.09,19.09,0,0,0,136,148h0l-1.93-1.92Z"/><path class="cls-18" d="M128.43,141.09h0c0,.35.26.68.79,1a3.23,3.23,0,0,0,1.2.41l-1.86-1.86A.77.77,0,0,0,128.43,141.09Z"/><path class="cls-18" d="M144.36,141.86c0-1.66-1.16-3.24-3.26-4.45a12.7,12.7,0,0,0-3-1.26l6.24,6.23A3,3,0,0,0,144.36,141.86Z"/><path class="cls-18" d="M132.86,137.56h.78l.38,0,.42,0,.32,0a1.94,1.94,0,0,1,.43.06l.28.05.48.1H136l-2.45-2.43h-.71a20,20,0,0,0-2.45.15l2,2Z"/><path class="cls-18" d="M140.68,142.67l0,.12a3.36,3.36,0,0,1-.16.33l-.06.11a2.83,2.83,0,0,1-.2.28l-.06.09a2.44,2.44,0,0,1-.27.29l-.08.09c-.11.11-.23.21-.35.31l-.08.06-.13.09h0l1.86,1.86a8.43,8.43,0,0,0,1.87-1.43l-2.27-2.27Z"/><path class="cls-18" d="M137.31,141.83v-.1c0-.33-.27-.65-.77-.94h0a3,3,0,0,0-1.31-.4l2,2A1.07,1.07,0,0,0,137.31,141.83Z"/><path class="cls-18" d="M129.57,137.94h0l-1.83-1.82a14.15,14.15,0,0,0-1.86.65l1.81,1.8A9.84,9.84,0,0,1,129.57,137.94Z"/><path class="cls-18" d="M137.08,145.53c-.26.09-.52.16-.79.23l-.22.06-.76.15-.17,0,1.86,1.86a15,15,0,0,0,2-.55l-1.81-1.8Z"/><path class="cls-18" d="M133.08,142.61l-.66.65.75.75a4.17,4.17,0,0,0,.5,0,5.38,5.38,0,0,0,1.63-.38l-1-.95A2,2,0,0,1,133.08,142.61Z"/><path class="cls-18" d="M133.55,141.89l-1-1h-.07a5.92,5.92,0,0,1-1.07.31,1.19,1.19,0,0,1-.46,0,1.45,1.45,0,0,1-.22-.09c-.27-.16-.32-.4.19-.69a1.85,1.85,0,0,1,.88-.27l-1-1-.52.19-.9-.51-.9.51,3.1,3.11a7.43,7.43,0,0,0,1-.27C133,142.09,133.27,142,133.55,141.89Z"/><path class="cls-18" d="M134.41,135.49h0l2.73,2.73a9.89,9.89,0,0,1,1.26.53c1.57.8,2.43,1.91,2.43,3.11v0h0l2.54,2.53h0a5,5,0,0,0,.51-.76l-8-8C135.38,135.59,134.9,135.53,134.41,135.49Z"/><path class="cls-18" d="M124.62,146.31a9.74,9.74,0,0,0,1.07.54l-4.25-4.24A6,6,0,0,0,124.62,146.31Z"/><path class="cls-18" d="M121.36,141.75l5.62,5.62a17.58,17.58,0,0,0,1.76.48l-7.18-7.19A3.68,3.68,0,0,0,121.36,141.75Z"/><g class="cls-19"><path class="cls-3" d="M122.34,139.29a7.53,7.53,0,0,1,2.28-1.88l.43-.26h0l-.39-.38-.33.18a8.53,8.53,0,0,0-2.39,2h0l.37.38Z"/><path class="cls-3" d="M136,148a20,20,0,0,1-3.1.24q-.81,0-1.59-.06h0l.56.55h0a20.21,20.21,0,0,0,4.59-.28l-.44-.43Z"/><path class="cls-3" d="M125.33,142.29c-.23-1.06.39-2.16,1.87-3l-.3-.3h0l-.34.22-.16.11-.25.2-.18.15-.18.18-.18.2-.14.17-.15.23-.1.15-.12.25a1.16,1.16,0,0,0-.06.16,1.38,1.38,0,0,0-.08.29.27.27,0,0,0,0,.12,1.9,1.9,0,0,0,0,.41Z"/><path class="cls-3" d="M133.66,145.72a12.67,12.67,0,0,1-5.86-1l.76.76h0c.28.09.58.18.87.25l.21,0a9.59,9.59,0,0,0,1,.19h0c.31.05.63.08,1,.11l.28,0c.3,0,.61,0,.93,0h.89l.36,0Z"/><path class="cls-3" d="M141.12,137.41c2.1,1.21,3.26,2.79,3.26,4.45a3,3,0,0,1,0,.52l.44.44c.51-2.08-.63-4.27-3.4-5.88a14.87,14.87,0,0,0-4-1.52l.73.72A13.34,13.34,0,0,1,141.12,137.41Z"/><path class="cls-3" d="M132.86,135.45h.71l-.53-.53h0a20,20,0,0,0-3.09.2l.46.47A18.2,18.2,0,0,1,132.86,135.45Z"/><path class="cls-3" d="M141.12,146.3l.38.38a8.36,8.36,0,0,0,1.85-1.44h0l-.36-.37A8.6,8.6,0,0,1,141.12,146.3Z"/><path class="cls-3" d="M140.38,142.25a3.17,3.17,0,0,1-1.41,1.89l.29.3.13-.09.08-.06a3.52,3.52,0,0,0,.35-.31l.09-.09a3.58,3.58,0,0,0,.26-.29l.07-.09a2.75,2.75,0,0,0,.19-.28l.07-.11a3.31,3.31,0,0,0,.15-.33.56.56,0,0,0,0-.12.24.24,0,0,0,0-.08Z"/><path class="cls-3" d="M132.4,137.58l.4.4a13,13,0,0,1,3.82.52l-.58-.59H136l-.48-.09c-.09,0-.18,0-.28,0l-.44-.06-.32-.05-.41,0-.38,0h-.78A1.58,1.58,0,0,0,132.4,137.58Z"/><path class="cls-3" d="M137,147.84l.44.44a14.16,14.16,0,0,0,1.92-.58l-.4-.4A16.21,16.21,0,0,1,137,147.84Z"/><path class="cls-3" d="M127.77,136.11l-.44-.44a14.26,14.26,0,0,0-1.83.67l.4.4A13.25,13.25,0,0,1,127.77,136.11Z"/><path class="cls-3" d="M128,138.87a9.61,9.61,0,0,1,1.91-.59l-.34-.34h0a9.15,9.15,0,0,0-1.85.62Z"/><path class="cls-3" d="M136.82,145.16a12.08,12.08,0,0,1-2,.44l.37.37.17,0,.76-.16.22-.05c.27-.07.53-.14.79-.23l.07,0Z"/><path class="cls-3" d="M134.41,135.49c.49,0,1,.1,1.44.17l-.6-.6c-.46-.06-.93-.1-1.39-.12h0Z"/><path class="cls-3" d="M144.26,144.07l-.38-.39a5.71,5.71,0,0,1-.51.77h0l.37.37h0A5,5,0,0,0,144.26,144.07Z"/><path class="cls-3" d="M138.4,138.75a9.7,9.7,0,0,0-1.25-.52h0l.73.73.33.16a3.78,3.78,0,0,1,2.19,2.34l.44.44v-.06C140.83,140.66,140,139.55,138.4,138.75Z"/><path class="cls-3" d="M124.62,146.31a6,6,0,0,1-3.18-3.7l-.61-.58c.07,1.72,1.24,3.44,3.51,4.75a12.54,12.54,0,0,0,2.27,1l-.92-1A9.74,9.74,0,0,1,124.62,146.31Z"/><path class="cls-3" d="M127,147.37l.79.79h0c.53.14,1.08.25,1.63.35l-.66-.66A17.58,17.58,0,0,1,127,147.37Z"/><path class="cls-3" d="M121.56,140.66l-.41-.4h0a4.35,4.35,0,0,0-.27,1l.48.49A3.68,3.68,0,0,1,121.56,140.66Z"/></g><path class="cls-5" d="M145,138.48a7.72,7.72,0,0,0-2.87-2.66c-4.7-2.71-12.31-2.71-17,0a7.72,7.72,0,0,0-2.87,2.66h-.65v2.46h0c.08,1.71,1.25,3.4,3.5,4.7,4.7,2.72,12.31,2.72,17,0,2.26-1.31,3.44-3,3.51-4.7h0v-2.46Z"/><g class="cls-7"><path d="M145,138.48a7.72,7.72,0,0,0-2.87-2.66c-4.7-2.71-12.31-2.71-17,0a7.72,7.72,0,0,0-2.87,2.66h-.65v2.46h0c.08,1.71,1.25,3.4,3.5,4.7,4.7,2.72,12.31,2.72,17,0,2.26-1.31,3.44-3,3.51-4.7h0v-2.46Z"/></g><path class="cls-8" d="M133.58,133.79a17.5,17.5,0,0,0-8.51,2,7.72,7.72,0,0,0-2.87,2.66h-.65v2.46h0c.08,1.71,1.25,3.4,3.5,4.7a17.36,17.36,0,0,0,8.51,2Z"/><path class="cls-8" d="M127,134.92a14.08,14.08,0,0,0-1.93.9,7.72,7.72,0,0,0-2.87,2.66h-.65v2.46h0c.08,1.71,1.25,3.4,3.5,4.7a12.69,12.69,0,0,0,1.94.91Z"/><path class="cls-9" d="M140.14,134.92a13.66,13.66,0,0,1,1.94.9,7.72,7.72,0,0,1,2.87,2.66h.65v2.46h0c-.08,1.71-1.26,3.4-3.5,4.7a12.69,12.69,0,0,1-1.94.91Z"/><path class="cls-5" d="M142.08,133.57c-4.7-2.71-12.31-2.71-17,0s-4.7,7.11,0,9.82,12.31,2.71,17,0S146.78,136.28,142.08,133.57Z"/><path class="cls-6" d="M142.08,133.57c-4.7-2.71-12.31-2.71-17,0s-4.7,7.11,0,9.82,12.31,2.71,17,0S146.78,136.28,142.08,133.57Z"/><path class="cls-5" d="M139.11,135.37a13.52,13.52,0,0,0-11.07,0c-1.58.8-2.45,1.91-2.45,3.11s.88,2.31,2.45,3.12a13.6,13.6,0,0,0,11.07,0c1.58-.81,2.44-1.92,2.44-3.12S140.68,136.17,139.11,135.37Z"/><path class="cls-10" d="M139.11,135.37a13.52,13.52,0,0,0-11.07,0c-1.58.8-2.45,1.91-2.45,3.11s.88,2.31,2.45,3.12a13.6,13.6,0,0,0,11.07,0c1.58-.81,2.44-1.92,2.44-3.12S140.68,136.17,139.11,135.37Z"/><path class="cls-5" d="M141.82,134a18.24,18.24,0,0,0-16.49,0c-2.1,1.21-3.26,2.79-3.26,4.45s1.16,3.24,3.26,4.46a18.32,18.32,0,0,0,16.49,0c2.1-1.22,3.26-2.8,3.26-4.46S143.92,135.24,141.82,134Zm-2.71,7.56a13.6,13.6,0,0,1-11.07,0c-1.58-.81-2.45-1.92-2.45-3.11s.88-2.31,2.45-3.12a13.52,13.52,0,0,1,11.07,0c1.58.81,2.44,1.91,2.44,3.12S140.68,140.79,139.11,141.59Z"/><ellipse class="cls-6" cx="133.58" cy="138.48" rx="7.56" ry="3.88"/><ellipse class="cls-5" cx="133.58" cy="138.48" rx="7.56" ry="3.88"/><ellipse class="cls-11" cx="133.58" cy="138.48" rx="7.56" ry="3.88"/><path class="cls-5" d="M138.93,136.77a13.15,13.15,0,0,0-10.71,0,3.77,3.77,0,0,0-2.14,2.23,3.79,3.79,0,0,0,2.14,2.22,13.15,13.15,0,0,0,10.71,0,3.82,3.82,0,0,0,2.14-2.22A3.8,3.8,0,0,0,138.93,136.77Z"/><path class="cls-12" d="M138.93,136.77a13.15,13.15,0,0,0-10.71,0,3.77,3.77,0,0,0-2.14,2.23,3.79,3.79,0,0,0,2.14,2.22,13.15,13.15,0,0,0,10.71,0,3.82,3.82,0,0,0,2.14-2.22A3.8,3.8,0,0,0,138.93,136.77Z"/><polygon class="cls-5" points="134.29 135.8 134.29 136.91 133.91 137.31 133.21 138.04 133.21 136.88 134.29 135.8"/><polygon class="cls-13" points="134.29 135.8 134.29 136.91 133.91 137.31 133.21 138.04 133.21 136.88 134.29 135.8"/><path class="cls-5" d="M133.23,136.88v.66a6.64,6.64,0,0,1-1.08.3.9.9,0,0,1-.46,0,.85.85,0,0,1-.22-.09c-.27-.16-.31-.39.2-.69A1.76,1.76,0,0,1,133.23,136.88Z"/><path class="cls-14" d="M133.23,136.88v.66a6.64,6.64,0,0,1-1.08.3.9.9,0,0,1-.46,0,.85.85,0,0,1-.22-.09c-.27-.16-.31-.39.2-.69A1.76,1.76,0,0,1,133.23,136.88Z"/><path class="cls-5" d="M138.23,140v1l-1.21.7-.88-.52a4.56,4.56,0,0,1-3.48.16v-1l.56-.55-.56.16a3.54,3.54,0,0,1-2.7-.32c-.54-.31-.8-.65-.8-1v-.94l.1-.41-.33-.19v-1l.88.51a1.39,1.39,0,0,0-.67,1h0c0,.35.27.68.8,1a4.06,4.06,0,0,0,3.42.11c1-.32,1.72-.7,2.3-.37.35.2.24.43-.16.68a2,2,0,0,1-1.71.11l-1.15,1.13a4.71,4.71,0,0,0,.64.19,4.78,4.78,0,0,0,2.84-.34l.88.51Z"/><path class="cls-15" d="M129.14,137.71h0c0,.35.27.68.8,1a4.06,4.06,0,0,0,3.42.11c1-.32,1.73-.7,2.3-.37.35.2.24.43-.15.68a2,2,0,0,1-1.71.11l-1.15,1.13a4.57,4.57,0,0,0,.63.19,4.78,4.78,0,0,0,2.84-.34l.88.51,1.22-.7v1l-1.22.7-.88-.52a4.54,4.54,0,0,1-3.47.16v-1l.55-.55-.55.16a3.56,3.56,0,0,1-2.71-.31c-.54-.32-.8-.66-.8-1v-.94l.11-.4"/><path class="cls-14" d="M128.91,136.17v1l.34.19h0a1.91,1.91,0,0,1,.57-.63Z"/><path class="cls-5" d="M138.05,139.4a1.25,1.25,0,0,1-.09.46l-.61-.35a1.21,1.21,0,0,0,.69-.92C138.05,138.86,138.05,139.4,138.05,139.4Z"/><g class="cls-16"><path d="M138.05,139.4a1.25,1.25,0,0,1-.09.46l-.61-.35a1.21,1.21,0,0,0,.69-.92C138.05,138.86,138.05,139.4,138.05,139.4Z"/></g><path class="cls-5" d="M138.05,139.92l-.7-.41a1.18,1.18,0,0,0,.7-1.06v-.09a1.3,1.3,0,0,0-.77-1h0a3.27,3.27,0,0,0-1.62-.43h-.57a5.27,5.27,0,0,0-.79.16l-.36.11-.51.16-.19.07a6.67,6.67,0,0,1-1.08.31,1.19,1.19,0,0,1-.46,0,1.45,1.45,0,0,1-.22-.09c-.27-.16-.31-.4.2-.69a1.76,1.76,0,0,1,1.56-.17l1.08-1.08a4.59,4.59,0,0,0-3.26.18l-.9-.49-1.23.71.88.51a1.45,1.45,0,0,0-.67,1h0c0,.35.27.68.8,1a4.06,4.06,0,0,0,3.42.11c1-.32,1.72-.71,2.3-.37.35.2.24.44-.15.69a2,2,0,0,1-1.71.09l-1.15,1.14a4.57,4.57,0,0,0,.63.19,4.16,4.16,0,0,0,1.11.08,5.07,5.07,0,0,0,1.75-.44l.88.52,1.21-.7Z"/><polygon class="cls-5" points="136.12 140.22 136.12 141.17 137.02 141.69 137.02 140.73 136.12 140.22"/><polygon class="cls-14" points="136.12 140.22 136.12 141.17 137.02 141.69 137.02 140.73 136.12 140.22"/><polygon class="cls-17" points="128.91 136.16 130.13 135.46 131.03 135.98 130.14 135.6 128.91 136.16"/><path class="cls-17" d="M131.65,137.05a1.76,1.76,0,0,1,1.56-.17l1.08-1.08-1.06,1A1.64,1.64,0,0,0,131.65,137.05Z"/><path class="cls-17" d="M132.65,140.37a4,4,0,0,0,1.74.27,4.13,4.13,0,0,1-1.56-.31l1-1.1Z"/><polygon class="cls-17" points="136.12 140.22 137.02 140.62 138.23 140.03 137.02 140.73 136.12 140.22"/><path class="cls-17" d="M125.43,134.19c3.18-1.94,8.14-2.13,8.14-2.13a16.74,16.74,0,0,0-8.24,2c-2.1,1.21-3.26,2.79-3.26,4.45C122.07,138.48,122.19,136.16,125.43,134.19Z"/><path class="cls-17" d="M132.65,145.41a17.72,17.72,0,0,0,9.43-2c2.69-1.55,3.84-3.65,3.45-5.68,0,0,.5,3.3-3.65,5.56A20.92,20.92,0,0,1,132.65,145.41Z"/><path class="cls-18" d="M125.6,138.45a2.6,2.6,0,0,1,0-.4.53.53,0,0,1,0-.12,2.78,2.78,0,0,1,.09-.3,1.51,1.51,0,0,1,.06-.15l.12-.25a1.58,1.58,0,0,1,.1-.16l.15-.23.14-.16a1.12,1.12,0,0,1,.18-.2,1.53,1.53,0,0,1,.18-.18l.18-.16.25-.19.16-.12.34-.22h0l-1.84-1.84h0l-.44.26a7.78,7.78,0,0,0-2.28,1.88h0l2.55,2.54Z"/><path class="cls-18" d="M134.76,142.74h-.45l-.74,0h-.08a7.23,7.23,0,0,1-.93,0l-.28,0c-.33,0-.65-.06-1-.11h0a8.87,8.87,0,0,1-.95-.19l-.21-.05c-.31-.07-.6-.16-.88-.25h0l2.73,2.73h0q.78.06,1.59.06a19.08,19.08,0,0,0,3.11-.24h0l-1.93-1.92Z"/><path class="cls-18" d="M129.14,137.71h0c0,.35.27.68.8,1a3.06,3.06,0,0,0,1.2.41l-1.86-1.85A.8.8,0,0,0,129.14,137.71Z"/><path class="cls-18" d="M145.06,138.48c0-1.66-1.16-3.24-3.26-4.45a13.23,13.23,0,0,0-3-1.26l6.27,6.24A2.35,2.35,0,0,0,145.06,138.48Z"/><path class="cls-18" d="M133.57,134.19h.79l.38,0,.42,0c.1,0,.21,0,.32,0l.43.07.28,0,.48.09h.07L134.27,132h-.72a20,20,0,0,0-2.44.15l2,2Z"/><path class="cls-18" d="M141.41,139.29a.33.33,0,0,1,0,.13,3.18,3.18,0,0,1-.16.32s0,.07-.06.11l-.19.29-.07.08a2.52,2.52,0,0,1-.27.3l-.08.08c-.11.11-.23.21-.35.31l-.08.06-.12.1h0l1.86,1.86a8.35,8.35,0,0,0,1.86-1.44l-2.27-2.27Z"/><path class="cls-18" d="M138.05,138.45v-.09a1.32,1.32,0,0,0-.78-1h0A3.19,3.19,0,0,0,136,137l2,2A1.08,1.08,0,0,0,138.05,138.45Z"/><path class="cls-18" d="M130.29,134.57h0l-1.82-1.82a13.2,13.2,0,0,0-1.86.65l1.8,1.8A10.19,10.19,0,0,1,130.29,134.57Z"/><path class="cls-18" d="M137.79,142.14c-.25.08-.51.16-.78.22l-.22.06c-.25.06-.5.11-.76.15l-.17,0,1.86,1.86a16.62,16.62,0,0,0,1.95-.55l-1.8-1.81Z"/><path class="cls-18" d="M133.79,139.23l-.66.65.75.75h.51a4.79,4.79,0,0,0,1.62-.38l-.94-.94A2.08,2.08,0,0,1,133.79,139.23Z"/><path class="cls-18" d="M134.27,138.52l-1-1-.06,0a6.64,6.64,0,0,1-1.08.3,1.19,1.19,0,0,1-.46,0,1,1,0,0,1-.22-.09c-.26-.16-.31-.39.2-.69a2,2,0,0,1,.88-.27l-1-1L131,136l-.88-.55-.91.52,3.11,3.11a8.48,8.48,0,0,0,1-.27C133.69,138.71,134,138.6,134.27,138.52Z"/><path class="cls-18" d="M135.13,132.12h0l2.73,2.73a8,8,0,0,1,1.25.52c1.58.8,2.44,1.91,2.44,3.11v0h0l2.54,2.53h0a5,5,0,0,0,.51-.76l-8-8C136.1,132.21,135.62,132.15,135.13,132.12Z"/><path class="cls-18" d="M125.33,142.94a11.91,11.91,0,0,0,1.07.54l-4.24-4.24A6,6,0,0,0,125.33,142.94Z"/><path class="cls-18" d="M122.08,138.37,127.7,144a15.21,15.21,0,0,0,1.76.47l-7.19-7.18A3.61,3.61,0,0,0,122.08,138.37Z"/><g class="cls-19"><path class="cls-3" d="M123.05,135.91a7.78,7.78,0,0,1,2.28-1.88l.44-.26h0l-.38-.38a3.65,3.65,0,0,0-.34.18,8.53,8.53,0,0,0-2.39,2h0l.38.38Z"/><path class="cls-3" d="M136.68,144.66a20.26,20.26,0,0,1-3.11.24c-.53,0-1.06,0-1.58-.07h0l.55.56h0a20.14,20.14,0,0,0,4.59-.28l-.44-.44Z"/><path class="cls-3" d="M126.06,138.92c-.23-1.07.39-2.16,1.87-3l-.31-.31h0l-.33.22-.17.12-.24.19-.19.16-.18.18-.18.2-.13.17-.16.22-.09.16c0,.06-.09.17-.12.25a1.58,1.58,0,0,0-.07.16c0,.05-.05.19-.08.29a.9.9,0,0,0,0,.12c0,.13,0,.27,0,.41Z"/><path class="cls-3" d="M134.36,142.34a12.67,12.67,0,0,1-5.86-1l.75.76h0c.29.09.58.18.88.25l.21,0a9.39,9.39,0,0,0,.95.19h0c.32.05.64.08,1,.11l.29,0c.3,0,.62,0,.93,0h.9a1.38,1.38,0,0,0,.35,0Z"/><path class="cls-3" d="M141.82,134c2.1,1.21,3.26,2.79,3.26,4.45a3.15,3.15,0,0,1,0,.53l.44.43c.51-2.08-.63-4.27-3.4-5.87a14.9,14.9,0,0,0-4-1.53l.73.72A13.34,13.34,0,0,1,141.82,134Z"/><path class="cls-3" d="M133.57,132.06h.72l-.53-.53h0a18.92,18.92,0,0,0-3.1.2l.47.47A18.15,18.15,0,0,1,133.57,132.06Z"/><path class="cls-3" d="M141.85,142.93l.37.37a8.13,8.13,0,0,0,1.86-1.44h0l-.37-.37A8.35,8.35,0,0,1,141.85,142.93Z"/><path class="cls-3" d="M141.12,138.88a3.17,3.17,0,0,1-1.42,1.88l.3.3.13-.09.08-.06c.12-.1.24-.2.35-.31l.08-.08c.09-.1.18-.19.27-.3l.06-.08c.08-.1.14-.2.2-.29l.06-.11a3.18,3.18,0,0,0,.16-.32s0-.08,0-.13,0,0,0-.08Z"/><path class="cls-3" d="M133.12,134.2l.4.4a13.34,13.34,0,0,1,3.82.52l-.58-.58h-.07l-.48-.1-.28-.05-.44-.06-.32,0-.41,0-.38,0h-.79Z"/><path class="cls-3" d="M137.72,144.47l.44.44a14.2,14.2,0,0,0,1.92-.59l-.4-.4A16.77,16.77,0,0,1,137.72,144.47Z"/><path class="cls-3" d="M128.49,132.73l-.44-.44a14.3,14.3,0,0,0-1.83.68l.39.4A13.88,13.88,0,0,1,128.49,132.73Z"/><path class="cls-3" d="M128.75,135.49a11.14,11.14,0,0,1,1.91-.59l-.35-.34h0a9.78,9.78,0,0,0-1.85.61Z"/><path class="cls-3" d="M137.54,141.79a12,12,0,0,1-2.06.43l.38.38.17,0c.26,0,.51-.09.76-.15l.22,0c.27-.07.53-.14.78-.23l.08,0Z"/><path class="cls-3" d="M135.13,132.12c.49,0,1,.09,1.44.16l-.6-.6c-.46-.06-.93-.1-1.39-.12h0l.55.56Z"/><path class="cls-3" d="M145,140.71l-.38-.38a5,5,0,0,1-.51.76h0l.37.38h0A5.67,5.67,0,0,0,145,140.71Z"/><path class="cls-3" d="M139.11,135.37a10.45,10.45,0,0,0-1.24-.52h0l.74.74.32.15a3.77,3.77,0,0,1,2.19,2.35l.44.43v0h0C141.56,137.28,140.68,136.18,139.11,135.37Z"/><path class="cls-3" d="M125.33,142.94a6,6,0,0,1-3.17-3.7l-.61-.6c.07,1.73,1.24,3.44,3.51,4.75a13.53,13.53,0,0,0,2.26,1l-.93-.94A11.75,11.75,0,0,1,125.33,142.94Z"/><path class="cls-3" d="M127.7,144l.79.78h0c.53.14,1.08.26,1.63.36l-.66-.67A15.21,15.21,0,0,1,127.7,144Z"/><path class="cls-3" d="M122.27,137.29l-.41-.41h0a3.9,3.9,0,0,0-.27,1l.48.49A3.62,3.62,0,0,1,122.27,137.29Z"/></g></g><g id="freepik--Bills--inject-1--inject-2"><g id="freepik--Money--inject-1--inject-2"><polygon class="cls-5" points="123.75 159.01 75.67 131.25 51.63 145.13 99.71 172.89 123.75 159.01"/><path class="cls-10" d="M54.16,145.13l45.55,26.31L121.22,159,75.66,132.71Zm1.26,0,20.24-11.69L120,159,99.71,170.7Z"/><g class="cls-20"><path d="M88.59,159.26A19,19,0,0,1,79.35,157h0c-2.52-1.46-4-3.45-4-5.46,0-1.84,1.19-3.53,3.34-4.78,4.6-2.65,12.36-2.49,17.3.37,2.52,1.45,4,3.44,4,5.45,0,1.84-1.19,3.54-3.34,4.78A16.55,16.55,0,0,1,88.59,159.26Zm-1.8-13.95a16.12,16.12,0,0,0-7.85,1.83c-2,1.17-3.13,2.73-3.13,4.41,0,1.85,1.37,3.7,3.76,5.09h0c4.82,2.78,12.39,2.94,16.86.36,2-1.16,3.13-2.73,3.13-4.41,0-1.85-1.37-3.7-3.76-5.08a18.46,18.46,0,0,0-9-2.2Z"/></g><g class="cls-21"><path d="M88.58,157.71a17.46,17.46,0,0,1-8.45-2.05c-2-1.17-3.19-2.67-3.19-4.11,0-1.26.91-2.48,2.56-3.43a14.83,14.83,0,0,1,7.29-1.68,17.35,17.35,0,0,1,8.45,2.05c2,1.17,3.19,2.67,3.19,4.1,0,1.26-.91,2.48-2.56,3.43A14.83,14.83,0,0,1,88.58,157.71Z"/></g><path class="cls-6" d="M97.17,168.13,84,160.44l1.06.14a22.48,22.48,0,0,0,2.85.18,20.15,20.15,0,0,0,9.2-2.42c2.34-1.35,4.7-3.77,4.7-6.14a5.69,5.69,0,0,0-.53-2.37l-.29-.62,14.47,8.4-1.59.92a.57.57,0,0,0,0,1.09l1.6.92-13.19,7.56-1.37-.79a2.56,2.56,0,0,0-2.32,0Z"/><path class="cls-5" d="M103,162.76a4.54,4.54,0,0,1-2.19-.53,1.7,1.7,0,0,1-1-1.4,1.45,1.45,0,0,1,.85-1.24,4.55,4.55,0,0,1,4.14.08,1.72,1.72,0,0,1,1,1.4,1.48,1.48,0,0,1-.85,1.24A3.92,3.92,0,0,1,103,162.76Z"/><path class="cls-6" d="M74.48,154.89,60,146.56l1.59-.92c.27-.15.44-.35.41-.54a.69.69,0,0,0-.41-.55L60,143.63l13.15-7.49,1.37.79a2.63,2.63,0,0,0,2.32,0l1.37-.79,13.21,7.6-1.07-.13a21,21,0,0,0-2.85-.19,20.29,20.29,0,0,0-9.31,2.36c-3,1.75-4.59,3.63-4.59,5.59a8.16,8.16,0,0,0,.56,2.89Z"/><path class="cls-5" d="M72.72,145.36a4.52,4.52,0,0,1-2.19-.53h0a1.73,1.73,0,0,1-1-1.4,1.48,1.48,0,0,1,.85-1.25,4.6,4.6,0,0,1,4.15.09,1.71,1.71,0,0,1,1,1.4,1.46,1.46,0,0,1-.85,1.24A3.89,3.89,0,0,1,72.72,145.36Z"/><polygon class="cls-5" points="123.75 159.01 123.75 164.86 99.71 178.74 99.71 172.89 123.75 159.01"/><g class="cls-22"><polygon points="123.75 159.01 123.75 164.86 99.71 178.74 99.71 172.89 123.75 159.01"/></g><g class="cls-22"><polygon points="99.71 174.19 107.3 169.97 99.7 174.55 99.71 174.19"/><polygon points="123.75 161.79 121.22 163.4 123.75 162.08 123.75 161.79"/><polygon points="123.75 163.18 111.09 170.7 123.75 163.61 123.75 163.18"/><polygon points="99.7 175.59 112.36 168.51 99.7 176.04 99.7 175.59"/></g><polygon class="cls-5" points="99.71 178.74 51.63 150.97 51.63 145.13 99.71 172.89 99.71 178.74"/><g class="cls-21"><polygon points="99.71 178.74 51.63 150.97 51.63 145.13 99.71 172.89 99.71 178.74"/></g><g class="cls-16"><polygon points="99.71 174.19 97.17 172.89 99.7 174.55 99.71 174.19"/></g><g class="cls-16"><polygon points="99.7 175.59 86.98 168.47 99.7 176.04 99.7 175.59"/></g><g class="cls-16"><polygon points="51.63 147.88 60.48 153.17 51.63 148.23 51.63 147.88"/></g><g class="cls-16"><polygon points="51.63 149.35 56.69 152.44 51.63 149.68 51.63 149.35"/></g><polygon class="cls-4" points="103.89 146.58 79.02 160.94 71.42 156.56 96.3 142.2 103.89 146.58"/><polygon class="cls-23" points="71.42 156.56 71.42 162.92 79.02 167.3 79.02 160.94 71.42 156.56"/><polygon class="cls-1" points="79.02 167.3 79.46 167.05 79.02 166.79 79.02 167.3"/><polygon class="cls-1" points="103.89 146.58 103.89 147.55 103.05 147.06 103.89 146.58"/><g class="cls-16"><polygon points="79.46 167.04 79.46 161.2 79.02 160.94 79.02 166.79 79.46 167.04"/></g><g class="cls-21"><polygon points="79.46 161.2 103.5 147.32 103.05 147.06 79.02 160.94 79.46 161.2"/></g><polygon class="cls-24" points="103.08 146.11 78.19 160.47 77.56 160.11 102.44 145.75 103.08 146.11"/><polygon class="cls-24" points="97.76 143.04 72.88 157.4 72.25 157.04 97.13 142.68 97.76 143.04"/><polygon class="cls-1" points="78.19 160.47 78.19 166.83 77.56 166.47 77.56 160.11 78.19 160.47"/><polygon class="cls-1" points="72.88 157.4 72.88 163.76 72.25 163.4 72.25 157.04 72.88 157.4"/></g></g><g id="freepik--bars-chart--inject-1--inject-2"><polygon class="cls-5" points="122.67 19.28 106.92 28.37 122.67 37.46 138.42 28.37 122.67 19.28"/><polygon class="cls-13" points="122.67 19.28 106.92 28.37 122.67 37.46 138.42 28.37 122.67 19.28"/><polygon class="cls-5" points="138.42 28.34 138.42 80.91 122.67 90 122.67 37.47 138.42 28.34"/><polygon class="cls-10" points="138.42 28.34 138.42 80.91 122.67 90 122.67 37.47 138.42 28.34"/><polygon class="cls-5" points="122.67 37.47 122.67 90 106.92 80.91 106.92 28.37 122.67 37.47"/><polygon class="cls-25" points="122.67 37.47 122.67 90 106.92 80.91 106.92 28.37 122.67 37.47"/><polygon class="cls-5" points="92.93 64.74 77.18 73.83 92.93 82.92 108.67 73.83 92.93 64.74"/><polygon class="cls-18" points="92.93 64.74 77.18 73.83 92.93 82.92 108.67 73.83 92.93 64.74"/><polygon class="cls-5" points="108.68 73.83 108.68 98.08 92.93 107.17 92.93 82.92 108.68 73.83"/><polygon class="cls-5" points="92.93 82.92 92.93 107.17 77.18 98.08 77.18 73.83 92.93 82.92"/><polygon class="cls-8" points="92.93 82.92 92.93 107.17 77.18 98.08 77.18 73.83 92.93 82.92"/><polygon class="cls-5" points="63.18 51.61 47.43 60.7 63.18 69.79 78.93 60.7 63.18 51.61"/><polygon class="cls-26" points="63.18 51.61 47.43 60.7 63.18 69.79 78.93 60.7 63.18 51.61"/><polygon class="cls-5" points="78.93 60.7 78.93 115.27 63.18 124.35 63.18 69.79 78.93 60.7"/><polygon class="cls-27" points="78.93 60.7 78.93 115.27 63.18 124.35 63.18 69.79 78.93 60.7"/><polygon class="cls-5" points="63.18 69.79 63.18 124.35 47.43 115.26 47.43 60.7 63.18 69.79"/><polygon class="cls-28" points="63.18 69.79 63.18 124.35 47.43 115.26 47.43 60.7 63.18 69.79"/><polygon class="cls-4" points="33.44 80.9 17.69 90 33.44 99.09 49.18 90 33.44 80.9"/><polygon class="cls-2" points="49.19 89.97 49.19 132.43 33.44 141.52 33.44 99.1 49.19 89.97"/><polygon class="cls-23" points="33.44 99.1 33.44 141.52 17.69 132.43 17.69 89.97 33.44 99.1"/><path class="cls-29" d="M124.42,10.19v4l-5.5-3.18A2.08,2.08,0,0,1,118,9.43V6.22Z"/><path class="cls-29" d="M136.54,16.37v3.77c0,.6-.42.84-.94.54l-5.93-3.42v-4Z"/><path class="cls-29" d="M66,46.66l.73-1.11L95.62,72.09,97,71.9l0,0a1.05,1.05,0,0,1-1.42.38l-3.83-2.2a5.49,5.49,0,0,1-1-.7Z"/><polygon class="cls-30" points="124.42 10.19 129.68 13.22 96.43 68.78 91.87 64.6 124.42 10.19"/><path class="cls-31" d="M129.67,13.22v4L97,71.9a.83.83,0,0,1-1.13.35.65.65,0,0,1-.21-.16L67.46,46.27a.88.88,0,0,0-1.24,0,.86.86,0,0,0-.14.18L40.42,85.65h0L37.51,90.1h0a1.11,1.11,0,0,1-.58.44v-4l.59-.44,2.91-4.44L66.09,42.4a.88.88,0,0,1,1.2-.31.86.86,0,0,1,.18.14L95.63,68.05a.85.85,0,0,0,1.19,0,1.46,1.46,0,0,0,.16-.21Z"/><path class="cls-29" d="M36.93,86.52v4a1.17,1.17,0,0,1-.93-.09l-3-1.71h0a2.08,2.08,0,0,1-.9-1.6V83.72Z"/><path class="cls-30" d="M37.53,86.07,66.09,42.41a.92.92,0,0,1,1.21-.3L62.35,39a1.11,1.11,0,0,0-1.51.33L32.28,83a1,1,0,0,0,.28,1.39l.06,0,3.38,2A1.18,1.18,0,0,0,37.53,86.07Z"/><path class="cls-30" d="M118.36,6.69l17.38,10c.52.3.88.06.78-.53L134.38.76a.82.82,0,0,0-.87-.76.69.69,0,0,0-.28.08l-14.81,5.7C117.88,6,117.84,6.39,118.36,6.69Z"/></g><g id="freepik--Dollar--inject-1--inject-2"><polygon class="cls-5" points="168.17 84.1 162.78 80.98 173.21 72.09 178.6 75.2 168.17 84.1"/><polygon class="cls-13" points="168.17 84.1 162.78 80.98 173.21 72.09 178.6 75.2 168.17 84.1"/><path class="cls-5" d="M171.48,86.15c-2.75-2-7.54-.47-11.59.81l-2.66.87a4.87,4.87,0,0,0-.39,1.88c0,3.14,2.66,2.28,8.44.38a43.18,43.18,0,0,1,6-1.58c.18,1.6,1.29,3.07,5.62.77Z"/><path class="cls-13" d="M171.48,86.15c-2.75-2-7.54-.47-11.59.81l-2.66.87a4.87,4.87,0,0,0-.39,1.88c0,3.14,2.66,2.28,8.44.38a43.18,43.18,0,0,1,6-1.58c.18,1.6,1.29,3.07,5.62.77Z"/><polygon class="cls-5" points="158.13 127.03 152.74 123.92 152.74 117.55 158.13 120.67 158.13 127.03"/><polygon class="cls-13" points="158.13 127.03 152.74 123.92 152.74 117.55 158.13 120.67 158.13 127.03"/><path class="cls-5" d="M167.26,102.87c0,2.53-1.9,4.79-4.72,6.43-4.49,2.61-6.23.48-6.62-1.6l-.95-.55a11.21,11.21,0,0,0,6.58-5.61C164.87,100.45,167.26,100,167.26,102.87Z"/><path class="cls-13" d="M167.26,102.87c0,2.53-1.9,4.79-4.72,6.43-4.49,2.61-6.23.48-6.62-1.6l-.95-.55a11.21,11.21,0,0,0,6.58-5.61C164.87,100.45,167.26,100,167.26,102.87Z"/><path class="cls-5" d="M147.22,118.47a3.58,3.58,0,0,0-2-.48c-.11-.32-.2-.65-.29-1l-5.39-3.11a6.64,6.64,0,0,0,3,4.6h0l5.38,3.11S148.88,119.56,147.22,118.47Z"/><path class="cls-13" d="M147.22,118.47a3.58,3.58,0,0,0-2-.48c-.11-.32-.2-.65-.29-1l-5.39-3.11a6.64,6.64,0,0,0,3,4.6h0l5.38,3.11S148.88,119.56,147.22,118.47Z"/><path class="cls-5" d="M165.28,90.07c-5.78,1.91-8.44,2.77-8.44-.37a4.83,4.83,0,0,1,.39-1.88c-3.94,1.22-5.78,1.37-5.78-1.24,0-1.91,1.29-4.28,4.86-6.35,3.81-2.2,5.94-1.7,6.48.75l10.42-8.89c0-.14-.1-.26-.14-.39a6.5,6.5,0,0,0,1.85-.71l-4.3-2.55-.42-.25-.06,0h0a7.42,7.42,0,0,0-4.1-.67A18.07,18.07,0,0,0,160.65,69v-.11L166,65.74l-5.39-3.12h0L157,64.75l-4.95,2.88h0V74c-7.3,5.32-11.87,12.28-11.87,19.78,0,3.42.93,5.37,2.42,6.36h0l.07,0,.4.22,4.51,2.54a3.31,3.31,0,0,0-.28-2,25.31,25.31,0,0,0,4.23-.92c5.48-1.66,10.35-4.26,10.35-.2a5,5,0,0,1-.33,1.79c3.33-1.09,5.72-1.52,5.72,1.31,0,2.53-1.9,4.79-4.72,6.43-4.49,2.61-6.24.48-6.62-1.6h0l-1-.55-4.44-2.57-11,9.29L145,117a9.64,9.64,0,0,0,.83,2.29,17.41,17.41,0,0,0,6.95-1.72v2.58l5.39.66,3.13-1.83V112.6c7.38-5.44,12.48-12.78,12.48-20.44a10.48,10.48,0,0,0-.61-3.84A31.06,31.06,0,0,0,165.28,90.07Z"/><path class="cls-28" d="M165.28,90.07c-5.78,1.91-8.44,2.77-8.44-.37a4.83,4.83,0,0,1,.39-1.88c-3.94,1.22-5.78,1.37-5.78-1.24,0-1.91,1.29-4.28,4.86-6.35,3.81-2.2,5.94-1.7,6.48.75l10.42-8.89c0-.14-.1-.26-.14-.39a6.5,6.5,0,0,0,1.85-.71l-4.3-2.55-.42-.25-.06,0h0a7.42,7.42,0,0,0-4.1-.67A18.07,18.07,0,0,0,160.65,69v-.11L166,65.74l-5.39-3.12h0L157,64.75l-4.95,2.88h0V74c-7.3,5.32-11.87,12.28-11.87,19.78,0,3.42.93,5.37,2.42,6.36h0l.07,0,.4.22,4.51,2.54a3.31,3.31,0,0,0-.28-2,25.31,25.31,0,0,0,4.23-.92c5.48-1.66,10.35-4.26,10.35-.2a5,5,0,0,1-.33,1.79c3.33-1.09,5.72-1.52,5.72,1.31,0,2.53-1.9,4.79-4.72,6.43-4.49,2.61-6.24.48-6.62-1.6h0l-1-.55-4.44-2.57-11,9.29L145,117a9.64,9.64,0,0,0,.83,2.29,17.41,17.41,0,0,0,6.95-1.72v2.58l5.39.66,3.13-1.83V112.6c7.38-5.44,12.48-12.78,12.48-20.44a10.48,10.48,0,0,0-.61-3.84A31.06,31.06,0,0,0,165.28,90.07Z"/><path class="cls-5" d="M173.12,88.32a30.52,30.52,0,0,0-7.84,1.76c-5.79,1.9-8.45,2.76-8.45-.38a4.7,4.7,0,0,1,.4-1.88,10.06,10.06,0,0,1,4.47-4.48c3.8-2.19,5.93-1.68,6.46.77l10.43-8.9c-1-3-3-4.58-6.05-4.64A16,16,0,0,0,166,72.08V65.74l-5.38,3.13-3.21,1.87V77.1c-7.31,5.32-11.88,12.27-11.88,19.78a11.17,11.17,0,0,0,.65,4.09c1.62,4,6,3.48,10.69,2.11,1.63-.49,3.22-1.07,4.63-1.52,3.33-1.09,5.72-1.52,5.72,1.31,0,2.53-1.9,4.79-4.71,6.43-4.5,2.61-6.24.48-6.63-1.6L145,117a8.84,8.84,0,0,0,.83,2.29c1.42,2.68,4,3.41,6.95,3a20.8,20.8,0,0,0,5.39-1.61V127l8.52-4.92v-6.39c7.38-5.44,12.48-12.77,12.48-20.44C179.13,89.76,176.52,88.24,173.12,88.32Z"/><polygon class="cls-5" points="157.44 77.08 152.05 73.97 152.05 67.6 157.44 70.72 157.44 77.08"/><polygon class="cls-13" points="157.44 77.08 152.05 73.97 152.05 67.6 157.44 70.72 157.44 77.08"/><path class="cls-3" d="M152.05,67.6c.91.5,1.83,1,2.73,1.5s1.82,1,2.72,1.53h-.11c.72-.44,1.43-.85,2.15-1.26l2.15-1.24,2.17-1.21c.73-.41,1.45-.8,2.2-1.2L163.94,67l-2.13,1.28-2.15,1.26c-.71.44-1.43.83-2.15,1.25l0,0-.05,0c-.9-.53-1.8-1-2.68-1.59Z"/><polygon class="cls-3" points="157.44 77.08 157.33 70.72 157.56 70.72 157.44 77.08"/><path class="cls-3" d="M157.45,77.08l-.95.75c-.31.23-.66.53-1.07.87s-.85.75-1.31,1.2l-1.52,1.49a20,20,0,0,0-1.55,1.79c-.26.32-.53.64-.77,1s-.52.68-.74,1-.48.73-.71,1.1l-.65,1.13-.59,1.17c-.19.4-.34.81-.51,1.2a19.77,19.77,0,0,0-.78,2.4c-.05.2-.11.39-.15.59l-.12.59a10.66,10.66,0,0,0-.19,1.13c0,.38-.11.74-.12,1.1s0,.69-.05,1a15.28,15.28,0,0,0,0,1.79,10.52,10.52,0,0,0,.2,1.37c.08.37.16.66.23.88a1.92,1.92,0,0,0,.1.29l-.11-.29a8.52,8.52,0,0,1-.26-.86,12.51,12.51,0,0,1-.25-1.36,15.56,15.56,0,0,1-.08-1.81c0-.33,0-.67,0-1s.07-.72.1-1.1.1-.76.17-1.15a12,12,0,0,1,.26-1.19,20.23,20.23,0,0,1,.78-2.43c.17-.4.32-.81.51-1.21s.39-.79.58-1.19l.67-1.14c.23-.38.48-.73.72-1.1s.5-.7.75-1,.52-.66.78-1a23.14,23.14,0,0,1,1.6-1.75A21,21,0,0,1,154,79.84c.5-.43.95-.83,1.37-1.16s.78-.63,1.09-.85Z"/><path class="cls-3" d="M173.12,88.32h-.2c-.13,0-.33,0-.57.05a19.83,19.83,0,0,0-2,.35c-.83.18-1.78.44-2.8.75s-2.09.65-3.16,1l-1.62.51c-.53.16-1.06.32-1.57.44a11.24,11.24,0,0,1-1.51.31,4.92,4.92,0,0,1-1.38.05,1.56,1.56,0,0,1-1-.52l-.15-.21a2,2,0,0,1-.09-.22,1.09,1.09,0,0,1-.11-.39,2.2,2.2,0,0,1,0-.57v0a2.78,2.78,0,0,0,.07.57,1.71,1.71,0,0,0,.13.38c0,.07.06.14.1.21l.16.19a1.53,1.53,0,0,0,1,.44,4.7,4.7,0,0,0,1.35-.09l.73-.15.75-.19c.51-.14,1-.3,1.56-.46l1.61-.53c1.07-.35,2.16-.68,3.18-1s2-.52,2.83-.68a15.44,15.44,0,0,1,2-.26h.79Z"/><path class="cls-3" d="M167.26,102.87v.19a4.71,4.71,0,0,1,0,.53,5.53,5.53,0,0,1-.16.81,5.76,5.76,0,0,1-.39,1,7.59,7.59,0,0,1-.67,1.09,8.67,8.67,0,0,1-.95,1.06,13.5,13.5,0,0,1-2.47,1.85l-.69.37c-.23.12-.48.21-.72.32a8.19,8.19,0,0,1-1.46.44,3.82,3.82,0,0,1-1.43,0,3.4,3.4,0,0,1-.64-.2,3.2,3.2,0,0,1-.53-.34,2.64,2.64,0,0,1-.7-.82,3.43,3.43,0,0,1-.33-.76,4.84,4.84,0,0,1-.14-.51l0-.19.05.19a3.22,3.22,0,0,0,.16.5,3.54,3.54,0,0,0,.36.73,3,3,0,0,0,.71.76,2.62,2.62,0,0,0,.51.3,2.51,2.51,0,0,0,.61.17,3.94,3.94,0,0,0,1.37,0,7,7,0,0,0,1.41-.44c.23-.11.47-.19.69-.32l.69-.37c.45-.26.88-.54,1.3-.84a11.6,11.6,0,0,0,1.15-1,8.38,8.38,0,0,0,1.63-2.07,5.65,5.65,0,0,0,.44-1,4.16,4.16,0,0,0,.2-.79,4.6,4.6,0,0,0,.06-.52Z"/><path class="cls-3" d="M139.57,113.87l2.73,1.5L145,116.9h-.11l2.73-2.34,2.74-2.31,2.77-2.29c.92-.77,1.85-1.51,2.78-2.27l-2.69,2.38-2.72,2.34-2.74,2.32L145,117.05l-.05,0-.06,0-2.67-1.58Z"/><path class="cls-3" d="M166.65,115.72l.84-.67c.26-.21.59-.46.94-.78s.77-.64,1.19-1,.89-.82,1.35-1.32l.72-.73.72-.79c.25-.26.49-.54.72-.83s.48-.57.72-.88c.44-.61.93-1.22,1.34-1.87s.82-1.31,1.21-2a15.54,15.54,0,0,0,1-2c.28-.68.52-1.31.76-1.94.09-.32.18-.62.27-.93,0-.15.09-.3.13-.44s.06-.29.09-.43c.12-.57.25-1.09.3-1.56s.13-.87.14-1.21c0-.68.06-1.07.06-1.07s0,.39,0,1.07c0,.41-.05.82-.1,1.22a12.08,12.08,0,0,1-.25,1.58l-.09.43c0,.15-.08.3-.11.44-.09.31-.17.62-.26,1-.23.62-.44,1.31-.74,2s-.62,1.35-1,2a16.25,16.25,0,0,1-1.21,2c-.45.64-.88,1.27-1.36,1.88-.24.3-.49.58-.73.87s-.48.57-.73.84l-.75.82-.74.72c-.47.47-.95.87-1.38,1.27s-.88.71-1.23,1a9.92,9.92,0,0,1-1,.75Z"/><path class="cls-3" d="M152.74,122.3c.47-.08.92-.19,1.38-.31s.9-.25,1.34-.4c.88-.3,1.76-.63,2.63-1l.16-.07v3.36c0,1.06,0,2.12-.09,3.18q-.06-1.59-.09-3.18v-3.18l.16.1a25,25,0,0,1-2.67,1A14.21,14.21,0,0,1,152.74,122.3Z"/><path class="cls-3" d="M161.72,83.34c.29-.16.57-.34.88-.49l.88-.44.44-.18a3.68,3.68,0,0,1,.47-.15c.16,0,.32-.1.48-.13s.33-.06.49-.07h.5a2.22,2.22,0,0,1,.51.06,2.06,2.06,0,0,1,.48.15,2.82,2.82,0,0,1,.44.26,3.06,3.06,0,0,1,.36.36,2.52,2.52,0,0,1,.28.44,2.67,2.67,0,0,1,.2.46c.06.17.1.33.14.49L168.1,84l2.61-2.23,2.63-2.22L176,77.4l2.63-2.19L176,77.49l-2.58,2.24L170.85,82l-2.63,2.22-.12.1,0-.16c-.05-.15-.08-.31-.14-.46a3.38,3.38,0,0,0-.18-.44,2.11,2.11,0,0,0-.26-.4,2.57,2.57,0,0,0-.33-.33,1.8,1.8,0,0,0-.4-.25,1.63,1.63,0,0,0-.44-.15,2.44,2.44,0,0,0-.46-.07,4,4,0,0,0-.49,0,3.93,3.93,0,0,0-.48.06l-.47.11a3.64,3.64,0,0,0-.47.14,3.57,3.57,0,0,0-.46.16c-.31.12-.61.25-.91.39S162,83.19,161.72,83.34Z"/></g></g></g></svg>