<svg xmlns="http://www.w3.org/2000/svg" viewBox="0 0 181.89 40.09"><defs><style>.cls-1{fill:#1d76bb;}.cls-2,.cls-4,.cls-5{fill:#fff;}.cls-3{font-size:34.13px;fill:#d0d2d3;font-family:Exo2-ExtraBoldItalic, "Exo 2";font-weight:800;font-style:italic;}.cls-4{letter-spacing:-0.01em;}.cls-5{letter-spacing:-0.01em;}</style></defs><g id="Capa_2" data-name="Capa 2"><g id="Layer_1" data-name="Layer 1"><polygon class="cls-1" points="29.64 11.28 29.64 11.4 29.7 11.28 29.64 11.28"/><polygon class="cls-1" points="39.1 7.64 39.1 7.64 39.1 7.66 39.1 7.64"/><path class="cls-2" d="M35.9,3.06A12,12,0,0,0,17,6.81a5.45,5.45,0,0,0-2.14-.43,5.55,5.55,0,0,0-5.53,5A10.73,10.73,0,0,0,6.45,31.88l7.28-14.14h5.4V21.8L24.3,11.28h5.4l-.06.12V16Z"/><path class="cls-2" d="M13.74,32.77l5.39-11V17.74l-7.74,15ZM29.64,11.4,19.14,32.77h2.43L29.64,16ZM39.1,7.64h0L27,32.77H39.1V7.64Z"/><path class="cls-2" d="M39.82,13.61A11.49,11.49,0,0,0,39.93,12a12,12,0,0,0-.83-4.38V32.77h.78v0a9.59,9.59,0,0,0-.06-19.14Z"/><polygon class="cls-1" points="39.09 7.64 39.09 7.65 39.1 7.64 39.09 7.64"/><text class="cls-3" transform="translate(53.26 30.67)">IN<tspan class="cls-2" x="35.22" y="0">N</tspan><tspan class="cls-4" x="59.93" y="0">O</tspan><tspan class="cls-5" x="83.1" y="0">V</tspan><tspan class="cls-2" x="105.01" y="0">O</tspan></text></g></g></svg>