<svg xmlns="http://www.w3.org/2000/svg" viewBox="0 0 128.63 96.75"><defs><style>.cls-1{fill:#1d76bb;}.cls-2{fill:#7f3f97;}.cls-3{fill:#4e1456;}.cls-4{font-size:34.13px;fill:#4a2155;font-family:Exo2-ExtraBoldItalic, "Exo 2";font-weight:800;font-style:italic;}.cls-5,.cls-6,.cls-7{fill:#7e4192;}.cls-6{letter-spacing:-0.01em;}.cls-7{letter-spacing:-0.01em;}</style></defs><g id="Capa_2" data-name="Capa 2"><g id="Layer_1" data-name="Layer 1"><polygon class="cls-1" points="68.71 19.14 68.71 19.34 68.81 19.14 68.71 19.14"/><path class="cls-1" d="M84.75,13h0v0Z"/><path class="cls-2" d="M79.33,5.19a20.44,20.44,0,0,0-32,6.36,9.44,9.44,0,0,0-13,7.8,18.21,18.21,0,0,0-5,34.76l12.35-24h9.18V37l8.77-17.86h9.17l-.1.2v7.87Z"/><path class="cls-3" d="M41.72,55.62,50.87,37V30.1L37.73,55.62Zm27-36.28L50.89,55.62H55L68.71,27.21Zm16-6.37h0L64.17,55.62H84.75V13Z"/><path class="cls-2" d="M86,23.11a19.74,19.74,0,0,0,.18-2.67A20.27,20.27,0,0,0,84.75,13V55.62h1.33v0A16.27,16.27,0,0,0,86,23.11Z"/><polygon class="cls-1" points="84.75 12.97 84.74 12.98 84.75 12.97 84.75 12.97"/><text class="cls-4" transform="translate(0 87.33)">IN<tspan class="cls-5" x="35.22" y="0">N</tspan><tspan class="cls-6" x="59.93" y="0">O</tspan><tspan class="cls-7" x="83.1" y="0">V</tspan><tspan class="cls-5" x="105.01" y="0">O</tspan></text></g></g></svg>