<svg xmlns="http://www.w3.org/2000/svg" viewBox="0 0 171.5 124.03"><defs><style>.cls-1{fill:#3f3f3f;}.cls-10,.cls-2{fill:#fff;}.cls-3{fill:#333;}.cls-14,.cls-4{fill:#64d0da;}.cls-11,.cls-5{fill:#2d96b3;}.cls-6{fill:#055586;}.cls-12,.cls-7{fill:#df2938;}.cls-8,.cls-9{fill:#384146;}.cls-10,.cls-11,.cls-12,.cls-13,.cls-14,.cls-9{fill-rule:evenodd;}.cls-13{fill:#e34856;}</style></defs><g id="Capa_2" data-name="Capa 2"><g id="Capa_1-2" data-name="Capa 1"><rect class="cls-1" width="171.5" height="102" rx="1.3"/><rect class="cls-2" x="8.76" y="6.05" width="153.99" height="89.9"/><rect class="cls-3" x="66.24" y="102" width="38.23" height="17.65"/><rect class="cls-1" x="60.42" y="119.64" width="49.87" height="4.39"/><rect class="cls-4" x="80.39" y="54.51" width="9.85" height="27.64"/><rect class="cls-5" x="95.17" y="50.03" width="9.85" height="32.12"/><rect class="cls-6" x="109.94" y="24.31" width="9.85" height="57.83"/><rect class="cls-7" x="124.71" y="62.89" width="9.85" height="19.26"/><rect class="cls-8" x="80.39" y="86.55" width="68.94" height="1.82"/><rect class="cls-5" x="139.49" y="47.22" width="9.85" height="34.92"/><path class="cls-9" d="M73,44.22a17.36,17.36,0,0,0,5.63,3.94,19.21,19.21,0,0,0,6.68,2h0a16.13,16.13,0,0,0,8.33-1.82A14.19,14.19,0,0,0,99.76,43c1.63-2.84,2.82-6.83,4-10.82,2.45-8.15,4.89-16.29,11.1-15.25,6.61-.59,8.18,12.35,9.59,24,1.11,9.19,2.13,17.58,5.16,17.52h.05c2.83.29,4.37-3.33,6-7.12,2-4.61,4-9.45,8.81-8.54h0a15.13,15.13,0,0,0,7,.17c2.11-.52,3.44-1.6,3.81-2.74l.71.19c-.44,1.35-1.95,2.61-4.33,3.19a15.82,15.82,0,0,1-7.37-.16h0c-4.17-.79-6.12,3.78-8,8.13-1.72,4-3.37,7.89-6.76,7.54-3.67,0-4.72-8.64-5.86-18.11-1.38-11.41-2.91-24-8.84-23.44h-.11c-5.57-1-7.93,6.88-10.3,14.75-1.2,4-2.41,8-4.07,11h0A14.85,14.85,0,0,1,94,48.9a16.89,16.89,0,0,1-8.75,1.9h0a20,20,0,0,1-7-2.06,18.14,18.14,0,0,1-5.9-4.15Z"/><path class="cls-9" d="M129.64,61.41a2.57,2.57,0,1,0-2.83-2.56A2.72,2.72,0,0,0,129.64,61.41Z"/><path class="cls-10" d="M129.64,59.93a1.09,1.09,0,1,0-1.19-1.08A1.15,1.15,0,0,0,129.64,59.93Z"/><path class="cls-9" d="M144.41,45.75a2.58,2.58,0,1,0-2.83-2.56A2.71,2.71,0,0,0,144.41,45.75Z"/><path class="cls-10" d="M144.41,44.26a1.08,1.08,0,1,0-1.19-1.07A1.14,1.14,0,0,0,144.41,44.26Z"/><path class="cls-9" d="M100.09,45.75a2.58,2.58,0,1,0-2.83-2.56A2.71,2.71,0,0,0,100.09,45.75Z"/><path class="cls-10" d="M100.09,44.26a1.08,1.08,0,1,0-1.19-1.07A1.13,1.13,0,0,0,100.09,44.26Z"/><path class="cls-9" d="M85.32,53a2.57,2.57,0,1,0-2.83-2.56A2.71,2.71,0,0,0,85.32,53Z"/><path class="cls-10" d="M85.32,51.55a1.09,1.09,0,1,0-1.19-1.08A1.14,1.14,0,0,0,85.32,51.55Z"/><path class="cls-9" d="M114.86,19.86a2.71,2.71,0,0,0,2.83-2.56,2.84,2.84,0,0,0-5.66,0A2.72,2.72,0,0,0,114.86,19.86Z"/><path class="cls-10" d="M114.86,18.38a1.09,1.09,0,1,0-1.19-1.08A1.14,1.14,0,0,0,114.86,18.38Z"/><path class="cls-11" d="M39.32,35.62V48.54A10.11,10.11,0,1,0,45.05,67l7.32,10.65a23,23,0,1,1-13-42Z"/><path class="cls-12" d="M41.58,42.9V30a23,23,0,0,1,14.83,5.41l-8.32,9.89A10.08,10.08,0,0,0,41.58,42.9Z"/><path class="cls-13" d="M45.83,50.92,54.15,41a23.09,23.09,0,0,1,4,4.4,23,23,0,0,1-5.81,32.19L45.05,67a10.1,10.1,0,0,0,.78-16Z"/><path class="cls-14" d="M29.42,56.61,16.76,54a23.63,23.63,0,0,0-.46,4.64,23,23,0,0,0,36.07,19L45.05,67a10.11,10.11,0,0,1-15.83-8.32A10.53,10.53,0,0,1,29.42,56.61Z"/><path class="cls-8" d="M49.54,24.17a2,2,0,0,1,.52-1.49,1.65,1.65,0,0,1,1.2-.45,1.54,1.54,0,0,1,1.16.51,1.67,1.67,0,0,1,.48,1.19,3,3,0,0,1-.31,1.35,10.87,10.87,0,0,1-.8,1.25c-.11.16-.28.41-.5.75l-.19.28c-.12.18-.21.33-.27.43a.79.79,0,0,0,0,.1h2v1h-3.3v-.95a2.19,2.19,0,0,1,.23-.38l.23-.35.27-.39c.16-.22.41-.56.74-1a7.19,7.19,0,0,0,.72-1.21A2.07,2.07,0,0,0,51.9,24a.84.84,0,0,0-.17-.53.61.61,0,0,0-.5-.23.63.63,0,0,0-.61.5,1.14,1.14,0,0,0-.06.39v.26h-1Z"/><path class="cls-8" d="M57,27.54a1.59,1.59,0,0,1-.48,1.17,1.62,1.62,0,0,1-1.16.47,1.59,1.59,0,0,1-1.16-.48,1.57,1.57,0,0,1-.48-1.16V23.79a1.64,1.64,0,0,1,1.64-1.65A1.64,1.64,0,0,1,57,23.79ZM56,23.77a.58.58,0,0,0-.18-.43.57.57,0,0,0-.42-.17.61.61,0,0,0-.42.17.61.61,0,0,0-.17.43v3.76A.61.61,0,0,0,55,28a.57.57,0,0,0,.42.17.54.54,0,0,0,.42-.17.58.58,0,0,0,.18-.42Z"/><path class="cls-8" d="M60.19,24.76a.8.8,0,0,1-.25.6.85.85,0,0,1-1.22,0,.8.8,0,0,1-.25-.6v-2a.82.82,0,0,1,.25-.61.85.85,0,0,1,1.22,0,.82.82,0,0,1,.25.61Zm-.78,4.47H58.8L62.31,22h.61ZM59,24.75a.29.29,0,0,0,.09.22.32.32,0,0,0,.23.09.31.31,0,0,0,.22-.09.29.29,0,0,0,.09-.22v-2a.32.32,0,0,0-.09-.23.31.31,0,0,0-.22-.09.31.31,0,0,0-.32.32Zm3.39.72a.82.82,0,0,1,.61.25.87.87,0,0,1,.24.61v2a.82.82,0,0,1-.25.61.86.86,0,0,1-1.21,0,.82.82,0,0,1-.25-.61v-2a.85.85,0,0,1,.86-.86Zm.3.85a.29.29,0,0,0-.09-.22.32.32,0,0,0-.23-.09.31.31,0,0,0-.31.31v2a.32.32,0,0,0,.09.23.29.29,0,0,0,.22.09.31.31,0,0,0,.32-.32Z"/></g></g></svg>