<svg xmlns="http://www.w3.org/2000/svg" viewBox="0 0 189.2 207.58"><defs><style>.cls-1{isolation:isolate;}.cls-2,.cls-20{fill:#f3f3f3;}.cls-13,.cls-15,.cls-16,.cls-19,.cls-3,.cls-8{fill:#001630;}.cls-4{fill:#483bc6;}.cls-5,.cls-7{fill:#e5e7e8;}.cls-6{fill:#eff0f1;}.cls-7{mix-blend-mode:multiply;}.cls-8{font-size:20.48px;font-family:FiraSans-Medium, Fira Sans;}.cls-16,.cls-8{font-weight:500;}.cls-9{letter-spacing:-0.05em;}.cls-10{letter-spacing:-0.01em;}.cls-11,.cls-12,.cls-13,.cls-14{font-size:3.19px;}.cls-11,.cls-12,.cls-21,.cls-22{fill:#fff;}.cls-11,.cls-13{font-family:Poppins-Bold, Poppins;font-weight:700;}.cls-12,.cls-15,.cls-19,.cls-22{font-family:Poppins-SemiBold, Poppins;font-weight:600;}.cls-14,.cls-17,.cls-18{fill:#6d6e72;}.cls-14,.cls-17,.cls-18,.cls-21{font-family:Poppins-Light, Poppins;font-weight:300;}.cls-15,.cls-16,.cls-21,.cls-22{font-size:4.47px;}.cls-16{font-family:Poppins-Medium, Poppins;}.cls-17{font-size:1.92px;}.cls-18{font-size:2.55px;}.cls-19,.cls-20{font-size:3.83px;}.cls-20{font-family:Poppins-ExtraBold, Poppins;font-weight:800;}.cls-23{fill:none;stroke:#cccfd1;stroke-miterlimit:10;stroke-width:0.5px;}.cls-24{fill:#652d8e;}.cls-25{fill:#7f3f95;}</style></defs><g class="cls-1"><g id="Capa_2" data-name="Capa 2"><g id="Capa_1-2" data-name="Capa 1"><rect class="cls-2" width="189.2" height="205.08"/><rect class="cls-3" y="205.3" width="189.2" height="2.28"/><rect class="cls-4" y="205.3" width="94.68" height="2.28"/><polygon class="cls-3" points="189.2 50.74 96.63 50.74 90.25 40.42 189.2 40.42 189.2 50.74"/><rect class="cls-4" x="123.99" y="181.29" width="65.21" height="10.33"/><polygon class="cls-4" points="94.6 50.74 0 50.74 0 40.42 88.22 40.42 94.6 50.74"/><rect class="cls-2" width="189.2" height="40.39"/><rect class="cls-5" y="50.59" width="189.2" height="2.37"/><rect class="cls-3" x="17.24" y="81.36" width="23.32" height="80.11"/><rect class="cls-5" x="40.56" y="81.36" width="131.73" height="80.11" transform="translate(212.85 242.82) rotate(180)"/><rect class="cls-6" x="150.14" y="81.36" width="22.15" height="80.11" transform="translate(322.43 242.82) rotate(180)"/><rect class="cls-6" x="102.68" y="81.36" width="22.15" height="80.11" transform="translate(227.5 242.82) rotate(180)"/><rect class="cls-7" x="40.56" y="81.36" width="131.73" height="15.57" transform="translate(212.85 178.29) rotate(180)"/><text class="cls-8" transform="translate(88.46 26.13)"><tspan class="cls-9">F</tspan><tspan class="cls-10" x="8.99" y="0">AC</tspan><tspan x="32.15" y="0">TURA</tspan></text><text class="cls-11" transform="translate(27.96 90.77)">No</text><text class="cls-12" transform="translate(29.17 106.72)">1<tspan x="-0.34" y="15.96">2</tspan><tspan x="-0.38" y="31.92">3</tspan><tspan x="-0.48" y="47.88">4</tspan></text><text class="cls-13" transform="translate(52.67 90.77)">Item Description</text><text class="cls-14" transform="translate(52.67 106.72)">Lorem Ipsum Dolor<tspan x="0" y="15.96">Consectetuer Adipiscing </tspan><tspan x="0" y="31.92">Sed Diam Nonummy </tspan><tspan x="0" y="47.88">Tincidunt Ut Laoreet </tspan></text><text class="cls-13" transform="translate(110.13 90.77)">Price</text><text class="cls-14" transform="translate(110.4 106.72)">S/200<tspan x="0" y="15.96">S/50 </tspan><tspan x="0" y="31.92">S/40</tspan><tspan x="0" y="47.88">S/150</tspan></text><text class="cls-13" transform="translate(133.66 90.77)">QTY</text><text class="cls-14" transform="translate(135.95 106.72)">1<tspan x="0" y="15.96">2</tspan><tspan x="0" y="31.92">3</tspan><tspan x="0" y="47.88">4</tspan></text><text class="cls-13" transform="translate(157.57 90.77)">Total</text><text class="cls-14" transform="translate(157.8 106.72)">S/200<tspan x="0" y="15.96">S/100</tspan><tspan x="0" y="31.92">S/120</tspan><tspan x="0" y="47.88">S/600</tspan></text><text class="cls-15" transform="translate(16.99 62.77)"><tspan xml:space="preserve">Invoice To   :</tspan></text><text class="cls-16" transform="translate(50.7 62.79)">Lorem ipsum</text><text class="cls-17" transform="translate(50.94 68.49)">Lorem ipsum dolor sit amet, <tspan x="0" y="3.19">consectetuer adipiscing elit</tspan><tspan x="0" y="6.38">diam nonummy</tspan></text><text class="cls-15" transform="translate(18.09 169.79)">Condiciones de Pago</text><text class="cls-18" transform="translate(18.09 177.35)">Account<tspan x="0" y="5.75">A/C Name</tspan><tspan x="0" y="11.49">Bank Details</tspan></text><text class="cls-18" transform="translate(42.91 177.35)">111 222 333<tspan x="0" y="5.75">Lorem Ipsum</tspan><tspan x="0" y="11.49">Your Bank Details</tspan></text><text class="cls-18" transform="translate(39.21 177.35)">:<tspan x="0" y="5.75">:</tspan><tspan x="0" y="11.49">:</tspan></text><text class="cls-19" transform="translate(128.66 169)">Sub Total<tspan x="0" y="7.02">IGV</tspan></text><text class="cls-19" transform="translate(156.82 169)">S/ 1000<tspan x="0" y="7.02">18%</tspan></text><text class="cls-20" transform="translate(128.66 187.55)">Total</text><text class="cls-20" transform="translate(156.82 187.55)">S/ 1000</text><text class="cls-21" transform="translate(45.11 47.32)">234</text><text class="cls-22" transform="translate(16.96 47.26)">NUMERO #</text><text class="cls-22" transform="translate(129.34 47.26)">Fecha</text><text class="cls-21" transform="translate(147.72 47.52)">12/09/2020</text><line class="cls-23" x1="40.56" y1="113.25" x2="171.96" y2="113.25"/><line class="cls-23" x1="40.56" y1="129.32" x2="171.96" y2="129.32"/><line class="cls-23" x1="40.56" y1="145.39" x2="171.96" y2="145.39"/><line class="cls-23" x1="40.56" y1="161.46" x2="171.96" y2="161.46"/><polygon class="cls-24" points="37.53 15.76 37.53 15.85 37.58 15.76 37.53 15.76"/><polygon class="cls-24" points="44.72 12.99 44.72 13 44.72 13.01 44.72 12.99"/><path class="cls-24" d="M42.29,9.51a9.16,9.16,0,0,0-14.35,2.85A4.18,4.18,0,0,0,26.32,12a4.23,4.23,0,0,0-4.21,3.81,8.16,8.16,0,0,0-2.22,15.58l5.53-10.76h4.11v3.09l3.94-8h4.11l0,.09v3.53Z"/><path class="cls-25" d="M25.43,32.11l4.1-8.35V20.67L23.65,32.11Zm12.1-16.26-8,16.26h1.85l6.14-12.73ZM44.72,13h0L35.5,32.11h9.22V13Z"/><path class="cls-25" d="M45.27,17.54a9.42,9.42,0,0,0,.08-1.2A9,9,0,0,0,44.72,13v19.1h.6v0a7.29,7.29,0,0,0,0-14.55Z"/><polygon class="cls-24" points="44.72 12.99 44.72 13 44.72 13 44.72 12.99"/></g></g></g></svg>