<svg xmlns="http://www.w3.org/2000/svg" viewBox="0 0 625.91 305.26"><defs><style>.cls-1{isolation:isolate;}.cls-2{fill:#dbdbdb;}.cls-3{fill:#096cd2;}.cls-17,.cls-27,.cls-4{font-size:13px;font-family:Montserrat-Bold, Montserrat;font-weight:700;}.cls-14,.cls-15,.cls-17,.cls-27,.cls-4,.cls-7{fill:#f6f6f6;}.cls-18,.cls-4{letter-spacing:0.1em;}.cls-5{letter-spacing:0.1em;}.cls-6{letter-spacing:0.09em;}.cls-7{font-size:9px;font-family:Montserrat-Light, Montserrat;font-weight:300;}.cls-8{letter-spacing:0em;}.cls-9{letter-spacing:-0.01em;}.cls-10{letter-spacing:0em;}.cls-11{letter-spacing:-0.02em;}.cls-12{letter-spacing:-0.01em;}.cls-13{letter-spacing:-0.02em;}.cls-14{font-size:23.32px;font-family:Montserrat-ExtraBold, Montserrat;font-weight:800;}.cls-16{fill:#2f99da;}.cls-17{letter-spacing:0.09em;}.cls-19{letter-spacing:0.07em;}.cls-20,.cls-27{letter-spacing:0.1em;}.cls-21{letter-spacing:-0.02em;}.cls-22{letter-spacing:0em;}.cls-23{letter-spacing:-0.01em;}.cls-24{letter-spacing:-0.01em;}.cls-25{fill:#99cf14;}.cls-26{fill:none;stroke:#f6f6f6;stroke-linecap:round;stroke-linejoin:round;stroke-width:1.5px;}.cls-28{letter-spacing:-0.01em;}.cls-29{fill:#6f5ed0;}.cls-30{letter-spacing:-0.01em;}.cls-31{letter-spacing:-0.02em;}.cls-32{letter-spacing:-0.03em;}.cls-33{letter-spacing:0em;}.cls-34{letter-spacing:0.01em;}.cls-35{fill:#36465c;}.cls-36{fill:#e8cb3d;}.cls-37{fill:#335076;}.cls-38,.cls-41{fill:#b1b8c0;}.cls-39{fill:#7e8d98;}.cls-40{fill:#6dbebe;}.cls-41,.cls-44{opacity:0.54;mix-blend-mode:overlay;}.cls-42{fill:#eff0f0;}.cls-42,.cls-45{opacity:0.34;}.cls-43,.cls-44,.cls-45{fill:#fff;}.cls-46{fill:#92bdcb;}.cls-47{fill:#c3e5f0;}.cls-48{fill:#b4d8e6;}.cls-49{fill:#d86818;}.cls-50{fill:#cea27a;}.cls-51{fill:#dfb483;}.cls-52{fill:#59595b;}.cls-53{fill:#beceda;}.cls-54{fill:#7e8e99;}.cls-55{fill:#e6f2ff;}.cls-56{fill:#94a2ab;}.cls-57{fill:#d33349;}.cls-58{fill:#70c3c9;}.cls-59{fill:#2b425d;}.cls-60{fill:#385470;}.cls-61{fill:#496b85;}.cls-62{fill:#324b65;}.cls-63{fill:#64adbc;}.cls-64{fill:#7fdbdb;}.cls-65{fill:#6ab7be;}.cls-66{fill:#f3d35a;}.cls-67{fill:#f5de68;}.cls-68{fill:#f9eab3;}.cls-69{fill:#eed558;}.cls-70,.cls-77{fill:#453fbc;}.cls-71,.cls-76{fill:#714193;}.cls-72{fill:#f2f2f2;}.cls-73{fill:#d4d0d0;}.cls-74,.cls-87{mix-blend-mode:multiply;}.cls-75{fill:#5591b4;}.cls-76,.cls-77,.cls-88,.cls-89,.cls-90{fill-rule:evenodd;}.cls-78,.cls-89{fill:#e8a931;}.cls-79{fill:#e6e6e6;}.cls-80{fill:#ccc;}.cls-81{fill:#b3b3b3;}.cls-82,.cls-90{fill:#4b84c5;}.cls-83{fill:#fdffa2;}.cls-84{fill:#c6e4db;opacity:0.38;}.cls-85,.cls-88{fill:#2f5384;}.cls-86{fill:#df6a41;}.cls-87{fill:#e1e0dd;opacity:0.72;}.cls-91{fill:#cb5e3d;}</style></defs><g class="cls-1"><g id="Capa_2" data-name="Capa 2"><g id="OBJECTS"><rect class="cls-2" x="479.41" width="146.5" height="146.5"/><rect class="cls-3" x="479.41" y="158.76" width="146.5" height="146.5"/><text class="cls-4"><tspan x="497.41" y="288.36">S</tspan><tspan class="cls-5" x="507" y="288.36">E</tspan><tspan x="517" y="288.36">GUIMIEN</tspan><tspan class="cls-6" x="586.54" y="288.36">T</tspan><tspan x="595.74" y="288.36">O </tspan></text><text class="cls-7" transform="translate(497.41 230.42)"><tspan class="cls-8">A</tspan><tspan class="cls-9" x="6.3" y="0">c</tspan><tspan x="11.21" y="0">om</tspan><tspan class="cls-10" x="26.37" y="0">p</tspan><tspan x="32.43" y="0">añamien</tspan><tspan class="cls-11" x="72.33" y="0">t</tspan><tspan x="75.74" y="0">o </tspan><tspan class="cls-9" x="0" y="10.8">c</tspan><tspan x="4.91" y="10.8">ontinuo a nuest</tspan><tspan class="cls-12" x="75.35" y="10.8">r</tspan><tspan x="78.77" y="10.8">os </tspan><tspan class="cls-9" x="0" y="21.6">c</tspan><tspan x="4.91" y="21.6">lien</tspan><tspan class="cls-13" x="21.04" y="21.6">t</tspan><tspan x="24.45" y="21.6">es</tspan></text><text class="cls-14" transform="translate(575.28 193.39)">04</text><rect class="cls-15" x="582.28" y="200.75" width="25.33" height="4.61"/><polygon class="cls-3" points="556.31 164.39 549 164.39 549 142.39 552.66 139.39 556.31 142.39 556.31 164.39"/><rect class="cls-2" x="319.61" y="158.76" width="146.5" height="146.5"/><polygon class="cls-16" points="486.07 36.47 466.11 16.5 466.11 0 319.61 0 319.61 146.5 466.11 146.5 466.11 56.43 486.07 36.47"/><text class="cls-17" transform="translate(334.35 118.7)">P<tspan class="cls-18" x="10.65" y="0">UE</tspan><tspan class="cls-6" x="32.21" y="0">S</tspan><tspan class="cls-19" x="41.68" y="0">T</tspan><tspan class="cls-18" x="50.56" y="0">A</tspan><tspan class="cls-20"><tspan x="0" y="13">EN MARCHA</tspan></tspan></text><text class="cls-7" transform="translate(334.35 66.6)"><tspan class="cls-21">C</tspan><tspan x="6.23" y="0">onfigu</tspan><tspan class="cls-9" x="36.04" y="0">r</tspan><tspan class="cls-22" x="39.51" y="0">a</tspan><tspan x="44.77" y="0">ción y ca</tspan><tspan class="cls-12" x="83.37" y="0">r</tspan><tspan x="86.79" y="0">ga de </tspan><tspan x="0" y="10.8">in</tspan><tspan class="cls-9" x="8.41" y="10.8">f</tspan><tspan x="11.28" y="10.8">o</tspan><tspan class="cls-23" x="16.86" y="10.8">r</tspan><tspan x="20.32" y="10.8">m</tspan><tspan class="cls-22" x="29.9" y="10.8">a</tspan><tspan x="35.15" y="10.8">cion inicial del </tspan><tspan class="cls-22" x="0" y="21.6">n</tspan><tspan x="6.07" y="21.6">egocio</tspan></text><text class="cls-14" transform="translate(419.27 34.39)"><tspan class="cls-24">0</tspan><tspan x="15.74" y="0">3</tspan></text><rect class="cls-15" x="422.27" y="43.64" width="25.33" height="4.61"/><polygon class="cls-16" points="396.51 164.39 392.86 167.39 389.2 164.39 389.2 142.39 396.51 142.39 396.51 164.39"/><rect class="cls-2" x="159.8" width="146.5" height="146.5"/><polygon class="cls-25" points="328.07 272.36 306.3 250.6 306.3 158.76 159.8 158.76 159.8 305.26 306.3 305.26 306.3 294.13 328.07 272.36"/><polyline class="cls-26" points="179.06 181.47 179.06 177.82 194.73 177.82 194.73 199.41 191.08 199.41"/><rect class="cls-26" x="175.41" y="181.47" width="15.67" height="21.58"/><line class="cls-26" x1="179.06" y1="186.85" x2="186.89" y2="186.85"/><line class="cls-26" x1="179.06" y1="190.72" x2="186.89" y2="190.72"/><line class="cls-26" x1="179.06" y1="194.59" x2="186.89" y2="194.59"/><line class="cls-26" x1="179.06" y1="198.47" x2="186.89" y2="198.47"/><text class="cls-27" transform="translate(175.41 275.36)">DISEÑO<tspan x="0" y="13">DE MEJORAS </tspan></text><text class="cls-7" transform="translate(175.41 222.4)"><tspan class="cls-21">C</tspan><tspan x="6.23" y="0">onfigu</tspan><tspan class="cls-9" x="36.04" y="0">r</tspan><tspan x="39.51" y="0">a</tspan><tspan class="cls-22" x="44.76" y="0">m</tspan><tspan x="54.34" y="0">os nuest</tspan><tspan class="cls-9" x="91.87" y="0">r</tspan><tspan x="95.34" y="0">a </tspan><tspan x="0" y="10.8">solución </tspan><tspan class="cls-22" x="39.55" y="10.8">a</tspan><tspan class="cls-23" x="44.8" y="10.8">c</tspan><tspan x="49.72" y="10.8">o</tspan><tspan class="cls-12" x="55.3" y="10.8">r</tspan><tspan x="58.72" y="10.8">de a las </tspan><tspan class="cls-22" x="0" y="21.6">n</tspan><tspan x="6.07" y="21.6">e</tspan><tspan class="cls-23" x="11.44" y="21.6">c</tspan><tspan x="16.35" y="21.6">esid</tspan><tspan class="cls-22" x="34.45" y="21.6">a</tspan><tspan x="39.71" y="21.6">des del tu </tspan><tspan class="cls-22" x="0" y="32.4">n</tspan><tspan x="6.07" y="32.4">egocio</tspan></text><text class="cls-14" transform="translate(260.28 193.39)"><tspan class="cls-28">0</tspan><tspan x="15.79" y="0">2</tspan></text><rect class="cls-15" x="265.14" y="200.75" width="25.33" height="4.61"/><polygon class="cls-25" points="236.71 164.39 229.4 164.39 229.4 142.39 233.05 139.39 236.71 142.39 236.71 164.39"/><rect class="cls-2" y="158.76" width="146.5" height="146.5"/><polygon class="cls-29" points="146.5 10.82 146.5 0 0 0 0 146.5 146.5 146.5 146.5 57.96 170.07 34.39 146.5 10.82"/><text class="cls-4"><tspan x="14.41" y="131.7">ANÁLISIS</tspan></text><text class="cls-7" transform="translate(14.41 65.15)"><tspan class="cls-9">L</tspan><tspan class="cls-30" x="5.18" y="0">e</tspan><tspan class="cls-31" x="10.47" y="0">v</tspan><tspan x="15.08" y="0">antamien</tspan><tspan class="cls-13" x="58.56" y="0">t</tspan><tspan x="61.97" y="0">o de tus </tspan><tspan class="cls-32" x="0" y="10.8">P</tspan><tspan class="cls-12" x="6.2" y="10.8">r</tspan><tspan x="9.62" y="10.8">o</tspan><tspan class="cls-9" x="15.2" y="10.8">c</tspan><tspan x="20.12" y="10.8">esos e identific</tspan><tspan class="cls-33" x="86.47" y="10.8">a</tspan><tspan x="91.73" y="10.8">ción </tspan><tspan x="0" y="21.6">de opo</tspan><tspan class="cls-34" x="31" y="21.6">r</tspan><tspan x="34.68" y="21.6">tunid</tspan><tspan class="cls-33" x="58.76" y="21.6">a</tspan><tspan x="64.02" y="21.6">des de </tspan><tspan class="cls-22" x="0" y="32.4">m</tspan><tspan x="9.58" y="32.4">ejo</tspan><tspan class="cls-23" x="22.93" y="32.4">r</tspan><tspan x="26.4" y="32.4">a</tspan></text><text class="cls-14" transform="translate(99.27 34.39)"><tspan class="cls-28">0</tspan><tspan x="15.79" y="0">1</tspan></text><rect class="cls-15" x="100.94" y="43.64" width="25.33" height="4.61"/><polygon class="cls-29" points="73.25 164.39 69.59 167.39 65.94 164.39 65.94 142.39 73.25 142.39 73.25 164.39"/><g id="_1" data-name="1"><path class="cls-35" d="M248,77.08l4.31-.38.25-3.25a11.07,11.07,0,0,0,2-1l2.65,1.86,3-3.06-1.87-2.62a11.52,11.52,0,0,0,1-2.08l3.19-.26.37-4.31-3.09-.8a11.91,11.91,0,0,0-.61-2.23l2.26-2.24-.08-.1L259,53.23l-2.88,1.37a11.14,11.14,0,0,0-1.9-1.32l.29-3.16L250.33,49,249,51.93a11,11,0,0,0-2.29.21l-1.82-2.63L241,51.35l.86,3.12a10.91,10.91,0,0,0-1.58,1.61l-3.12-.85-1.82,3.92L238,61a11,11,0,0,0-.18,2.22l-3,1.37L236,68.77l1.66-.16,1.61-.16c.18.31.37.62.58.92s.45.61.7.9l-1.4,3,3.55,2.47,2.3-2.34a11.56,11.56,0,0,0,2.15.57ZM243.26,67a8.16,8.16,0,0,1-.53-.9,6.89,6.89,0,0,1,11.81-7,7.15,7.15,0,0,1,.5.84A6.89,6.89,0,0,1,243.26,67Z"/><path class="cls-36" d="M216.55,87l4.3-.38.26-3.25a11.07,11.07,0,0,0,2-.95l2.64,1.86,3.05-3.06L227,78.58a10.92,10.92,0,0,0,1-2.08l3.18-.26.37-4.31-3.09-.8a11.16,11.16,0,0,0-.6-2.23l2.25-2.24-.07-.1-2.42-3.43-2.87,1.37a11.21,11.21,0,0,0-1.91-1.32l.29-3.16-4.18-1.11-1.32,2.92a11,11,0,0,0-2.29.21l-1.82-2.63-3.92,1.84.87,3.12A11,11,0,0,0,208.82,66l-3.12-.85-1.82,3.92,2.7,1.86a10.3,10.3,0,0,0-.18,2.22l-3,1.37,1.12,4.17,1.67-.16,1.6-.16c.18.32.37.62.58.92s.46.61.7.9l-1.39,3,3.55,2.47,2.3-2.34a11.26,11.26,0,0,0,2.14.57Zm-4.72-10.12a5.89,5.89,0,0,1-.53-.9,6.89,6.89,0,0,1,11.81-7,7.15,7.15,0,0,1,.5.84,6.89,6.89,0,0,1-11.78,7.09Z"/><path id="_7" data-name="7" class="cls-37" d="M223.62,58.85l5.12-.46.3-3.86a12.34,12.34,0,0,0,2.42-1.13l3.14,2.22L238.23,52,236,48.86a13.42,13.42,0,0,0,1.15-2.46l3.79-.32.43-5.12-3.67-1a12.72,12.72,0,0,0-.72-2.65l2.68-2.65-.08-.12-2.87-4.09-3.42,1.63A12.82,12.82,0,0,0,231,30.57l.34-3.76-5-1.32L224.83,29a12.48,12.48,0,0,0-2.72.26L220,26.09l-4.65,2.18,1,3.71a13,13,0,0,0-1.88,1.91l-3.71-1-2.16,4.67,3.2,2.2a13,13,0,0,0-.21,2.64L208,44l1.34,5,2-.19,1.9-.18c.22.36.45.73.69,1.08a12.78,12.78,0,0,0,.84,1.07l-1.66,3.52,4.21,2.93,2.74-2.78a13.14,13.14,0,0,0,2.55.68Zm-5.61-12a8.83,8.83,0,0,1-.63-1.07,8.19,8.19,0,0,1,14-8.35,7.28,7.28,0,0,1,.59,1,8.18,8.18,0,0,1-14,8.42Z"/><g id="_8" data-name="8"><path class="cls-38" d="M230.44,74l4.16,2.27a.5.5,0,0,1,.1.66l-6.44,12.68c-.17.35-.5.54-.72.42l-4.84-2.63c-.21-.12-.23-.5,0-.84l7.16-12.28A.5.5,0,0,1,230.44,74Z"/><path class="cls-39" d="M223.21,85.32,229,88.47c.2.11.2.5,0,.85L227,93c-.2.36-.52.57-.72.46l-5.79-3.16c-.2-.1-.2-.49,0-.85l2-3.68C222.69,85.42,223,85.21,223.21,85.32Z"/><path class="cls-40" d="M222.39,85.91,229,89.48c.29.16.27.8,0,1.42l-10,19.52c-.42.82-1.06,1.35-1.4,1.16l-7.64-4.16c-.34-.18-.24-1,.22-1.81l11.13-18.89C221.57,86.11,222.09,85.75,222.39,85.91Z"/><polygon class="cls-39" points="232.66 80.91 227.57 78.13 227.23 78.72 224.6 83.23 224.25 83.82 229.69 86.78 232.66 80.91"/><path class="cls-40" d="M226.37,78.26,233.22,82a.61.61,0,0,1,.1.83l-1.84,3.38a.63.63,0,0,1-.76.37l-6.85-3.73a.63.63,0,0,1-.1-.84l1.84-3.38A.61.61,0,0,1,226.37,78.26Z"/><polygon class="cls-41" points="234.25 76.06 215.43 110.45 212.43 108.82 231.26 74.43 234.25 76.06"/><path class="cls-38" d="M220.75,63.48a28.15,28.15,0,1,0,15-36.88A28.16,28.16,0,0,0,220.75,63.48Zm3.74-1.58a24.09,24.09,0,1,1,31.57,12.82A24.09,24.09,0,0,1,224.49,61.9Z"/><path class="cls-39" d="M225.24,61.59a23.28,23.28,0,1,0,12.39-30.51A23.28,23.28,0,0,0,225.24,61.59Zm-2.28.35a24.91,24.91,0,1,1,32.62,13.21A24.89,24.89,0,0,1,223,61.94Z"/></g><path id="_9" data-name="9" class="cls-42" d="M232.2,35.61a21.58,21.58,0,0,1,13.18-5.39c5.2-.2,10.28.53,14.47,3.73a21.63,21.63,0,0,1,4.88,5.22,21.05,21.05,0,0,1,1.68,3c.35.8.54,2.48,1.08,3.1-2.79-3.21-6.1-6.1-10.09-7.57A17.83,17.83,0,0,0,242,39.51,16.89,16.89,0,0,0,236.47,45c-1.52,2.5-1.5,5.48-2.92,8a8.11,8.11,0,0,1-3.93,3.78c-5.22,2-5.79-4.85-5.09-8.27A23.45,23.45,0,0,1,232.2,35.61Z"/></g><g id="_8-2" data-name="8"><path class="cls-43" d="M26.11,31.77l1.68.91a.21.21,0,0,1,0,.27L25.24,38c-.07.14-.2.22-.29.17L23,37.15c-.09,0-.1-.2,0-.33l2.88-4.94C25.93,31.78,26,31.73,26.11,31.77Z"/><path class="cls-43" d="M23.21,36.33l2.33,1.26c.08,0,.08.2,0,.34l-.81,1.48c-.08.15-.21.23-.29.19l-2.32-1.27c-.08,0-.08-.2,0-.34l.81-1.48C23,36.36,23.13,36.28,23.21,36.33Z"/><path class="cls-43" d="M22.88,36.56,25.51,38c.12.06.12.32,0,.57l-4,7.84c-.17.33-.42.54-.56.47l-3.07-1.67c-.13-.08-.1-.41.09-.73l4.47-7.59C22.55,36.64,22.76,36.5,22.88,36.56Z"/><polygon class="cls-43" points="27.01 34.55 24.96 33.44 24.82 33.68 23.77 35.49 23.63 35.72 25.81 36.91 27.01 34.55"/><path class="cls-43" d="M24.48,33.49,27.23,35a.25.25,0,0,1,0,.33l-.74,1.36c-.07.13-.21.2-.3.15l-2.75-1.5c-.1,0-.11-.2,0-.34l.74-1.35C24.25,33.5,24.39,33.44,24.48,33.49Z"/><polygon class="cls-44" points="27.65 32.61 20.08 46.42 18.88 45.76 26.44 31.95 27.65 32.61"/><path class="cls-43" d="M22.22,27.55a11.31,11.31,0,1,0,6-14.81A11.31,11.31,0,0,0,22.22,27.55Zm1.51-.63a9.68,9.68,0,1,1,12.68,5.15A9.67,9.67,0,0,1,23.73,26.92Z"/><path class="cls-43" d="M24,26.79a9.35,9.35,0,1,0,5-12.25A9.35,9.35,0,0,0,24,26.79Zm-.92.14a10,10,0,1,1,13.11,5.31A10,10,0,0,1,23.11,26.93Z"/></g><path id="_9-2" data-name="9" class="cls-45" d="M26.82,16.35a8.74,8.74,0,0,1,5.3-2.16,8.68,8.68,0,0,1,5.81,1.5,8.7,8.7,0,0,1,2,2.1A8.53,8.53,0,0,1,40.56,19c.15.32.22,1,.44,1.25a10.36,10.36,0,0,0-4-3.05,7.24,7.24,0,0,0-6.18.71,6.79,6.79,0,0,0-2.23,2.23c-.61,1-.61,2.2-1.17,3.19a3.33,3.33,0,0,1-1.58,1.52c-2.1.81-2.33-1.95-2.05-3.33A9.44,9.44,0,0,1,26.82,16.35Z"/><g id="_16" data-name="16"><path class="cls-46" d="M124.76,228.26v.12H86.19a8.61,8.61,0,0,1-8.38-8.11c0,.26,0,.51,0,.77a8.65,8.65,0,0,0,8.41,8.87h38.57v-.12a8.73,8.73,0,0,0,7.08-8.75c0-.24,0-.49,0-.73A8.71,8.71,0,0,1,124.76,228.26Z"/><path class="cls-47" d="M131.85,219.85c0,.26,0,.52,0,.78,0,.06,0,.13,0,.19a8.47,8.47,0,0,1-7,7.44v.12H86.2a8.45,8.45,0,0,1-8.36-7.57l0-.22c0-.25,0-.49,0-.74a8.47,8.47,0,0,1,8.43-8.52,8.58,8.58,0,0,1,2.27.31,8.39,8.39,0,0,1,15-5.19,10.64,10.64,0,0,1,20,4.88h0A8.47,8.47,0,0,1,131.85,219.85Z"/><path class="cls-48" d="M131.79,221.39a8.12,8.12,0,0,1-7,6.88v.11H86.2a8.22,8.22,0,0,1-8.36-7,8.23,8.23,0,0,1,8.36-6.94,9,9,0,0,1,2.27.29A8.16,8.16,0,0,1,96.88,207a8.64,8.64,0,0,1,6.58,3,10.8,10.8,0,0,1,9.29-5.08c5.75,0,10.44,4.25,10.67,9.59h0A8.25,8.25,0,0,1,131.79,221.39Z"/><g id="_22" data-name="22"><path class="cls-49" d="M56.32,195.28v.22a1.64,1.64,0,0,0,0-.22Z"/></g><g id="_11" data-name="11"><g id="_12" data-name="12"><polygon class="cls-50" points="48.47 228.19 48.47 228.99 48.47 235.62 58.11 243.64 61.19 240.49 66.17 235.38 66.17 227.23 48.47 228.19"/><path class="cls-51" d="M72.73,214.31a8.57,8.57,0,0,0-.51-1.47,3.41,3.41,0,0,0-.91-1.05c-.32-.25-.87-.38-1-.73s.25-1.28.3-1.69a6.11,6.11,0,0,0,0-1.54c-.34-2.54-3-4.26-5.41-5.12s-4.52-5.16-7-4.37a7.09,7.09,0,0,0-.76-.18,24.31,24.31,0,0,0-9.69.83c-2.46.86-3.94,6.3-4.28,8.84-.11.78.27,1.68.12,2.41s-1,1-1.55,1.36c-1,.7-.75,2.69-.75,2.69l1.18,6s1.35,1.35,2.14,2.11,2.19,5.36,2.19,5.36l7.35,6.34,7.54-.32,5.62-5,2.17-6.41,2.15-2.11Z"/><path class="cls-52" d="M42.4,211.76a8.94,8.94,0,0,0,1.25,3c.17-1,.47-4.61.56-5.45.25-2.25,5.46-8.87,7-8.67.91.13,8.89,3.9,8.89,3.9l9.46,2.85s.37,5,.52,7.43c0,.13,0,.29.16.32s.26-.13.31-.27A40.84,40.84,0,0,0,72,211c.26-1,0-10.45,0-10.45s-8.77-8-13.65-8c-4.1,0-10,1.31-12.3,4.63-4.38.93-5,7.38-5,7.38S42.1,210.5,42.4,211.76Z"/><path class="cls-53" d="M58.39,268.05l7.78-18.88-8.12-8.23H57s-8.54,8.14-8.48,8.73l8.44,18.38Z"/><path class="cls-35" d="M61.76,258.3l-2.89-11.89A1.49,1.49,0,0,1,59,245.3l1.09-1.87a.3.3,0,0,0-.07-.33L58.79,242a3.18,3.18,0,0,1-.8-.84c-.12-.24-.45-.79-.83-.56s-.44.52-.66.79a6.28,6.28,0,0,1-.81.73l-1.13,1a.3.3,0,0,0-.07.33l1.09,1.87a1.49,1.49,0,0,1,.17,1.11L52.86,258.3a.28.28,0,0,0,0,.18l4,9.33a.66.66,0,0,0,.86,0l4-9.33A.28.28,0,0,0,61.76,258.3Z"/><path class="cls-54" d="M56.8,275.56l-1.09,0c-.81,0-1.62-.07-2.42-.13a50.71,50.71,0,0,1-22.56-7.14L30,267.8a51.2,51.2,0,0,1-8.24-6.42s5.42-18,5.6-18.1c3.79-1.89,8.52-2.88,14.85-4.62l4.5-1.23.41-.1.3-.09,2.78,8.38.49,1.49.44,1.33,2.4,7.21,3.29,9.91.07,2.25,0,.19.25,7.56Z"/><path class="cls-54" d="M92.65,261.09a50.71,50.71,0,0,1-28.82,14l-1.19.14-1.33.14q-2.07.18-4.17.18H56.8v-10l.39,1.17v-.18L61,255.33l2.3-6.74.09-.27.5-1.44,3.3-9.64.3.09.42.11c.88.25,2.51.69,4.49,1.22,6.32,1.74,12.39,3.77,14.85,4.62C87.43,243.33,92.65,261.09,92.65,261.09Z"/><path class="cls-55" d="M66.31,233.11l-8.77,7.16a.38.38,0,0,1-.47,0l-8.76-7.16-2,5.2,3.78,11.36L57,240.89a.38.38,0,0,1,.58,0l6.88,8.78,3.78-11.36Z"/><path class="cls-56" d="M68.66,244.58l4.59,1.75-11.94,29q-2.07.18-4.17.18H56.8l-1.09,0c-.81,0-1.62-.07-2.42-.13L41.36,246.33l4.6-1.75-5.28-2.36a31,31,0,0,1,1.51-3.56c2.36-.64,4.25-2.24,5-2.43l3,9.39.54,1.45.47,1.27,1.44,3.88,1,3L57,265.39,61,255l1-2.77,1.35-3.63.09-.27.49-1.45,3.58-10.63h0c.69.19,2.59,1.79,4.94,2.43a31,31,0,0,1,1.51,3.56Z"/></g></g><path class="cls-57" d="M109.83,213.67a1.23,1.23,0,0,0,.17-.6V195.5a1.25,1.25,0,0,0-1.25-1.25H75.5a1.26,1.26,0,0,0,0,2.51h32v16.31a1.35,1.35,0,0,0,.17.6H103l5.46,9.45,5.45-9.45Z"/><path class="cls-58" d="M108.75,230.64a1.26,1.26,0,0,0-1.26,1.25v19.45h-5.93v-3.9l-6.83,3.94a1.25,1.25,0,0,0-.74.43L92.1,252.9l9.46,5.46v-4.51h7.19a1.25,1.25,0,0,0,1.25-1.26v-20.7A1.25,1.25,0,0,0,108.75,230.64Z"/></g><g id="_12-2" data-name="12"><path class="cls-57" d="M359.73,202.15l8.82,5.1v-3.76h45.58v16.89a1.37,1.37,0,0,0,2.74,0V202.12a1.37,1.37,0,0,0-1.37-1.37H368.55v-3.7Z"/><g class="cls-1"><path class="cls-59" d="M426.84,242.37v10.24c0,3.9-5.22,7.18-12.4,8.23a32.67,32.67,0,0,1-4.93.36,33.51,33.51,0,0,1-6.6-.64c-6.3-1.29-10.73-4.36-10.73-7.95V242.37c0,3.59,4.43,6.65,10.73,7.94a33.51,33.51,0,0,0,6.6.64,32.67,32.67,0,0,0,4.93-.36C421.62,249.55,426.84,246.26,426.84,242.37Z"/><path class="cls-60" d="M409.51,233.79c-9.57,0-17.33,3.84-17.33,8.58s7.76,8.58,17.33,8.58,17.34-3.84,17.34-8.58S419.09,233.79,409.51,233.79Z"/></g><g class="cls-1"><path class="cls-59" d="M426.84,228.76V239c0,3.89-5.22,7.17-12.4,8.21a32.67,32.67,0,0,1-4.93.36,33.51,33.51,0,0,1-6.6-.64c-6.3-1.29-10.73-4.35-10.73-7.93V228.76c0,3.59,4.43,6.66,10.73,8a33.51,33.51,0,0,0,6.6.64,32.67,32.67,0,0,0,4.93-.36C421.62,235.94,426.84,232.65,426.84,228.76Z"/><path class="cls-60" d="M409.51,220.18c-9.57,0-17.33,3.85-17.33,8.58s7.76,8.59,17.33,8.59,17.34-3.85,17.34-8.59S419.09,220.18,409.51,220.18Z"/></g><g class="cls-1"><path class="cls-59" d="M426.84,215.15v10.26c0,3.88-5.22,7.17-12.4,8.23a34.05,34.05,0,0,1-4.93.35,32.77,32.77,0,0,1-6.6-.64c-6.3-1.29-10.73-4.36-10.73-7.94V215.15c0,3.59,4.43,6.66,10.73,7.95a33.51,33.51,0,0,0,6.6.64,32.67,32.67,0,0,0,4.93-.36C421.62,222.33,426.84,219,426.84,215.15Z"/><path class="cls-60" d="M409.51,206.58c-9.57,0-17.33,3.84-17.33,8.58s7.76,8.58,17.33,8.58,17.34-3.84,17.34-8.58S419.09,206.58,409.51,206.58Z"/><path class="cls-61" d="M409.51,209.36c-6.47,0-11.72,2.59-11.72,5.8S403,221,409.51,221s11.72-2.6,11.72-5.8S416,209.36,409.51,209.36Z"/></g><path class="cls-62" d="M414.44,223.38v10.26a34.05,34.05,0,0,1-4.93.35,32.77,32.77,0,0,1-6.6-.64V223.1a33.51,33.51,0,0,0,6.6.64A32.67,32.67,0,0,0,414.44,223.38Z"/><path class="cls-62" d="M414.44,237v10.24a32.67,32.67,0,0,1-4.93.36,33.51,33.51,0,0,1-6.6-.64V236.71a33.51,33.51,0,0,0,6.6.64A32.67,32.67,0,0,0,414.44,237Z"/><path class="cls-62" d="M409.51,251a32.67,32.67,0,0,0,4.93-.36v10.25a32.67,32.67,0,0,1-4.93.36,33.51,33.51,0,0,1-6.6-.64V250.31A33.51,33.51,0,0,0,409.51,251Z"/><g class="cls-1"><path class="cls-63" d="M385.17,242.37v10.24c0,3.9-5.22,7.18-12.41,8.23a32.48,32.48,0,0,1-4.93.36,33.41,33.41,0,0,1-6.59-.64c-6.3-1.29-10.73-4.36-10.73-7.95V242.37c0,3.59,4.43,6.65,10.73,7.94a33.41,33.41,0,0,0,6.59.64,32.48,32.48,0,0,0,4.93-.36C380,249.55,385.17,246.26,385.17,242.37Z"/><path class="cls-58" d="M367.84,233.79c-9.57,0-17.34,3.84-17.34,8.58s7.77,8.58,17.34,8.58,17.33-3.84,17.33-8.58S377.41,233.79,367.84,233.79Z"/></g><g class="cls-1"><path class="cls-63" d="M385.17,228.76V239c0,3.89-5.22,7.17-12.41,8.21a32.48,32.48,0,0,1-4.93.36,33.41,33.41,0,0,1-6.59-.64c-6.3-1.29-10.73-4.35-10.73-7.93V228.76c0,3.59,4.43,6.66,10.73,8a33.41,33.41,0,0,0,6.59.64,32.48,32.48,0,0,0,4.93-.36C380,235.94,385.17,232.65,385.17,228.76Z"/><path class="cls-58" d="M367.84,220.18c-9.57,0-17.34,3.85-17.34,8.58s7.77,8.59,17.34,8.59,17.33-3.85,17.33-8.59S377.41,220.18,367.84,220.18Z"/></g><g class="cls-1"><path class="cls-63" d="M385.17,215.15v10.26c0,3.88-5.22,7.17-12.41,8.23a33.85,33.85,0,0,1-4.93.35,32.67,32.67,0,0,1-6.59-.64c-6.3-1.29-10.73-4.36-10.73-7.94V215.15c0,3.59,4.43,6.66,10.73,7.95a33.41,33.41,0,0,0,6.59.64,32.48,32.48,0,0,0,4.93-.36C380,222.33,385.17,219,385.17,215.15Z"/><path class="cls-58" d="M367.84,206.58c-9.57,0-17.34,3.84-17.34,8.58s7.77,8.58,17.34,8.58,17.33-3.84,17.33-8.58S377.41,206.58,367.84,206.58Z"/><path class="cls-64" d="M367.84,209.36c-6.47,0-11.72,2.59-11.72,5.8s5.25,5.8,11.72,5.8,11.72-2.6,11.72-5.8S374.31,209.36,367.84,209.36Z"/></g><path class="cls-65" d="M372.76,223.38v10.26a33.85,33.85,0,0,1-4.93.35,32.67,32.67,0,0,1-6.59-.64V223.1a33.41,33.41,0,0,0,6.59.64A32.48,32.48,0,0,0,372.76,223.38Z"/><path class="cls-65" d="M372.76,237v10.24a32.48,32.48,0,0,1-4.93.36,33.41,33.41,0,0,1-6.59-.64V236.71a33.41,33.41,0,0,0,6.59.64A32.48,32.48,0,0,0,372.76,237Z"/><path class="cls-65" d="M367.83,251a32.48,32.48,0,0,0,4.93-.36v10.25a32.48,32.48,0,0,1-4.93.36,33.41,33.41,0,0,1-6.59-.64V250.31A33.41,33.41,0,0,0,367.83,251Z"/><g class="cls-1"><path class="cls-36" d="M407,255.79V266c0,3.89-5.23,7.18-12.41,8.23a32.58,32.58,0,0,1-4.93.36,33.59,33.59,0,0,1-6.6-.64c-6.29-1.29-10.73-4.36-10.73-8V255.79c0,3.59,4.44,6.65,10.73,7.94a33.59,33.59,0,0,0,6.6.64,32.58,32.58,0,0,0,4.93-.36C401.79,263,407,259.68,407,255.79Z"/><path class="cls-66" d="M389.68,247.21c-9.57,0-17.33,3.84-17.33,8.58s7.76,8.58,17.33,8.58S407,260.53,407,255.79,399.26,247.21,389.68,247.21Z"/></g><g class="cls-1"><path class="cls-36" d="M407,242.18v10.26c0,3.89-5.23,7.17-12.41,8.21a32.58,32.58,0,0,1-4.93.36,33.59,33.59,0,0,1-6.6-.64c-6.29-1.29-10.73-4.35-10.73-7.93V242.18c0,3.59,4.44,6.66,10.73,7.95a33.59,33.59,0,0,0,6.6.64,32.58,32.58,0,0,0,4.93-.36C401.79,249.36,407,246.07,407,242.18Z"/><path class="cls-66" d="M389.68,233.6c-9.57,0-17.33,3.85-17.33,8.58s7.76,8.59,17.33,8.59S407,246.92,407,242.18,399.26,233.6,389.68,233.6Z"/></g><g class="cls-1"><path class="cls-36" d="M407,228.57v10.26c0,3.89-5.23,7.17-12.41,8.23a34,34,0,0,1-4.93.35,32.85,32.85,0,0,1-6.6-.64c-6.29-1.29-10.73-4.36-10.73-7.94V228.57c0,3.59,4.44,6.66,10.73,8a33.59,33.59,0,0,0,6.6.64,32.58,32.58,0,0,0,4.93-.36C401.79,235.75,407,232.46,407,228.57Z"/><path class="cls-67" d="M389.68,220c-9.57,0-17.33,3.84-17.33,8.58s7.76,8.58,17.33,8.58S407,233.32,407,228.58,399.26,220,389.68,220Z"/><path class="cls-68" d="M389.68,222.78c-6.47,0-11.72,2.59-11.72,5.8s5.25,5.8,11.72,5.8,11.73-2.6,11.73-5.8S396.16,222.78,389.68,222.78Z"/></g><path class="cls-69" d="M394.61,236.8v10.26a34,34,0,0,1-4.93.35,32.85,32.85,0,0,1-6.6-.64V236.52a33.59,33.59,0,0,0,6.6.64A32.58,32.58,0,0,0,394.61,236.8Z"/><path class="cls-69" d="M394.61,250.41v10.24a32.58,32.58,0,0,1-4.93.36,33.59,33.59,0,0,1-6.6-.64V250.13a33.59,33.59,0,0,0,6.6.64A32.58,32.58,0,0,0,394.61,250.41Z"/><path class="cls-69" d="M389.68,264.37a32.58,32.58,0,0,0,4.93-.36v10.25a32.58,32.58,0,0,1-4.93.36,33.59,33.59,0,0,1-6.6-.64V263.73A33.59,33.59,0,0,0,389.68,264.37Z"/><path class="cls-57" d="M423.61,268.47l-5.09-8.83-5.1,8.83h3.88v6.13H361.89V260.46a1.38,1.38,0,1,0-2.75,0V276a1.37,1.37,0,0,0,1.37,1.38h58.17a1.38,1.38,0,0,0,1.38-1.38v-7.5Z"/></g><path class="cls-43" d="M523.67,182.53H497.85a.93.93,0,0,0-1,.89v18a.93.93,0,0,0,1,.9h25.82a.93.93,0,0,0,1-.9v-18A.93.93,0,0,0,523.67,182.53Zm-1.26,17.22a.77.77,0,0,1-.8.73h-21.7a.77.77,0,0,1-.8-.73V185.1a.76.76,0,0,1,.8-.73h21.7a.76.76,0,0,1,.8.73Z"/><path class="cls-43" d="M495.06,203.05V204a1,1,0,0,0,1.09.91h29.22a1,1,0,0,0,1.09-.91v-.91Zm17.86,1.06H508.6a.26.26,0,0,1-.29-.23.27.27,0,0,1,.29-.24h4.32a.27.27,0,0,1,.3.24C513.22,204,513.09,204.11,512.92,204.11Z"/><g id="_8-3" data-name="8"><path class="cls-43" d="M505.27,198.07l.94.51a.12.12,0,0,1,0,.15l-1.45,2.87c0,.08-.11.12-.16.09l-1.1-.59s0-.11,0-.19l1.62-2.78S505.23,198.05,505.27,198.07Z"/><path class="cls-43" d="M503.64,200.63l1.3.72c.05,0,.05.11,0,.19l-.46.83c0,.08-.12.13-.16.11l-1.31-.72s0-.11,0-.19l.45-.83C503.52,200.66,503.59,200.61,503.64,200.63Z"/><path class="cls-43" d="M503.45,200.77l1.48.8c.07,0,.07.18,0,.32l-2.25,4.42c-.1.18-.24.3-.32.26l-1.73-.94c-.07,0-.05-.23.05-.41l2.52-4.27C503.27,200.81,503.38,200.73,503.45,200.77Z"/><polygon class="cls-43" points="505.77 199.64 504.62 199.01 504.55 199.14 503.95 200.16 503.87 200.29 505.1 200.96 505.77 199.64"/><path class="cls-43" d="M504.35,199l1.55.84c.05,0,.06.11,0,.19l-.42.76a.14.14,0,0,1-.17.09l-1.54-.85c-.06,0-.07-.11,0-.19l.42-.76C504.22,199.05,504.3,199,504.35,199Z"/><polygon class="cls-44" points="506.13 198.54 501.88 206.31 501.2 205.94 505.46 198.17 506.13 198.54"/><path class="cls-43" d="M503.08,195.7a6.36,6.36,0,1,0,3.39-8.34A6.36,6.36,0,0,0,503.08,195.7Zm.85-.36a5.44,5.44,0,1,1,7.13,2.9A5.44,5.44,0,0,1,503.93,195.34Z"/><path class="cls-43" d="M504.1,195.27a5.26,5.26,0,1,0,2.79-6.89A5.25,5.25,0,0,0,504.1,195.27Zm-.52.08a5.63,5.63,0,1,1,7.37,3A5.63,5.63,0,0,1,503.58,195.35Z"/></g><path id="_9-3" data-name="9" class="cls-45" d="M505.67,189.4a5,5,0,0,1,3-1.22,4.9,4.9,0,0,1,3.27.85,4.59,4.59,0,0,1,1.1,1.18,5.08,5.08,0,0,1,.38.69,3.5,3.5,0,0,0,.24.69,5.9,5.9,0,0,0-2.28-1.71,4,4,0,0,0-3.47.4,3.86,3.86,0,0,0-1.26,1.25c-.34.57-.34,1.24-.66,1.8a1.77,1.77,0,0,1-.88.85c-1.19.46-1.31-1.09-1.16-1.87A5.32,5.32,0,0,1,505.67,189.4Z"/><path class="cls-43" d="M354.49,27.45l.06-.09,1.42.25a3.74,3.74,0,0,0,.22-.51l-1.14-.88a2.76,2.76,0,0,0,.06-.4l1.35-.5a4.87,4.87,0,0,0-.06-.55L355,24.58c0-.13-.09-.26-.14-.38l.92-1.11a4.71,4.71,0,0,0-.33-.45l-1.34.55-.23-.19-.08-.06.24-1.42a3.16,3.16,0,0,0-.5-.22l-.89,1.14a2.57,2.57,0,0,0-.4-.06l-.5-1.36a3.6,3.6,0,0,0-.55.07L351,22.52l-.37.14-1.12-.92a4.59,4.59,0,0,0-.44.33l.55,1.34a1.45,1.45,0,0,0-.19.23l-.06.08-1.43-.24a4.46,4.46,0,0,0-.22.5l1.14.89a2.63,2.63,0,0,0-.06.39l-1.35.51a5,5,0,0,0,.06.54l1.43.2a2.39,2.39,0,0,0,.15.37L348.15,28a3.28,3.28,0,0,0,.32.44l1.34-.55a2.11,2.11,0,0,0,.23.19l.08.06-.24,1.43a4.61,4.61,0,0,0,.51.22l.88-1.14.4.06.5,1.35a5.14,5.14,0,0,0,.55-.06l.19-1.43a2.5,2.5,0,0,0,.38-.15l1.11.92.44-.32-.54-1.34Zm-1.28-1a1.59,1.59,0,0,1-2.21.31,1.58,1.58,0,1,1,2.21-.31Z"/><path class="cls-43" d="M351,40.22l3-.62c0-.17,0-.33,0-.5a11.23,11.23,0,0,0,0-1.16l-2.95-.86a5.23,5.23,0,0,0-.12-.54l2.29-2A10.28,10.28,0,0,0,352.5,33l-3,.73c-.12-.14-.24-.27-.37-.4l1-2.92a10.7,10.7,0,0,0-1.4-.89l-2.22,2.12-.53-.16-.62-3-.49,0a9.17,9.17,0,0,0-1.17,0l-.86,2.94c-.18,0-.36.08-.53.12l-2.05-2.29a10.67,10.67,0,0,0-1.46.77l.72,3a4.61,4.61,0,0,0-.4.37l-2.92-1a9.58,9.58,0,0,0-.88,1.39L337.41,36c-.06.17-.11.34-.16.52l-3,.63c0,.16,0,.32-.05.49a11.27,11.27,0,0,0,0,1.16l2.94.86c0,.19.08.36.13.54l-2.29,2a9.73,9.73,0,0,0,.76,1.47l3-.72c.12.13.24.27.37.4l-1,2.91a10.07,10.07,0,0,0,1.4.89l2.22-2.12a4.48,4.48,0,0,0,.52.16l.63,3,.49,0a9,9,0,0,0,1.16,0l.87-2.94a4.54,4.54,0,0,0,.53-.12l2,2.29a9.32,9.32,0,0,0,1.47-.77l-.72-3c.14-.12.27-.25.4-.38l2.91,1a9.74,9.74,0,0,0,.89-1.4l-2.12-2.22C350.87,40.58,350.93,40.4,351,40.22Zm-7.3,4a5.83,5.83,0,1,1,6.24-5.38A5.84,5.84,0,0,1,343.68,44.18Z"/><path class="cls-43" d="M364.36,41.75l1.83.17.12-.28a6.37,6.37,0,0,0,.21-.66L365,40c0-.11,0-.22,0-.33l1.67-.76a5.19,5.19,0,0,0-.18-1l-1.83-.11a2.75,2.75,0,0,0-.14-.3l1.06-1.5a6.5,6.5,0,0,0-.64-.75l-1.65.82a1.85,1.85,0,0,0-.27-.19l.17-1.82-.27-.12q-.33-.12-.66-.21l-1,1.53-.33,0-.76-1.67a6.52,6.52,0,0,0-1,.19l-.11,1.83-.29.14-1.5-1.06a5.08,5.08,0,0,0-.75.64l.82,1.64-.19.27L355.34,37a2.33,2.33,0,0,0-.11.28A5.67,5.67,0,0,0,355,38l1.53,1c0,.11,0,.22,0,.33l-1.67.76a5.19,5.19,0,0,0,.18,1l1.83.12.15.29L355.94,43a6.59,6.59,0,0,0,.65.75l1.64-.82.27.19-.17,1.82.27.12q.33.12.66.21l1-1.53.33,0,.77,1.67a6.4,6.4,0,0,0,1-.19l.11-1.83.3-.14,1.49,1.06a5.73,5.73,0,0,0,.76-.64L364.18,42Zm-4.86,1a3.49,3.49,0,1,1,4.51-2A3.49,3.49,0,0,1,359.5,42.73Z"/><polygon class="cls-43" points="369.61 17.34 368.69 17.34 356.5 17.34 356.5 18.26 356.5 19.17 367.42 19.17 354.5 32.09 355.8 33.39 368.69 20.5 368.69 31.37 369.61 31.37 370.53 31.37 370.53 19.17 370.53 18.26 370.53 17.34 369.61 17.34"/><path class="cls-43" d="M355.8,33.72l-1.63-1.63,12.69-12.68H356.27V17.1h14.49V31.6h-2.3V21.06Zm-1-1.63,1,1,13.13-13.13v11.2h1.37V17.57H356.73v1.37H368Z"/><path class="cls-70" d="M579.81,64.32c-.36-2.25,3.33-3.14,4.29-1.76a4.84,4.84,0,0,1,4.41-5.22c5.63-.53,4,3.65,6.7,3.71,2.47,0,.63-3.62,6.25-1.83,1.35.4,2,1.91,3,3.77,1.93-2.12,3.11-.74,3.46,1.33A100.12,100.12,0,0,1,579.81,64.32Z"/><rect class="cls-71" x="520.54" y="65.73" width="77.65" height="49.11" rx="3.32"/><path class="cls-71" d="M520.22,111.52V69.05a3.64,3.64,0,0,1,3.64-3.64h71a3.65,3.65,0,0,1,3.64,3.64v42.47a3.65,3.65,0,0,1-3.64,3.64h-71A3.64,3.64,0,0,1,520.22,111.52Zm77.65-42.47a3,3,0,0,0-3-3h-71a3,3,0,0,0-3,3v42.47a3,3,0,0,0,3,3h71a3,3,0,0,0,3-3Z"/><rect class="cls-72" x="524.25" y="68.98" width="70.29" height="41.68"/><rect class="cls-73" x="524.19" y="68.76" width="70.29" height="2.56"/><g class="cls-74"><rect class="cls-75" x="520.54" y="111.67" width="77.65" height="1.11"/></g><path class="cls-76" d="M604.46,112.11h-90.2v2.67a7.36,7.36,0,0,0,5,2.74h80.2a7.38,7.38,0,0,0,5-2.71Z"/><path class="cls-77" d="M514.31,114.87a7.41,7.41,0,0,0,5,2.65h80.19a7.45,7.45,0,0,0,5-2.65Z"/><path class="cls-72" d="M551.76,112.18a2,2,0,0,0,2,1.84H565a2,2,0,0,0,2-1.84Z"/><rect class="cls-78" x="548.11" y="66.58" width="34.58" height="45.04"/><rect class="cls-79" x="548.5" y="68.89" width="33.8" height="40.05"/><rect class="cls-43" x="548.5" y="66.77" width="33.8" height="40.05"/><polygon class="cls-80" points="577.18 100.86 577.18 106.84 582.31 100.86 577.18 100.86"/><path class="cls-80" d="M572.44,66.78V65c0-1.48,0-3,0-4.51-4.26-.14-9.18-.25-14,0,0,1.17,0,2.38,0,3.54,0,.5,0,1,0,1.51H558V64.05c0-1.22,0-2.49,0-3.72v-.17h.17c4.95-.29,10-.17,14.38,0h.17v.17c.05,1.57.05,3.16,0,4.7v1.78Z"/><rect class="cls-79" x="556.06" y="63.6" width="18.7" height="2.66"/><rect class="cls-81" x="556.06" y="66.25" width="18.7" height="2.66"/><path class="cls-82" d="M569.74,98.79c-2.51,0-5-.06-7.46-.13v-.24a161.14,161.14,0,0,0,16.31-.17v.24C575.72,98.71,572.73,98.79,569.74,98.79Z"/><path class="cls-82" d="M569.74,94.19c-2.51,0-5-.06-7.46-.12v-.25a161.2,161.2,0,0,0,16.31-.17v.24C575.72,94.11,572.73,94.19,569.74,94.19Z"/><path class="cls-82" d="M569.74,89.59c-2.51,0-5,0-7.46-.12v-.25a161.23,161.23,0,0,0,16.31-.17v.25C575.72,89.52,572.73,89.59,569.74,89.59Z"/><path class="cls-82" d="M562.28,84.66v-.25a161.36,161.36,0,0,1,16.32-.17v.24C573.24,84.34,567.57,84.26,562.28,84.66Z"/><path class="cls-82" d="M569.74,79.65c-2.51,0-5-.05-7.47-.12v-.24a158.32,158.32,0,0,0,16.31-.18v.25C575.72,79.58,572.73,79.65,569.74,79.65Z"/><path class="cls-82" d="M569.74,74.53c-2.51,0-5,0-7.47-.12v-.24A161.39,161.39,0,0,0,578.59,74v.25C575.72,74.46,572.73,74.53,569.74,74.53Z"/><path class="cls-83" d="M559.29,75.66a3.54,3.54,0,1,1-3.54-3.54A3.54,3.54,0,0,1,559.29,75.66Z"/><polygon class="cls-78" points="555.55 77.04 554.19 75.68 554.54 75.32 555.52 76.3 557.27 74.26 557.65 74.58 555.55 77.04"/><path class="cls-83" d="M559.29,86.39a3.54,3.54,0,1,1-3.54-3.54A3.55,3.55,0,0,1,559.29,86.39Z"/><polygon class="cls-78" points="555.55 87.76 554.19 86.4 554.54 86.05 555.52 87.03 557.27 84.98 557.65 85.31 555.55 87.76"/><path class="cls-83" d="M559.29,97.12a3.54,3.54,0,1,1-3.54-3.54A3.54,3.54,0,0,1,559.29,97.12Z"/><polygon class="cls-78" points="555.55 98.49 554.19 97.13 554.54 96.78 555.52 97.75 557.27 95.71 557.65 96.03 555.55 98.49"/><path class="cls-84" d="M573.28,90a7,7,0,1,0,.23-9.87A7,7,0,0,0,573.28,90Z"/><polygon class="cls-78" points="587.02 96.58 589.37 94.34 584.73 90.68 583.52 91.83 587.02 96.58"/><polygon class="cls-85" points="599.89 109.74 602.19 107.54 589.23 94.23 586.93 96.43 599.89 109.74"/><path class="cls-86" d="M578.09,93.45a8.33,8.33,0,1,0-8.1-8.56A8.33,8.33,0,0,0,578.09,93.45Zm-5.62-4.73A6.87,6.87,0,1,1,581.92,91,6.88,6.88,0,0,1,572.47,88.72Z"/><path class="cls-87" d="M571.14,84.78A7.41,7.41,0,0,1,574,79.13a7.45,7.45,0,0,0,10.19,10.78,7.45,7.45,0,0,1-13-5.13Z"/><path class="cls-43" d="M578.11,92.69a7.58,7.58,0,0,1-7.35-7.78,7.47,7.47,0,0,1,2.33-5.26,7.57,7.57,0,1,1,10.46,10.94h0A7.53,7.53,0,0,1,578.11,92.69ZM571,84.91a7.34,7.34,0,0,0,7.12,7.53A7.32,7.32,0,1,0,571,84.91Z"/><rect class="cls-43" x="587.1" y="95.79" width="3.22" height="0.42" transform="translate(102.31 441.26) rotate(-44.63)"/><path class="cls-78" d="M537.43,89.06l-.14-1c-.19-1.28-.38-2.61-.51-3.94l.35,0c.13,1.33.32,2.65.51,3.93l.14,1Z"/><path class="cls-78" d="M532,91.39l-.83-.55c-1.09-.7-2.21-1.43-3.31-2.22l.21-.29c1.08.78,2.21,1.51,3.29,2.22l.84.54Z"/><path class="cls-78" d="M526,97.8l-.07-.35c1.31-.24,2.61-.55,3.87-.85l1-.23.08.35-1,.23C528.64,97.25,527.34,97.55,526,97.8Z"/><path class="cls-78" d="M545.13,91.39l-.19-.3.84-.54c1.08-.71,2.2-1.44,3.29-2.22l.2.29c-1.09.79-2.21,1.52-3.3,2.22Z"/><path class="cls-78" d="M551.14,97.8c-1.32-.25-2.62-.55-3.88-.85l-1-.23.08-.35,1,.23c1.26.3,2.56.61,3.86.85Z"/><path class="cls-88" d="M537.14,110.49c0,.08.43,1.05.44,1.13h2.13c0-.08.32-1.05.31-1.13Z"/><path class="cls-89" d="M535.87,103.83c.21.54.41,3.2.61,3.75H541c.21-.55.43-3.21.66-3.75.52-.74,2.89-3.5,3.69-6.08,1.08-3.23-2-7.81-6.64-7.81s-8,4.21-6.89,7.46C532.61,100.09,534.87,102.63,535.87,103.83Z"/><path class="cls-85" d="M539.56,107.23a25.71,25.71,0,0,1,.51-8.69.86.86,0,0,1-.28,0c-.43-.12-.74-.61-1-1.16-.32.73-.71,1.13-1.17,1.19a1,1,0,0,1-.54-.07,56.42,56.42,0,0,1,.73,8.73l-.28,0a57.32,57.32,0,0,0-.76-8.88,3.92,3.92,0,0,1-1.14-1.46c-.3-.6-.54-1.39-.27-1.65l0,0a.67.67,0,0,1,.65-.12c.48.2.64,1,.73,1.51v0l.26,1.55a.79.79,0,0,0,.55.13c.31,0,.71-.33,1.07-1.3-.1-.34-.18-.67-.24-.94a1.85,1.85,0,0,1,.41-1.84.37.37,0,0,1,.4,0c.2.14.27.51.17,1A10.86,10.86,0,0,1,539,97c.25.73.56,1.19.88,1.27a.45.45,0,0,0,.28,0,8.45,8.45,0,0,1,.79-2.06l.05-.09c.17-.3.34-.59.57-.57s.27.26.3.34c.22.64-.65,1.83-.9,2.12a2,2,0,0,1-.57.47,26.32,26.32,0,0,0-.55,8.74Zm2-11.43a1.47,1.47,0,0,0-.3.42l-.05.09a7.24,7.24,0,0,0-.68,1.72,2.94,2.94,0,0,0,.25-.25c.38-.43,1-1.43.85-1.84A.39.39,0,0,0,541.52,95.8Zm-5.94-.4c-.07.1,0,.6.33,1.33a4.28,4.28,0,0,0,.83,1.17c-.08-.46-.15-.89-.22-1.26v0c-.07-.34-.22-1.16-.57-1.3A.39.39,0,0,0,535.58,95.4Zm3.49-1-.07,0a1.65,1.65,0,0,0-.28,1.55c0,.19.08.36.12.53.11-.37.21-.82.31-1.35s0-.71-.06-.75Z"/><path class="cls-90" d="M535.7,107l.55.6c-.51,0-.54.77.11.8-.66,0-.69.82-.05.83a.49.49,0,0,0-.06,1l-.4.44c.83.39,5.42.36,5.52,0l-.37-.44a12.73,12.73,0,0,1-.06-1.75.4.4,0,0,0,.07-.8l.45-.61Z"/><path class="cls-85" d="M535.27,108l-1-.12,0-.25c.32,0,.64.09,1,.12Zm-3.87-.61c-1-.19-1.94-.42-2.87-.67l.07-.24c.92.25,1.87.48,2.85.67Zm-5.67-1.57c-.93-.34-1.84-.72-2.71-1.14l.1-.22c.86.41,1.77.79,2.7,1.13Zm-5.31-2.53a24.73,24.73,0,0,1-2.43-1.66l.15-.19a27.55,27.55,0,0,0,2.41,1.64Zm-4.66-3.58a23.9,23.9,0,0,1-2-2.18l.19-.16a22.21,22.21,0,0,0,2,2.16Zm-3.68-4.59a26,26,0,0,1-1.39-2.6l.23-.11A21.91,21.91,0,0,0,512.29,95Zm-2.45-5.35a27.22,27.22,0,0,1-.73-2.86l.24,0a27.09,27.09,0,0,0,.72,2.82ZM508.49,84c-.08-.81-.11-1.64-.11-2.46v-.49h.25c0,.17,0,.33,0,.49,0,.81,0,1.63.11,2.43Zm.33-5.86-.24,0a29,29,0,0,1,.49-2.91l.24.06C509.1,76.24,508.94,77.21,508.82,78.17Zm1.24-5.7-.23-.08c.3-.94.65-1.86,1-2.76l.22.1C510.71,70.62,510.36,71.54,510.06,72.47Zm2.33-5.35-.21-.12a28.45,28.45,0,0,1,1.58-2.49l.2.14A25.88,25.88,0,0,0,512.39,67.12Zm32-4.69c-.77-.64-1.54-1.24-2.32-1.79l.15-.2c.77.55,1.56,1.16,2.33,1.8Zm-28.61,0-.18-.17a21.49,21.49,0,0,1,2.13-2l.15.19A22.12,22.12,0,0,0,515.8,62.39Zm27.93-1.07c-.59-.8-1.14-1.62-1.64-2.44l.21-.13a28.48,28.48,0,0,0,1.63,2.42Zm-4.1-2.26A27.67,27.67,0,0,0,537,57.75l.1-.22a27.07,27.07,0,0,1,2.64,1.32Zm-19.36-.4-.13-.21a19,19,0,0,1,2.62-1.34l.1.23A17.54,17.54,0,0,0,520.27,58.66Zm14-1.89a19.3,19.3,0,0,0-2.86-.57l0-.25a19.76,19.76,0,0,1,2.89.59Zm-8.65-.31,0-.24a16.92,16.92,0,0,1,2.92-.38v.24A16.47,16.47,0,0,0,525.63,56.46Zm15.06-.18a28.92,28.92,0,0,1-1.11-2.73l.24-.08a24,24,0,0,0,1.09,2.71Zm-1.89-5.57a24.45,24.45,0,0,1-.42-2.92l.24,0a24,24,0,0,0,.42,2.89Zm-.22-5.86h-.24a22.1,22.1,0,0,1,.35-2.93l.24.05A21.51,21.51,0,0,0,538.58,44.85Zm1.1-5.71-.23-.08a20.8,20.8,0,0,1,1.13-2.72l.22.11A21.79,21.79,0,0,0,539.68,39.14Zm38.63,0c-.55-.82-1.13-1.62-1.71-2.37l.19-.15c.59.76,1.17,1.56,1.72,2.39Zm-3.58-4.62c-.66-.74-1.35-1.45-2-2.1l.17-.18c.7.66,1.39,1.37,2.06,2.12ZM542.29,34l-.2-.14a21.73,21.73,0,0,1,1.86-2.3l.17.17A22.42,22.42,0,0,0,542.29,34Zm28.19-3.48a25.8,25.8,0,0,0-2.4-1.66l.12-.21a25.15,25.15,0,0,1,2.43,1.68Zm-24.22-.77-.15-.19a20.49,20.49,0,0,1,2.44-1.65l.13.21A20.5,20.5,0,0,0,546.26,29.7Zm19.24-2.25a19.28,19.28,0,0,0-2.74-1l.07-.24a21,21,0,0,1,2.77,1Zm-14.19-.62-.08-.23a18.64,18.64,0,0,1,2.83-.81l.05.24A18.24,18.24,0,0,0,551.31,26.83Zm8.6-1A19,19,0,0,0,557,25.7v-.25a18.23,18.23,0,0,1,3,.15Z"/><path class="cls-91" d="M590.84,48.9A10.44,10.44,0,1,1,580.4,38.46,10.44,10.44,0,0,1,590.84,48.9Z"/><path class="cls-86" d="M589.53,48.9a10.44,10.44,0,1,1-10.44-10.44A10.44,10.44,0,0,1,589.53,48.9Z"/><path class="cls-43" d="M587.72,48.9a8.63,8.63,0,1,1-8.63-8.63A8.63,8.63,0,0,1,587.72,48.9Z"/><path class="cls-78" d="M586,48.9A6.92,6.92,0,1,1,579.09,42,6.91,6.91,0,0,1,586,48.9Z"/><path class="cls-43" d="M582,48.9a2.86,2.86,0,1,1-2.86-2.85A2.86,2.86,0,0,1,582,48.9Z"/><path class="cls-86" d="M580.88,48.9a1.79,1.79,0,1,1-1.79-1.79A1.8,1.8,0,0,1,580.88,48.9Z"/><path class="cls-43" d="M579.06,54.72a5.82,5.82,0,1,1,5.81-5.82A5.83,5.83,0,0,1,579.06,54.72Zm0-11.39a5.57,5.57,0,1,0,5.57,5.57A5.58,5.58,0,0,0,579.06,43.33Z"/><polygon class="cls-85" points="591.37 49.04 592.96 46.53 597.25 46.43 595.67 48.94 591.37 49.04"/><polygon class="cls-75" points="591.18 48.87 593.35 51.31 597.64 51.21 595.48 48.78 591.18 48.87"/><rect class="cls-85" x="579.11" y="48.57" width="16.78" height="0.66"/><path class="cls-70" d="M498.22,83.36c-.25-2.51,2.29-3.5,2.95-2-.22-2.41,1-5.56,3-5.83,3.86-.59,2.74,4.08,4.6,4.15,1.7,0,.43-4,4.29-2,.93.44,1.39,2.12,2,4.2,1.32-2.37,2.13-.83,2.37,1.48A42.46,42.46,0,0,1,498.22,83.36Z"/></g></g></g></svg>