<svg xmlns="http://www.w3.org/2000/svg" xmlns:xlink="http://www.w3.org/1999/xlink" viewBox="0 0 155.03 73.24"><defs><style>.cls-1,.cls-2,.cls-3{fill:none;}.cls-1,.cls-2{clip-rule:evenodd;}.cls-2{clip-path:url(#clip-path);}.cls-4{clip-path:url(#clip-path-2);}.cls-5{clip-path:url(#clip-path-3);}.cls-6{fill:#565656;}.cls-7{fill:#efefef;}.cls-8{fill:#dd9d1d;}.cls-9{fill:#424241;}.cls-10{fill:#afafaf;}.cls-11{fill:#939392;}.cls-12{fill:#c1c1c1;}.cls-13{fill:#494949;}.cls-14{fill:#4c4c4c;}.cls-15{fill:#b9e5fc;}.cls-16{fill:#3f3f3f;}.cls-17{fill:#c43b3b;}.cls-18{fill:#af2e2e;}.cls-19{fill:#cdebf9;}.cls-20{fill:#8c2222;}.cls-21{fill:#515151;}.cls-22{fill:#e5e5e5;}.cls-23{fill:#e2a52b;}</style><clipPath id="clip-path"><polygon class="cls-1" points="0 75.56 157 75.56 157 0 0 0 0 75.56 0 75.56"/></clipPath><clipPath id="clip-path-2" transform="translate(-1.91 -2.12)"><polygon class="cls-2" points="0 0 157 0 157 75.56 0 75.56 0 0 0 0"/></clipPath><clipPath id="clip-path-3" transform="translate(-1.91 -2.12)"><polygon class="cls-3" points="0 75.56 157 75.56 157 0 0 0 0 75.56 0 75.56"/></clipPath></defs><g id="Capa_2" data-name="Capa 2"><g id="Capa_1-2" data-name="Capa 1"><g class="cls-4"><g class="cls-5"><polygon class="cls-6" points="82.77 65.13 135.34 65.13 135.34 53.99 129.04 47.76 112.21 47.76 107.82 52.29 78.76 52.29 78.76 63.99 82.77 65.13 82.77 65.13"/><path class="cls-6" d="M109.92,51.77V47.43h36.71l5.54,4.34v.38a3.48,3.48,0,0,0,.38,1.32l.19.38a2.62,2.62,0,0,1,.38,1.13v9.25a6.1,6.1,0,0,1-.76,2.64,4.11,4.11,0,0,1-2.68,1.7l-10.51,1.89a1.09,1.09,0,0,1-1.34-.76,8.52,8.52,0,0,1-1-3.77V64a12.52,12.52,0,0,0-2.49-7.74l-.57-.75A8.38,8.38,0,0,0,126.94,52h-4.4a7.88,7.88,0,0,0-5.93,2.64,10.79,10.79,0,0,0-2.48,4l-.77,1.69-1.34.38h-.57v1.89H88.51v4.53H22.56l-.38-7.17,5-8.31h82.77v.19Z" transform="translate(-1.91 -2.12)"/><polygon class="cls-7" points="147.2 54.18 151.4 54.18 151.4 57.57 147.2 57.57 147.2 54.18 147.2 54.18"/><polygon class="cls-8" points="147.58 54.74 148.73 54.74 148.73 57.2 147.58 57.2 147.58 54.74 147.58 54.74"/><path class="cls-9" d="M113,64.42a10.71,10.71,0,1,0,10.71-10.57A10.87,10.87,0,0,0,113,64.42Z" transform="translate(-1.91 -2.12)"/><path class="cls-10" d="M116.61,64.42a7.08,7.08,0,1,0,7.08-7,7.14,7.14,0,0,0-7.08,7Z" transform="translate(-1.91 -2.12)"/><path class="cls-11" d="M117,64.42a6.7,6.7,0,1,0,6.7-6.61,6.73,6.73,0,0,0-6.7,6.61Z" transform="translate(-1.91 -2.12)"/><path class="cls-10" d="M128.85,64.42a5.17,5.17,0,1,1-5.16-5.1,5.13,5.13,0,0,1,5.16,5.1Z" transform="translate(-1.91 -2.12)"/><path class="cls-12" d="M122.35,64.42a1.34,1.34,0,1,0,1.34-1.32,1.59,1.59,0,0,0-1.34,1.32Z" transform="translate(-1.91 -2.12)"/><path class="cls-9" d="M123.11,54.22h1.15v-.37a.19.19,0,0,0-.19-.19h-.77a.19.19,0,0,0-.19.19v.37Z" transform="translate(-1.91 -2.12)"/><path class="cls-9" d="M125.79,54.41l1.15.19.19-.38a.18.18,0,0,0-.19-.18l-.77-.19A.19.19,0,0,0,126,54l-.19.37Z" transform="translate(-1.91 -2.12)"/><polygon class="cls-9" points="126.36 53.04 127.31 53.61 127.51 53.23 127.31 53.04 126.74 52.67 126.55 52.67 126.36 53.04 126.36 53.04"/><polygon class="cls-9" points="128.46 54.55 129.23 55.31 129.61 54.93 129.61 54.74 129.04 54.18 128.84 54.18 128.46 54.55 128.46 54.55"/><polygon class="cls-9" points="130.37 56.44 130.95 57.39 131.14 57.01 131.33 56.82 130.76 56.25 130.56 56.25 130.37 56.44 130.37 56.44"/><polygon class="cls-9" points="131.52 58.71 131.9 59.84 132.28 59.65 132.48 59.46 132.28 58.71 132.09 58.52 131.52 58.71 131.52 58.71 131.52 58.71"/><path class="cls-9" d="M134,63.29v1.13h.38a.19.19,0,0,0,.19-.19v-.76a.18.18,0,0,0-.19-.18Z" transform="translate(-1.91 -2.12)"/><path class="cls-9" d="M134,65.93l-.19.94h.38a.19.19,0,0,0,.19-.19l.19-.75a.19.19,0,0,0-.19-.19l-.38.19Z" transform="translate(-1.91 -2.12)"/><polygon class="cls-9" points="131.52 66.26 130.95 67.2 131.33 67.39 131.52 67.39 131.9 66.64 131.71 66.45 131.52 66.26 131.52 66.26"/><polygon class="cls-9" points="130.18 68.52 129.42 69.28 129.8 69.66 129.99 69.66 130.56 68.9 130.37 68.71 130.18 68.52 130.18 68.52"/><polygon class="cls-9" points="128.27 70.41 127.51 70.98 127.7 71.35 127.89 71.35 128.46 70.98 128.65 70.6 128.27 70.41 128.27 70.41"/><polygon class="cls-9" points="126.17 71.73 125.02 72.11 125.21 72.49 125.4 72.68 126.17 72.3 126.36 72.11 126.17 71.73 126.17 71.73"/><path class="cls-9" d="M125.6,74.61l-1.15.19v.38a.19.19,0,0,0,.19.19l.77-.19a.19.19,0,0,0,.19-.19v-.38Z" transform="translate(-1.91 -2.12)"/><path class="cls-9" d="M122.92,74.8l-1.15-.19V75a.19.19,0,0,0,.19.19l.77.19a.19.19,0,0,0,.19-.19V74.8Z" transform="translate(-1.91 -2.12)"/><polygon class="cls-9" points="118.52 72.11 117.38 71.73 117.18 72.11 117.38 72.3 118.14 72.68 118.33 72.49 118.52 72.11 118.52 72.11"/><polygon class="cls-9" points="116.04 70.98 115.08 70.41 114.89 70.6 114.89 70.98 115.65 71.35 115.84 71.35 116.04 70.98 116.04 70.98"/><polygon class="cls-9" points="114.13 69.28 113.36 68.52 112.98 68.71 112.98 68.9 113.55 69.66 113.74 69.66 114.13 69.28 114.13 69.28"/><polygon class="cls-9" points="112.6 67.2 112.02 66.26 111.64 66.45 111.64 66.64 112.02 67.39 112.21 67.39 112.6 67.2 112.6 67.2"/><path class="cls-9" d="M113.55,66.87l-.19-1.13H113a.19.19,0,0,0-.19.19l.19.75a.19.19,0,0,0,.19.19Z" transform="translate(-1.91 -2.12)"/><path class="cls-9" d="M113.17,64.42V63.29h-.38s-.19,0-.19.18v.76a.19.19,0,0,0,.19.19Z" transform="translate(-1.91 -2.12)"/><path class="cls-9" d="M113.55,61.78l.39-1.14h-.39a.19.19,0,0,0-.19.19l-.19.76a.19.19,0,0,0,.19.19Z" transform="translate(-1.91 -2.12)"/><polygon class="cls-9" points="112.6 57.39 113.17 56.44 112.98 56.25 112.79 56.25 112.21 56.82 112.4 57.01 112.6 57.39 112.6 57.39"/><polygon class="cls-9" points="114.13 55.31 115.08 54.55 114.7 54.18 114.51 54.18 113.93 54.74 113.93 54.93 114.13 55.31 114.13 55.31"/><polygon class="cls-9" points="116.23 53.61 117.18 53.04 116.99 52.67 116.8 52.67 116.04 53.04 116.04 53.23 116.23 53.61 116.23 53.61"/><polygon class="cls-9" points="118.71 52.48 119.86 52.29 119.67 51.91 119.48 51.72 118.71 51.91 118.52 52.1 118.71 52.48 118.71 52.48 118.71 52.48"/><path class="cls-13" d="M123.11,59.51c0,.38.19.75.58.75s.57-.37.57-.75-.19-.76-.57-.76-.58.38-.58.76Z" transform="translate(-1.91 -2.12)"/><path class="cls-13" d="M126.17,60.08a.83.83,0,0,0,0,.94.67.67,0,0,0,1-.19.83.83,0,0,0,0-.94c-.39-.19-.77-.19-1,.19Z" transform="translate(-1.91 -2.12)"/><path class="cls-13" d="M128.27,62.34a1,1,0,0,0-.57.76.7.7,0,0,0,1,.37,1,1,0,0,0,.57-.75.7.7,0,0,0-1-.38Z" transform="translate(-1.91 -2.12)"/><path class="cls-13" d="M128.66,65.36a.7.7,0,0,0-1,.38c-.19.38.19.75.57.75a.7.7,0,0,0,1-.37,1,1,0,0,0-.57-.76Z" transform="translate(-1.91 -2.12)"/><path class="cls-13" d="M127.13,68.19c-.19-.37-.58-.37-1-.19a.63.63,0,0,0,0,1c.19.38.57.38,1,.19a.86.86,0,0,0,0-1Z" transform="translate(-1.91 -2.12)"/><path class="cls-13" d="M124.26,69.51c0-.37-.19-.75-.57-.75s-.58.38-.58.75.19.76.58.76c.38-.19.57-.38.57-.76Z" transform="translate(-1.91 -2.12)"/><path class="cls-13" d="M121.2,69a.85.85,0,0,0,0-1,.69.69,0,0,0-1,.19.62.62,0,1,0,1,.76Z" transform="translate(-1.91 -2.12)"/><path class="cls-13" d="M119.1,66.68a1,1,0,0,0,.57-.75.69.69,0,0,0-1-.38,1,1,0,0,0-.58.76,1.53,1.53,0,0,0,1,.37Z" transform="translate(-1.91 -2.12)"/><path class="cls-13" d="M118.72,63.47a.7.7,0,0,0,1-.37c.19-.38-.19-.76-.57-.76a.7.7,0,0,0-1,.38c0,.38.19.75.58.75Z" transform="translate(-1.91 -2.12)"/><path class="cls-13" d="M120.24,60.83c.2.38.58.38,1,.19a.62.62,0,0,0,0-.94c-.19-.38-.57-.38-1-.19a.83.83,0,0,0,0,.94Z" transform="translate(-1.91 -2.12)"/><path class="cls-11" d="M124.07,61.21a.68.68,0,0,0,.38.94.71.71,0,0,0,1-.37.73.73,0,0,0-1.34-.57Z" transform="translate(-1.91 -2.12)"/><polygon class="cls-12" points="122.92 59.84 123.3 59.46 123.11 58.9 122.73 58.71 122.34 59.08 122.34 59.65 122.92 59.84 122.92 59.84"/><path class="cls-11" d="M126,62c-.38.19-.38.57-.19.95s.57.38.95.19.39-.57.2-1a.69.69,0,0,0-1-.19Z" transform="translate(-1.91 -2.12)"/><polygon class="cls-12" points="124.26 60.97 124.83 60.78 125.02 60.41 124.64 60.03 124.06 60.03 123.87 60.41 124.26 60.97 124.26 60.97"/><path class="cls-11" d="M126.94,63.85a.76.76,0,1,0,.76.76.7.7,0,0,0-.76-.76Z" transform="translate(-1.91 -2.12)"/><polygon class="cls-12" points="124.64 62.67 125.02 62.86 125.59 62.67 125.59 62.1 125.02 61.92 124.64 62.1 124.64 62.67 124.64 62.67"/><path class="cls-11" d="M126.74,65.93c-.38-.19-.76-.19-.95.19s-.19.75.19.94.76.19,1-.19.19-.75-.2-.94Z" transform="translate(-1.91 -2.12)"/><polygon class="cls-12" points="123.87 64.18 124.06 64.75 124.64 64.75 125.02 64.37 124.83 63.8 124.26 63.8 123.87 64.18 123.87 64.18"/><path class="cls-11" d="M125.41,67.44a.71.71,0,0,0-1-.38.69.69,0,0,0-.38.94.69.69,0,0,0,1,.38,1.43,1.43,0,0,0,.39-.94Z" transform="translate(-1.91 -2.12)"/><polygon class="cls-12" points="122.34 65.13 122.34 65.69 122.73 65.88 123.11 65.88 123.3 65.31 122.92 64.94 122.34 65.13 122.34 65.13"/><path class="cls-11" d="M123.3,67.82a.69.69,0,0,0-.38-.95.71.71,0,0,0-1,.38.68.68,0,0,0,.39.94.7.7,0,0,0,1-.37Z" transform="translate(-1.91 -2.12)"/><polygon class="cls-12" points="120.62 64.94 120.24 65.31 120.43 65.88 120.82 65.88 121.2 65.69 121.2 65.13 120.62 64.94 120.62 64.94"/><path class="cls-11" d="M121.39,66.87c.38-.19.38-.56.19-.94s-.57-.38-1-.19-.39.57-.19.94.57.57,1,.19Z" transform="translate(-1.91 -2.12)"/><polygon class="cls-12" points="119.29 63.8 118.71 63.8 118.52 64.37 118.9 64.75 119.29 64.75 119.67 64.18 119.29 63.8 119.29 63.8"/><path class="cls-11" d="M120.44,65.17a.81.81,0,0,0,.76-.75.77.77,0,1,0-.76.75Z" transform="translate(-1.91 -2.12)"/><polygon class="cls-12" points="118.9 62.1 118.52 61.92 117.95 62.1 117.95 62.67 118.52 62.86 118.9 62.67 118.9 62.1 118.9 62.1"/><path class="cls-11" d="M120.63,63.1c.38.19.76.19,1-.19s.19-.76-.19-.95-.76-.18-1,.19-.2.76.19,1Z" transform="translate(-1.91 -2.12)"/><polygon class="cls-12" points="119.67 60.41 119.48 60.03 118.9 60.03 118.52 60.41 118.71 60.78 119.29 60.97 119.67 60.41 119.67 60.41"/><path class="cls-11" d="M122,61.59a.71.71,0,0,0,1,.37.68.68,0,0,0,.38-.94.69.69,0,0,0-1-.38,1.46,1.46,0,0,0-.39,1Z" transform="translate(-1.91 -2.12)"/><polygon class="cls-12" points="121.2 59.65 121.2 59.08 120.82 58.71 120.43 58.9 120.24 59.46 120.62 59.65 121.2 59.65 121.2 59.65"/><path class="cls-9" d="M72.07,65.93v1.13h.38a.19.19,0,0,0,.19-.19v-.75a.19.19,0,0,0-.19-.19Z" transform="translate(-1.91 -2.12)"/><path class="cls-9" d="M72.07,68.38l-.19,1.13h.38s.19,0,.19-.18l.19-.76a.19.19,0,0,0-.19-.19Z" transform="translate(-1.91 -2.12)"/><path class="cls-9" d="M51.23,64.42A10.71,10.71,0,1,0,61.94,53.85,10.74,10.74,0,0,0,51.23,64.42Z" transform="translate(-1.91 -2.12)"/><path class="cls-10" d="M54.68,64.42a7.07,7.07,0,1,0,7.07-7,7.14,7.14,0,0,0-7.07,7Z" transform="translate(-1.91 -2.12)"/><path class="cls-11" d="M55.06,64.42a6.69,6.69,0,1,0,6.69-6.61,6.73,6.73,0,0,0-6.69,6.61Z" transform="translate(-1.91 -2.12)"/><path class="cls-10" d="M66.91,64.42a5.16,5.16,0,1,1-5.16-5.1,5.13,5.13,0,0,1,5.16,5.1Z" transform="translate(-1.91 -2.12)"/><path class="cls-12" d="M60.6,64.42a1.34,1.34,0,1,0,1.34-1.32c-1,.19-1.34.75-1.34,1.32Z" transform="translate(-1.91 -2.12)"/><path class="cls-9" d="M61.17,54.22h1.15v-.37a.19.19,0,0,0-.19-.19h-.76a.19.19,0,0,0-.2.19v.37Z" transform="translate(-1.91 -2.12)"/><path class="cls-9" d="M63.85,54.41,65,54.6l.19-.38A.18.18,0,0,0,65,54l-.77-.19A.19.19,0,0,0,64,54l-.19.37Z" transform="translate(-1.91 -2.12)"/><polygon class="cls-9" points="64.42 53.04 65.38 53.61 65.57 53.23 65.57 53.04 64.81 52.67 64.61 52.67 64.42 53.04 64.42 53.04"/><polygon class="cls-9" points="66.53 54.55 67.48 55.31 67.67 54.93 67.67 54.74 67.1 54.18 66.91 54.18 66.53 54.55 66.53 54.55"/><polygon class="cls-9" points="68.44 56.44 69.01 57.39 69.39 57.01 69.39 56.82 68.82 56.25 68.63 56.25 68.44 56.44 68.44 56.44"/><polygon class="cls-9" points="69.58 58.71 69.97 59.84 70.35 59.65 70.54 59.46 70.35 58.71 70.16 58.52 69.58 58.71 69.58 58.71 69.58 58.71"/><polygon class="cls-9" points="69.58 66.26 69.01 67.2 69.39 67.39 69.58 67.39 69.97 66.64 69.97 66.45 69.58 66.26 69.58 66.26"/><polygon class="cls-9" points="68.25 68.52 67.48 69.28 67.86 69.66 68.05 69.66 68.63 68.9 68.63 68.71 68.25 68.52 68.25 68.52"/><polygon class="cls-9" points="66.53 70.41 65.57 70.98 65.76 71.35 65.95 71.35 66.72 70.98 66.72 70.6 66.53 70.41 66.53 70.41"/><polygon class="cls-9" points="64.23 71.73 63.27 72.11 63.27 72.49 63.47 72.68 64.23 72.3 64.42 72.11 64.23 71.73 64.23 71.73"/><path class="cls-9" d="M63.66,74.61l-1.15.19v.38a.19.19,0,0,0,.19.19l.77-.19a.19.19,0,0,0,.19-.19v-.38Z" transform="translate(-1.91 -2.12)"/><path class="cls-9" d="M61,74.8l-1.14-.19V75a.19.19,0,0,0,.19.19l.76.19a.19.19,0,0,0,.19-.19V74.8Z" transform="translate(-1.91 -2.12)"/><polygon class="cls-9" points="56.59 72.11 55.44 71.73 55.44 72.11 55.44 72.3 56.2 72.68 56.39 72.49 56.59 72.11 56.59 72.11"/><polygon class="cls-9" points="54.1 70.98 53.34 70.41 52.95 70.6 53.14 70.98 53.72 71.35 53.91 71.35 54.1 70.98 54.1 70.98"/><polygon class="cls-9" points="52.19 69.28 51.42 68.52 51.23 68.71 51.23 68.9 51.61 69.66 51.8 69.66 52.19 69.28 52.19 69.28"/><polygon class="cls-9" points="50.66 67.2 50.09 66.26 49.89 66.45 49.7 66.64 50.09 67.39 50.28 67.39 50.66 67.2 50.66 67.2"/><path class="cls-9" d="M51.62,66.87l-.19-1.13H51a.19.19,0,0,0-.19.19l.19.75a.19.19,0,0,0,.19.19Z" transform="translate(-1.91 -2.12)"/><path class="cls-9" d="M51.23,64.42V63.29h-.38s-.19,0-.19.18v.76a.19.19,0,0,0,.19.19Z" transform="translate(-1.91 -2.12)"/><path class="cls-9" d="M51.62,61.78,52,60.64h-.38a.19.19,0,0,0-.19.19l-.2.76a.19.19,0,0,0,.2.19Z" transform="translate(-1.91 -2.12)"/><polygon class="cls-9" points="50.66 57.39 51.42 56.44 51.04 56.25 50.85 56.25 50.47 56.82 50.47 57.01 50.66 57.39 50.66 57.39"/><polygon class="cls-9" points="52.38 55.31 53.14 54.55 52.95 54.18 52.57 54.18 52 54.74 52 54.93 52.38 55.31 52.38 55.31"/><polygon class="cls-9" points="54.29 53.61 55.25 53.04 55.05 52.67 54.86 52.67 54.29 53.04 54.1 53.23 54.29 53.61 54.29 53.61"/><polygon class="cls-9" points="56.78 52.48 57.92 52.29 57.73 51.91 57.54 51.72 56.78 51.91 56.59 52.1 56.78 52.48 56.78 52.48 56.78 52.48"/><path class="cls-13" d="M61.17,59.51c0,.38.2.75.58.75s.57-.37.57-.75-.19-.76-.57-.76-.58.38-.58.76Z" transform="translate(-1.91 -2.12)"/><path class="cls-13" d="M64.23,60.08a.83.83,0,0,0,0,.94.67.67,0,0,0,1-.19.83.83,0,0,0,0-.94.67.67,0,0,0-1,.19Z" transform="translate(-1.91 -2.12)"/><path class="cls-13" d="M66.34,62.34a1,1,0,0,0-.58.76.71.71,0,0,0,1,.37,1,1,0,0,0,.57-.75.69.69,0,0,0-1-.38Z" transform="translate(-1.91 -2.12)"/><path class="cls-13" d="M66.72,65.36a.7.7,0,0,0-1,.38c-.19.38.19.75.58.75a.7.7,0,0,0,1-.37,1,1,0,0,0-.57-.76Z" transform="translate(-1.91 -2.12)"/><path class="cls-13" d="M65.19,68.19c-.19-.37-.57-.37-1-.19a.63.63,0,0,0,0,1c.19.38.58.38,1,.19s.19-.76,0-1Z" transform="translate(-1.91 -2.12)"/><path class="cls-13" d="M62.32,69.51c0-.37-.19-.75-.57-.75s-.58.38-.58.75.2.76.58.76c.38-.19.57-.38.57-.76Z" transform="translate(-1.91 -2.12)"/><path class="cls-13" d="M59.26,69a.85.85,0,0,0,0-1,.68.68,0,0,0-.95.19.85.85,0,0,0,0,1,.84.84,0,0,0,.95-.19Z" transform="translate(-1.91 -2.12)"/><path class="cls-13" d="M57.16,66.68a1,1,0,0,0,.57-.75.69.69,0,0,0-.95-.38,1,1,0,0,0-.58.76,1.55,1.55,0,0,0,1,.37Z" transform="translate(-1.91 -2.12)"/><path class="cls-13" d="M56.78,63.47a.7.7,0,0,0,.95-.37c.2-.38-.19-.76-.57-.76a.71.71,0,0,0-1,.38c0,.38.2.75.58.75Z" transform="translate(-1.91 -2.12)"/><path class="cls-13" d="M58.31,60.83c.19.38.57.38.95.19a.61.61,0,0,0,0-.94c-.19-.38-.57-.38-.95-.19a.83.83,0,0,0,0,.94Z" transform="translate(-1.91 -2.12)"/><path class="cls-11" d="M62.13,61.21a.68.68,0,0,0,.38.94.7.7,0,0,0,1-.37.69.69,0,0,0-.38-1,.7.7,0,0,0-1,.38Z" transform="translate(-1.91 -2.12)"/><polygon class="cls-12" points="60.98 59.84 61.36 59.46 61.36 58.9 60.79 58.71 60.41 59.08 60.6 59.65 60.98 59.84 60.98 59.84"/><path class="cls-11" d="M64,62c-.38.19-.38.57-.19.95s.57.38,1,.19.38-.57.19-1-.58-.37-1-.19Z" transform="translate(-1.91 -2.12)"/><polygon class="cls-12" points="62.32 60.97 62.89 60.78 63.08 60.41 62.7 60.03 62.32 60.03 62.13 60.41 62.32 60.97 62.32 60.97"/><path class="cls-11" d="M65,63.85a.76.76,0,1,0,0,1.51.82.82,0,0,0,.76-.75c0-.57-.19-.76-.76-.76Z" transform="translate(-1.91 -2.12)"/><polygon class="cls-12" points="62.7 62.67 63.08 62.86 63.66 62.67 63.66 62.1 63.08 61.92 62.7 62.1 62.7 62.67 62.7 62.67"/><path class="cls-11" d="M64.81,65.93c-.39-.19-.77-.19-1,.19s-.19.75.19.94.77.19,1-.19.19-.75-.19-.94Z" transform="translate(-1.91 -2.12)"/><polygon class="cls-12" points="61.94 64.18 62.32 64.75 62.7 64.75 63.08 64.37 62.89 63.8 62.32 63.8 61.94 64.18 61.94 64.18"/><path class="cls-11" d="M63.47,67.44a.7.7,0,0,0-1-.38.69.69,0,0,0-.38.94.7.7,0,0,0,1,.38c.19-.19.57-.56.38-.94Z" transform="translate(-1.91 -2.12)"/><polygon class="cls-12" points="60.41 65.13 60.41 65.69 60.79 65.88 61.17 65.88 61.36 65.31 60.98 64.94 60.41 65.13 60.41 65.13"/><path class="cls-11" d="M61.37,67.82A.73.73,0,0,0,60,67.25a.68.68,0,0,0,.38.94c.57.19,1,0,1-.37Z" transform="translate(-1.91 -2.12)"/><polygon class="cls-12" points="58.69 64.94 58.3 65.31 58.5 65.88 58.88 65.88 59.26 65.69 59.26 65.13 58.69 64.94 58.69 64.94"/><path class="cls-11" d="M59.45,66.87c.39-.19.39-.56.2-.94s-.58-.38-1-.19-.38.57-.19.94.76.57,1,.19Z" transform="translate(-1.91 -2.12)"/><polygon class="cls-12" points="57.35 63.8 56.97 63.8 56.59 64.37 56.97 64.75 57.54 64.75 57.73 64.18 57.35 63.8 57.35 63.8"/><path class="cls-11" d="M58.5,65.17a.81.81,0,0,0,.76-.75.82.82,0,0,0-.76-.76.83.83,0,0,0-.77.76.82.82,0,0,0,.77.75Z" transform="translate(-1.91 -2.12)"/><polygon class="cls-12" points="56.97 62.1 56.59 61.92 56.2 62.1 56.01 62.67 56.59 62.86 56.97 62.67 56.97 62.1 56.97 62.1"/><path class="cls-11" d="M58.69,63.1c.38.19.76.19,1-.19s.19-.76-.2-.95-.76-.18-1,.19-.19.76.19,1Z" transform="translate(-1.91 -2.12)"/><polygon class="cls-12" points="57.73 60.41 57.54 60.03 56.97 60.03 56.59 60.41 56.97 60.78 57.35 60.97 57.73 60.41 57.73 60.41"/><path class="cls-11" d="M60,61.59A.7.7,0,0,0,61,62a.68.68,0,0,0,.39-.94.71.71,0,0,0-1-.38,1.45,1.45,0,0,0-.38,1Z" transform="translate(-1.91 -2.12)"/><polygon class="cls-12" points="59.26 59.65 59.26 59.08 58.88 58.71 58.5 58.9 58.3 59.46 58.69 59.65 59.26 59.65 59.26 59.65"/><path class="cls-9" d="M25.43,64.42a10.71,10.71,0,1,0,10.7-10.57,10.74,10.74,0,0,0-10.7,10.57Z" transform="translate(-1.91 -2.12)"/><path class="cls-10" d="M43.21,64.42a7.08,7.08,0,1,1-7.08-7,7,7,0,0,1,7.08,7Z" transform="translate(-1.91 -2.12)"/><path class="cls-11" d="M29.44,64.42a6.69,6.69,0,1,0,6.69-6.61,6.61,6.61,0,0,0-6.69,6.61Z" transform="translate(-1.91 -2.12)"/><path class="cls-10" d="M41.29,64.42a5.16,5.16,0,1,1-5.16-5.1,5.13,5.13,0,0,1,5.16,5.1Z" transform="translate(-1.91 -2.12)"/><path class="cls-12" d="M34.79,64.42a1.34,1.34,0,1,0,1.34-1.32c-.76.19-1.34.75-1.34,1.32Z" transform="translate(-1.91 -2.12)"/><path class="cls-9" d="M35.56,54.22h1.15v-.37a.19.19,0,0,0-.2-.19h-.76a.19.19,0,0,0-.19.19v.37Z" transform="translate(-1.91 -2.12)"/><path class="cls-9" d="M38,54.41l1.15.19.19-.38a.18.18,0,0,0-.19-.18l-.76-.19a.19.19,0,0,0-.19.19l-.2.37Z" transform="translate(-1.91 -2.12)"/><polygon class="cls-9" points="38.62 53.04 39.76 53.61 39.95 53.23 39.76 53.04 39.19 52.67 38.81 52.67 38.62 53.04 38.62 53.04"/><polygon class="cls-9" points="40.91 54.55 41.67 55.31 42.06 54.93 42.06 54.74 41.48 54.18 41.1 54.18 40.91 54.55 40.91 54.55"/><polygon class="cls-9" points="42.63 56.44 43.2 57.39 43.59 57.01 43.59 56.82 43.2 56.25 43.01 56.25 42.63 56.44 42.63 56.44"/><polygon class="cls-9" points="43.97 58.71 44.35 59.84 44.73 59.65 44.92 59.46 44.73 58.71 44.54 58.52 43.97 58.71 43.97 58.71 43.97 58.71"/><path class="cls-9" d="M46.46,63.29v1.13h.38a.19.19,0,0,0,.19-.19v-.76a.18.18,0,0,0-.19-.18Z" transform="translate(-1.91 -2.12)"/><path class="cls-9" d="M46.46,65.93l-.2,1.13h.39a.19.19,0,0,0,.19-.19l.19-.75a.19.19,0,0,0-.19-.19Z" transform="translate(-1.91 -2.12)"/><polygon class="cls-9" points="43.78 66.26 43.39 67.2 43.78 67.39 43.97 67.39 44.35 66.64 44.16 66.45 43.78 66.26 43.78 66.26"/><polygon class="cls-9" points="42.63 68.52 41.87 69.28 42.25 69.66 42.44 69.66 42.82 68.9 42.82 68.71 42.63 68.52 42.63 68.52"/><polygon class="cls-9" points="40.72 70.41 39.76 70.98 40.14 71.35 40.34 71.35 40.91 70.98 40.91 70.6 40.72 70.41 40.72 70.41"/><polygon class="cls-9" points="38.62 71.73 37.47 72.11 37.66 72.49 37.85 72.68 38.62 72.3 38.62 72.11 38.62 71.73 38.62 71.73"/><path class="cls-9" d="M37.85,74.61l-1.14.19v.38a.19.19,0,0,0,.19.19l.76-.19a.19.19,0,0,0,.19-.19v-.38Z" transform="translate(-1.91 -2.12)"/><path class="cls-9" d="M35.37,74.8l-1.15-.19V75a.19.19,0,0,0,.19.19l.77.19a.19.19,0,0,0,.19-.19V74.8Z" transform="translate(-1.91 -2.12)"/><polygon class="cls-9" points="30.78 72.11 29.82 71.73 29.63 72.11 29.82 72.3 30.59 72.68 30.78 72.49 30.78 72.11 30.78 72.11"/><polygon class="cls-9" points="28.48 70.98 27.53 70.41 27.34 70.6 27.34 70.98 28.1 71.35 28.29 71.35 28.48 70.98 28.48 70.98"/><polygon class="cls-9" points="26.57 69.28 25.81 68.52 25.43 68.71 25.43 68.9 26 69.66 26.19 69.66 26.57 69.28 26.57 69.28"/><polygon class="cls-9" points="25.04 67.2 24.47 66.26 24.09 66.45 24.09 66.64 24.47 67.39 24.66 67.39 25.04 67.2 25.04 67.2"/><path class="cls-9" d="M26,66.87l-.19-1.13h-.38a.19.19,0,0,0-.19.19l.19.75a.19.19,0,0,0,.19.19Z" transform="translate(-1.91 -2.12)"/><path class="cls-9" d="M25.62,64.42V63.29h-.38s-.2,0-.2.18v.76a.19.19,0,0,0,.2.19Z" transform="translate(-1.91 -2.12)"/><path class="cls-9" d="M26,61.78l.38-1.14H26a.19.19,0,0,0-.19.19l-.19.76a.19.19,0,0,0,.19.19Z" transform="translate(-1.91 -2.12)"/><polygon class="cls-9" points="25.04 57.39 25.62 56.44 25.23 56.25 25.04 56.25 24.66 56.82 24.66 57.01 25.04 57.39 25.04 57.39"/><polygon class="cls-9" points="26.57 55.31 27.34 54.55 27.14 54.18 26.95 54.18 26.38 54.74 26.38 54.93 26.57 55.31 26.57 55.31"/><polygon class="cls-9" points="28.68 53.61 29.63 53.04 29.44 52.67 29.25 52.67 28.48 53.04 28.48 53.23 28.68 53.61 28.68 53.61"/><polygon class="cls-9" points="30.97 52.48 32.12 52.29 31.92 51.91 31.73 51.72 30.97 51.91 30.78 52.1 30.97 52.48 30.97 52.48 30.97 52.48"/><path class="cls-13" d="M35.37,59.51c0,.38.19.75.57.75s.57-.37.57-.75-.19-.76-.57-.76a.85.85,0,0,0-.57.76Z" transform="translate(-1.91 -2.12)"/><path class="cls-13" d="M38.62,60.08a.83.83,0,0,0,0,.94.66.66,0,0,0,1-.19.83.83,0,0,0,0-.94c-.38-.19-.76-.19-1,.19Z" transform="translate(-1.91 -2.12)"/><path class="cls-13" d="M40.72,62.34a1,1,0,0,0-.57.76.7.7,0,0,0,1,.37,1,1,0,0,0,.58-.75.71.71,0,0,0-1-.38Z" transform="translate(-1.91 -2.12)"/><path class="cls-13" d="M41.1,65.36a.69.69,0,0,0-1,.38c-.19.38.19.75.57.75a.71.71,0,0,0,1-.37,1,1,0,0,0-.58-.76Z" transform="translate(-1.91 -2.12)"/><path class="cls-13" d="M39.57,68.19c-.19-.37-.57-.37-1-.19a.63.63,0,0,0,0,1c.19.38.57.38,1,.19a.86.86,0,0,0,0-1Z" transform="translate(-1.91 -2.12)"/><path class="cls-13" d="M36.71,69.51c0-.37-.2-.75-.58-.75s-.57.38-.57.75.19.76.57.76c.38-.19.58-.38.58-.76Z" transform="translate(-1.91 -2.12)"/><path class="cls-13" d="M33.65,69a.85.85,0,0,0,0-1,.69.69,0,0,0-1,.19.85.85,0,0,0,0,1,.85.85,0,0,0,1-.19Z" transform="translate(-1.91 -2.12)"/><path class="cls-13" d="M31.54,66.68a1,1,0,0,0,.58-.75.7.7,0,0,0-1-.38c-.38,0-.57.38-.57.76a1.5,1.5,0,0,0,.95.37Z" transform="translate(-1.91 -2.12)"/><path class="cls-13" d="M31.16,63.47a.71.71,0,0,0,1-.37c.19-.38-.19-.76-.58-.76a.69.69,0,0,0-.95.38c0,.38.19.75.57.75Z" transform="translate(-1.91 -2.12)"/><path class="cls-13" d="M32.69,60.83c.19.38.57.38,1,.19a.62.62,0,0,0,0-.94c-.19-.38-.58-.38-1-.19a.62.62,0,0,0,0,.94Z" transform="translate(-1.91 -2.12)"/><path class="cls-11" d="M36.51,61.21a.68.68,0,0,0,.39.94.72.72,0,1,0,.57-1.32c-.57-.19-1,0-1,.38Z" transform="translate(-1.91 -2.12)"/><polygon class="cls-12" points="35.37 59.84 35.75 59.46 35.56 58.9 35.17 58.71 34.79 59.08 34.79 59.65 35.37 59.84 35.37 59.84"/><path class="cls-11" d="M38.43,62c-.39.19-.39.57-.19.95s.57.38.95.19.38-.57.19-1a.68.68,0,0,0-1-.19Z" transform="translate(-1.91 -2.12)"/><polygon class="cls-12" points="36.7 60.97 37.09 60.78 37.28 60.41 37.09 60.03 36.51 60.03 36.32 60.41 36.7 60.97 36.7 60.97"/><path class="cls-11" d="M39.38,63.85a.76.76,0,1,0,0,1.51.83.83,0,0,0,.77-.75.7.7,0,0,0-.77-.76Z" transform="translate(-1.91 -2.12)"/><polygon class="cls-12" points="37.09 62.67 37.47 62.86 37.85 62.67 37.85 62.1 37.47 61.92 37.09 62.1 37.09 62.67 37.09 62.67"/><path class="cls-11" d="M39.19,65.93c-.38-.19-.76-.19-.95.19s-.2.75.19.94.76.19,1-.19.19-.75-.19-.94Z" transform="translate(-1.91 -2.12)"/><polygon class="cls-12" points="36.32 64.18 36.51 64.75 37.09 64.75 37.28 64.37 37.09 63.8 36.7 63.8 36.32 64.18 36.32 64.18"/><path class="cls-11" d="M37.85,67.44a.69.69,0,0,0-1-.38.68.68,0,0,0-.39.94.71.71,0,0,0,1,.38,1.42,1.42,0,0,0,.38-.94Z" transform="translate(-1.91 -2.12)"/><polygon class="cls-12" points="34.79 65.13 34.6 65.69 34.98 65.88 35.56 65.88 35.75 65.31 35.37 64.94 34.79 65.13 34.79 65.13"/><path class="cls-11" d="M35.75,67.82a.69.69,0,0,0-.38-.95.7.7,0,0,0-1,.38.68.68,0,0,0,.38.94.7.7,0,0,0,1-.37Z" transform="translate(-1.91 -2.12)"/><polygon class="cls-12" points="33.07 64.94 32.69 65.31 32.69 65.88 33.26 65.88 33.65 65.69 33.45 65.13 33.07 64.94 33.07 64.94"/><path class="cls-11" d="M33.84,66.87c.38-.19.38-.56.19-.94s-.57-.38-1-.19-.38.57-.19.94a.55.55,0,0,0,1,.19Z" transform="translate(-1.91 -2.12)"/><polygon class="cls-12" points="31.73 63.8 31.16 63.8 30.97 64.37 31.35 64.75 31.73 64.75 31.92 64.18 31.73 63.8 31.73 63.8"/><path class="cls-11" d="M32.69,65.17a.82.82,0,0,0,.77-.75.83.83,0,0,0-.77-.76.82.82,0,0,0-.76.76c.19.38.38.75.76.75Z" transform="translate(-1.91 -2.12)"/><polygon class="cls-12" points="31.35 62.1 30.78 61.92 30.39 62.1 30.39 62.67 30.78 62.86 31.35 62.67 31.35 62.1 31.35 62.1"/><path class="cls-11" d="M33.07,63.1c.39.19.77.19,1-.19s.19-.76-.19-.95-.77-.18-1,.19-.19.76.19,1Z" transform="translate(-1.91 -2.12)"/><polygon class="cls-12" points="31.92 60.41 31.73 60.03 31.35 60.03 30.97 60.41 31.16 60.78 31.73 60.97 31.92 60.41 31.92 60.41"/><path class="cls-11" d="M34.41,61.59a.71.71,0,0,0,1,.37.68.68,0,0,0,.38-.94.7.7,0,0,0-1-.38.69.69,0,0,0-.38,1Z" transform="translate(-1.91 -2.12)"/><polygon class="cls-12" points="33.45 59.65 33.65 59.08 33.26 58.71 32.69 58.9 32.69 59.46 33.07 59.65 33.45 59.65 33.45 59.65"/><path class="cls-14" d="M130.38,50.83a4.42,4.42,0,0,0-2.68-.76H109.92v-.19l-2.48-2.45h38.8l5.93,4.34v.38a3.48,3.48,0,0,0,.38,1.32l.19.38c.19.19.19.37.38.56H136.68a6.22,6.22,0,0,1-2.67-.75l-3.63-2.83Z" transform="translate(-1.91 -2.12)"/><polygon class="cls-15" points="145.09 15.29 122.92 15.29 122.92 28.32 145.67 32.47 145.09 15.29 145.09 15.29"/><polygon class="cls-16" points="148.15 14.54 148.73 31.34 145.28 31.34 144.33 15.67 123.87 15.67 123.87 27.37 112.98 25.3 112.98 14.54 148.15 14.54 148.15 14.54"/><path class="cls-17" d="M107.05,47.24V16.66a2.92,2.92,0,0,1,2.87-2.83H151a2.2,2.2,0,0,1,2.3,2.26.62.62,0,0,1-.58.57H114.89v11l32.31,5.85H152a1.3,1.3,0,0,1,1.34,1.32V50.64a1.23,1.23,0,0,1-1.15,1.13H138.6a6.37,6.37,0,0,1-2.68-.75l-2.29-1.7a11,11,0,0,0-5.93-1.89H107.05v-.19Z" transform="translate(-1.91 -2.12)"/><path class="cls-18" d="M152.17,51.77H138.6a6.37,6.37,0,0,1-2.68-.75l-2.29-1.7a11,11,0,0,0-5.93-1.89H107.05V44.6l.2-.57H129.8a9,9,0,0,1,4.4,1.13l4.4,2.65a5.54,5.54,0,0,0,2.48.75h12.43v1.89c-.19.75-.58,1.32-1.34,1.32Z" transform="translate(-1.91 -2.12)"/><polygon class="cls-19" points="138.21 15.67 145.09 27.18 145.28 31.34 140.7 30.39 132.48 15.67 138.21 15.67 138.21 15.67"/><polygon class="cls-19" points="128.65 15.67 135.92 29.64 131.9 28.88 125.21 15.67 128.65 15.67 128.65 15.67"/><polygon class="cls-17" points="108.01 49.65 106.48 51.53 68.82 51.53 68.82 49.65 108.01 49.65 108.01 49.65"/><path class="cls-9" d="M27,51.77H70.54l5.74,9.44H74.75L70.54,55a4.66,4.66,0,0,0-3.82-2.08H30.78A4.41,4.41,0,0,0,27,55l-4.21,6.23H21.22L27,51.77Z" transform="translate(-1.91 -2.12)"/><polygon class="cls-9" points="136.49 54.74 144.71 54.74 144.71 59.08 136.49 59.08 136.49 54.74 136.49 54.74"/><polygon class="cls-9" points="136.49 60.59 144.71 60.59 144.71 64.94 136.49 64.94 136.49 60.59 136.49 60.59"/><polygon class="cls-20" points="120.24 26.8 120.24 42.09 122.34 45.3 121.58 45.3 119.67 42.09 119.67 26.62 120.24 26.8 120.24 26.8"/><polygon class="cls-20" points="146.05 31.34 145.28 31.34 145.28 46.63 144.9 49.65 145.67 49.65 146.05 46.63 146.05 31.34 146.05 31.34"/><path class="cls-16" d="M125,33.65h3.83a.76.76,0,1,0,0-1.51H125a.76.76,0,1,0,0,1.51Z" transform="translate(-1.91 -2.12)"/><path class="cls-6" d="M151.21,35.72l5-4-.38-.57-5,4a.35.35,0,0,0,0,.56h0c0,.19.38.19.38,0Z" transform="translate(-1.91 -2.12)"/><polygon class="cls-6" points="147.87 27.54 153.85 22.82 154.32 23.41 148.35 28.13 147.87 27.54 147.87 27.54"/><path class="cls-16" d="M153.32,34h1.53A2.12,2.12,0,0,0,157,32V23.83a2.11,2.11,0,0,0-2.1-2.07h-1.34V34Z" transform="translate(-1.91 -2.12)"/><path class="cls-9" d="M82.59,68.57h23.32a1.9,1.9,0,0,0,1.91-1.89V59.51a1.91,1.91,0,0,0-1.91-1.89H82.59a1.91,1.91,0,0,0-1.92,1.89v7.17a1.8,1.8,0,0,0,1.92,1.89Z" transform="translate(-1.91 -2.12)"/><path class="cls-21" d="M102.66,67.82h0a.82.82,0,0,0,.76-.76V59.13a.81.81,0,0,0-.76-.75.82.82,0,0,0-.77.75v7.93a.7.7,0,0,0,.77.76Z" transform="translate(-1.91 -2.12)"/><path class="cls-21" d="M85.83,67.82h0a.82.82,0,0,0,.77-.76V59.13a.77.77,0,0,0-1.53,0v7.93a.7.7,0,0,0,.76.76Z" transform="translate(-1.91 -2.12)"/><path class="cls-9" d="M22.75,69.7h0a1.3,1.3,0,0,1-1.34-1.32V61.21h1.34V69.7Z" transform="translate(-1.91 -2.12)"/><polygon class="cls-9" points="0 0 99.41 0 99.41 49.65 0 49.65 0 0 0 0"/><polygon class="cls-22" points="3.06 2.83 96.54 2.83 96.54 46.06 3.06 46.06 3.06 2.83 3.06 2.83"/><path class="cls-23" d="M22.94,50.26H19.88v-.38a.83.83,0,0,1,.77-.75h1.53a.82.82,0,0,1,.76.75v.38Z" transform="translate(-1.91 -2.12)"/><path class="cls-23" d="M43,50.26H40.15v-.38a.82.82,0,0,1,.76-.75h1.53a.83.83,0,0,1,.77.75v.38Z" transform="translate(-1.91 -2.12)"/><path class="cls-23" d="M63.09,50.26H60.22v-.38a.82.82,0,0,1,.76-.75h1.53a.82.82,0,0,1,.77.75v.38Z" transform="translate(-1.91 -2.12)"/><path class="cls-23" d="M83.35,50.26H80.29v-.38a.82.82,0,0,1,.77-.75h1.53a.82.82,0,0,1,.76.75v.38Z" transform="translate(-1.91 -2.12)"/></g></g></g></g></svg>