<svg xmlns="http://www.w3.org/2000/svg" viewBox="0 0 200.98 137.37"><defs><style>.cls-1{fill:#d1ebec;}.cls-2{fill:#fff;}.cls-3{fill:#69ccee;}.cls-4{fill:#0571ba;}.cls-5{fill:#0494c6;}.cls-6{fill:#004275;}.cls-7{fill:#f3ae98;}.cls-8{fill:#0b3c5f;}.cls-9{fill:#024e94;}.cls-10{fill:#f25e32;}.cls-11{fill:#fcd011;}.cls-12{fill:#f19e84;}.cls-13{fill:#dd4222;}.cls-14{fill:#b0e9f1;}.cls-15{fill:#f29173;}.cls-16{fill:#f4700f;}.cls-17{fill:#0045bd;}.cls-18{fill:#0d8d8c;}.cls-19{fill:#0dcab5;}.cls-20{fill:#d23c1e;}</style></defs><g id="Capa_2" data-name="Capa 2"><g id="Capa_1-2" data-name="Capa 1"><ellipse class="cls-1" cx="100.49" cy="68.35" rx="55.65" ry="91.39" transform="translate(17.14 156.81) rotate(-80.93)"/><path class="cls-1" d="M133.23,6.71c-3.15,5.1,19.48,11.94,27.9,17.05,14.27,8.69,19.71,20.09,23,16.67S181.82,21.05,166.93,10C159.66,4.66,137.54-.25,133.23,6.71Z"/><path class="cls-1" d="M12.63,95.21c1.68-3.65,11.62,10.11,16.62,14.48,8.48,7.42,15.81,7.93,15,11.2s-10.48,4-20.32-3.23C19.15,114.15,10.33,100.2,12.63,95.21Z"/><path class="cls-1" d="M21,21.58a29.93,29.93,0,0,1,7.4-7.33c.7-.48,1.4-1,2.12-1.41S32,12,32.68,11.57L35,10.47c.38-.18.76-.33,1.15-.48s.78-.32,1.17-.46l1.17-.43c.4-.13.79-.25,1.19-.36.8-.22,1.59-.49,2.4-.65a35.69,35.69,0,0,1,4.89-.75,28.1,28.1,0,0,1,9.79.81,1.39,1.39,0,0,1,.92,1.65,1.32,1.32,0,0,1-.88,1l-.09,0c-.77.23-1.53.43-2.29.6s-1.51.3-2.26.52-1.49.37-2.23.53-1.47.4-2.2.58-1.47.34-2.2.58-1.45.43-2.17.63-1.44.46-2.16.69l-1.08.33L39,15.69c-2.87,1-5.71,2.08-8.56,3.27s-5.72,2.46-8.67,3.74l-.05,0a.62.62,0,0,1-.84-.42A.82.82,0,0,1,21,21.58Z"/><path class="cls-2" d="M197.78,39.09S142.41,39.18,117.9,67c-16,18.16-18.83,42.07-3.76,56.74,9.41,9.16,36.68,12.76,53.83-9.22C186,91.37,170.89,73.05,197.78,39.09Z"/><path class="cls-3" d="M135.38,131.1c-8.57,0-16.75-2.71-21.37-7.21-7.3-7.11-10.7-16.52-9.83-27.21.84-10.22,5.66-20.8,13.58-29.8C130.45,52.47,151.54,45.62,167,42.42a174,174,0,0,1,30.79-3.53h.4l-.25.31c-14.76,18.64-16.85,32.73-18.7,45.17-1.52,10.19-2.95,19.82-11.11,30.28-7.6,9.75-18.25,15.56-30,16.36C137.22,131.07,136.3,131.1,135.38,131.1Zm62-91.82a174.59,174.59,0,0,0-30.33,3.52c-15.39,3.19-36.39,10-49,24.34-16.52,18.77-18.11,42.52-3.76,56.47,5,4.91,14.39,7.66,23.83,7,11.62-.8,22.17-6.56,29.71-16.22,8.1-10.38,9.52-20,11-30.1C180.7,71.9,182.79,57.84,197.39,39.28Z"/><path class="cls-2" d="M197.78,39.09s-75,26.65-80.23,87.27Z"/><path class="cls-3" d="M117.74,126.37l-.38,0A79.58,79.58,0,0,1,132.15,87a120.23,120.23,0,0,1,27.38-27.21,167.69,167.69,0,0,1,38.19-20.92l.13.36a167.3,167.3,0,0,0-38.1,20.88C142.08,73.12,120.45,95.13,117.74,126.37Z"/><path class="cls-2" d="M163.31,57.38s-1.05-8.39,2.27-14.46Z"/><path class="cls-3" d="M163.12,57.4c0-.08-1-8.52,2.3-14.57l.33.18c-3.26,6-2.26,14.26-2.25,14.34Z"/><path class="cls-2" d="M158.1,61.14s13.75-1.82,25.89,1.68Z"/><path class="cls-3" d="M183.94,63c-12-3.45-25.68-1.69-25.82-1.67l-.05-.38c.14,0,13.94-1.78,26,1.69Z"/><path class="cls-2" d="M144.76,72.54a55.85,55.85,0,0,1-3.85-21.72Z"/><path class="cls-3" d="M144.59,72.62a56.34,56.34,0,0,1-3.87-21.81h.38a56,56,0,0,0,3.84,21.64Z"/><path class="cls-2" d="M140.08,77.35S157.82,74,179.14,83.7Z"/><path class="cls-3" d="M179.06,83.87c-21-9.54-38.77-6.36-38.94-6.33l-.07-.38c.17,0,18-3.23,39.16,6.37Z"/><path class="cls-2" d="M129.85,90.82s-9.75-13.06-9.65-26.26Z"/><path class="cls-3" d="M129.69,90.93c-.09-.13-9.78-13.26-9.68-26.37h.38c-.1,13,9.51,26,9.61,26.15Z"/><path class="cls-2" d="M125.39,98.71s27.05-2.88,47.65,7.9Z"/><path class="cls-3" d="M173,106.78c-20.33-10.63-47.28-7.9-47.55-7.88l0-.38c.27,0,27.34-2.76,47.76,7.92Z"/><path class="cls-2" d="M121.16,108.93S110.71,98.4,107,85Z"/><path class="cls-3" d="M121,109.06c-.1-.1-10.52-10.71-14.2-24l.37-.1c3.65,13.19,14,23.73,14.1,23.84Z"/><path class="cls-2" d="M120.15,112.2s19.23,1.69,35.86,13Z"/><path class="cls-3" d="M155.9,125.38c-16.39-11.17-35.58-13-35.77-13l0-.38c.19,0,19.47,1.82,36,13.06Z"/><rect class="cls-4" x="82.7" y="82.29" width="0.82" height="28.79"/><path class="cls-4" d="M82,111.94l.46.68-23.41,16a.4.4,0,0,1-.56-.11h0a.41.41,0,0,1,.1-.57Z"/><path class="cls-4" d="M84.37,111.94l-.46.68,23.41,16a.41.41,0,0,0,.57-.11h0a.42.42,0,0,0-.11-.57Z"/><path class="cls-4" d="M89.59,128.18,83.3,111.84h-.87l6.4,16.64a.4.4,0,0,0,.52.23A.41.41,0,0,0,89.59,128.18Z"/><rect class="cls-5" x="81.09" y="109.8" width="4.04" height="3.5" rx="0.7"/><rect class="cls-2" x="37.88" y="0.7" width="90.45" height="81.12"/><path class="cls-5" d="M128.56,82.06H37.65V.47h90.91Zm-90.44-.47h90V.93h-90Z"/><rect class="cls-5" x="36.6" width="93.01" height="1.4"/><rect class="cls-5" x="36.6" y="81.36" width="93.01" height="1.4"/><rect class="cls-3" x="43.85" y="46.7" width="77.82" height="1.6"/><rect class="cls-3" x="43.85" y="51.41" width="77.82" height="1.6"/><rect class="cls-3" x="43.85" y="56.09" width="50.92" height="1.6"/><rect class="cls-3" x="43.85" y="64.77" width="77.82" height="1.6"/><rect class="cls-3" x="43.85" y="69.48" width="77.82" height="1.6"/><rect class="cls-3" x="43.85" y="74.16" width="50.92" height="1.6"/><rect class="cls-3" x="75.62" y="34.67" width="3.67" height="4.29"/><rect class="cls-3" x="82.62" y="27.77" width="3.67" height="11.19"/><rect class="cls-3" x="89.62" y="29.94" width="3.67" height="9.02"/><rect class="cls-3" x="96.62" y="23.79" width="3.67" height="15.17"/><rect class="cls-3" x="103.62" y="26.92" width="3.67" height="12.03"/><rect class="cls-3" x="110.63" y="21.61" width="3.67" height="17.34"/><rect class="cls-3" x="117.56" y="16.18" width="3.67" height="22.77"/><rect class="cls-3" x="83.4" y="14.49" width="7.05" height="1.17"/><rect class="cls-3" x="83.4" y="11.28" width="18.91" height="1.17"/><path class="cls-3" d="M120.57,8.87l-3.15.07.72,1.09L106.31,20.56a1.65,1.65,0,0,1-2.2.06l-3.83-3.13a2.8,2.8,0,0,0-4.09.51l-4.44,5.48a1.64,1.64,0,0,1-2.41.32l-2.8-2.24a2.8,2.8,0,0,0-4,.48l-7,8.3.92,1.19,7-8.29A1.66,1.66,0,0,1,85.82,23l2.8,2.25a2.79,2.79,0,0,0,4.07-.54l4.43-5.48a1.67,1.67,0,0,1,2.43-.31L103.38,22a2.77,2.77,0,0,0,3.7-.09L119,11.31l.71,1.08Z"/><path class="cls-3" d="M79.37,13.34a2.16,2.16,0,1,1-2.16-2.17A2.16,2.16,0,0,1,79.37,13.34Z"/><path class="cls-3" d="M68.32,21.35A12.24,12.24,0,1,1,56.09,9.11V21.35L67.85,18A12.09,12.09,0,0,1,68.32,21.35Z"/><path class="cls-3" d="M69.33,15.88,57.57,19.26V7A12.24,12.24,0,0,1,69.33,15.88Z"/><path class="cls-6" d="M32.79,35.8a3.35,3.35,0,1,0-.69-4.69A3.35,3.35,0,0,0,32.79,35.8Z"/><path class="cls-6" d="M50.43,47.93A2.81,2.81,0,1,0,49.86,44,2.8,2.8,0,0,0,50.43,47.93Z"/><path class="cls-6" d="M32.42,35.55c-1.1-1.43-1.43-3-.32-4.44a3.51,3.51,0,0,1,4.83-.88C47.07,35.84,47.7,39.84,54,43.42c1.17.67,1.42,2.52.19,4.17a2.83,2.83,0,0,1-3.52.64C37.84,42.39,33.48,36.94,32.42,35.55Z"/><path class="cls-7" d="M70.33,33.11c.76.2.26,1.78.46,1.77,1.82-.12,3.65.34,3.6.66s-1.79-.19-1.86,0,2.62.24,2.5.78-2.21-.21-2.28.09S75,36.43,75,37s-2.22-.1-2.2.21,1.8.39,1.67.79-1.47-.17-2.61-.08a12.82,12.82,0,0,1-2.79-.2.62.62,0,0,1-.37-1.13,11.14,11.14,0,0,0,1-1.55C70.47,33.93,70.07,33,70.33,33.11Z"/><path class="cls-6" d="M52.76,48.49a2.8,2.8,0,1,0-3.35-2.11A2.8,2.8,0,0,0,52.76,48.49Z"/><path class="cls-6" d="M51.67,48.52h.06a3,3,0,0,0,1.47-.18l.18-.07C55,47.56,58.74,46,69.58,38.1l-1-2c-8,2.79-12.84,4.08-17.88,7a2.56,2.56,0,0,0-1.19,3.64s0,0,0,.06,0,0,0,0a1.76,1.76,0,0,0,.09.2.09.09,0,0,0,0,.05.6.6,0,0,0,.06.11.21.21,0,0,0,0,.07A2.61,2.61,0,0,0,51.67,48.52Z"/><path class="cls-8" d="M40.18,128.74h9.58v-.19a.79.79,0,0,0-.64-.76c-4.43-.93-5.44-3.52-5.48-3.61a1.82,1.82,0,0,0-1.49-.79,1.8,1.8,0,0,0-1.78,1.54l0,.29C40.25,126.43,40.16,128,40.18,128.74Z"/><path class="cls-6" d="M39.64,96.91a3,3,0,1,0,3.24-2.73A3,3,0,0,0,39.64,96.91Z"/><path class="cls-6" d="M44.51,124.93a5.74,5.74,0,0,1-4.24-.3c-.9-12.88-5.36-21.91-1.24-28.16l6.59,1C45.34,104.07,45.54,115,44.51,124.93Z"/><path class="cls-6" d="M39.61,97.05a3,3,0,1,0,3.1-2.9A3,3,0,0,0,39.61,97.05Z"/><path class="cls-6" d="M45.15,66.33l0,.31s0,0,0,.08,0,.25,0,.38a4.25,4.25,0,0,1,0,.51,7.88,7.88,0,1,1-.05-1.28Z"/><path class="cls-6" d="M45.19,66.64v.08c0,.13,0,.25,0,.38s0,.33,0,.49c.46,10.11.55,18.26.38,29.5h0l-4.82,2.42-1.24.62c-4-6.7-8.59-20.51-9.8-28.25a20.38,20.38,0,0,1-.32-3.55l15.76-1.69Z"/><path class="cls-8" d="M18.3,128.74h6.89v-.17a.76.76,0,0,0-.6-.71,4.86,4.86,0,0,1-3.07-3.36,1.68,1.68,0,0,0-3.05.69c0,.09,0,.18,0,.28C18.37,126.59,18.28,128,18.3,128.74Z"/><path class="cls-9" d="M26.23,98.3a3,3,0,1,0,3.92-1.63A3,3,0,0,0,26.23,98.3Z"/><path class="cls-9" d="M22.09,125.21c-1.27,0-2.57,0-3.41-1.3,3-12.55,1.3-21.48,7.1-26.21l6,2.88C29.53,106.84,26.07,116,22.09,125.21Z"/><circle class="cls-9" cx="31.73" cy="69.45" r="7.93" transform="translate(-33.79 30.23) rotate(-34.54)"/><path class="cls-9" d="M39.52,70.88c-2.32,10.31-4.44,18.35-7.68,29.47l-6.66,1.32c-2.49-8.9-3.06-27.59-1.3-33.35Z"/><path class="cls-2" d="M43.05,68.94c-2.09,1.27-6.56,1.32-8.53,1.23A104.79,104.79,0,0,0,34,39.34c-1.53-8.34-4.81-10-6.61-10.21a9.45,9.45,0,0,1,2-1,7.58,7.58,0,0,1,4-.29c2.08,1.09,5,3.54,6.9,9.73C43.75,49.12,43.39,63,43.05,68.94Z"/><path class="cls-10" d="M37,70.68a15.35,15.35,0,0,1-2.2-.15L35,69.46a16,16,0,0,0,8.11-1.07l.45,1A17,17,0,0,1,37,70.68Z"/><path class="cls-11" d="M39.18,70.88l1.58-.27a.42.42,0,0,0,.35-.42v-1a.42.42,0,0,0-.5-.41L39,69a.4.4,0,0,0-.35.42v1A.42.42,0,0,0,39.18,70.88Z"/><path class="cls-12" d="M29.35,28.69a9.54,9.54,0,0,0,.52-4.22,1.53,1.53,0,0,1,1.44-1.66h0a1.53,1.53,0,0,1,1.51,1.59,9.55,9.55,0,0,0,.7,4.21C33.51,29.83,29.41,29.92,29.35,28.69Z"/><path class="cls-7" d="M34.75,15.14c1,2.53,2.93,8.89,0,10.36-2,1-6.35-1.8-7.18-3.79S24.3,16.93,29,14.43C32.8,12.43,34.22,13.75,34.75,15.14Z"/><path class="cls-8" d="M24.23,16.58a4.1,4.1,0,0,1,.9-2.59c1.62-1.61,3.45-1.72,6-2.45s1.61-1.73,1.61-1.73a4.74,4.74,0,0,1,2.14,2.47,2.06,2.06,0,0,1-.57,2.11A8,8,0,0,0,30.5,15c-1.94.85-2.68,2.46-1.62,3.69s1.38,1.43,1.39,2.45l-.47,0A1.92,1.92,0,0,0,28.52,20a1,1,0,0,0-1,1.54c.62,1.13,1.1.67,1.66,1.37.75.95.13,1.29,0,1.34-.17-.64-1.23-1.49-1.62-1.84A7.81,7.81,0,0,1,26,20c-.13-.27-.24-.59-.38-.88h0a3.41,3.41,0,0,0-.68-.89C24.36,17.6,24.2,17.43,24.23,16.58Z"/><path class="cls-9" d="M42.4,71.85c.34-6,.8-22.46-2.76-34-1.9-6.18-4.26-8.91-6.34-10A9.86,9.86,0,0,1,40.62,35C45.1,50,46.35,56.57,46,70.53A6.48,6.48,0,0,1,42.4,71.85Z"/><path class="cls-13" d="M34.07,30.24a11.64,11.64,0,0,1,1,1.68c.29.6.57,1.2.82,1.82a29.83,29.83,0,0,1,1.27,3.77,18.45,18.45,0,0,1,.42,1.93,13.74,13.74,0,0,1,.16,2c0,1.33.07,2.68.1,4,0,2.69.07,5.38.17,8.08.05,1.35.12,2.7.23,4.06a28,28,0,0,0,.6,4.1l1,.55.49-.94a26.44,26.44,0,0,1-.67-3.85c-.15-1.32-.26-2.65-.35-4-.18-2.67-.28-5.36-.41-8-.06-1.35-.12-2.69-.21-4a16.23,16.23,0,0,0-.23-2.06c-.14-.68-.3-1.35-.5-2a30.89,30.89,0,0,0-1.42-3.83c-.27-.62-.57-1.23-.89-1.83a12.54,12.54,0,0,0-1.11-1.75Z"/><polygon class="cls-13" points="32.8 29.82 34.83 30.75 34.22 28.48 33.06 27.93 32.8 29.82"/><path class="cls-2" d="M28.59,28.49l.52-1.1s1.91,1.45,3.71.52c.46-.24.21-.93.21-.93l2.23,2.39-1.91-1,.08,2.34A5.93,5.93,0,0,1,28.59,28.49Z"/><path class="cls-14" d="M33.16,30.86a5,5,0,0,1-.69-.05.14.14,0,0,1-.12-.17.14.14,0,0,1,.16-.12,6.36,6.36,0,0,0,.77,0l-.07-2.2a.15.15,0,0,1,.07-.13.14.14,0,0,1,.14,0l1.55.82a.14.14,0,0,1,.06.2.16.16,0,0,1-.2.06l-1.32-.7.06,2.08a.13.13,0,0,1-.13.15A1,1,0,0,1,33.16,30.86Z"/><path class="cls-9" d="M35.6,39.14c1.73,9.46,1.49,24.93.2,35a20.11,20.11,0,0,1-13.58-1.72c2.06-12,3.13-21,1.1-33.32-.64-4,.53-7.72,3.65-9.8l1.6-1C30.37,28.55,34.07,30.8,35.6,39.14Z"/><path class="cls-4" d="M35.8,48.13a.16.16,0,0,1-.15-.11L32.4,37.26a.12.12,0,0,1,0-.14L33.37,36H31.74a.15.15,0,0,1-.15-.12l-1.37-5.62a.16.16,0,0,1,.11-.19.15.15,0,0,1,.19.12l1.34,5.5h1.83a.15.15,0,0,1,.14.08.15.15,0,0,1,0,.17l-1.1,1.33L36,47.93a.16.16,0,0,1-.11.19Z"/><path class="cls-4" d="M42.05,46.86a.16.16,0,0,1-.16-.15A66.21,66.21,0,0,0,40.1,35.78l-1-.62a.15.15,0,0,1,0-.27l.47-.24A21.32,21.32,0,0,0,36,29.55a.15.15,0,1,1,.22-.21,22.2,22.2,0,0,1,3.73,5.31.14.14,0,0,1-.07.2l-.36.19.84.51a.16.16,0,0,1,.07.09A68.38,68.38,0,0,1,42.2,46.7a.16.16,0,0,1-.15.16Z"/><path class="cls-6" d="M31.52,74.84a21.28,21.28,0,0,1-7.94-1.61.21.21,0,0,1-.12-.27.21.21,0,0,1,.27-.11A19.54,19.54,0,0,0,35.62,74c0-.16.06-.45.11-.77.09-.69.2-1.53.21-1.64a.2.2,0,0,1,.22-.17.2.2,0,0,1,.18.22c0,.11-.13,1-.22,1.64l-.12.91a.19.19,0,0,1-.15.17A18.64,18.64,0,0,1,31.52,74.84Z"/><path class="cls-9" d="M23.43,33.44A3.35,3.35,0,1,0,28,32.14,3.35,3.35,0,0,0,23.43,33.44Z"/><path class="cls-9" d="M13.75,52.55a2.8,2.8,0,1,0,3.81-1.1A2.81,2.81,0,0,0,13.75,52.55Z"/><path class="cls-9" d="M23.62,33.05c1.28-1.28,2.74-1.81,4.36-.91a3.5,3.5,0,0,1,1.51,4.67c-4.21,10.8-8.09,11.95-10.8,18.67-.5,1.24-2.3,1.74-4.11.73a2.83,2.83,0,0,1-1.1-3.4C17.56,39.33,22.39,34.28,23.62,33.05Z"/><path class="cls-7" d="M32.86,64.4a3.06,3.06,0,0,1,2.11.87c.78,1.08,1.23,1,1.14,1.21s-.35.24-.84-.09S32.86,64.4,32.86,64.4Z"/><path class="cls-5" d="M30.15,70.13,40.21,81.35a.58.58,0,0,0,.81.12l8.85-7a.77.77,0,0,0,0-1.08L40,61.45a.6.6,0,0,0-.85-.13L36.4,63.68l-1,.89-.55.48-3.6,3.09-1.05.9A.79.79,0,0,0,30.15,70.13Z"/><path class="cls-14" d="M49.59,73.86a.18.18,0,0,1-.12,0L39.63,62.12s-.09-.07-.13,0l-3.81,3.16a.15.15,0,0,1-.21,0,.14.14,0,0,1,0-.21l3.81-3.17a.39.39,0,0,1,.55.08L49.7,73.61a.16.16,0,0,1,0,.22A.19.19,0,0,1,49.59,73.86Z"/><path class="cls-14" d="M30.86,69.47a.15.15,0,0,1-.09-.27l.67-.56a.15.15,0,0,1,.22,0,.16.16,0,0,1,0,.21l-.68.56A.18.18,0,0,1,30.86,69.47Z"/><path class="cls-7" d="M34.3,65c.68.56,2.25,2.62,1.86,2.83s-1.11-1.45-1.35-1.36,1.56,1.94,1.14,2.26-1.44-1.82-1.73-1.59,1.65,1.5,1.18,1.81-1.81-1.5-2.06-1.34,1,1.16.71,1.41-1.27-1-1.86-1.89-.39-1.61-.82-1.84-.44-.87.07-1.16A5.16,5.16,0,0,1,34.3,65Z"/><path class="cls-15" d="M35.81,66.91a.07.07,0,0,1-.07,0,9.58,9.58,0,0,0-1.5-1.79l-.32-.24a.09.09,0,0,1,0-.12.08.08,0,0,1,.12,0,2.5,2.5,0,0,1,.34.25,9.63,9.63,0,0,1,1.53,1.83.08.08,0,0,1,0,.12Z"/><path class="cls-9" d="M14.3,55.82a2.8,2.8,0,1,0,.29-4A2.8,2.8,0,0,0,14.3,55.82Z"/><path class="cls-9" d="M13.76,54.87l0,.06a3.23,3.23,0,0,0,.85,1.21l.15.12c1.4,1.1,5.27,4.25,16.61,9.6l.1-.15,0,0,.87-1.35,0,0,.12-.19C26.29,58.36,23,54.55,18.09,51.48a2.57,2.57,0,0,0-3.78.66l-.05,0s0,0,0,0a1.09,1.09,0,0,0-.13.17s0,0,0,0l-.08.12a.16.16,0,0,0,0,.07A2.62,2.62,0,0,0,13.76,54.87Z"/><path class="cls-6" d="M24.65,46.31a.2.2,0,0,1-.11,0,.2.2,0,0,1-.05-.28,42.75,42.75,0,0,0,4.81-9.26,3.31,3.31,0,0,0-1.41-4.42,3.22,3.22,0,0,0-1.27-.42.19.19,0,0,1-.18-.21.2.2,0,0,1,.22-.19,3.75,3.75,0,0,1,1.42.46,3.69,3.69,0,0,1,1.6,4.92,43.29,43.29,0,0,1-4.86,9.35A.23.23,0,0,1,24.65,46.31Z"/><path class="cls-6" d="M31.39,66.06a.15.15,0,0,1-.09,0c-2.55-1.21-4.92-2.39-7-3.52a.2.2,0,0,1-.09-.27.21.21,0,0,1,.28-.08c2.05,1.1,4.36,2.26,6.85,3.44l.94-1.46c-1.7-1.58-3.21-3-4.54-4.32-1.11-1.07-2.16-2.08-3.17-3a.2.2,0,0,1,0-.28.21.21,0,0,1,.29,0q1.5,1.41,3.17,3c1.36,1.32,2.9,2.81,4.66,4.43a.2.2,0,0,1,0,.25L31.56,66A.2.2,0,0,1,31.39,66.06Z"/><rect class="cls-2" y="129.02" width="200.98" height="8.35"/><path class="cls-5" d="M90.47,129.3H5.9a.31.31,0,0,1-.32-.28.3.3,0,0,1,.32-.28H90.47a.29.29,0,0,1,.31.28A.3.3,0,0,1,90.47,129.3Z"/><path class="cls-5" d="M111.75,129.3H93.42a.3.3,0,0,1-.31-.28.29.29,0,0,1,.31-.28h18.33a.29.29,0,0,1,.31.28A.3.3,0,0,1,111.75,129.3Z"/><path class="cls-5" d="M192,129.3h-72.7A.3.3,0,0,1,119,129a.3.3,0,0,1,.32-.28H192a.29.29,0,0,1,.31.28A.3.3,0,0,1,192,129.3Z"/><path class="cls-12" d="M152.49,101.05a2.61,2.61,0,1,1-3.33-1.59A2.61,2.61,0,0,1,152.49,101.05Z"/><path class="cls-12" d="M152.2,101.12l-4.63,1.67c1.54,5.06,4.22,12.21,7,19.63h0a4.64,4.64,0,0,1-.65,3.85,7.57,7.57,0,0,1-1.14,1.12c.65,1.19,6.44.38,5.67-2.48A15.51,15.51,0,0,1,157,122.5C155.55,116.34,157.23,105.66,152.2,101.12Z"/><path class="cls-8" d="M158.79,128.74h-8.65v-.14a.72.72,0,0,1,.6-.71,8.54,8.54,0,0,0,2.08-.67c.13.17.46.32,1.23.19,1.46-.25,4.19-1.14,4.39-2.78a4.49,4.49,0,0,0,.23.41C159.49,126.39,158.93,127.65,158.79,128.74Z"/><path class="cls-7" d="M166,103.14a2.61,2.61,0,1,1-3.5-1.17A2.6,2.6,0,0,1,166,103.14Z"/><path class="cls-7" d="M165.69,103.24l-4.4,2.23c2.15,4.83,5.69,11.59,9.36,18.62h0a2.54,2.54,0,0,1-.85,3.11,6.61,6.61,0,0,1-1.26.8c.32,1.31,6.45-.24,5.33-3a3.83,3.83,0,0,1-.84-1.13C170.87,117.93,171.23,107.13,165.69,103.24Z"/><path class="cls-8" d="M174.29,128.74h-6.82v-.14a.69.69,0,0,1,.47-.71,6.88,6.88,0,0,0,1.84-.7.7.7,0,0,0,.78.25c.94-.22,1.36-2.56,3.41-2.5A4.59,4.59,0,0,1,174.29,128.74Z"/><path class="cls-7" d="M170.82,78.66c-3.62,8.45-6.23,15.2-9.62,24.69l4.42,3.32c4.07-11.91,11.63-12.91,13.33-17.86Z"/><path class="cls-12" d="M166.61,81c-7.68,6.44-13.85,10.13-18.49,19.15l2.89,4.7c9.42-5.31,19.58-11.37,23-15.35Z"/><path class="cls-4" d="M169.92,77.91c-3.24,1.86-9.07,4.84-19.28,16.82,0,0,9.22,9.67,17.88,10,0,0,.58-5.07,4.54-7.59,1.86-1.18,9.67-6.25,7.09-15.18C178.25,75.38,174.79,75.1,169.92,77.91Z"/><path class="cls-7" d="M164.11,54.74a1.74,1.74,0,1,1,2.46-.11A1.75,1.75,0,0,1,164.11,54.74Z"/><path class="cls-7" d="M150.67,42.45a1.46,1.46,0,1,1,2.06-.09A1.46,1.46,0,0,1,150.67,42.45Z"/><path class="cls-7" d="M163.68,54.71c1.24.74,2.35.95,3.08.15.86-1,.39-2.27-.61-3.39-6.32-7-8.89-6.72-12.88-11.06a1.82,1.82,0,0,0-2.76.06c-.54.58-.31,1.49.35,2.35C158.85,53.35,162.48,54,163.68,54.71Z"/><path class="cls-7" d="M166.76,54.86c.86-1,.39-2.27-.61-3.39-6.32-7-8.89-6.72-12.88-11.06a1.79,1.79,0,0,0-2.21-.37,1.38,1.38,0,0,0-.49.35l0,0,0,0a1.06,1.06,0,0,0-.28.57,1.46,1.46,0,0,0,.28,1.24,4.12,4.12,0,0,0,.35.54c8,10.53,11.62,11.17,12.82,11.89S166,55.66,166.76,54.86Z"/><path class="cls-3" d="M167.16,55.22a2.25,2.25,0,0,0,.51-.93,3.52,3.52,0,0,0-1.13-3.18A56.18,56.18,0,0,0,158,43.72c-.65.68-2.91,2.74-3.69,3.73,5.33,5.92,7.06,6.56,9.09,7.72S166.56,55.87,167.16,55.22Z"/><path class="cls-5" d="M156.17,49a.19.19,0,0,1-.14,0,.2.2,0,0,1,0-.28l3.24-3.43a.2.2,0,0,1,.28,0,.22.22,0,0,1,0,.29l-3.24,3.42A.2.2,0,0,1,156.17,49Z"/><path class="cls-7" d="M150.18,41.76a1.36,1.36,0,0,1,.94-1.63,1.29,1.29,0,0,1,1.6.91,1.34,1.34,0,0,1-.94,1.62A1.28,1.28,0,0,1,150.18,41.76Z"/><path class="cls-7" d="M149.32,26.44a92.18,92.18,0,0,0,.76,15,1.38,1.38,0,0,0,1.64,1.27,1.74,1.74,0,0,0,1.43-1.85c-.32-4.79-1.57-8.71-2.82-14.43Z"/><path class="cls-16" d="M175.08,79.78a1.76,1.76,0,1,1-2-1.5A1.76,1.76,0,0,1,175.08,79.78Z"/><path class="cls-16" d="M164.51,50.44c-1.61,1.62-2.73,6.05-5.76,8.71,0,0,.21,4.36,3.74,5.07,0,0,5.12,9.75,1.55,16.21,0,0,11.06,4.9,16.6-.41,0,0-5-7-5.15-14.62-.1-4.17-.73-13.53-6.75-16.36C166.87,48.16,165.46,49.49,164.51,50.44Z"/><path class="cls-12" d="M169.43,49.4A11.6,11.6,0,0,1,168.27,45a1.55,1.55,0,0,0-1.57-1.53h0a1.55,1.55,0,0,0-1.1,1.89,11.5,11.5,0,0,1,.05,4.52C165.86,51.2,169.57,50.69,169.43,49.4Z"/><path class="cls-7" d="M163.28,36.64c-2,3.38-.67,7.93-.67,7.93,1.62,5.56,5.8-.38,6.17-1,1-1.55,1.28-4.62,0-6C167.08,36,163.73,35.91,163.28,36.64Z"/><path class="cls-17" d="M162.29,40.44a12,12,0,0,1,1-3.77c0,1.9,1.42,2.14,2.86,2.67,3.09,1.12.79,5.42,1.95,7.59a17.59,17.59,0,0,0,2.39,2.87c.95,1.06,1.63,1.7,1.72,3a27.37,27.37,0,0,0,.95,4.9,7.46,7.46,0,0,0,1.74,3.59,4.17,4.17,0,0,0,3.7,1,2.39,2.39,0,0,0,1.76-1.22,2.69,2.69,0,0,0-.28-2.39c-.41-.72-1-1.33-1.41-2-.83-1.38-.3-2.27,0-3.65s.62-3.17-.2-4.47-2.89-1.95-3.74-3.43c-.7-1.2-.51-1.73-.34-3.11a7,7,0,0,0-3.35-6.59,8.6,8.6,0,0,0-5.88-1,4.92,4.92,0,0,0-2.14.62,4.29,4.29,0,0,0-1.15,2.43,4.66,4.66,0,0,0,0,1.58A8.23,8.23,0,0,0,162.29,40.44Z"/><path class="cls-7" d="M171.39,52.91a1.74,1.74,0,1,1-2.37.65A1.74,1.74,0,0,1,171.39,52.91Z"/><path class="cls-7" d="M187.23,61.9a1.46,1.46,0,1,1-2,.55A1.46,1.46,0,0,1,187.23,61.9Z"/><path class="cls-7" d="M171.82,52.85c-1.38-.45-2.51-.4-3,.53-.63,1.12.12,2.31,1.35,3.17,7.72,5.41,10.16,4.57,15,7.92a1.82,1.82,0,0,0,2.68-.67c.39-.68,0-1.52-.87-2.22C176.83,53.1,173.15,53.28,171.82,52.85Z"/><path class="cls-7" d="M168.78,53.38c-.63,1.12.12,2.31,1.35,3.17,7.72,5.41,10.16,4.57,15,7.92a1.79,1.79,0,0,0,2.24-.13,1.55,1.55,0,0,0,.39-.45l0-.06,0,0a1.15,1.15,0,0,0,.14-.62,1.49,1.49,0,0,0-.55-1.15,4,4,0,0,0-.46-.45c-10.13-8.48-13.81-8.3-15.14-8.73S169.31,52.45,168.78,53.38Z"/><path class="cls-3" d="M168.31,53.12a2.21,2.21,0,0,0-.29,1A3.53,3.53,0,0,0,169.83,57a55.25,55.25,0,0,0,10,5.3c.48-.8,2.22-3.31,2.77-4.45-6.52-4.59-8.35-4.82-10.59-5.5S168.75,52.36,168.31,53.12Z"/><path class="cls-5" d="M178.07,61.22a.17.17,0,0,1-.1,0,.19.19,0,0,1-.07-.27l2.39-4.06a.2.2,0,0,1,.34.2l-2.39,4.06A.21.21,0,0,1,178.07,61.22Z"/><path class="cls-7" d="M153.07,25c-.12-.3-1.19.33-1.3.21-.28-.31,1-2.64.62-2.9s-.64,1.67-1,1.5.67-1.92.26-2.11-.61,1.87-1,1.82.34-1.82-.14-1.87-.46,1.88-.72,1.86,0-1.39-.3-1.39-.3,1.26-.38,2.2a10.77,10.77,0,0,0,.14,2.3.61.61,0,0,0,1.06.35,9.09,9.09,0,0,1,1.15-.85C152.76,25.47,153.16,25.17,153.07,25Z"/><path class="cls-4" d="M166.88,128.73h0a.62.62,0,0,1-.51-.7l4.16-28,1.22.21-4.16,27.93A.62.62,0,0,1,166.88,128.73Z"/><path class="cls-4" d="M187.55,128.73h0a.63.63,0,0,0,.51-.7l-4.16-28-1.22.21,4.15,27.93A.62.62,0,0,0,187.55,128.73Z"/><path class="cls-3" d="M160.48,128.73h0a.62.62,0,0,1-.5-.7l4.15-28,1.22.21-4.15,27.93A.62.62,0,0,1,160.48,128.73Z"/><path class="cls-3" d="M181.16,128.73h0a.62.62,0,0,0,.5-.7l-4.16-28-1.21.21,4.15,27.93A.62.62,0,0,0,181.16,128.73Z"/><path class="cls-5" d="M192.82,66h-5.93a.6.6,0,0,0-.6.48l-6.41,30.58a3.16,3.16,0,0,1-3.07,2.49H161.55a.62.62,0,0,0,0,1.23h21.06a4.39,4.39,0,0,0,4.27-3.46l6.41-30.58A.62.62,0,0,0,192.82,66Z"/><path class="cls-14" d="M176.81,100.91h-1a.13.13,0,0,1-.14-.13.13.13,0,0,1,.14-.13h1A4.27,4.27,0,0,0,181,97.29l6.41-30.58a.46.46,0,0,0-.06-.34.13.13,0,0,1,.05-.18.13.13,0,0,1,.18,0,.73.73,0,0,1,.09.54l-6.41,30.58A4.54,4.54,0,0,1,176.81,100.91Z"/><path class="cls-7" d="M188,63.13a1.35,1.35,0,0,1-1.37,1.28,1.29,1.29,0,0,1-1.27-1.33,1.35,1.35,0,0,1,1.37-1.29A1.29,1.29,0,0,1,188,63.13Z"/><path class="cls-7" d="M184.38,78A91.54,91.54,0,0,0,188,63.49a1.37,1.37,0,0,0-1.2-1.69,1.72,1.72,0,0,0-1.9,1.35c-1.09,4.67-1,8.79-1.51,14.63Z"/><path class="cls-7" d="M185.09,81.29c-.26.17-.45-.26-.6-.21s.11.42-.1.54-.47-.38-.64-.65a3.18,3.18,0,0,1-.43-1.07,3.91,3.91,0,0,1-.1-1.3c.06-.43.18-.82.24-1.14s0-.39.19-.46h0a.41.41,0,0,1,.48.19,4.28,4.28,0,0,0,.72,1,3.17,3.17,0,0,1,1,1.22c.15.27.36.75.19.89s-.25-.08-.34,0,.13.38,0,.49-.33-.1-.47,0S185.32,81.14,185.09,81.29Z"/><path class="cls-7" d="M183.31,78.87a2.35,2.35,0,0,1-.41,1.34c-.25.38-.22.47-.16.53s.32-.07.54-.29a5.52,5.52,0,0,0,.7-.88Z"/><path class="cls-8" d="M113.93,124.54s.31,3.09.28,4.2h-7.66v-.15a.62.62,0,0,1,.51-.61,5.58,5.58,0,0,0,4.9-4.14Z"/><path class="cls-18" d="M127.89,82.79s-8.54,6.85-15,12.53c-.72,2.8-.74,5.27.79,7.05,0,0,6.31-4,8.57-4.41,3.46-.61,12.58,1.39,12.37-14.29Z"/><path class="cls-18" d="M112.49,97.93s.26,18.7-.95,26.38l2.93,1.38c3-7.89,6.17-17.56,4.82-26C118.54,96,115.34,96.83,112.49,97.93Z"/><path class="cls-8" d="M107.92,124.54s.31,3.09.28,4.2h-7.66v-.15a.61.61,0,0,1,.51-.61,5.58,5.58,0,0,0,4.9-4.14Z"/><path class="cls-19" d="M123.91,82.79S112.49,85.3,98.78,93.58a5,5,0,0,0-2.42,3.58c-.22,1.7.48,3.19,2.63,4.38A23.09,23.09,0,0,1,106.78,99c13.15-2,25.39,1.08,23.87-14.85Z"/><path class="cls-19" d="M96.52,99s7.47,18,8.75,25.68l3,.31c.57-8.57.54-21.86-4.26-27.59C102,94.13,99.18,96.85,96.52,99Z"/><path class="cls-9" d="M129.8,51.77c2.86-1.52,6,2.45,7.68,6.65S140,64.31,140,73.64c0,2.13-1.89,2.32-5.82,1.67a128.7,128.7,0,0,0-4.32-13.78C127.28,54.66,128.82,52.29,129.8,51.77Z"/><path class="cls-7" d="M126.32,36.91c-1.16,2.25-3.64,8-1.07,9.63,1.76,1.14,6.09-1,7.07-2.78s3.53-4.1-.59-6.91C128.41,34.59,127,35.68,126.32,36.91Z"/><path class="cls-12" d="M130.2,49.82a8.84,8.84,0,0,1-.4-4,1.43,1.43,0,0,0-1.32-1.57h0A1.42,1.42,0,0,0,127,45.73a9,9,0,0,1-.74,3.92C126.29,50.8,130.12,51,130.2,49.82Z"/><path class="cls-20" d="M135,40a3.54,3.54,0,0,0,0-4.12,6.27,6.27,0,0,0-3-2.57,4.16,4.16,0,0,0,.61,1.78c-2-1.87-.41-3-.41-3s-2.35-1-3.89.22a4.53,4.53,0,0,0-1.5,1.93c-.34.78-.1,2,.45,2.09a3.1,3.1,0,0,1,1.41.55c1.06.77.89,2.1,0,3.21s-1.11,1.3-1.29,2.23h.29a2,2,0,0,1,1-1.1c.45-.16.87.46.34,1.39s-.8.62-1.27,1.25c-.63.86.62,2.56,3,2.85.34-1.76,2.07-2.74,3.4-3.86C135.7,41.56,135.74,40,135,40Z"/><path class="cls-4" d="M128.69,48.8c-5-.65-8.09,6.14-10,14.06a135.54,135.54,0,0,0-3.28,21.57c1,2.4,14,7.36,19.77,5.4,0,0-.85-15.84-.14-24.72S134,49.49,128.69,48.8Z"/><path class="cls-9" d="M127.3,55.92a3,3,0,1,1-.41-4.26A3,3,0,0,1,127.3,55.92Z"/><path class="cls-9" d="M114.47,70.39a2.53,2.53,0,1,1-.35-3.56A2.53,2.53,0,0,1,114.47,70.39Z"/><path class="cls-9" d="M127.57,55.63c.66-1.5.61-2.91-.68-4a3.18,3.18,0,0,0-4.43.28c-7.67,7.12-7.35,10.76-12.09,15.27-.88.84-.7,2.51.75,3.7a2.56,2.56,0,0,0,3.22-.21C124.3,62.8,127,57.07,127.57,55.63Z"/><path class="cls-7" d="M112.39,46.83c-.2-.36-1.45.6-1.61.46-.39-.33.9-3.46.33-3.73s-.55,2.2-1,2,.54-2.51,0-2.7-.48,2.45-1,2.45.14-2.35-.47-2.34-.29,2.44-.61,2.45-.17-1.75-.6-1.69-.17,1.63-.13,2.82a13.48,13.48,0,0,0,.54,2.86.77.77,0,0,0,1.39.28,10.87,10.87,0,0,1,1.3-1.25C112.07,47.51,112.52,47.07,112.39,46.83Z"/><path class="cls-9" d="M110.21,69.82a2.53,2.53,0,1,1,3.34,1.27A2.53,2.53,0,0,1,110.21,69.82Z"/><path class="cls-9" d="M107.86,49.53a76.69,76.69,0,0,0,2.21,19.9,2.5,2.5,0,0,0,3.09,1.8,2.33,2.33,0,0,0,2-2.85c-.63-5.22-3.17-11.81-5.49-19.11Z"/><path class="cls-4" d="M137,128.19l-4.36-29.33,1.28-.22L138.33,128a.66.66,0,0,1-.53.74h0A.66.66,0,0,1,137,128.19Z"/><path class="cls-4" d="M119.39,128.73h0a.64.64,0,0,1-.53-.74l4.36-29.35,1.28.22-4.36,29.33A.64.64,0,0,1,119.39,128.73Z"/><path class="cls-3" d="M107.83,128.73h0a.66.66,0,0,1-.54-.74l4.37-29.35,1.28.22-4.36,29.33A.65.65,0,0,1,107.83,128.73Z"/><path class="cls-3" d="M125.48,128.19l-4.36-29.33,1.28-.22L126.77,128a.66.66,0,0,1-.53.74h0A.66.66,0,0,1,125.48,128.19Z"/><path class="cls-5" d="M143.47,62.89a.27.27,0,0,0-.13,0H131.58a.66.66,0,0,0-.64.51l-6.73,32.11A3.31,3.31,0,0,1,121,98.1H109a.64.64,0,0,0-.65.64.65.65,0,0,0,.65.65h23.8a4.61,4.61,0,0,0,4.49-3.63L144,63.65A.65.65,0,0,0,143.47,62.89Z"/><path class="cls-14" d="M121,99.53h-1a.14.14,0,0,1,0-.28h1a4.46,4.46,0,0,0,4.35-3.52l6.74-32.11a.51.51,0,0,0-.07-.36.15.15,0,0,1,.05-.19.13.13,0,0,1,.19,0,.74.74,0,0,1,.1.56l-6.73,32.1A4.77,4.77,0,0,1,121,99.53Z"/></g></g></svg>